<?xml version="1.0" encoding="utf-8"?><svg xmlns="http://www.w3.org/2000/svg" xmlns:xlink="http://www.w3.org/1999/xlink"><defs><svg fill="none" viewBox="0 0 161 161" id="app-delivery-performance-tool"><path fill-rule="evenodd" clip-rule="evenodd" d="M30.214 30.61v100.001h100v-100h-100zm-22-30a8 8 0 00-8 8v144.001a8 8 0 008 8h144a8 8 0 008-8v-144a8 8 0 00-8-8h-144z" fill="#477079" fill-opacity=".7"/><path fill-rule="evenodd" clip-rule="evenodd" d="M30.214 30.61v100.001h100v-100h-100zm-22-30a8 8 0 00-8 8v144.001a8 8 0 008 8h144a8 8 0 008-8v-144a8 8 0 00-8-8h-144z" fill="url(#apaint0_linear)"/><path d="M136.909 130.442l-14.493-24.764V43.345A12.911 12.911 0 00109.471 30.4H32.644A12.911 12.911 0 0019.7 43.344v62.333L5.206 130.442c-2.814 4.784.704 10.835 6.192 10.835h119.179c5.628 0 9.146-6.051 6.332-10.835zM31.519 43.345c0-.704.563-1.126 1.125-1.126h76.827c.703 0 1.125.563 1.125 1.126V96.39H31.519V43.345zm57.127 78.514H53.469a4.083 4.083 0 01-4.08-4.08 4.083 4.083 0 014.08-4.081h35.036a4.083 4.083 0 014.08 4.081c.142 2.251-1.688 4.08-3.94 4.08z" fill="#1F3239"/><path fill-rule="evenodd" clip-rule="evenodd" d="M51.596 56.74c.9-.36 1.8.18 1.98 1.08.18.9-.36 1.8-1.26 1.98-3.42.9-5.941 3.602-6.841 6.842-.18.72-.9 1.26-1.62 1.26h-.36c-.72-.18-1.261-1.08-1.081-1.98 1.26-4.5 4.681-7.922 9.182-9.182zm-3.24 12.603c0-3.6 3.06-6.662 6.661-6.662 3.601 0 6.662 3.061 6.662 6.662 0 3.6-3.061 6.662-6.662 6.662-3.6 0-6.662-3.061-6.662-6.662zm3.42 0c0 1.8 1.44 3.24 3.241 3.24 1.8 0 3.24-1.44 3.24-3.24 0-1.8-1.44-3.24-3.24-3.24-1.8 0-3.24 1.44-3.24 3.24z" fill="#30C6AB"/><path d="M63.43 51.577c-2.554-1.263-5.418-2.039-8.593-2.039-10.803 0-19.625 8.823-19.625 19.625 0 10.803 8.822 19.625 19.625 19.625 3.021 0 5.886-.782 8.594-2.055v-3.448c-2.536 1.374-5.475 2.263-8.414 2.263a16.137 16.137 0 01-16.204-16.205A16.137 16.137 0 0155.017 53.14c3.1 0 5.905.888 8.414 2.394v-3.956z" fill="#137C69"/><path d="M63.14 52.518a2 2 0 012-2h34.451a2 2 0 012 2v33.29a2 2 0 01-2 2h-34.45a2 2 0 01-2-2v-33.29z" fill="#30C6AB"/><path d="M87.116 68.182a1 1 0 01-1-1v-5.5a1 1 0 00-1-1h-5.5a1 1 0 00-1 1v5.5a1 1 0 01-1 1h-3.39c-.884 0-1.333 1.061-.72 1.696l8.141 8.411a1 1 0 001.438 0l8.14-8.411c.614-.635.165-1.696-.718-1.696h-3.391z" fill="#137C69"/><path d="M87.116 68.182a1 1 0 01-1-1v-5.5a1 1 0 00-1-1h-5.5a1 1 0 00-1 1v5.5a1 1 0 01-1 1h-3.39c-.884 0-1.333 1.061-.72 1.696l8.141 8.411a1 1 0 001.438 0l8.14-8.411c.614-.635.165-1.696-.718-1.696h-3.391z" fill="url(#apaint1_linear)" fill-opacity=".33"/><path d="M49.16 117.68a4.265 4.265 0 014.266-4.265h34.881a4.265 4.265 0 110 8.531H53.426a4.266 4.266 0 01-4.266-4.266z" fill="#137C69"/><path fill-rule="evenodd" clip-rule="evenodd" d="M31.34 109.668a5 5 0 00-4.225 2.326l-6.993 11.05c-2.107 3.329.285 7.674 4.225 7.674h92.941c3.793 0 6.205-4.059 4.391-7.39l-6.014-11.05a5 5 0 00-4.392-2.61H31.34zm-5.915 1.257a7 7 0 015.915-3.257h79.933a6.999 6.999 0 016.148 3.654l6.015 11.05c2.539 4.664-.838 10.346-6.148 10.346H24.347c-5.516 0-8.865-6.083-5.915-10.744l6.993-11.049z" fill="#436871"/><defs><linearGradient id="apaint0_linear" x1="80.214" y1=".611" x2="80.214" y2="160.611" gradientUnits="userSpaceOnUse"><stop stop-color="#3C5A63" stop-opacity="0"/><stop offset=".76" stop-color="#37535B"/></linearGradient><linearGradient id="apaint1_linear" x1="82.366" y1="60.682" x2="82.366" y2="78.594" gradientUnits="userSpaceOnUse"><stop stop-color="#1F3239"/><stop offset="1" stop-color="#1F3239" stop-opacity="0"/></linearGradient></defs></svg><svg fill="none" viewBox="0 0 180 161" id="attract-new-users"><path fill="#BAD0DB" fill-rule="evenodd" d="M30.655 30.159v100h100v-100h-100zm-22-30a8 8 0 00-8 8v144a8 8 0 008 8h144a8 8 0 008-8v-144a8 8 0 00-8-8h-144z" clip-rule="evenodd"/><path fill="url(#bpaint0_linear)" fill-rule="evenodd" d="M30.655 30.159v100h100v-100h-100zm-22-30a8 8 0 00-8 8v144a8 8 0 008 8h144a8 8 0 008-8v-144a8 8 0 00-8-8h-144z" clip-rule="evenodd"/><path fill="#89A8B7" fill-rule="evenodd" d="M41.449 84.126c-.003-5.557 4.45-10.515 9.758-10.515 5.309 0 9.715 4.979 9.711 10.538-.002 3.567-1.836 6.876-4.546 8.794 4.373 1.457 7.435 4.692 9.46 8.265 1.535 2.71 2.547 5.636 3.305 8.241.758-2.607 1.791-5.529 3.33-8.241 2.028-3.573 5.082-6.808 9.46-8.265-2.711-1.923-4.522-5.253-4.524-8.817-.002-5.557 4.425-10.515 9.734-10.515 5.308 0 9.74 4.979 9.735 10.538-.002 3.567-1.836 6.876-4.546 8.794 4.373 1.457 7.435 4.692 9.459 8.265 1.537 2.711 2.556 5.63 3.311 8.238.76-2.608 1.785-5.526 3.324-8.238 2.027-3.573 5.083-6.808 9.46-8.265-2.71-1.923-4.544-5.253-4.546-8.817-.002-5.557 4.448-10.515 9.757-10.515 5.309 0 9.717 4.979 9.713 10.538-.003 3.567-1.836 6.876-4.546 8.794 4.373 1.457 7.435 4.692 9.459 8.265 1.535 2.71 2.547 5.636 3.306 8.241.757-2.607 1.789-5.529 3.328-8.241 2.028-3.573 5.082-6.808 9.459-8.265-2.71-1.923-4.521-5.253-4.523-8.817-.003-5.557 4.426-10.515 9.735-10.515 5.309 0 9.738 4.979 9.734 10.538-.003 3.567-1.836 6.876-4.546 8.794 4.373 1.457 7.435 4.692 9.459 8.265 2.343 4.136 3.507 8.781 4.316 12.013.14.557.268 1.071.391 1.533l-2.8.758c-.123-.464-.25-.965-.385-1.495-.83-3.265-1.945-7.656-4.046-11.363-2.442-4.31-5.941-7.6-12.123-7.6-6.181 0-9.677 3.29-12.123 7.6-2.12 3.737-3.252 8.169-4.087 11.441-.128.502-.249.976-.366 1.417h-2.824c-.123-.464-.25-.965-.385-1.495-.83-3.265-1.946-7.656-4.046-11.363-2.442-4.31-5.918-7.6-12.1-7.6-6.182 0-9.7 3.29-12.146 7.6-2.12 3.737-3.252 8.169-4.087 11.441-.128.502-.249.976-.366 1.417h-2.802c-.123-.464-.25-.965-.385-1.495-.829-3.265-1.945-7.656-4.045-11.363-2.442-4.31-5.941-7.6-12.123-7.6-6.182 0-9.675 3.29-12.121 7.6-2.123 3.74-3.255 8.175-4.09 11.447-.129.5-.25.972-.365 1.411h-2.823c-.123-.462-.25-.961-.384-1.489-.83-3.265-1.947-7.659-4.048-11.369-2.442-4.31-5.917-7.6-12.099-7.6s-9.7 3.29-12.146 7.6c-2.122 3.74-3.254 8.175-4.09 11.447-.128.5-.248.972-.364 1.411l-2.8-.758c.117-.445.241-.939.376-1.472.814-3.235 1.991-7.913 4.353-12.074 2.027-3.573 5.082-6.808 9.459-8.265-2.71-1.923-4.544-5.253-4.546-8.817zm16.508 0c.002-3.908-3.425-7.53-6.75-7.53s-6.776 3.623-6.774 7.53c.002 3.904 3.452 7.554 6.774 7.554s6.747-3.65 6.75-7.554zm35.931 0c.003-3.908-3.426-7.53-6.751-7.53s-6.775 3.623-6.773 7.53c.002 3.904 3.45 7.554 6.773 7.554 3.322 0 6.748-3.65 6.751-7.554zm35.953 0c.002-3.908-3.425-7.53-6.75-7.53s-6.774 3.623-6.773 7.53c.002 3.904 3.451 7.554 6.773 7.554 3.322 0 6.747-3.65 6.75-7.554zm35.931 0c.003-3.908-3.425-7.53-6.75-7.53-3.324 0-6.774 3.623-6.772 7.53.002 3.904 3.45 7.554 6.772 7.554 3.323 0 6.748-3.65 6.75-7.554zM41.655 111.632c-.002-5.558 4.427-10.538 9.736-10.538 5.308 0 9.737 4.979 9.733 10.538-.002 3.567-1.836 6.876-4.546 8.794 4.373 1.457 7.435 4.692 9.46 8.265 1.536 2.712 2.571 5.636 3.33 8.243.757-2.606 1.768-5.534 3.305-8.243 2.028-3.573 5.083-6.808 9.46-8.265-2.711-1.923-4.522-5.23-4.524-8.794-.002-5.558 4.427-10.538 9.736-10.538 5.308 0 9.714 4.979 9.71 10.538-.002 3.567-1.813 6.876-4.523 8.794 4.374 1.457 7.435 4.692 9.46 8.265 1.532 2.705 2.551 5.617 3.305 8.22.754-2.603 1.771-5.515 3.306-8.22 2.028-3.573 5.107-6.808 9.484-8.265-2.711-1.923-4.545-5.23-4.546-8.794-.003-5.558 4.425-10.538 9.733-10.538 5.309 0 9.74 4.979 9.736 10.538-.003 3.567-1.836 6.876-4.546 8.794 4.373 1.457 7.435 4.692 9.459 8.265 1.536 2.712 2.57 5.636 3.329 8.243.757-2.606 1.768-5.534 3.305-8.243 2.028-3.573 5.082-6.808 9.459-8.265-2.71-1.923-4.521-5.23-4.523-8.794-.002-5.558 4.427-10.538 9.736-10.538 5.308 0 9.714 4.979 9.711 10.538-.003 3.567-1.812 6.876-4.522 8.794 4.373 1.457 7.435 4.692 9.459 8.265 2.342 4.133 3.505 8.777 4.314 12.008.139.558.268 1.074.391 1.538l-2.8.758c-.123-.464-.25-.965-.385-1.495-.829-3.265-1.945-7.656-4.046-11.363-2.441-4.31-5.941-7.6-12.122-7.6-6.182 0-9.7 3.29-12.146 7.6-2.101 3.703-3.215 8.088-4.043 11.351-.136.535-.264 1.04-.388 1.507h-2.824c-.123-.464-.25-.965-.385-1.495-.83-3.265-1.945-7.656-4.046-11.363-2.442-4.31-5.941-7.6-12.123-7.6-6.181 0-9.675 3.29-12.121 7.6-2.122 3.739-3.255 8.175-4.09 11.447-.128.5-.248.972-.365 1.411h-2.8c-.122-.462-.249-.961-.383-1.489-.83-3.265-1.947-7.659-4.05-11.369-2.44-4.31-5.939-7.6-12.12-7.6-6.182 0-9.7 3.29-12.146 7.6-2.103 3.705-3.217 8.094-4.046 11.357-.135.533-.263 1.036-.386 1.501h-2.823c-.122-.462-.25-.961-.383-1.489-.83-3.265-1.948-7.659-4.05-11.369-2.441-4.31-5.939-7.6-12.12-7.6-6.182 0-9.677 3.29-12.123 7.6-2.121 3.737-3.252 8.169-4.088 11.441-.128.502-.249.976-.366 1.417l-2.801-.758c.123-.465.252-.983.393-1.544.808-3.232 1.969-7.871 4.313-12.002 2.028-3.573 5.105-6.808 9.482-8.265-2.71-1.923-4.544-5.23-4.546-8.794zm16.485 0c.003-3.908-3.425-7.553-6.75-7.553-3.324 0-6.751 3.646-6.75 7.553.003 3.904 3.428 7.531 6.75 7.531 3.323 0 6.748-3.627 6.75-7.531zm35.954 0c.003-3.908-3.424-7.553-6.75-7.553-3.324 0-6.775 3.646-6.773 7.553.001 3.904 3.451 7.531 6.774 7.531 3.322 0 6.747-3.627 6.75-7.531zm35.93 0c.003-3.908-3.425-7.553-6.75-7.553-3.324 0-6.751 3.646-6.749 7.553.001 3.904 3.427 7.531 6.749 7.531 3.323 0 6.748-3.627 6.75-7.531zm35.954 0c.003-3.908-3.424-7.553-6.749-7.553-3.325 0-6.775 3.646-6.773 7.553.002 3.904 3.45 7.531 6.773 7.531 3.322 0 6.747-3.627 6.749-7.531z" clip-rule="evenodd"/><path fill="#89A7B7" fill-rule="evenodd" d="M31.806 114.754c.118-.445.243-.939.377-1.472.814-3.235 1.991-7.913 4.353-12.074 1.91-3.367 4.733-6.433 8.715-7.995.243-.096.491-.186.744-.27a10.185 10.185 0 01-.625-.48c-2.364-1.97-3.92-5.054-3.921-8.337-.002-5.557 4.45-10.515 9.758-10.515 5.309 0 9.715 4.979 9.711 10.538-.002 3.285-1.557 6.35-3.92 8.314a9.98 9.98 0 01-.626.48c.253.084.5.174.745.27 3.978 1.562 6.807 4.628 8.714 7.995 1.314 2.318 2.245 4.795 2.96 7.094.122.388.237.771.346 1.147.11-.376.224-.759.346-1.146.72-2.3 1.667-4.775 2.984-7.095 1.91-3.367 4.734-6.433 8.715-7.995.244-.096.492-.186.744-.27a10.09 10.09 0 01-.624-.481c-2.361-1.97-3.897-5.053-3.899-8.336-.002-5.557 4.425-10.515 9.734-10.515 5.308 0 9.74 4.979 9.735 10.538-.002 3.285-1.557 6.35-3.92 8.314a9.98 9.98 0 01-.626.48c.253.084.501.174.745.27 3.978 1.562 6.807 4.628 8.714 7.995 1.315 2.32 2.251 4.791 2.967 7.09.12.388.235.771.344 1.148.11-.376.225-.759.347-1.147.72-2.299 1.66-4.771 2.977-7.091 1.91-3.367 4.734-6.433 8.716-7.995.244-.096.492-.186.744-.27a10.279 10.279 0 01-.625-.48c-2.363-1.97-3.919-5.054-3.92-8.337-.003-5.557 4.447-10.515 9.756-10.515s9.717 4.979 9.713 10.538c-.003 3.285-1.558 6.35-3.92 8.314a10.28 10.28 0 01-.626.48c.252.084.5.174.744.27 3.979 1.562 6.807 4.628 8.715 7.995 1.313 2.318 2.244 4.795 2.96 7.094.121.388.236.771.346 1.147.109-.376.224-.759.345-1.146.721-2.3 1.666-4.775 2.983-7.095 1.911-3.367 4.733-6.433 8.715-7.995.244-.096.492-.186.744-.27a9.96 9.96 0 01-.624-.481c-2.361-1.97-3.897-5.053-3.899-8.336-.003-5.557 4.427-10.515 9.735-10.515 5.309 0 9.738 4.979 9.734 10.538-.002 3.285-1.557 6.35-3.92 8.314a9.98 9.98 0 01-.626.48c.253.084.501.174.745.27 3.978 1.562 6.807 4.628 8.714 7.995 2.343 4.135 3.507 8.781 4.316 12.013.14.556.269 1.071.391 1.533l-2.8.758c-.055-.206-.11-.419-.167-.639l-.218-.855v-.001c-.83-3.265-1.945-7.656-4.046-11.363-2.442-4.31-5.941-7.6-12.123-7.6-6.181 0-9.677 3.29-12.122 7.6-2.121 3.737-3.253 8.169-4.088 11.441-.128.502-.249.976-.366 1.417h-2.824c-.123-.464-.25-.965-.385-1.495-.83-3.265-1.946-7.656-4.046-11.363-2.442-4.31-5.918-7.6-12.1-7.6-6.182 0-9.7 3.29-12.146 7.6-2.12 3.737-3.252 8.169-4.087 11.441-.128.501-.249.976-.366 1.417h-2.802c-.122-.463-.25-.964-.384-1.494l-.001-.001c-.829-3.265-1.945-7.656-4.045-11.363-2.442-4.31-5.941-7.6-12.123-7.6-6.182 0-9.675 3.29-12.121 7.6-2.123 3.739-3.255 8.175-4.09 11.447l-.001.001c-.128.499-.248.971-.364 1.41h-2.823c-.123-.462-.25-.96-.384-1.489-.83-3.265-1.947-7.659-4.048-11.369-2.442-4.31-5.917-7.6-12.099-7.6s-9.7 3.29-12.145 7.6c-2.123 3.739-3.255 8.175-4.091 11.447l-.198.772c-.056.22-.112.433-.166.639l-2.8-.758zm133.726-22.019c3.981 1.67 6.807 4.786 8.711 8.147 2.388 4.214 3.569 8.931 4.376 12.154l.007.025c.139.557.267 1.067.388 1.524l.168.635-4.074 1.102-.17-.641c-.123-.464-.25-.965-.384-1.491l-.003-.011c-.833-3.277-1.93-7.582-3.98-11.199-1.192-2.104-2.617-3.915-4.462-5.2-1.835-1.28-4.122-2.066-7.087-2.066-2.964 0-5.25.786-7.085 2.066-1.844 1.285-3.27 3.096-4.463 5.2-2.071 3.648-3.184 7.993-4.022 11.278-.128.501-.25.979-.368 1.423l-.13.491h-3.84l-.13-.491c-.124-.467-.252-.971-.386-1.5l-.001-.002c-.833-3.277-1.93-7.582-3.98-11.199-1.192-2.105-2.613-3.915-4.452-5.2-1.829-1.28-4.11-2.066-7.074-2.066-2.965 0-5.256.786-7.097 2.066-1.85 1.286-3.281 3.097-4.475 5.2-2.07 3.648-3.183 7.993-4.021 11.278-.128.501-.25.979-.368 1.423l-.13.491h-3.818l-.13-.491c-.123-.466-.251-.968-.385-1.496l-.001-.006c-.833-3.277-1.931-7.582-3.98-11.199-1.192-2.104-2.618-3.915-4.463-5.2-1.835-1.28-4.122-2.066-7.086-2.066-2.965 0-5.25.786-7.084 2.065-1.844 1.286-3.27 3.097-4.463 5.201-2.072 3.65-3.186 7.999-4.025 11.285l-.001.003c-.127.498-.248.972-.365 1.413l-.13.491h-3.84l-.13-.491c-.122-.465-.25-.966-.384-1.493v-.002c-.834-3.279-1.933-7.586-3.984-11.206-1.192-2.105-2.612-3.915-4.45-5.201-1.83-1.279-4.11-2.065-7.074-2.065-2.965 0-5.256.786-7.097 2.066-1.85 1.286-3.281 3.097-4.474 5.2-2.072 3.65-3.187 7.999-4.026 11.285v.002c-.127.498-.248.972-.365 1.414l-.17.641L31 115.22l.168-.635c.117-.441.24-.93.375-1.464l.006-.025c.812-3.226 2.007-7.974 4.413-12.214 1.907-3.361 4.728-6.478 8.713-8.148-2.356-2.096-3.884-5.25-3.886-8.608-.003-5.868 4.693-11.175 10.418-11.175 5.73 0 10.375 5.334 10.371 11.198-.002 3.36-1.53 6.498-3.884 8.586 3.98 1.67 6.807 4.786 8.712 8.147 1.176 2.076 2.048 4.268 2.732 6.34.692-2.073 1.577-4.263 2.755-6.34 1.908-3.362 4.729-6.479 8.714-8.148-2.353-2.097-3.862-5.253-3.864-8.608-.002-5.866 4.667-11.175 10.394-11.175 5.728 0 10.4 5.332 10.395 11.198-.002 3.36-1.53 6.498-3.884 8.586 3.98 1.67 6.807 4.786 8.712 8.147 1.176 2.077 2.052 4.264 2.738 6.336.69-2.072 1.569-4.259 2.748-6.336 1.907-3.362 4.73-6.479 8.714-8.148-2.355-2.096-3.884-5.25-3.885-8.608-.003-5.868 4.691-11.175 10.416-11.175 5.73 0 10.377 5.334 10.373 11.198-.003 3.36-1.531 6.498-3.885 8.586 3.981 1.67 6.807 4.786 8.712 8.147 1.176 2.076 2.048 4.268 2.733 6.34.691-2.073 1.575-4.263 2.753-6.34 1.908-3.362 4.729-6.479 8.713-8.148-2.352-2.097-3.861-5.253-3.863-8.608-.003-5.866 4.668-11.175 10.395-11.175 5.729 0 10.399 5.332 10.394 11.198-.002 3.36-1.531 6.498-3.884 8.586zm-133.52 49.502c.124-.465.253-.983.394-1.543.808-3.232 1.969-7.872 4.313-12.003 1.91-3.367 4.754-6.434 8.738-7.995.244-.096.492-.186.744-.27a10.16 10.16 0 01-.625-.481c-2.364-1.966-3.92-5.03-3.92-8.313-.003-5.558 4.426-10.538 9.735-10.538 5.308 0 9.737 4.979 9.733 10.538-.002 3.285-1.557 6.351-3.92 8.314-.203.168-.411.328-.626.48.253.084.501.174.745.27 3.979 1.562 6.807 4.628 8.714 7.995 1.315 2.32 2.263 4.796 2.984 7.096.122.388.237.771.347 1.147.109-.376.224-.759.345-1.147.715-2.3 1.645-4.778 2.96-7.096 1.91-3.367 4.734-6.434 8.715-7.995.244-.096.492-.186.744-.27a10.064 10.064 0 01-.625-.481c-2.36-1.966-3.896-5.031-3.898-8.313-.002-5.558 4.427-10.538 9.736-10.538 5.308 0 9.714 4.979 9.71 10.538a10.926 10.926 0 01-3.897 8.313 9.976 9.976 0 01-.625.481c.252.084.5.174.744.27 3.979 1.562 6.807 4.628 8.715 7.995 1.31 2.313 2.245 4.777 2.96 7.07.121.389.236.773.345 1.15.11-.377.225-.761.346-1.15.714-2.293 1.648-4.757 2.96-7.07 1.911-3.367 4.755-6.434 8.739-7.995.244-.096.492-.186.745-.27a10.297 10.297 0 01-.626-.481c-2.363-1.966-3.919-5.03-3.92-8.313-.003-5.558 4.425-10.538 9.733-10.538 5.309 0 9.74 4.979 9.736 10.538-.003 3.285-1.558 6.351-3.92 8.314-.203.168-.412.328-.626.48.252.084.501.174.745.27 3.978 1.562 6.807 4.628 8.714 7.995 1.315 2.32 2.261 4.796 2.982 7.096.122.388.237.771.347 1.147.109-.376.224-.759.344-1.148.716-2.299 1.646-4.777 2.961-7.095 1.911-3.367 4.734-6.434 8.715-7.995.244-.096.492-.186.744-.27a10.277 10.277 0 01-.625-.481c-2.36-1.966-3.896-5.031-3.898-8.313-.002-5.558 4.427-10.538 9.736-10.538 5.308 0 9.714 4.979 9.711 10.538a10.929 10.929 0 01-3.896 8.313c-.203.169-.412.329-.626.481.253.084.501.174.745.27 3.978 1.562 6.807 4.628 8.714 7.995 2.342 4.133 3.505 8.777 4.314 12.008.139.558.268 1.074.391 1.538l-2.8.758a309.198 309.198 0 01-.385-1.494v-.001c-.829-3.265-1.945-7.656-4.046-11.363-2.441-4.31-5.941-7.6-12.122-7.6-6.182 0-9.7 3.29-12.146 7.6-2.101 3.703-3.215 8.088-4.043 11.351-.136.535-.264 1.04-.387 1.507h-2.825c-.123-.464-.25-.965-.385-1.495-.83-3.265-1.945-7.656-4.046-11.363-2.441-4.31-5.941-7.6-12.123-7.6-6.181 0-9.675 3.29-12.121 7.6-2.122 3.739-3.255 8.175-4.09 11.447-.128.5-.248.972-.365 1.411h-2.8c-.122-.462-.249-.961-.383-1.489-.83-3.265-1.947-7.659-4.05-11.369-2.44-4.31-5.939-7.6-12.12-7.6-6.182 0-9.7 3.29-12.146 7.6-2.103 3.705-3.217 8.094-4.046 11.357-.135.533-.263 1.036-.386 1.501h-2.823c-.122-.462-.249-.96-.383-1.488-.83-3.265-1.948-7.66-4.05-11.37-2.441-4.31-5.939-7.6-12.12-7.6-6.182 0-9.677 3.29-12.123 7.6-2.121 3.737-3.252 8.169-4.088 11.441l-.199.778-.166.639-2.802-.758zm133.727-22.019c3.981 1.669 6.808 4.785 8.712 8.147 2.387 4.212 3.567 8.926 4.374 12.149l.006.025c.14.559.268 1.071.389 1.529l.168.635-4.074 1.102-.17-.641a133.19 133.19 0 01-.386-1.501l-.001-.001c-.832-3.278-1.93-7.582-3.98-11.2-1.192-2.103-2.617-3.914-4.462-5.199-1.835-1.28-4.122-2.066-7.086-2.066-2.965 0-5.257.786-7.097 2.066-1.85 1.286-3.282 3.097-4.475 5.2-2.05 3.613-3.146 7.911-3.977 11.187l-.001.003c-.135.533-.264 1.041-.388 1.511l-.131.491h-3.84l-.13-.491c-.124-.467-.252-.97-.386-1.499l-.001-.003c-.833-3.277-1.93-7.582-3.98-11.2-1.192-2.103-2.617-3.914-4.462-5.199-1.835-1.28-4.122-2.066-7.087-2.066-2.964 0-5.249.786-7.084 2.065-1.843 1.286-3.269 3.097-4.463 5.201-2.071 3.65-3.186 7.999-4.025 11.285-.127.498-.249.974-.366 1.416l-.13.491h-3.816l-.13-.491c-.123-.465-.25-.966-.384-1.492l-.001-.003c-.833-3.279-1.932-7.586-3.983-11.207-1.192-2.103-2.617-3.914-4.462-5.2-1.835-1.279-4.12-2.065-7.085-2.065s-5.257.786-7.097 2.066c-1.85 1.286-3.282 3.097-4.475 5.2-2.052 3.615-3.148 7.917-3.98 11.193v.003c-.136.531-.264 1.036-.388 1.505l-.13.491h-3.84l-.13-.491c-.122-.465-.25-.966-.383-1.492l-.001-.003c-.833-3.279-1.932-7.586-3.983-11.207-1.192-2.103-2.617-3.914-4.462-5.2-1.835-1.279-4.121-2.065-7.085-2.065-2.965 0-5.25.786-7.085 2.065-1.845 1.286-3.27 3.097-4.464 5.201-2.07 3.647-3.184 7.993-4.022 11.278-.128.501-.25.979-.367 1.423l-.17.641-4.077-1.102.169-.635c.122-.46.25-.974.39-1.535l.007-.025c.806-3.223 1.984-7.934 4.373-12.143 1.909-3.363 4.749-6.479 8.735-8.148-2.354-2.091-3.883-5.227-3.885-8.585-.002-5.864 4.667-11.198 10.396-11.198 5.728 0 10.397 5.332 10.393 11.198-.002 3.36-1.53 6.497-3.884 8.586 3.98 1.669 6.807 4.786 8.712 8.147 1.176 2.077 2.062 4.268 2.754 6.341.683-2.072 1.555-4.265 2.733-6.341 1.908-3.362 4.729-6.478 8.713-8.148-2.351-2.093-3.861-5.229-3.863-8.585-.002-5.864 4.667-11.198 10.396-11.198 5.73 0 10.375 5.334 10.37 11.198-.002 3.357-1.51 6.496-3.861 8.586 3.98 1.669 6.807 4.785 8.712 8.147 1.172 2.069 2.046 4.248 2.731 6.313.684-2.065 1.558-4.244 2.732-6.313 1.909-3.363 4.75-6.479 8.737-8.148-2.354-2.091-3.884-5.227-3.885-8.585-.003-5.864 4.665-11.198 10.393-11.198 5.729 0 10.4 5.332 10.396 11.198-.003 3.36-1.531 6.497-3.884 8.586 3.789 1.607 6.807 4.786 8.711 8.147 1.177 2.077 2.061 4.267 2.753 6.341.683-2.072 1.555-4.265 2.733-6.341 1.908-3.362 4.729-6.478 8.713-8.148-2.351-2.093-3.861-5.229-3.863-8.585-.002-5.864 4.667-11.198 10.396-11.198 5.73 0 10.374 5.334 10.371 11.198-.003 3.357-1.51 6.496-3.861 8.586zM55.342 79.341c-1.184-1.298-2.707-2.085-4.135-2.085s-2.957.787-4.148 2.086c-1.185 1.293-1.967 3.022-1.966 4.784 0 1.761.783 3.497 1.97 4.796 1.19 1.306 2.719 2.098 4.144 2.098 1.425 0 2.946-.791 4.131-2.096 1.18-1.3 1.958-3.035 1.959-4.798.001-1.764-.775-3.493-1.955-4.785zm35.931 0c-1.185-1.298-2.708-2.085-4.136-2.085s-2.957.787-4.147 2.086c-1.185 1.293-1.966 3.021-1.966 4.784.001 1.761.783 3.497 1.969 4.796 1.191 1.306 2.719 2.098 4.144 2.098 1.424 0 2.946-.791 4.132-2.096 1.18-1.3 1.958-3.035 1.96-4.798 0-1.764-.776-3.493-1.956-4.785zm35.953 0c-1.184-1.298-2.707-2.085-4.135-2.085s-2.957.787-4.147 2.086c-1.185 1.293-1.966 3.021-1.965 4.784 0 1.761.782 3.497 1.968 4.796 1.191 1.306 2.719 2.098 4.144 2.098 1.425 0 2.946-.791 4.131-2.096 1.18-1.3 1.958-3.035 1.959-4.798.001-1.764-.776-3.493-1.955-4.785zm35.932 0c-1.185-1.298-2.708-2.085-4.136-2.085s-2.956.787-4.147 2.086c-1.185 1.293-1.966 3.021-1.965 4.784.001 1.761.783 3.497 1.968 4.796 1.192 1.306 2.719 2.098 4.144 2.098 1.425 0 2.946-.791 4.132-2.096 1.179-1.3 1.957-3.035 1.958-4.798.001-1.764-.775-3.493-1.954-4.785zM55.525 106.834c-1.185-1.304-2.708-2.095-4.134-2.095-1.427 0-2.95.791-4.134 2.095-1.18 1.298-1.957 3.033-1.956 4.798 0 1.762.778 3.492 1.957 4.785 1.185 1.299 2.706 2.086 4.133 2.086 1.426 0 2.947-.787 4.132-2.086 1.179-1.293 1.956-3.023 1.957-4.786.002-1.764-.775-3.499-1.955-4.797zm35.954 0c-1.185-1.304-2.708-2.095-4.134-2.095-1.427 0-2.956.792-4.147 2.096-1.186 1.299-1.968 3.034-1.967 4.797 0 1.761.783 3.49 1.968 4.784 1.19 1.299 2.72 2.087 4.146 2.087 1.426 0 2.947-.787 4.132-2.086 1.179-1.293 1.956-3.023 1.957-4.786.002-1.764-.775-3.499-1.955-4.797zm35.93 0c-1.185-1.304-2.708-2.095-4.135-2.095-1.426 0-2.948.791-4.133 2.095-1.18 1.298-1.957 3.033-1.956 4.798.001 1.762.778 3.492 1.957 4.785 1.185 1.299 2.706 2.086 4.132 2.086 1.427 0 2.948-.787 4.133-2.086 1.179-1.293 1.956-3.023 1.957-4.786.001-1.764-.775-3.499-1.955-4.797zm35.954 0c-1.185-1.304-2.708-2.095-4.134-2.095-1.427 0-2.956.792-4.147 2.096-1.185 1.299-1.967 3.034-1.966 4.797.001 1.761.783 3.49 1.968 4.784 1.19 1.299 2.718 2.087 4.145 2.087 1.426 0 2.947-.787 4.132-2.086 1.179-1.293 1.956-3.023 1.957-4.786.002-1.764-.775-3.499-1.955-4.797zM51.207 76.596c3.325 0 6.752 3.622 6.75 7.53-.003 3.905-3.428 7.554-6.75 7.554s-6.772-3.65-6.774-7.554c-.002-3.907 3.45-7.53 6.774-7.53zm35.93 0c3.325 0 6.754 3.622 6.751 7.53-.003 3.905-3.429 7.554-6.751 7.554-3.323 0-6.77-3.65-6.773-7.554-.001-3.907 3.448-7.53 6.773-7.53zm35.954 0c3.325 0 6.752 3.622 6.75 7.53-.003 3.905-3.428 7.554-6.75 7.554s-6.771-3.65-6.773-7.554c-.001-3.907 3.448-7.53 6.773-7.53zm35.931 0c3.325 0 6.753 3.622 6.75 7.53-.002 3.905-3.427 7.554-6.75 7.554-3.322 0-6.77-3.65-6.772-7.554-.002-3.907 3.448-7.53 6.772-7.53zM51.391 104.08c3.325 0 6.752 3.645 6.75 7.553-.003 3.904-3.428 7.531-6.75 7.531-3.323 0-6.748-3.627-6.75-7.531-.002-3.907 3.425-7.553 6.75-7.553zm35.954 0c3.325 0 6.752 3.645 6.75 7.553-.003 3.904-3.428 7.531-6.75 7.531-3.323 0-6.773-3.627-6.774-7.531-.002-3.907 3.449-7.553 6.774-7.553zm35.929 0c3.325 0 6.753 3.645 6.75 7.553-.002 3.904-3.427 7.531-6.75 7.531-3.322 0-6.748-3.627-6.749-7.531-.002-3.907 3.425-7.553 6.749-7.553zm35.955 0c3.325 0 6.752 3.645 6.749 7.553-.002 3.904-3.427 7.531-6.749 7.531-3.323 0-6.771-3.627-6.773-7.531-.002-3.907 3.448-7.553 6.773-7.553z" clip-rule="evenodd"/><path fill="#D9B537" d="M28.868 17.613a3.241 3.241 0 00-3.241 3.241v9.43h-9.43a3.241 3.241 0 000 6.482h9.43v9.43a3.241 3.241 0 006.482 0v-9.43h9.43a3.241 3.241 0 000-6.482h-9.43v-9.43a3.241 3.241 0 00-3.241-3.241z"/><defs><linearGradient id="bpaint0_linear" x1="80.655" x2="80.655" y1=".159" y2="160.159" gradientUnits="userSpaceOnUse"><stop stop-color="#D4DEE3" stop-opacity="0"/><stop offset="1" stop-color="#D4DEE3"/></linearGradient></defs></svg><svg fill="none" viewBox="0 0 164 161" id="cookieless-tracking"><path fill-rule="evenodd" clip-rule="evenodd" d="M30.091 30.61v100.001h100v-100h-100zm-22-30a8 8 0 00-8 8v144.001a8 8 0 008 8h144a8 8 0 008-8v-144a8 8 0 00-8-8h-144z" fill="#477079" fill-opacity=".7"/><path fill-rule="evenodd" clip-rule="evenodd" d="M30.091 30.61v100.001h100v-100h-100zm-22-30a8 8 0 00-8 8v144.001a8 8 0 008 8h144a8 8 0 008-8v-144a8 8 0 00-8-8h-144z" fill="url(#cpaint0_linear)"/><path d="M63.14 113.78a8.019 8.019 0 110-16.037 8.019 8.019 0 010 16.037z" fill="#6164A9"/><path fill-rule="evenodd" clip-rule="evenodd" d="M91.201 105.761c0 15.499-12.563 28.062-28.061 28.062-15.499 0-28.062-12.563-28.062-28.062 0-15.498 12.563-28.061 28.061-28.061 15.499 0 28.062 12.563 28.062 28.061zm-7 0c0 11.633-9.43 21.062-21.061 21.062-11.633 0-21.062-9.429-21.062-21.062 0-11.632 9.43-21.061 21.061-21.061 11.633 0 21.062 9.43 21.062 21.061z" fill="#6164A9"/><path fill-rule="evenodd" clip-rule="evenodd" d="M100.614 107.838c20.089 0 36.342-16.22 36.342-36.187 0-19.968-16.253-36.187-36.342-36.187-20.09 0-36.343 16.219-36.343 36.187 0 19.968 16.253 36.187 36.343 36.187zm0 5c22.833 0 41.342-18.44 41.342-41.187 0-22.747-18.509-41.187-41.342-41.187-22.834 0-41.343 18.44-41.343 41.187 0 22.747 18.51 41.187 41.343 41.187z" fill="#6164A9"/><path fill-rule="evenodd" clip-rule="evenodd" d="M142.755 62.108l-.072-.316L130.25 50.93a4.332 4.332 0 00-6.098.397l-22.347 25.39L80.079 61.47l-.002-.002a4.332 4.332 0 00-3.36-.698h-.002a4.338 4.338 0 00-2.811 1.969l-13.177 21.39.14.437a42.304 42.304 0 003.3 7.648l.828 1.496 13.87-22.514 21.142 14.836a4.342 4.342 0 005.734-.678l22.06-25.067 15.995 13.973.024-2.17.002-.47a42.66 42.66 0 00-1.067-9.512z" fill="#53808A"/><path d="M127.196 63.928a7.5 7.5 0 100-15 7.5 7.5 0 000 15zM84.853 66.48a7.5 7.5 0 11-15 0 7.5 7.5 0 0115 0zm23.585 15a7.5 7.5 0 11-15 0 7.5 7.5 0 1115 0z" fill="#A7AAFF"/><path fill-rule="evenodd" clip-rule="evenodd" d="M162.272 125.948l-21.757-21.757c7.296-8.867 11.64-20.181 11.64-32.55 0-28.322-23.019-51.462-51.462-51.462-28.443 0-51.341 23.021-51.341 51.462 0 28.322 23.018 51.461 51.461 51.461 12.369 0 23.684-4.344 32.551-11.64L155.12 133.1c.933.933 2.256 1.459 3.576 1.459 1.321 0 2.643-.526 3.576-1.459a5.037 5.037 0 000-7.152zM59.422 71.641c0-22.758 18.514-41.272 41.271-41.272 22.758 0 41.272 18.514 41.272 41.272 0 22.757-18.514 41.271-41.272 41.271-22.757 0-41.271-18.514-41.271-41.271z" fill="#1F3239"/><defs><linearGradient id="cpaint0_linear" x1="80.091" y1=".611" x2="80.091" y2="160.611" gradientUnits="userSpaceOnUse"><stop stop-color="#3C5A63" stop-opacity="0"/><stop offset=".76" stop-color="#37535B"/></linearGradient></defs></svg><svg fill="none" viewBox="0 0 161 161" id="global-app-promotion"><path fill-rule="evenodd" clip-rule="evenodd" d="M30.44 30.61v100.001h100v-100h-100zm-22-30a8 8 0 00-8 8v144.001a8 8 0 008 8h144a8 8 0 008-8v-144a8 8 0 00-8-8h-144z" fill="#477079" fill-opacity=".7"/><path fill-rule="evenodd" clip-rule="evenodd" d="M30.44 30.61v100.001h100v-100h-100zm-22-30a8 8 0 00-8 8v144.001a8 8 0 008 8h144a8 8 0 008-8v-144a8 8 0 00-8-8h-144z" fill="url(#dpaint0_linear)"/><path d="M56.928 127.113a3.722 3.722 0 00-3.716-3.716h-11.15c-6.147 0-11.15-5.003-11.15-11.15s5.003-11.149 11.15-11.149a3.723 3.723 0 003.717-3.717 3.723 3.723 0 00-3.717-3.716H12.52c-.097 1.23-.19 2.46-.19 3.716 0 12.982 5.173 24.76 13.532 33.449h27.35a3.723 3.723 0 003.716-3.717z" fill="#53808A"/><path d="M60.645 97.381c0-6.147 5.003-11.15 11.15-11.15h3.716a3.723 3.723 0 003.717-3.716 3.723 3.723 0 00-3.717-3.716h-11.15c-6.147 0-11.149-5.003-11.149-11.15s5.002-11.15 11.15-11.15h21.916c-7.44-4.683-16.212-7.433-25.633-7.433-22.797 0-41.911 15.892-46.966 37.165h28.383c6.148 0 11.15 5.003 11.15 11.15s-5.002 11.15-11.15 11.15a3.722 3.722 0 00-3.716 3.716 3.723 3.723 0 003.717 3.717h11.15c6.146 0 11.149 5.002 11.149 11.149 0 6.147-5.003 11.15-11.15 11.15h-18.2c7.44 4.683 16.212 7.433 25.633 7.433 22.797 0 41.911-15.892 46.966-37.165H71.795c-6.147 0-11.15-5.003-11.15-11.15z" fill="#53808A"/><path d="M95.427 63.932H64.361a3.723 3.723 0 00-3.717 3.717 3.723 3.723 0 003.717 3.716h11.15c6.147 0 11.15 5.003 11.15 11.15s-5.003 11.15-11.15 11.15h-3.717a3.723 3.723 0 00-3.716 3.716 3.722 3.722 0 003.716 3.716h36.976c.096-1.23.189-2.46.189-3.716 0-12.982-5.173-24.76-13.532-33.449z" fill="#53808A"/><path d="M59.31 42.15a2.896 2.896 0 002.9-2.893c0-1.6-1.301-2.893-2.9-2.893a2.896 2.896 0 00-2.898 2.893c0 1.6 1.3 2.894 2.899 2.894zm7.595 0a2.896 2.896 0 002.899-2.893c0-1.6-1.3-2.893-2.899-2.893a2.896 2.896 0 00-2.898 2.893c0 1.6 1.3 2.894 2.898 2.894zm7.595 0a2.896 2.896 0 002.898-2.893c0-1.6-1.3-2.893-2.899-2.893a2.896 2.896 0 00-2.898 2.893c0 1.6 1.3 2.894 2.898 2.894z" fill="#1F3239"/><path fill-rule="evenodd" clip-rule="evenodd" d="M127.659 89.378a2.897 2.897 0 00-2.899 2.893v11.36c0 2.577-2.105 4.68-4.696 4.68H59.311c-2.59 0-4.696-2.103-4.696-4.68V49.724h70.145v12.253c0 1.6 1.301 2.894 2.899 2.894a2.897 2.897 0 002.898-2.894v-22.72c0-5.773-4.711-10.466-10.493-10.466H59.311c-5.782 0-10.493 4.693-10.493 10.466v64.374c0 5.773 4.71 10.467 10.493 10.467h60.753c5.782 0 10.493-4.694 10.493-10.467v-11.36c0-1.6-1.301-2.893-2.898-2.893zm-68.348-54.8h60.753c2.591 0 4.696 2.102 4.696 4.68v4.68H54.615v-4.68c0-2.578 2.105-4.68 4.696-4.68z" fill="#1F3239"/><path d="M147.754 97.957a2 2 0 01-.034 2.964l-5.161 4.569c-.378.33-.54.836-.418 1.322l1.562 6.497a2.001 2.001 0 01-1.646 2.445l-6.933 1.05c-.459.067-.85.364-1.032.789l-2.549 5.779a2 2 0 01-2.705.991l-6-2.917a1.366 1.366 0 00-1.201.013l-5.755 2.916c-1 .507-2.221.093-2.706-.917l-2.739-5.696a1.356 1.356 0 00-.991-.742l-6.78-1.149a2 2 0 01-1.613-2.429l1.477-6.293a1.343 1.343 0 00-.391-1.295l-5.148-4.774a2 2 0 01.034-2.964l5.161-4.568c.378-.33.54-.837.418-1.323l-1.562-6.497a2 2 0 011.646-2.445l6.933-1.05a1.33 1.33 0 001.032-.789l2.549-5.779a2 2 0 012.705-.991l6 2.918c.378.182.823.182 1.194-.014l5.762-2.917a2 2 0 012.706.918l2.739 5.696c.188.392.56.668.991.742l6.781 1.155a2 2 0 011.612 2.429l-1.477 6.287c-.115.472.04.965.391 1.295l5.148 4.774z" fill="#D2B552"/><path fill-rule="evenodd" clip-rule="evenodd" d="M130.936 92.51a2.033 2.033 0 00-.045-.16 2.324 2.324 0 00-.093-.288l-.024-.058-.028-.056a2.028 2.028 0 00-.045-.087l-.001-.003-.013-.023a.074.074 0 01-.003-.007l-.002-.005c-.014-.027-.068-.138-.148-.258a2.63 2.63 0 00-.356-.437l-.005-.005a2.714 2.714 0 00-.654-.482l-.009-.006a2.006 2.006 0 00-.281-.14l-.041-.017-.043-.014a2.285 2.285 0 00-.154-.045h-.003l-.03-.01-.01-.003a2.717 2.717 0 00-.799-.118l-11.48.01a2.837 2.837 0 00-2.852 2.852A2.837 2.837 0 00116.67 96l1.348.004 3.25-.002-6.663 6.672a2.86 2.86 0 00.002 4.036 2.859 2.859 0 004.037-.002l6.661-6.671.002 3.242.006 1.355v.003c.001.775.311 1.493.833 2.014.521.521 1.239.83 2.014.831a2.837 2.837 0 002.853-2.855l-.002-11.48a2.69 2.69 0 00-.065-.594l-.004-.02-.005-.019-.001-.003z" fill="#1F3239"/><defs><linearGradient id="dpaint0_linear" x1="80.44" y1=".611" x2="80.44" y2="160.611" gradientUnits="userSpaceOnUse"><stop stop-color="#3C5A63" stop-opacity="0"/><stop offset=".76" stop-color="#37535B"/></linearGradient></defs></svg><svg fill="none" viewBox="0 0 170 162" id="global-audience"><path fill-rule="evenodd" clip-rule="evenodd" d="M39.807 30.245v100h100v-100h-100zm-22-30a8 8 0 00-8 8v144a8 8 0 008 8h144a8 8 0 008-8v-144a8 8 0 00-8-8h-144z" fill="#EBEFF0"/><path fill-rule="evenodd" clip-rule="evenodd" d="M39.807 30.245v100h100v-100h-100zm-22-30a8 8 0 00-8 8v144a8 8 0 008 8h144a8 8 0 008-8v-144a8 8 0 00-8-8h-144z" fill="url(#epaint0_linear)"/><path fill-rule="evenodd" clip-rule="evenodd" d="M47.655 49.04A48.661 48.661 0 0162.5 44.644l.29-.347a49.864 49.864 0 0119.571-14.16 69.829 69.829 0 001.268 4.444c.606 1.741 2.518 3.258 4.954 5.06l.257.189.291.215.01.008.002.001.009.007c.293.216.543.4.584.432 1.354 1.796 10.041 3.238 12.371 3.428.552.528 1.546 2.24 2.165 3.306l.011.019c.71 1.225 1.446 2.493 2.222 3.52 2.282 3.041 6.931 1.934 11.032.956l.017-.004c1.407-.334 2.734-.65 3.6-.7 3.813-.217 3.785-4.016 3.77-5.64-.006-.564-.013-1.478.11-1.84 1.415-.318 2.869 1.205 4.92 3.559.565.65 1.128 1.295 1.702 1.885 2.211 2.275 6.414 1.002 10.415-1.128 10.022 14.274 11.852 32.856 4.903 48.778l-.109-.116c-1.125-1.185-2.088-2.299-2.94-3.283l-.025-.03c-3.472-4.019-6.216-7.194-12.091-4.353-3.643 1.76-5.456 3.499-7.054 5.031l-.001.001c-.96.92-1.788 1.713-2.956 2.47-.227.146-1.052.143-3.963-2.446a49.355 49.355 0 01-.361 5.346c2.137 1.416 4.528 2.219 6.715.809 1.523-.984 2.587-2.004 3.615-2.991 1.494-1.434 2.906-2.787 5.922-4.244 2.673-1.293 3.282-.846 6.835 3.264a91.566 91.566 0 003.103 3.466c.445.468.838.924 1.186 1.367a50.327 50.327 0 01-5.534 8.003c-9.038 10.701-21.602 16.666-34.547 17.63a49.197 49.197 0 01-12.173 9.548c19.781 2.793 40.518-4.336 54.36-20.726 21.41-25.351 18.215-63.259-7.137-84.669-25.351-21.41-63.259-18.215-84.669 7.136a60.274 60.274 0 00-7.495 11.197zm85.712-10.692a50.32 50.32 0 015.937 5.923c-2.116 1.077-3.848 1.693-4.581 1.541a45.6 45.6 0 01-1.435-1.6l-.013-.014c-2.31-2.651-5.185-5.95-9.327-4.937-3.477.857-3.451 4.297-3.436 6.151v.028c.003.368.007.857-.021 1.207-1.165.114-2.523.437-3.949.775l-.029.007c-1.468.35-5.938 1.415-6.488.68-.616-.815-1.279-1.959-1.922-3.067l-.007-.012c-1.753-3.026-3.267-5.638-5.757-5.495-1.319.051-7.913-1.403-9.393-2.054-.365-.365-.89-.759-1.742-1.39-.925-.683-3.092-2.285-3.406-2.951-.426-1.243-.871-2.823-1.266-4.467 15.688-4.736 33.383-1.686 46.835 9.675z" fill="#BFD3DC"/><path d="M63.758 95.712l2.475-2.475-2.475-2.475L52.96 79.965l-3.196-3.196-2.294 3.893a24.774 24.774 0 00.002 25.151l2.295 3.888 3.193-3.193 10.797-10.796zm7.554 2.605l-2.475-2.475-2.475 2.475-10.796 10.796-3.194 3.194 3.89 2.295a24.765 24.765 0 0025.148-.003l3.89-2.295-3.194-3.194-10.794-10.793z" fill="#3C9786" stroke="#fff" stroke-width="7"/><path d="M66.363 88.157l2.475 2.474 2.475-2.474L82.11 77.359l3.198-3.197-3.897-2.294a24.791 24.791 0 00-25.148.001l-3.892 2.295 3.195 3.195 10.797 10.798z" fill="#60D7C1" stroke="#fff" stroke-width="7"/><path d="M73.918 90.761l-2.475 2.475 2.475 2.475 10.793 10.794 3.194 3.193 2.295-3.889c4.576-7.751 4.566-17.396.007-25.145l-2.294-3.898-3.198 3.198-10.797 10.797z" fill="#30C6AB" stroke="#fff" stroke-width="7"/><path d="M50.333 67.177c11.066-7.86 25.943-7.862 37.01 0l7.563-7.563a42.492 42.492 0 00-52.132.004l7.559 7.559z" fill="#60D7C1"/><path d="M42.777 111.743c-7.86-11.067-7.86-25.944 0-37.011l-7.559-7.559a42.48 42.48 0 00.005 52.124l7.554-7.554z" fill="#30C6AB"/><path d="M87.34 119.294c-11.067 7.86-25.937 7.868-37.008.003l-7.555 7.555a42.475 42.475 0 0052.124.004l-7.562-7.562z" fill="#3C9786"/><path d="M94.898 74.731c7.864 11.07 7.857 25.94-.004 37.007l7.563 7.563c11.919-15.359 11.912-36.77.003-52.132l-7.562 7.562zm32.388-8.486a6.452 6.452 0 1012.905 0 6.452 6.452 0 00-12.905 0zm-10.59 3.011a3.441 3.441 0 106.883 0 3.441 3.441 0 00-6.883 0z" fill="#30C6AB"/><defs><linearGradient id="epaint0_linear" x1="89.808" y1=".245" x2="89.808" y2="160.245" gradientUnits="userSpaceOnUse"><stop stop-color="#EBEFF0"/><stop offset="1" stop-color="#fff"/></linearGradient></defs></svg><svg fill="none" viewBox="0 0 161 161" id="growth"><path fill-rule="evenodd" clip-rule="evenodd" d="M30.44 30.61v100.001h100v-100h-100zm-22-30a8 8 0 00-8 8v144.001a8 8 0 008 8h144a8 8 0 008-8v-144a8 8 0 00-8-8h-144z" fill="#BAD0DB"/><path fill-rule="evenodd" clip-rule="evenodd" d="M30.44 30.61v100.001h100v-100h-100zm-22-30a8 8 0 00-8 8v144.001a8 8 0 008 8h144a8 8 0 008-8v-144a8 8 0 00-8-8h-144z" fill="url(#fpaint0_linear)"/><path d="M119.851 125.815a3 3 0 01-3 3H24.222a3 3 0 01-3-3v-67.29a3 3 0 013-3h3.356a3 3 0 013 3v57.934a3 3 0 003 3h83.273a3 3 0 013 3v3.356z" fill="#9CB9C8"/><path d="M35.581 111.213V99.435a3 3 0 011.5-2.598l13.713-7.918a3 3 0 012.676-.162l11.067 4.717a3 3 0 003.158-.507l15.17-13.35a3 3 0 011.983-.749h6.67a3 3 0 002.15-.907l11.174-11.477c1.878-1.929 5.15-.6 5.15 2.093v42.636a3 3 0 01-3 3h-68.41a3 3 0 01-3-3z" fill="#30C6AB"/><path d="M160.44 58.21a4.702 4.702 0 00-4.705-4.708 37.638 37.638 0 00-28.702 13.324 37.673 37.673 0 00-12.619-22.985 37.628 37.628 0 00-24.552-9.172 4.704 4.704 0 00-4.706 4.708 37.68 37.68 0 009.422 24.892 37.635 37.635 0 0023.515 12.444v24.53a18.838 18.838 0 00-14.116 18.174v4.708a4.71 4.71 0 004.705 4.708h28.232a4.702 4.702 0 004.705-4.708v-4.708a18.837 18.837 0 00-3.96-11.496 18.822 18.822 0 00-10.156-6.678v-5.697a37.633 37.633 0 0023.515-12.444 37.675 37.675 0 009.422-24.892zm-9.881 5.179a28.257 28.257 0 01-7.791 14.803 28.228 28.228 0 01-14.794 7.796 28.258 28.258 0 017.791-14.802 28.228 28.228 0 0114.794-7.797zM95.037 44.556a28.23 28.23 0 0114.794 7.797 28.25 28.25 0 017.791 14.803 28.226 28.226 0 01-14.793-7.797 28.254 28.254 0 01-7.792-14.803zm37.172 74.861h-18.821c0-2.498.991-4.893 2.756-6.659a9.407 9.407 0 0113.308 0 9.42 9.42 0 012.757 6.659z" fill="#3C9786"/><path d="M160.44 58.21a4.702 4.702 0 00-4.705-4.708 37.638 37.638 0 00-28.702 13.324 37.673 37.673 0 00-12.619-22.985 37.628 37.628 0 00-24.552-9.172 4.704 4.704 0 00-4.706 4.708 37.68 37.68 0 009.422 24.892 37.635 37.635 0 0023.515 12.444v24.53a18.838 18.838 0 00-14.116 18.174v4.708a4.71 4.71 0 004.705 4.708h28.232a4.702 4.702 0 004.705-4.708v-4.708a18.837 18.837 0 00-3.96-11.496 18.822 18.822 0 00-10.156-6.678v-5.697a37.633 37.633 0 0023.515-12.444 37.675 37.675 0 009.422-24.892zm-9.881 5.179a28.257 28.257 0 01-7.791 14.803 28.228 28.228 0 01-14.794 7.796 28.258 28.258 0 017.791-14.802 28.228 28.228 0 0114.794-7.797zM95.037 44.556a28.23 28.23 0 0114.794 7.797 28.25 28.25 0 017.791 14.803 28.226 28.226 0 01-14.793-7.797 28.254 28.254 0 01-7.792-14.803zm37.172 74.861h-18.821c0-2.498.991-4.893 2.756-6.659a9.407 9.407 0 0113.308 0 9.42 9.42 0 012.757 6.659z" fill="url(#fpaint1_linear)" fill-opacity=".5"/><defs><linearGradient id="fpaint0_linear" x1="80.44" y1=".611" x2="80.44" y2="160.611" gradientUnits="userSpaceOnUse"><stop stop-color="#D4DEE3" stop-opacity="0"/><stop offset="1" stop-color="#D4DEE3"/></linearGradient><linearGradient id="fpaint1_linear" x1="122.798" y1="34.669" x2="122.798" y2="128.833" gradientUnits="userSpaceOnUse"><stop stop-color="#30C6AB"/><stop offset="1" stop-color="#30C6AB" stop-opacity="0"/></linearGradient></defs></svg><svg fill="none" viewBox="0 0 184 161" id="industry-expierence-since_amber"><path fill-rule="evenodd" clip-rule="evenodd" d="M53.556 30.61v100.001h100v-100h-100zm-22-30a8 8 0 00-8 8v144.001a8 8 0 008 8h144a8 8 0 008-8v-144a8 8 0 00-8-8h-144z" fill="#477079" fill-opacity=".7"/><path fill-rule="evenodd" clip-rule="evenodd" d="M53.556 30.61v100.001h100v-100h-100zm-22-30a8 8 0 00-8 8v144.001a8 8 0 008 8h144a8 8 0 008-8v-144a8 8 0 00-8-8h-144z" fill="url(#gpaint0_linear)"/><path fill-rule="evenodd" clip-rule="evenodd" d="M155.697 37.527c3.096 0 5.779 2.694 5.779 5.802v12.017H62.407V43.33c0-3.108 2.683-5.802 5.78-5.802h87.51zm-82.764 8.288c0 1.45 1.239 2.694 2.683 2.694 1.651 0 2.683-1.243 2.683-2.694 0-1.45-1.238-2.693-2.683-2.693-1.444 0-2.683 1.243-2.683 2.693zm7.843 0c0 1.45 1.445 2.694 2.89 2.694 1.444 0 2.683-1.243 2.683-2.694 0-1.45-1.032-2.693-2.683-2.693-1.651 0-2.89 1.243-2.89 2.693zm8.05 0c0 1.45 1.031 2.694 2.683 2.694 1.444 0 2.683-1.243 2.683-2.694 0-1.45-1.239-2.693-2.683-2.693-1.445 0-2.683 1.243-2.683 2.693zm61.298 1.45c.826 0 1.651-.621 1.651-1.657 0-.829-.619-1.658-1.651-1.658h-42.31c-.826 0-1.652.83-1.652 1.658 0 .829.826 1.658 1.652 1.658h42.31zm5.571 70.239h-87.51a5.78 5.78 0 01-5.78-5.801V59.49h99.069v52.213c0 3.108-2.683 5.801-5.779 5.801zm.619-47.862c0-2.9-2.27-5.18-5.16-5.18-2.889 0-5.159 2.487-5.159 5.18 0 2.901 2.476 5.18 5.159 5.18 2.89 0 5.16-2.279 5.16-5.18zm-10.526 7.667c-1.238-.83-2.27-1.865-2.889-3.108l-10.113 8.91c1.031 1.035 1.857 2.278 2.476 3.521l10.526-9.323zm-14.034 13.053c0-2.9-2.477-5.18-5.16-5.18-2.683 0-5.16 2.28-5.16 5.18s2.27 5.18 5.16 5.18c2.889 0 5.16-2.28 5.16-5.18zm-12.178-6.009l-9.494-7.251c-.412 1.45-1.032 2.693-1.857 3.936l9.494 7.252c.206-1.45.825-2.9 1.857-3.937zm-13.415-9.323c0-2.901-2.27-5.18-5.16-5.18s-5.16 2.279-5.16 5.18c0 2.9 2.27 5.18 5.16 5.18s5.16-2.28 5.16-5.18zm-12.59 5.387c-.826-1.036-1.445-2.487-1.651-3.937l-13.622 9.945c1.032.83 1.857 2.072 2.27 3.523l13.003-9.531zM76.853 92.434c-.413-2.694-2.683-4.558-5.16-4.558-2.683 0-5.16 2.279-5.16 5.18 0 2.9 2.27 5.18 5.16 5.18s5.573-2.487 5.16-5.802z" fill="#53808A"/><path fill-rule="evenodd" clip-rule="evenodd" d="M127.097 104.852c0 2.883-.278 3.286-2.744 4.535-2.464 1.249-2.935 5.778-3.241 8.218-.309 2.438-.893 7.012-2.497 12.184-1.599 5.172-6.164 11.619-19.954 11.619-13.788 0-19.39-5.238-22.197-8.784-2.806-3.545-6.712-16.198-7.731-19.27-1.018-3.072-4.74-2.834-4.74-2.834v-.05s-3.719-.237-4.74 2.838c-1.019 3.076-4.925 15.75-7.732 19.302-2.806 3.551-8.409 8.798-22.2 8.798-13.791 0-18.355-6.456-19.955-11.637-1.6-5.182-2.188-9.762-2.495-12.206-.308-2.444-.78-6.981-3.243-8.232-2.464-1.249-2.744-1.653-2.744-4.541 0-2.887-.36-4.491 2.992-5.11 3.353-.616 19.24-3.645 32.428-2.27 13.188 1.377 15.41 4.827 27.687 4.827v.062c12.277 0 14.5-3.444 27.686-4.818 13.186-1.374 29.07 1.65 32.423 2.267 3.355.617 2.997 2.22 2.997 5.102zm-79.46 3.175c-4.644-3.362-9.275-4.022-16.326-3.863-13.096.295-16.127 3.287-16.118 8.693.007 3.973-1.004 11.327 2.512 17.387 3.517 6.064 12.892 7.229 20.722 4.348 7.828-2.883 9.408-11.651 10.465-15.698 1.058-4.045 1.687-8.736-1.255-10.867zm65.152 4.836c.01-5.405-3.022-8.398-16.115-8.692-7.05-.159-11.681.502-16.325 3.863-2.942 2.13-2.313 6.821-1.255 10.866 1.06 4.044 2.636 12.815 10.463 15.694 7.83 2.883 17.205 1.715 20.719-4.346 3.517-6.06 2.506-13.413 2.513-17.385z" fill="#1F3239"/><path fill="#3A5760" d="M62.406 59.473h11.708v20.243H62.406z"/><path d="M.872 84.166V79.09l7.616-7.78c.703-.704 1.253-1.352 1.648-1.945.418-.616.627-1.231.627-1.847 0-1.319-.824-1.978-2.473-1.978H1.268v-5.077a51.098 51.098 0 013.594-.66c1.34-.22 2.89-.329 4.648-.329 1.934 0 3.45.264 4.55.791 1.12.528 1.912 1.308 2.373 2.341.484 1.033.726 2.297.726 3.791 0 1.605-.319 3-.956 4.187-.638 1.187-1.528 2.363-2.67 3.528l-4.22 4.319h8.505v5.736H.872zm25.881.198c-2.263 0-3.945-.582-5.044-1.747-1.099-1.187-1.648-2.825-1.648-4.913V66.462c0-2.264.582-3.989 1.747-5.176 1.165-1.209 2.825-1.813 4.978-1.813h5.341c2.088 0 3.682.604 4.78 1.813 1.1 1.187 1.65 2.912 1.65 5.176v11.242c0 2.067-.561 3.693-1.682 4.88-1.1 1.187-2.693 1.78-4.78 1.78h-5.341zm1.583-5.736h1.978c.593 0 1.044-.143 1.352-.429.33-.308.494-.802.494-1.484v-9.593c0-.77-.154-1.275-.461-1.517-.308-.264-.682-.395-1.121-.395h-2.473c-1.099 0-1.648.637-1.648 1.912v9.56c0 .704.154 1.21.461 1.517.308.286.78.429 1.418.429zm19.538 5.736c-2.264 0-3.946-.582-5.044-1.747-1.1-1.187-1.649-2.825-1.649-4.913V66.462c0-2.264.583-3.989 1.748-5.176 1.164-1.209 2.824-1.813 4.978-1.813h5.34c2.089 0 3.682.604 4.78 1.813 1.1 1.187 1.65 2.912 1.65 5.176v11.242c0 2.067-.561 3.693-1.682 4.88-1.099 1.187-2.692 1.78-4.78 1.78h-5.341zm1.582-5.736h1.978c.594 0 1.044-.143 1.352-.429.33-.308.495-.802.495-1.484v-9.593c0-.77-.154-1.275-.462-1.517-.308-.264-.681-.395-1.121-.395h-2.473c-1.099 0-1.648.637-1.648 1.912v9.56c0 .704.154 1.21.462 1.517.307.286.78.429 1.417.429zm19.703 5.736c-.835 0-1.66-.066-2.473-.198a6.66 6.66 0 01-2.209-.824c-.637-.396-1.154-.956-1.55-1.681-.373-.748-.56-1.726-.56-2.934v-3.264c0-.528.077-1.055.231-1.583.154-.527.407-1 .758-1.417.352-.418.836-.693 1.451-.825-.66-.351-1.132-.747-1.418-1.187a3.315 3.315 0 01-.461-1.45 19.886 19.886 0 01-.066-1.649v-2.769c0-1.253.275-2.253.824-3a4.794 4.794 0 012.209-1.615 8.66 8.66 0 012.934-.495h4.682c1.055 0 2.033.165 2.934.495.9.33 1.626.868 2.176 1.615.571.747.857 1.747.857 3v2.77c0 .22-.022.527-.066.922a7.094 7.094 0 01-.264 1.253c-.132.418-.33.78-.593 1.088-.264.308-.616.495-1.055.56.769.177 1.319.54 1.648 1.089.352.527.572 1.088.66 1.681.11.594.164 1.099.164 1.517v3.264c0 1.604-.296 2.813-.89 3.626a4.41 4.41 0 01-2.34 1.615c-.968.264-2.012.396-3.133.396h-4.45zm1.154-15.43h1.714c.572 0 .912-.131 1.022-.395.132-.285.198-.736.198-1.351v-1.022c0-.638-.132-1.011-.396-1.121a1.973 1.973 0 00-.824-.165h-1.714c-.396 0-.704.066-.923.198-.198.11-.297.472-.297 1.088v1.022c0 .79.088 1.285.264 1.483.197.176.516.264.956.264zm0 10.023h1.714c.725 0 1.165-.132 1.319-.395.154-.286.23-.66.23-1.121v-1.55c0-.44-.131-.802-.395-1.088-.242-.307-.605-.461-1.088-.461h-1.78c-.528 0-.923.154-1.187.461-.242.286-.363.649-.363 1.088v1.55c0 .571.11.967.33 1.187.242.22.648.33 1.22.33z" fill="#D2B552"/><defs><linearGradient id="gpaint0_linear" x1="103.556" y1=".611" x2="103.556" y2="160.611" gradientUnits="userSpaceOnUse"><stop stop-color="#3C5A63" stop-opacity="0"/><stop offset=".76" stop-color="#37535B"/></linearGradient></defs></svg><svg fill="none" viewBox="0 0 186 161" id="industry-expierence-since_green"><path fill-rule="evenodd" clip-rule="evenodd" d="M55.714 30.61v100.001h100v-100h-100zm-22-30a8 8 0 00-8 8v144.001a8 8 0 008 8h144a8 8 0 008-8v-144a8 8 0 00-8-8h-144z" fill="#477079" fill-opacity=".7"/><path fill-rule="evenodd" clip-rule="evenodd" d="M55.714 30.61v100.001h100v-100h-100zm-22-30a8 8 0 00-8 8v144.001a8 8 0 008 8h144a8 8 0 008-8v-144a8 8 0 00-8-8h-144z" fill="url(#hpaint0_linear)"/><path fill-rule="evenodd" clip-rule="evenodd" d="M155.538 38.61c3.096 0 5.779 2.694 5.779 5.802V56.43H62.249V44.412c0-3.108 2.683-5.801 5.779-5.801h87.51zM72.775 46.9c0 1.45 1.238 2.693 2.683 2.693 1.651 0 2.683-1.243 2.683-2.693s-1.238-2.694-2.683-2.694c-1.445 0-2.683 1.243-2.683 2.694zm7.843 0c0 1.45 1.445 2.693 2.89 2.693 1.444 0 2.682-1.243 2.682-2.693s-1.031-2.694-2.683-2.694c-1.65 0-2.89 1.243-2.89 2.694zm8.05 0c0 1.45 1.031 2.693 2.682 2.693 1.445 0 2.683-1.243 2.683-2.693s-1.238-2.694-2.683-2.694c-1.444 0-2.683 1.243-2.683 2.694zm61.298 1.45c.825 0 1.651-.622 1.651-1.658 0-.828-.619-1.657-1.651-1.657h-42.311c-.825 0-1.651.829-1.651 1.657 0 .83.826 1.658 1.651 1.658h42.311zm5.571 70.239h-87.51a5.78 5.78 0 01-5.78-5.801V60.573h99.069v52.214c0 3.107-2.683 5.801-5.779 5.801zm.619-47.862c0-2.9-2.27-5.18-5.16-5.18-2.889 0-5.16 2.486-5.16 5.18 0 2.9 2.477 5.18 5.16 5.18 2.89 0 5.16-2.28 5.16-5.18zm-10.526 7.666c-1.238-.829-2.27-1.864-2.89-3.108l-10.113 8.91c1.032 1.036 1.858 2.279 2.477 3.522l10.526-9.324zm-14.035 13.053c0-2.9-2.476-5.18-5.16-5.18-2.683 0-5.159 2.28-5.159 5.18 0 2.901 2.27 5.18 5.159 5.18 2.89 0 5.16-2.279 5.16-5.18zm-12.177-6.008l-9.494-7.252c-.413 1.45-1.032 2.694-1.858 3.937l9.495 7.252c.206-1.45.825-2.901 1.857-3.937zm-13.415-9.324c0-2.9-2.271-5.18-5.16-5.18-2.89 0-5.16 2.28-5.16 5.18s2.27 5.18 5.16 5.18c2.889 0 5.16-2.28 5.16-5.18zM93.413 81.5c-.826-1.036-1.445-2.486-1.651-3.937L78.138 87.51c1.032.829 1.858 2.072 2.27 3.522l13.004-9.53zM76.695 93.517c-.413-2.693-2.683-4.558-5.16-4.558-2.683 0-5.16 2.28-5.16 5.18s2.27 5.18 5.16 5.18 5.573-2.487 5.16-5.802z" fill="#53808A"/><path fill-rule="evenodd" clip-rule="evenodd" d="M126.939 105.936c0 2.882-.278 3.285-2.745 4.535-2.463 1.248-2.935 5.777-3.241 8.217-.309 2.439-.892 7.012-2.496 12.185-1.599 5.172-6.164 11.618-19.954 11.618-13.788 0-19.39-5.238-22.198-8.784-2.805-3.545-6.711-16.198-7.73-19.269-1.018-3.072-4.74-2.835-4.74-2.835v-.05s-3.72-.237-4.74 2.839-4.925 15.75-7.732 19.301c-2.807 3.552-8.41 8.798-22.2 8.798-13.792 0-18.355-6.456-19.955-11.636-1.6-5.182-2.188-9.763-2.495-12.207-.308-2.444-.78-6.98-3.243-8.231-2.465-1.25-2.745-1.654-2.745-4.542 0-2.887-.358-4.491 2.993-5.109 3.353-.616 19.24-3.645 32.428-2.27 13.188 1.377 15.41 4.826 27.687 4.826v.062c12.277 0 14.5-3.444 27.686-4.817 13.185-1.374 29.07 1.65 32.423 2.267 3.354.616 2.997 2.219 2.997 5.102zm-79.46 3.175c-4.644-3.363-9.275-4.022-16.326-3.863-13.096.295-16.128 3.286-16.118 8.693.007 3.972-1.004 11.326 2.512 17.387 3.517 6.063 12.892 7.228 20.722 4.347 7.828-2.882 9.407-11.65 10.465-15.697 1.058-4.045 1.687-8.736-1.255-10.867zm65.152 4.835c.009-5.405-3.022-8.398-16.115-8.692-7.05-.158-11.681.503-16.325 3.864-2.942 2.129-2.313 6.82-1.255 10.865 1.059 4.044 2.635 12.815 10.463 15.695 7.83 2.883 17.205 1.714 20.719-4.346 3.517-6.06 2.506-13.413 2.513-17.386z" fill="#1F3239"/><path fill="#3A5760" d="M62.247 60.556h11.708v20.243H62.247z"/><path d="M.714 85.25v-5.077l7.616-7.78c.703-.704 1.253-1.353 1.648-1.946.418-.615.627-1.23.627-1.846 0-1.319-.825-1.978-2.473-1.978H1.11v-5.077a51.097 51.097 0 013.593-.66c1.341-.22 2.89-.33 4.649-.33 1.934 0 3.45.264 4.55.792 1.12.527 1.912 1.308 2.373 2.34.484 1.034.725 2.297.725 3.792 0 1.604-.318 3-.956 4.187-.637 1.187-1.527 2.362-2.67 3.527l-4.22 4.32h8.506v5.736H.714zm25.881.198c-2.264 0-3.945-.583-5.044-1.748-1.099-1.187-1.648-2.824-1.648-4.912V67.546c0-2.264.582-3.99 1.747-5.176 1.165-1.21 2.824-1.813 4.978-1.813h5.341c2.088 0 3.681.604 4.78 1.813 1.1 1.187 1.649 2.912 1.649 5.176v11.242c0 2.066-.56 3.692-1.682 4.88-1.099 1.186-2.692 1.78-4.78 1.78h-5.34zm1.583-5.737h1.978c.593 0 1.044-.143 1.352-.428.33-.308.494-.803.494-1.484v-9.594c0-.77-.154-1.275-.462-1.516-.307-.264-.68-.396-1.12-.396h-2.473c-1.1 0-1.648.637-1.648 1.912v9.56c0 .704.153 1.21.461 1.517.308.286.78.43 1.418.43zm19.537 5.737c-2.263 0-3.945-.583-5.044-1.748-1.099-1.187-1.648-2.824-1.648-4.912V67.546c0-2.264.582-3.99 1.747-5.176 1.165-1.21 2.824-1.813 4.978-1.813h5.341c2.088 0 3.682.604 4.78 1.813 1.1 1.187 1.65 2.912 1.65 5.176v11.242c0 2.066-.561 3.692-1.682 4.88-1.1 1.186-2.693 1.78-4.78 1.78h-5.342zm1.583-5.737h1.978c.593 0 1.044-.143 1.352-.428.33-.308.494-.803.494-1.484v-9.594c0-.77-.154-1.275-.461-1.516a1.665 1.665 0 00-1.121-.396h-2.473c-1.099 0-1.648.637-1.648 1.912v9.56c0 .704.154 1.21.461 1.517.308.286.78.43 1.418.43zM69 85.448a15.4 15.4 0 01-2.472-.198 6.659 6.659 0 01-2.209-.825c-.637-.395-1.154-.956-1.55-1.68-.373-.748-.56-1.726-.56-2.935v-3.264c0-.527.077-1.055.23-1.582.155-.528.407-1 .76-1.418.35-.418.834-.692 1.45-.824-.66-.352-1.132-.747-1.418-1.187a3.315 3.315 0 01-.461-1.45 19.841 19.841 0 01-.066-1.65v-2.768c0-1.253.274-2.253.824-3a4.795 4.795 0 012.209-1.616 8.66 8.66 0 012.934-.495h4.681c1.055 0 2.033.165 2.934.495.902.33 1.627.868 2.176 1.615.572.748.858 1.748.858 3v2.77c0 .22-.022.527-.066.923a7.106 7.106 0 01-.264 1.253c-.132.417-.33.78-.593 1.088-.264.307-.616.494-1.056.56.77.176 1.32.539 1.649 1.088.352.528.571 1.088.66 1.682.11.593.164 1.099.164 1.516v3.264c0 1.604-.297 2.813-.89 3.626a4.41 4.41 0 01-2.34 1.616 11.87 11.87 0 01-3.133.395h-4.45zm1.154-15.43h1.715c.571 0 .912-.132 1.022-.395.132-.286.198-.737.198-1.352V67.25c0-.637-.132-1.011-.396-1.12a1.973 1.973 0 00-.824-.166h-1.715c-.395 0-.703.066-.923.198-.197.11-.296.473-.296 1.088v1.022c0 .791.087 1.286.263 1.484.198.175.517.263.956.263zm0 10.023h1.715c.725 0 1.165-.132 1.319-.396.153-.286.23-.66.23-1.12v-1.55c0-.44-.132-.802-.395-1.088-.242-.308-.605-.462-1.088-.462h-1.78c-.528 0-.924.154-1.187.462-.242.285-.363.648-.363 1.088v1.55c0 .57.11.966.33 1.186.241.22.648.33 1.22.33z" fill="#30C6AB"/><defs><linearGradient id="hpaint0_linear" x1="105.714" y1=".611" x2="105.714" y2="160.611" gradientUnits="userSpaceOnUse"><stop stop-color="#3C5A63" stop-opacity="0"/><stop offset=".76" stop-color="#37535B"/></linearGradient></defs></svg><svg fill="none" viewBox="0 0 185 161" id="industry-expierence-since_violet"><path fill-rule="evenodd" clip-rule="evenodd" d="M54.214 30.61v100.001h100v-100h-100zm-22-30a8 8 0 00-8 8v144.001a8 8 0 008 8h144a8 8 0 008-8v-144a8 8 0 00-8-8h-144z" fill="#477079" fill-opacity=".7"/><path fill-rule="evenodd" clip-rule="evenodd" d="M54.214 30.61v100.001h100v-100h-100zm-22-30a8 8 0 00-8 8v144.001a8 8 0 008 8h144a8 8 0 008-8v-144a8 8 0 00-8-8h-144z" fill="url(#ipaint0_linear)"/><path fill-rule="evenodd" clip-rule="evenodd" d="M155.038 38.61c3.096 0 5.779 2.694 5.779 5.802V56.43H61.749V44.412c0-3.108 2.683-5.801 5.779-5.801h87.51zM72.275 46.9c0 1.45 1.238 2.693 2.683 2.693 1.651 0 2.683-1.243 2.683-2.693s-1.238-2.694-2.683-2.694c-1.445 0-2.683 1.243-2.683 2.694zm7.843 0c0 1.45 1.445 2.693 2.89 2.693 1.444 0 2.682-1.243 2.682-2.693s-1.031-2.694-2.683-2.694c-1.65 0-2.89 1.243-2.89 2.694zm8.05 0c0 1.45 1.031 2.693 2.682 2.693 1.445 0 2.683-1.243 2.683-2.693s-1.238-2.694-2.683-2.694c-1.444 0-2.683 1.243-2.683 2.694zm61.298 1.45c.825 0 1.651-.622 1.651-1.658 0-.828-.619-1.657-1.651-1.657h-42.311c-.825 0-1.651.829-1.651 1.657 0 .83.826 1.658 1.651 1.658h42.311zm5.571 70.239h-87.51a5.78 5.78 0 01-5.78-5.801V60.573h99.069v52.214c0 3.107-2.683 5.801-5.779 5.801zm.619-47.862c0-2.9-2.27-5.18-5.16-5.18-2.889 0-5.16 2.486-5.16 5.18 0 2.9 2.477 5.18 5.16 5.18 2.89 0 5.16-2.28 5.16-5.18zm-10.526 7.666c-1.238-.829-2.27-1.864-2.89-3.108l-10.113 8.91c1.032 1.036 1.858 2.279 2.477 3.522l10.526-9.324zm-14.035 13.053c0-2.9-2.476-5.18-5.16-5.18-2.683 0-5.159 2.28-5.159 5.18 0 2.901 2.27 5.18 5.159 5.18 2.89 0 5.16-2.279 5.16-5.18zm-12.177-6.008l-9.494-7.252c-.413 1.45-1.032 2.694-1.858 3.937l9.495 7.252c.206-1.45.825-2.901 1.857-3.937zm-13.415-9.324c0-2.9-2.271-5.18-5.16-5.18-2.89 0-5.16 2.28-5.16 5.18s2.27 5.18 5.16 5.18c2.889 0 5.16-2.28 5.16-5.18zM92.913 81.5c-.826-1.036-1.445-2.486-1.651-3.937L77.638 87.51c1.032.829 1.858 2.072 2.27 3.522l13.004-9.53zM76.195 93.517c-.413-2.693-2.683-4.558-5.16-4.558-2.683 0-5.16 2.28-5.16 5.18s2.27 5.18 5.16 5.18 5.573-2.487 5.16-5.802z" fill="#53808A"/><path fill-rule="evenodd" clip-rule="evenodd" d="M126.439 105.936c0 2.882-.278 3.285-2.745 4.535-2.463 1.248-2.935 5.777-3.241 8.217-.309 2.439-.892 7.012-2.496 12.185-1.599 5.172-6.164 11.618-19.954 11.618-13.788 0-19.39-5.238-22.198-8.784-2.805-3.545-6.711-16.198-7.73-19.269-1.018-3.072-4.74-2.835-4.74-2.835v-.05s-3.72-.237-4.74 2.839-4.925 15.75-7.732 19.301c-2.807 3.552-8.41 8.798-22.2 8.798-13.792 0-18.355-6.456-19.955-11.636-1.6-5.182-2.188-9.763-2.495-12.207-.308-2.444-.78-6.98-3.243-8.231-2.465-1.25-2.745-1.654-2.745-4.542 0-2.887-.358-4.491 2.993-5.109 3.353-.616 19.24-3.645 32.428-2.27 13.188 1.377 15.41 4.826 27.687 4.826v.062c12.277 0 14.5-3.444 27.686-4.817 13.185-1.374 29.07 1.65 32.423 2.267 3.354.616 2.997 2.219 2.997 5.102zm-79.46 3.175c-4.644-3.363-9.275-4.022-16.326-3.863-13.096.295-16.128 3.286-16.118 8.693.007 3.972-1.004 11.326 2.512 17.387 3.517 6.063 12.892 7.228 20.722 4.347 7.828-2.882 9.407-11.65 10.465-15.697 1.058-4.045 1.687-8.736-1.255-10.867zm65.152 4.835c.009-5.405-3.022-8.398-16.115-8.692-7.05-.158-11.681.503-16.325 3.864-2.942 2.129-2.313 6.82-1.255 10.865 1.059 4.044 2.635 12.815 10.463 15.695 7.83 2.883 17.205 1.714 20.719-4.346 3.517-6.06 2.506-13.413 2.513-17.386z" fill="#1F3239"/><path fill="#3A5760" d="M61.747 60.556h11.708v20.243H61.747z"/><path d="M.214 85.25v-5.077l7.616-7.78c.703-.704 1.253-1.353 1.648-1.946.418-.615.627-1.23.627-1.846 0-1.319-.825-1.978-2.473-1.978H.61v-5.077a51.097 51.097 0 013.593-.66c1.341-.22 2.89-.33 4.649-.33 1.934 0 3.45.264 4.55.792 1.12.527 1.912 1.308 2.373 2.34.484 1.034.725 2.297.725 3.792 0 1.604-.318 3-.956 4.187-.637 1.187-1.527 2.362-2.67 3.527l-4.22 4.32h8.506v5.736H.214zm25.881.198c-2.264 0-3.945-.583-5.044-1.748-1.099-1.187-1.648-2.824-1.648-4.912V67.546c0-2.264.582-3.99 1.747-5.176 1.165-1.21 2.824-1.813 4.978-1.813h5.341c2.088 0 3.681.604 4.78 1.813 1.1 1.187 1.649 2.912 1.649 5.176v11.242c0 2.066-.56 3.692-1.682 4.88-1.099 1.186-2.692 1.78-4.78 1.78h-5.34zm1.583-5.737h1.978c.593 0 1.044-.143 1.352-.428.33-.308.494-.803.494-1.484v-9.594c0-.77-.154-1.275-.462-1.516-.307-.264-.68-.396-1.12-.396h-2.473c-1.1 0-1.648.637-1.648 1.912v9.56c0 .704.153 1.21.461 1.517.308.286.78.43 1.418.43zm19.537 5.737c-2.263 0-3.945-.583-5.044-1.748-1.099-1.187-1.648-2.824-1.648-4.912V67.546c0-2.264.582-3.99 1.747-5.176 1.165-1.21 2.824-1.813 4.978-1.813h5.341c2.088 0 3.682.604 4.78 1.813 1.1 1.187 1.65 2.912 1.65 5.176v11.242c0 2.066-.561 3.692-1.682 4.88-1.1 1.186-2.693 1.78-4.78 1.78h-5.342zm1.583-5.737h1.978c.593 0 1.044-.143 1.352-.428.33-.308.494-.803.494-1.484v-9.594c0-.77-.154-1.275-.461-1.516a1.665 1.665 0 00-1.121-.396h-2.473c-1.099 0-1.648.637-1.648 1.912v9.56c0 .704.154 1.21.461 1.517.308.286.78.43 1.418.43zM68.5 85.448a15.4 15.4 0 01-2.472-.198 6.659 6.659 0 01-2.209-.825c-.637-.395-1.154-.956-1.55-1.68-.373-.748-.56-1.726-.56-2.935v-3.264c0-.527.077-1.055.23-1.582.155-.528.407-1 .76-1.418.35-.418.834-.692 1.45-.824-.66-.352-1.132-.747-1.418-1.187a3.315 3.315 0 01-.461-1.45 19.841 19.841 0 01-.066-1.65v-2.768c0-1.253.274-2.253.824-3a4.795 4.795 0 012.209-1.616 8.66 8.66 0 012.934-.495h4.681c1.055 0 2.033.165 2.934.495.902.33 1.627.868 2.176 1.615.572.748.858 1.748.858 3v2.77c0 .22-.022.527-.066.923a7.106 7.106 0 01-.264 1.253c-.132.417-.33.78-.593 1.088-.264.307-.616.494-1.056.56.77.176 1.32.539 1.649 1.088.352.528.571 1.088.66 1.682.11.593.164 1.099.164 1.516v3.264c0 1.604-.297 2.813-.89 3.626a4.41 4.41 0 01-2.34 1.616 11.87 11.87 0 01-3.133.395h-4.45zm1.154-15.43h1.715c.571 0 .912-.132 1.022-.395.132-.286.198-.737.198-1.352V67.25c0-.637-.132-1.011-.396-1.12a1.973 1.973 0 00-.824-.166h-1.715c-.395 0-.703.066-.923.198-.197.11-.296.473-.296 1.088v1.022c0 .791.087 1.286.263 1.484.198.175.517.263.956.263zm0 10.023h1.715c.725 0 1.165-.132 1.319-.396.153-.286.23-.66.23-1.12v-1.55c0-.44-.132-.802-.395-1.088-.242-.308-.605-.462-1.088-.462h-1.78c-.528 0-.924.154-1.187.462-.242.285-.363.648-.363 1.088v1.55c0 .57.11.966.33 1.186.241.22.648.33 1.22.33z" fill="#A7AAFF"/><defs><linearGradient id="ipaint0_linear" x1="104.214" y1=".611" x2="104.214" y2="160.611" gradientUnits="userSpaceOnUse"><stop stop-color="#3C5A63" stop-opacity="0"/><stop offset=".76" stop-color="#37535B"/></linearGradient></defs></svg><svg fill="none" viewBox="0 0 161 161" id="innovative-tools"><path fill-rule="evenodd" clip-rule="evenodd" d="M30.44 30.61v100.001h100v-100h-100zm-22-30a8 8 0 00-8 8v144.001a8 8 0 008 8h144a8 8 0 008-8v-144a8 8 0 00-8-8h-144z" fill="#477079" fill-opacity=".7"/><path fill-rule="evenodd" clip-rule="evenodd" d="M30.44 30.61v100.001h100v-100h-100zm-22-30a8 8 0 00-8 8v144.001a8 8 0 008 8h144a8 8 0 008-8v-144a8 8 0 00-8-8h-144z" fill="url(#jpaint0_linear)"/><path d="M129.04 90.395a1.857 1.857 0 01-.713-1.853 51.902 51.902 0 00-.427-16.25 2.13 2.13 0 01.57-1.853l6.129-5.844-5.987-13.542-8.41.57a1.996 1.996 0 01-1.853-.855 45.615 45.615 0 00-11.688-11.118 2.426 2.426 0 01-.998-1.853l.285-8.41-13.827-5.274-5.416 6.271a1.853 1.853 0 01-1.853.713 51.885 51.885 0 00-16.25.428 2.137 2.137 0 01-1.853-.57l-5.845-6.13-13.541 5.987.57 8.41a1.995 1.995 0 01-.855 1.853 45.616 45.616 0 00-11.119 11.689 2.422 2.422 0 01-1.853.998l-8.41-.285-5.274 13.826 6.272 5.417a1.854 1.854 0 01.713 1.853 51.887 51.887 0 00.427 16.25 2.14 2.14 0 01-.57 1.853l-6.13 5.844 5.987 13.542 8.41-.57a1.991 1.991 0 011.853.855 45.611 45.611 0 0011.69 11.118 2.424 2.424 0 01.997 1.853l-.285 8.41 13.826 5.275 5.417-6.272a1.848 1.848 0 011.853-.713c5.406.712 10.89.568 16.25-.428a2.131 2.131 0 011.853.571l5.844 6.129 13.542-5.987-.57-8.41a1.995 1.995 0 01.855-1.853 45.635 45.635 0 0011.119-11.689 2.42 2.42 0 011.853-.997l8.41.285 5.274-13.827-6.272-5.417zm-51.173 32.5a41.34 41.34 0 01-40.543-49.402 41.337 41.337 0 1140.543 49.402z" fill="#1F3239"/><circle cx="77.926" cy="81.619" r="41.302" fill="#1F3239" fill-opacity=".5"/><path fill="#A7AAFF" d="M53.282 50.027h12.716v33.986H53.282z"/><path d="M41.025 50.027h12.257v33.986H41.025V50.027z" fill="#6164A9"/><path d="M53.437 22.1c-19.046 0-34.495 15.635-34.495 34.87.017 12.343 6.645 23.437 16.84 29.631h35.295C81.28 80.411 87.925 69.318 87.94 56.97c0-19.234-15.459-34.87-34.504-34.87zm0 28.5c6.613 0 12.003 5.318 12.003 11.883v21.118H41.442V62.483c0-6.565 5.382-11.88 11.995-11.88V50.6zM41.442 89.601v4.497a1.5 1.5 0 001.497 1.506h21.004a1.5 1.5 0 001.497-1.506v-4.497c-7.978.011-15.995 0-23.998 0zm1.673 9.003a1.5 1.5 0 00-1.274 1.949c1.562 4.963 6.16 8.549 11.596 8.549 5.434 0 10.042-3.586 11.604-8.549a1.5 1.5 0 00-1.43-1.949H43.116z" fill="#53808A"/><path fill-rule="evenodd" clip-rule="evenodd" d="M87.76 108.364a6.236 6.236 0 100-12.471 6.236 6.236 0 000 12.471zm0 6c6.758 0 12.236-5.478 12.236-12.235 0-6.758-5.478-12.236-12.236-12.236-6.757 0-12.236 5.478-12.236 12.236 0 6.757 5.479 12.235 12.236 12.235z" fill="#6164A9"/><path fill-rule="evenodd" clip-rule="evenodd" d="M103.14 85.947a2.987 2.987 0 100-5.973 2.987 2.987 0 000 5.973zm0 5a7.987 7.987 0 100-15.974 7.987 7.987 0 000 15.974z" fill="#A7AAFF"/><circle cx="102.145" cy="65.382" r="4.686" fill="#53808A"/><defs><linearGradient id="jpaint0_linear" x1="80.44" y1=".611" x2="80.44" y2="160.611" gradientUnits="userSpaceOnUse"><stop stop-color="#3C5A63" stop-opacity="0"/><stop offset=".76" stop-color="#37535B"/></linearGradient></defs></svg><svg fill="none" viewBox="0 0 161 161" id="installation-revenue"><path fill-rule="evenodd" clip-rule="evenodd" d="M30.951 30.61v100.001h100v-100h-100zm-22-30a8 8 0 00-8 8v144.001a8 8 0 008 8h144a8 8 0 008-8v-144a8 8 0 00-8-8h-144z" fill="#BAD0DB"/><path fill-rule="evenodd" clip-rule="evenodd" d="M30.951 30.61v100.001h100v-100h-100zm-22-30a8 8 0 00-8 8v144.001a8 8 0 008 8h144a8 8 0 008-8v-144a8 8 0 00-8-8h-144z" fill="url(#kpaint0_linear)"/><path d="M121.783 37.753H76.255v65.769h45.528c18.156 0 32.875-14.718 32.875-32.874 0-18.156-14.719-32.875-32.875-32.875v-.02z" fill="#D2B552"/><path d="M141.753 109.974a6.452 6.452 0 006.453 6.452 6.452 6.452 0 100-12.904 6.453 6.453 0 00-6.453 6.452zm.001 13.601a3.441 3.441 0 106.882.002 3.441 3.441 0 00-6.882-.002z" fill="#CFB764"/><path d="M77.43 69.789h.074l.075-.008a4.401 4.401 0 11.875 8.76l-1.35.135v3.707a.849.849 0 11-1.698 0v-3.85h-3.849a.85.85 0 010-1.698h5.872a2.674 2.674 0 100-5.348h-2.35a4.373 4.373 0 01-.875-8.657l1.202-.244v-3.693a.849.849 0 011.698 0v3.85h3.849a.849.849 0 110 1.697H75.08a2.674 2.674 0 100 5.349h2.35zm-1.175-33.536a34.385 34.385 0 100 68.77 34.385 34.385 0 000-68.77zm0 56.373a21.99 21.99 0 110-43.979 21.99 21.99 0 010 43.98zm0-42.28a20.291 20.291 0 100 40.583 20.291 20.291 0 000-40.582z" fill="#9F9F9F"/><path d="M77.43 69.789h.074l.075-.008a4.401 4.401 0 11.875 8.76l-1.35.135v3.707a.849.849 0 11-1.698 0v-3.85h-3.849a.85.85 0 010-1.698h5.872a2.674 2.674 0 100-5.348h-2.35a4.373 4.373 0 01-.875-8.657l1.202-.244v-3.693a.849.849 0 011.698 0v3.85h3.849a.849.849 0 110 1.697H75.08a2.674 2.674 0 100 5.349h2.35zm-1.175-33.536a34.385 34.385 0 100 68.77 34.385 34.385 0 000-68.77zm0 56.373a21.99 21.99 0 110-43.979 21.99 21.99 0 010 43.98zm0-42.28a20.291 20.291 0 100 40.583 20.291 20.291 0 000-40.582z" fill="url(#kpaint1_linear)"/><path d="M77.43 69.789h.074l.075-.008a4.401 4.401 0 11.875 8.76l-1.35.135v3.707a.849.849 0 11-1.698 0v-3.85h-3.849a.85.85 0 010-1.698h5.872a2.674 2.674 0 100-5.348h-2.35a4.373 4.373 0 01-.875-8.657l1.202-.244v-3.693a.849.849 0 011.698 0v3.85h3.849a.849.849 0 110 1.697H75.08a2.674 2.674 0 100 5.349h2.35zm-1.175-33.536a34.385 34.385 0 100 68.77 34.385 34.385 0 000-68.77zm0 56.373a21.99 21.99 0 110-43.979 21.99 21.99 0 010 43.98zm0-42.28a20.291 20.291 0 100 40.583 20.291 20.291 0 000-40.582z" stroke="#D4DEE3" stroke-width="3"/><path d="M28.14 106.288c1.406-5.311 5.624-9.373 10.935-10.935 1.718-.469 2.812-2.344 2.343-4.062-.468-1.718-2.343-2.812-4.061-2.343-7.499 2.03-13.435 7.967-15.466 15.465-.469 1.719.625 3.594 2.343 4.062.313.156.625.156.938.156 1.405.157 2.655-.781 2.968-2.343z" fill="#6A8B9D"/><path fill-rule="evenodd" clip-rule="evenodd" d="M43.293 122.066a11.534 11.534 0 01-11.56-11.56c0-6.249 5.155-11.56 11.56-11.56s11.56 5.155 11.56 11.56-5.155 11.56-11.56 11.56zm4.999-11.56c0-2.812-2.187-4.999-5-4.999-2.811 0-4.998 2.343-4.998 4.999 0 2.812 2.187 4.999 4.999 4.999s4.999-2.187 4.999-4.999z" fill="#6A8B9D"/><path fill-rule="evenodd" clip-rule="evenodd" d="M43.293 143.468c18.121 0 32.962-14.841 32.962-32.962 0-18.122-14.84-32.806-32.962-32.806-18.122 0-32.962 14.684-32.962 32.806 0 18.278 14.84 32.962 32.962 32.962zm0-59.363c14.528 0 26.401 11.872 26.401 26.401 0 14.528-11.873 26.401-26.401 26.401-14.529 0-26.401-11.716-26.401-26.401s11.872-26.401 26.4-26.401z" fill="#6A8B9D"/><path fill-rule="evenodd" clip-rule="evenodd" d="M118.336 52.472a1.88 1.88 0 00-1.88 1.88V68.87a1.88 1.88 0 003.761 0V54.352a1.88 1.88 0 00-1.881-1.88zm7.898 0a1.88 1.88 0 00-1.88 1.88V68.87a1.88 1.88 0 003.76 0V54.352a1.88 1.88 0 00-1.88-1.88zm7.849 0a1.88 1.88 0 00-1.88 1.88V68.87a1.88 1.88 0 103.76 0V54.352a1.88 1.88 0 00-1.88-1.88zm5.969 1.88a1.88 1.88 0 113.76 0V68.87a1.88 1.88 0 01-3.76 0V54.352z" fill="#D4DEE3"/><defs><linearGradient id="kpaint0_linear" x1="80.951" y1=".611" x2="80.951" y2="160.611" gradientUnits="userSpaceOnUse"><stop stop-color="#D4DEE3" stop-opacity="0"/><stop offset="1" stop-color="#D4DEE3"/></linearGradient><linearGradient id="kpaint1_linear" x1="92.409" y1="49.398" x2="43.37" y2="103.522" gradientUnits="userSpaceOnUse"><stop stop-color="#CEB764"/><stop offset=".755" stop-color="#D8B94D" stop-opacity="0"/></linearGradient></defs></svg><svg fill="none" viewBox="0 0 170 164" id="monetization-models"><path fill-rule="evenodd" clip-rule="evenodd" d="M39.118 33.611v100h100v-100h-100zm-22-30a8 8 0 00-8 8v144a8 8 0 008 8h144a8 8 0 008-8v-144a8 8 0 00-8-8h-144z" fill="#EBEFF0"/><path fill-rule="evenodd" clip-rule="evenodd" d="M39.118 33.611v100h100v-100h-100zm-22-30a8 8 0 00-8 8v144a8 8 0 008 8h144a8 8 0 008-8v-144a8 8 0 00-8-8h-144z" fill="url(#lpaint0_linear)"/><path d="M111.265 55.2c-4.699.01-8.544 3.541-9.144 8.075l-26.033.052c-.464-7.334-4.893-13.587-11.172-16.654l5.676-21.692c.332.026.652.1.989.099 6.8-.014 12.322-5.557 12.308-12.358-.013-6.8-5.557-12.32-12.355-12.306-6.803.013-12.325 5.557-12.311 12.357.011 5.61 3.805 10.294 8.945 11.775l-5.542 21.178a19.815 19.815 0 00-6.461-1.081c-6.096.012-11.549 2.778-15.202 7.106L24.958 40.97a12.87 12.87 0 001.13-5.27c-.014-7.16-5.85-12.973-13.013-12.958C5.915 22.755.102 28.59.116 35.75c.015 7.16 5.851 12.973 13.01 12.959 4.403-.009 8.282-2.229 10.625-5.593l15.743 10.608a19.822 19.822 0 00-3.242 10.912c.018 9.165 6.257 16.875 14.697 19.186l-4.49 15.166a7.119 7.119 0 00-1.129-.113c-4.038.008-7.317 3.301-7.31 7.336.009 4.041 3.301 7.32 7.34 7.312 4.04-.008 7.32-3.303 7.312-7.341-.006-2.782-1.589-5.173-3.884-6.407l4.578-15.456c.941.138 1.897.23 2.878.227 10.586-.02 19.233-8.333 19.851-18.76l26.033-.052c.616 4.534 4.475 8.045 9.176 8.036 5.12-.01 9.278-4.182 9.268-9.301-.011-5.12-4.187-9.28-9.307-9.27z" fill="#BFD3DC"/><path d="M51.799 79.736c-8.35-2.47-13.169-11.334-10.7-19.684.517-1.747 1.53-3.684 2.576-5.236.32-.475.213-1.128-.262-1.448l-6.282-4.241a.962.962 0 00-1.295.184c-1.897 2.392-2.842 4.888-3.782 8.066-3.944 13.336 3.652 27.31 16.988 31.254 4.148 1.227 8.418 1.322 12.463.477a.969.969 0 00.695-1.3l-2.615-6.922c-.179-.475-.684-.735-1.184-.651-2.088.352-4.366.162-6.602-.5zm8.985-30.383c2.638.78 4.981 2.203 6.793 4.105.317.333.811.437 1.222.232l6.824-3.4c.552-.275.727-.981.342-1.464-3.094-3.877-7.383-6.877-12.54-8.403-7.853-2.322-15.986-.596-22.18 3.972a.968.968 0 00-.091 1.47l5.326 5.266c.351.347.902.383 1.314.11 3.765-2.496 8.41-3.243 12.99-1.888z" fill="#A7ABFF"/><path d="M71.445 57.224c-.491.245-.691.838-.483 1.346a15.767 15.767 0 01.52 10.466c-1.178 3.988-3.871 7.2-7.233 9.18a1.046 1.046 0 00-.464 1.264l2.633 6.972a.968.968 0 001.338.537c5.948-3.006 10.605-8.376 12.656-15.312 1.75-5.917 1.172-11.96-1.153-17.21a.97.97 0 00-1.325-.465l-6.489 3.222z" fill="#6164A9"/><path d="M113.445 66.726a32.882 32.882 0 00-32.252 39.299 32.886 32.886 0 0025.837 25.837 32.88 32.88 0 0033.757-13.983 32.884 32.884 0 00-27.342-51.153zm0 56.373a23.487 23.487 0 01-21.7-14.5 23.49 23.49 0 1121.7 14.5zm0-42.28a18.795 18.795 0 00-17.36 11.6 18.791 18.791 0 1017.36-11.6zm-1.174 16.442h2.349a5.901 5.901 0 111.174 11.744v2.349a2.346 2.346 0 01-2.349 2.349 2.348 2.348 0 01-2.349-2.349v-2.349h-2.349a2.347 2.347 0 01-1.66-4.009 2.344 2.344 0 011.66-.688h5.873a1.175 1.175 0 000-2.349h-2.349a5.876 5.876 0 01-5.849-5.282 5.873 5.873 0 014.674-6.345v-2.466a2.35 2.35 0 012.349-2.35 2.348 2.348 0 012.349 2.35v2.349h2.349a2.35 2.35 0 010 4.697h-5.872a1.176 1.176 0 00-1.175 1.175 1.175 1.175 0 001.175 1.174z" fill="#8C8FF0"/><path d="M113.445 66.726a32.882 32.882 0 00-32.252 39.299 32.886 32.886 0 0025.837 25.837 32.88 32.88 0 0033.757-13.983 32.884 32.884 0 00-27.342-51.153zm0 56.373a23.487 23.487 0 01-21.7-14.5 23.49 23.49 0 1121.7 14.5zm0-42.28a18.795 18.795 0 00-17.36 11.6 18.791 18.791 0 1017.36-11.6zm-1.174 16.442h2.349a5.901 5.901 0 111.174 11.744v2.349a2.346 2.346 0 01-2.349 2.349 2.348 2.348 0 01-2.349-2.349v-2.349h-2.349a2.347 2.347 0 01-1.66-4.009 2.344 2.344 0 011.66-.688h5.873a1.175 1.175 0 000-2.349h-2.349a5.876 5.876 0 01-5.849-5.282 5.873 5.873 0 014.674-6.345v-2.466a2.35 2.35 0 012.349-2.35 2.348 2.348 0 012.349 2.35v2.349h2.349a2.35 2.35 0 010 4.697h-5.872a1.176 1.176 0 00-1.175 1.175 1.175 1.175 0 001.175 1.174z" fill="url(#lpaint1_linear)"/><path fill-rule="evenodd" clip-rule="evenodd" d="M76.583 132.494a6.452 6.452 0 110-12.905 6.452 6.452 0 010 12.905zm-13.601 0a3.441 3.441 0 110-6.883 3.441 3.441 0 010 6.883z" fill="#8C8FF0"/><path fill-rule="evenodd" clip-rule="evenodd" d="M66.708 122.61a7.44 7.44 0 102.372 10.708 10.42 10.42 0 007.503 3.176c5.773 0 10.453-4.679 10.453-10.452s-4.68-10.452-10.453-10.452c-4.57 0-8.455 2.933-9.875 7.02zm3.423 3.432a6.452 6.452 0 1012.905 0 6.452 6.452 0 00-12.905 0zm-10.59 3.011a3.441 3.441 0 106.882 0 3.441 3.441 0 00-6.882 0z" fill="#fff"/><defs><linearGradient id="lpaint0_linear" x1="89.118" y1="3.611" x2="89.118" y2="163.611" gradientUnits="userSpaceOnUse"><stop stop-color="#EBEFF0"/><stop offset="1" stop-color="#fff"/></linearGradient><linearGradient id="lpaint1_linear" x1="129.599" y1="78.37" x2="80.561" y2="132.494" gradientUnits="userSpaceOnUse"><stop stop-color="#A7AAFF"/><stop offset=".755" stop-color="#A7AAFF" stop-opacity="0"/></linearGradient></defs></svg><svg fill="none" viewBox="0 0 169 161" id="new-distribution-channels"><path fill-rule="evenodd" clip-rule="evenodd" d="M38.871 30.61v100.001h100v-100h-100zm-22-30a8 8 0 00-8 8v144.001a8 8 0 008 8h144a8 8 0 008-8v-144a8 8 0 00-8-8h-144z" fill="#477079" fill-opacity=".7"/><path fill-rule="evenodd" clip-rule="evenodd" d="M38.871 30.61v100.001h100v-100h-100zm-22-30a8 8 0 00-8 8v144.001a8 8 0 008 8h144a8 8 0 008-8v-144a8 8 0 00-8-8h-144z" fill="url(#mpaint0_linear)"/><path fill="#75ADB5" d="M92.824 41.78h50.478v35.98H92.824z"/><path d="M112.329 101.295c-7.513-.746-14.277-3.365-20.205-7.825-8.984-6.757-14.564-16.79-15.651-28.138-.255-2.658-.144-6.579.264-9.367 1.966-13.417 10.801-25.002 23.255-30.492 3.131-1.38 6.826-2.447 10.175-2.938 3.642-.534 7.997-.534 11.638 0 13.417 1.966 25.002 10.801 30.492 23.254 1.381 3.132 2.448 6.827 2.938 10.176.534 3.641.534 7.997 0 11.638-1.511 10.315-7.153 19.746-15.555 26.001-5.901 4.394-12.666 6.977-20.146 7.694-1.643.157-5.607.156-7.205-.003zm-6.146-32.847V66.87a5 5 0 00-5-5h-1.007a5 5 0 00-5 5v3.157a5 5 0 005 5h1.007a5 5 0 005-5v-1.579zm15.307-6.621v-4.518a5 5 0 00-5-5h-1.007a5 5 0 00-5 5v12.718a5 5 0 005 5h1.007a5 5 0 005-5v-8.2zm15.822 6.621V53.983a5 5 0 00-5-5h-1.007a5 5 0 00-5 5v16.044a5 5 0 005 5h1.007a5 5 0 005-5v-1.579z" fill="#53808A"/><path d="M90.87 84.322c-5.339 0-9.88 3.368-11.647 8.09H66.916c-1.451-7.445-8.003-13.069-15.874-13.069-1.793 0-3.513.304-5.125.842l-4.52-7.223a12.394 12.394 0 003.421-8.555c0-6.872-5.572-12.446-12.446-12.446-6.873 0-12.447 5.574-12.447 12.447 0 6.871 5.574 12.446 12.447 12.446 1.31 0 2.57-.204 3.757-.58l4.374 6.988c-3.449 2.968-5.642 7.356-5.642 12.262 0 5.04 2.306 9.54 5.919 12.508l-4.442 6.819a12.374 12.374 0 00-3.966-.657c-6.873 0-12.447 5.573-12.447 12.446 0 6.872 5.574 12.447 12.447 12.447 6.874 0 12.446-5.575 12.446-12.447a12.38 12.38 0 00-3.27-8.387l4.732-7.263c1.506.463 3.104.715 4.762.715 7.87 0 14.423-5.624 15.874-13.07H78.58c.902 5.986 6.053 10.58 12.29 10.58 6.875 0 12.447-5.575 12.447-12.446 0-6.873-5.572-12.447-12.446-12.447zm-39.83 21.159c-5.49 0-9.957-4.467-9.957-9.957 0-5.49 4.468-9.957 9.958-9.957s9.957 4.467 9.957 9.957c0 5.49-4.467 9.957-9.957 9.957z" fill="#D2B552"/><path d="M12.456 109.215c6.874 0 12.447-5.572 12.447-12.446 0-6.875-5.573-12.447-12.447-12.447C5.582 84.322.01 89.894.01 96.769c0 6.874 5.572 12.446 12.446 12.446z" fill="#53808A"/><path d="M69.71 76.854c6.874 0 12.447-5.572 12.447-12.447 0-6.873-5.573-12.446-12.447-12.446-6.874 0-12.446 5.572-12.446 12.447 0 6.874 5.572 12.446 12.446 12.446zm0 62.233c6.874 0 12.447-5.573 12.447-12.447 0-6.874-5.573-12.446-12.447-12.446-6.874 0-12.446 5.572-12.446 12.446s5.572 12.447 12.446 12.447z" fill="#75ADB5"/><defs><linearGradient id="mpaint0_linear" x1="88.871" y1=".611" x2="88.871" y2="160.611" gradientUnits="userSpaceOnUse"><stop stop-color="#3C5A63" stop-opacity="0"/><stop offset=".76" stop-color="#37535B"/></linearGradient></defs></svg><svg fill="none" viewBox="0 0 169 161" id="new-impressions"><path fill-rule="evenodd" clip-rule="evenodd" d="M38.844 30.61v100.001h100v-100h-100zm-22-30a8 8 0 00-8 8v144.001a8 8 0 008 8h144a8 8 0 008-8v-144a8 8 0 00-8-8h-144z" fill="#EBEFF0"/><path fill-rule="evenodd" clip-rule="evenodd" d="M38.844 30.61v100.001h100v-100h-100zm-22-30a8 8 0 00-8 8v144.001a8 8 0 008 8h144a8 8 0 008-8v-144a8 8 0 00-8-8h-144z" fill="url(#npaint0_linear)"/><path d="M45.058 135.285a6.5 6.5 0 100-13 6.5 6.5 0 000 13zm13.702 0a3.467 3.467 0 100-6.933 3.467 3.467 0 000 6.933z" fill="#E5D389"/><path d="M101.041 48.662c-31.891 0-57.75 42.748-57.75 42.748s25.859 43.875 57.75 43.875S158.79 91.41 158.79 91.41s-25.858-42.748-57.749-42.748zm0 72.186c-15.947 0-28.875-12.928-28.875-28.875 0-15.946 12.928-28.874 28.875-28.874s28.875 12.928 28.875 28.874c0 15.947-12.928 28.875-28.875 28.875z" fill="#ECD37A"/><path d="M101.041 48.662c-31.891 0-57.75 42.748-57.75 42.748s25.859 43.875 57.75 43.875S158.79 91.41 158.79 91.41s-25.858-42.748-57.749-42.748zm0 72.186c-15.947 0-28.875-12.928-28.875-28.875 0-15.946 12.928-28.874 28.875-28.874s28.875 12.928 28.875 28.874c0 15.947-12.928 28.875-28.875 28.875z" fill="url(#npaint1_linear)" fill-opacity=".15"/><path d="M115.479 92.03c0 7.979-6.465 14.437-14.438 14.437-7.973 0-14.437-6.458-14.437-14.437 0-7.98 6.464-14.438 14.437-14.438 7.973 0 14.438 6.458 14.438 14.438z" fill="#ECD37A"/><path fill-rule="evenodd" clip-rule="evenodd" d="M37.983 30.939C21.648 32.519 8.62 45.544 7.04 61.88H3.359a3.342 3.342 0 000 6.685H7.04C8.62 84.9 21.648 97.927 37.983 99.507v3.681a3.343 3.343 0 106.685 0v-3.681C61.003 97.927 74.03 84.9 75.61 68.565h3.681a3.342 3.342 0 000-6.684H75.61c-1.58-16.336-14.607-29.362-30.942-30.942v-3.682a3.342 3.342 0 00-6.684 0v3.681zm6.684 6.72c12.642 1.524 22.697 11.58 24.22 24.221h-3.309a3.342 3.342 0 000 6.685h3.31c-1.524 12.642-11.58 22.697-24.221 24.22v-3.309a3.342 3.342 0 00-6.684 0v3.31C25.34 91.262 15.285 81.206 13.76 68.565h3.31a3.342 3.342 0 000-6.684h-3.31c1.524-12.642 11.58-22.698 24.221-24.222v3.31a3.342 3.342 0 006.685 0v-3.31z" fill="#6A8B9D"/><defs><linearGradient id="npaint0_linear" x1="88.844" y1=".611" x2="88.844" y2="160.611" gradientUnits="userSpaceOnUse"><stop stop-color="#EBEFF0"/><stop offset="1" stop-color="#fff"/></linearGradient><linearGradient id="npaint1_linear" x1="122.984" y1="123.094" x2="101.041" y2="91.973" gradientUnits="userSpaceOnUse"><stop offset=".38" stop-color="#EDD47B"/><stop offset="1" stop-color="#B4E7FF"/></linearGradient></defs></svg><svg fill="none" viewBox="0 0 160 161" id="new-markets"><path fill="url(#opaint0_linear)" fill-opacity=".5" fill-rule="evenodd" d="M30 30.61v100.001h100v-100H30zM8 .61a8 8 0 00-8 8v144.001a8 8 0 008 8h144a8 8 0 008-8v-144a8 8 0 00-8-8H8z" clip-rule="evenodd"/><path fill="#D7BF6A" fill-rule="evenodd" d="M92.728 144.611c30.29 0 55.361-22.344 59.631-51.448-1.326.762-2.671 1.48-3.983 2.178-7.034 3.745-11.297 6.347-11.181 10.893.031 1.373-.432 2.579-1.332 3.493-2.048 2.071-5.646 2.026-9.798 1.973l-.119-.001c-3.238-.033-7.219-.073-8.705 1.233-1.778 1.563-3.87 2.172-6.025 2.172-3.317 0-6.778-1.444-9.458-3.071.593-1.827.763-3.758.514-5.641.05.035.098.071.147.109 2.014 1.573 8.453 5.453 11.566 2.721 2.907-2.553 7.754-2.505 12.052-2.462l.093.001c1.984.03 5.235.067 6.125-.443-.125-7.92 6.954-11.691 13.805-15.339 2.437-1.298 4.821-2.57 6.882-3.985.039-.88.058-1.765.058-2.655 0-33.287-26.985-60.272-60.272-60.272-3.086 0-6.118.232-9.08.68-.98 1.546-1.749 3.608-2.076 6.566-.214 1.952-.484 3.656-.722 5.158-.95 6.008-.892 6.853 2.145 8.206 3.425 1.527 5.602 1.758 7.908 2 1.587.166 3.228.339 5.17.931 4.831 1.477 4.413 8.284 4.16 12.353-.023.374-.048.815-.068 1.205l.017.007.001.012a12.7 12.7 0 00-4.697 2.502c-.372-.978-.29-2.32-.188-4.008l.002-.022c.392-6.306-.341-7.223-.672-7.325-1.491-.453-2.768-.588-4.248-.744h-.002c-2.465-.26-5.261-.555-9.4-2.4-6.674-2.972-5.94-7.614-5.01-13.487l.007-.044c.227-1.44.484-3.067.684-4.886.203-1.833.555-3.422 1.012-4.808C56.697 31.357 40.14 47.757 34.52 68.64c6.054 1.853 12.91 4.965 12.465 9.481-.09.917-.236 1.865-.384 2.818-.532 3.455-.783 5.799.51 6.78.399-.157 1.176-.823 1.654-1.236 1.378-1.186 4.608-3.954 7.549-.85.667.705 1.896 1.613 3.2 2.575l.014.011c3.8 2.802 8.105 5.978 7.152 10.128-.317 1.405-.87 2.951-1.405 4.444l-.009.023c-.464 1.299-1.211 3.386-1.264 4.24 1.521 2.13 6.563 10.603 6.005 13.059l.052.813.002.022.05.767c.218 3.385.302 6.116-.75 7.892-.045.076-2.451 3.986-5.463 7.675 8.564 4.673 18.386 7.329 28.83 7.329zM32.456 84.339c0-3.7.333-7.32.971-10.835 4.382 1.422 8.037 3.185 8.632 4.283-.083.776-.207 1.579-.331 2.383l-.004.02c-.599 3.893-1.344 8.736 2.516 11.547 3.245 2.355 6.168-.153 7.744-1.505l.023-.02c.313-.268.728-.625 1.047-.854.94.914 2.197 1.842 3.517 2.818l.027.02c1.36 1.002 5.5 4.057 5.269 5.058-.253 1.117-.752 2.51-1.236 3.86l-.005.014c-1.322 3.686-2.463 6.869-.542 8.895.998 1.092 4.517 7.782 5.029 9.519-.048.576-.005 1.31.07 2.494.084 1.285.279 4.295-.064 5.046-1.32 2.206-3.479 5.206-5.5 7.628-16.363-10.777-27.163-29.313-27.163-50.371zm60.272 67.272c37.153 0 67.272-30.119 67.272-67.272 0-37.153-30.119-67.272-67.272-67.272-37.153 0-67.272 30.119-67.272 67.272 0 37.153 30.119 67.272 67.272 67.272z" clip-rule="evenodd"/><path fill="#fff" fill-rule="evenodd" d="M127.892 144.611c13.867 0 25.108-11.241 25.108-25.108s-11.241-25.109-25.108-25.109-25.109 11.242-25.109 25.109 11.242 25.108 25.109 25.108zm0 7c17.733 0 32.108-14.375 32.108-32.108 0-17.733-14.375-32.109-32.108-32.109-17.733 0-32.109 14.376-32.109 32.109 0 17.733 14.376 32.108 32.109 32.108z" clip-rule="evenodd"/><path fill="#9AC8DE" fill-rule="evenodd" d="M101.676 71.576a2.783 2.783 0 013.932-.139l9.202 8.575a2.782 2.782 0 01-3.792 4.07l-9.203-8.575a2.782 2.782 0 01-.139-3.93zM79.234 75.08a2.781 2.781 0 013.93-.171l17.617 16.15a2.781 2.781 0 11-3.759 4.1l-17.617-16.15a2.782 2.782 0 01-.171-3.93zm-.87 22.524a2.782 2.782 0 013.931-.138l9.202 8.575a2.781 2.781 0 11-3.792 4.069l-9.202-8.574a2.782 2.782 0 01-.14-3.932z" clip-rule="evenodd"/><defs><linearGradient id="opaint0_linear" x1="80" x2="80" y1=".611" y2="160.611" gradientUnits="userSpaceOnUse"><stop stop-color="#D7BF6A"/><stop offset="1" stop-color="#D7BF6A" stop-opacity="0"/></linearGradient></defs></svg><svg fill="none" viewBox="0 0 179 169" id="new-users"><path fill-rule="evenodd" clip-rule="evenodd" d="M42.616 38.972v100h100v-100h-100zm-22-30a8 8 0 00-8 8v144a8 8 0 008 8h144a8 8 0 008-8v-144a8 8 0 00-8-8h-144z" fill="#EBEFF0"/><path fill-rule="evenodd" clip-rule="evenodd" d="M42.616 38.972v100h100v-100h-100zm-22-30a8 8 0 00-8 8v144a8 8 0 008 8h144a8 8 0 008-8v-144a8 8 0 00-8-8h-144z" fill="url(#ppaint0_linear)"/><path fill-rule="evenodd" clip-rule="evenodd" d="M138.253 109.896c0 6.131 4.985 11.116 11.116 11.116 6.133 0 11.116-5.051 11.116-11.116 0-6.131-4.985-11.116-11.116-11.116-6.131 0-11.116 4.985-11.116 11.116zm6.018 0a5.102 5.102 0 015.098-5.097c2.741 0 5.036 2.279 5.098 5.102a5.103 5.103 0 01-5.098 5.093 5.103 5.103 0 01-5.098-5.098z" fill="#ECD37A"/><path fill-rule="evenodd" clip-rule="evenodd" d="M138.253 109.896c0 6.131 4.985 11.116 11.116 11.116 6.133 0 11.116-5.051 11.116-11.116 0-6.131-4.985-11.116-11.116-11.116-6.131 0-11.116 4.985-11.116 11.116zm6.018 0a5.102 5.102 0 015.098-5.097c2.741 0 5.036 2.279 5.098 5.102a5.103 5.103 0 01-5.098 5.093 5.103 5.103 0 01-5.098-5.098z" fill="url(#ppaint1_linear)" fill-opacity=".15"/><path fill-rule="evenodd" clip-rule="evenodd" d="M149.369 86.17c-16.233 0-29.453 13.22-29.453 29.452 0 16.233 13.22 29.453 29.453 29.453 16.233 0 29.453-13.22 29.453-29.453 0-16.232-13.22-29.453-29.453-29.453zm0 52.887a23.189 23.189 0 01-14.446-5.015 20.28 20.28 0 0114.446-6.017 20.28 20.28 0 0114.446 6.017 23.333 23.333 0 01-14.446 5.015zm-23.37-23.435a23.235 23.235 0 004.692 14.04 26.37 26.37 0 0118.678-7.72c7.021 0 13.73 2.795 18.678 7.72a23.232 23.232 0 004.692-14.04c0-12.85-10.457-23.37-23.37-23.37-12.85 0-23.37 10.458-23.37 23.37z" fill="#ECD37A"/><path fill-rule="evenodd" clip-rule="evenodd" d="M149.369 86.17c-16.233 0-29.453 13.22-29.453 29.452 0 16.233 13.22 29.453 29.453 29.453 16.233 0 29.453-13.22 29.453-29.453 0-16.232-13.22-29.453-29.453-29.453zm0 52.887a23.189 23.189 0 01-14.446-5.015 20.28 20.28 0 0114.446-6.017 20.28 20.28 0 0114.446 6.017 23.333 23.333 0 01-14.446 5.015zm-23.37-23.435a23.235 23.235 0 004.692 14.04 26.37 26.37 0 0118.678-7.72c7.021 0 13.73 2.795 18.678 7.72a23.232 23.232 0 004.692-14.04c0-12.85-10.457-23.37-23.37-23.37-12.85 0-23.37 10.458-23.37 23.37z" fill="url(#ppaint2_linear)" fill-opacity=".15"/><path fill-rule="evenodd" clip-rule="evenodd" d="M90.317 109.896c0 6.131 4.985 11.116 11.116 11.116 6.133 0 11.117-5.051 11.117-11.116 0-6.131-4.986-11.116-11.117-11.116-6.13 0-11.116 4.985-11.116 11.116zm6.019 0a5.102 5.102 0 015.097-5.098c2.741 0 5.036 2.279 5.098 5.103a5.102 5.102 0 01-5.098 5.093 5.102 5.102 0 01-5.097-5.098z" fill="#BAD0DB"/><path fill-rule="evenodd" clip-rule="evenodd" d="M101.433 86.17c-16.232 0-29.453 13.22-29.453 29.452 0 16.233 13.22 29.453 29.453 29.453 16.233 0 29.453-13.22 29.453-29.453 0-16.232-13.22-29.453-29.453-29.453zm0 52.887a23.188 23.188 0 01-14.446-5.015 20.279 20.279 0 0114.446-6.017 20.28 20.28 0 0114.446 6.017 23.33 23.33 0 01-14.446 5.015zm-23.37-23.435a23.237 23.237 0 004.692 14.04 26.372 26.372 0 0118.678-7.72c7.021 0 13.73 2.795 18.678 7.72a23.232 23.232 0 004.692-14.04c0-12.85-10.457-23.37-23.37-23.37-12.85 0-23.37 10.458-23.37 23.37z" fill="#BAD0DB"/><path fill-rule="evenodd" clip-rule="evenodd" d="M42.525 109.256c0 6.131 4.985 11.116 11.117 11.116 6.133 0 11.116-5.051 11.116-11.116 0-6.131-4.985-11.116-11.116-11.116-6.132 0-11.117 4.985-11.117 11.116zm6.019 0a5.101 5.101 0 015.098-5.097c2.74 0 5.036 2.279 5.097 5.103a5.102 5.102 0 01-5.097 5.092 5.102 5.102 0 01-5.098-5.098z" fill="#6A8B9D"/><path fill-rule="evenodd" clip-rule="evenodd" d="M53.642 85.53c-16.233 0-29.454 13.22-29.454 29.453 0 16.232 13.22 29.453 29.454 29.453 16.232 0 29.453-13.221 29.453-29.453 0-16.233-13.221-29.454-29.453-29.454zm0 52.887a23.194 23.194 0 01-14.447-5.014 20.275 20.275 0 0114.447-6.017c5.47 0 10.646 2.176 14.445 6.016a23.326 23.326 0 01-14.446 5.015zm-23.37-23.434a23.234 23.234 0 004.691 14.039 26.371 26.371 0 0118.678-7.719 26.49 26.49 0 0118.679 7.719 23.234 23.234 0 004.692-14.039c0-12.85-10.458-23.37-23.37-23.37-12.85 0-23.37 10.457-23.37 23.37z" fill="#6A8B9D"/><path d="M39.73 26.19a3.241 3.241 0 00-3.242 3.241v9.43H27.06a3.241 3.241 0 100 6.482h9.43v9.429a3.241 3.241 0 006.482 0v-9.429H52.4a3.241 3.241 0 000-6.483h-9.43v-9.429a3.241 3.241 0 00-3.24-3.241z" fill="#D2B552"/><defs><linearGradient id="ppaint0_linear" x1="92.616" y1="8.972" x2="92.616" y2="168.972" gradientUnits="userSpaceOnUse"><stop stop-color="#EBEFF0"/><stop offset="1" stop-color="#fff"/></linearGradient><linearGradient id="ppaint1_linear" x1="160.561" y1="136.785" x2="144.748" y2="119.966" gradientUnits="userSpaceOnUse"><stop offset=".38" stop-color="#EDD47B"/><stop offset="1" stop-color="#B4E7FF"/></linearGradient><linearGradient id="ppaint2_linear" x1="160.561" y1="136.785" x2="144.748" y2="119.966" gradientUnits="userSpaceOnUse"><stop offset=".38" stop-color="#EDD47B"/><stop offset="1" stop-color="#B4E7FF"/></linearGradient></defs></svg><svg fill="none" viewBox="0 0 161 161" id="partnerships-with-influential-publishers"><path fill-rule="evenodd" clip-rule="evenodd" d="M30.208 30.61v100.001h100v-100h-100zm-22-30a8 8 0 00-8 8v144.001a8 8 0 008 8h144a8 8 0 008-8v-144a8 8 0 00-8-8h-144z" fill="#477079" fill-opacity=".7"/><path fill-rule="evenodd" clip-rule="evenodd" d="M30.208 30.61v100.001h100v-100h-100zm-22-30a8 8 0 00-8 8v144.001a8 8 0 008 8h144a8 8 0 008-8v-144a8 8 0 00-8-8h-144z" fill="url(#qpaint0_linear)"/><path fill="#137C69" d="M37.593 31.855h120.44v75.2H37.593z"/><path d="M101.951 43.197h40.735a1 1 0 011 1v1.9a1 1 0 01-1 1h-40.735a1 1 0 01-1-1v-1.9a1 1 0 011-1zm40.735 16.204h-40.735a1 1 0 00-1 1v1.9a1 1 0 001 1h40.735a1 1 0 001-1v-1.9a1 1 0 00-1-1zm0 8.103h-40.735a1 1 0 00-1 1v1.9a1 1 0 001 1h40.735a1 1 0 001-1v-1.9a1 1 0 00-1-1zm0-16.206h-40.735a1 1 0 00-1 1v1.9a1 1 0 001 1h40.735a1 1 0 001-1v-1.9a1 1 0 00-1-1zm-40.735 24.308h40.735a1 1 0 011 1v1.9a1 1 0 01-1 1h-40.735a1 1 0 01-1-1v-1.9a1 1 0 011-1zm40.735 8.103h-40.735a1 1 0 00-1 1v1.9a1 1 0 001 1h40.735a1 1 0 001-1v-1.9a1 1 0 00-1-1zm-40.735 8.101h40.735a1 1 0 011 1v1.9a1 1 0 01-1 1h-40.735a1 1 0 01-1-1v-1.9a1 1 0 011-1z" fill="#1F3239"/><path fill-rule="evenodd" clip-rule="evenodd" d="M39.822 29.76h115.979c2.436 0 4.417 1.933 4.419 4.31v83.668a4 4 0 01-4 4h-40.031a1 1 0 00-.849 1.132l1.675 11.711c.071.493.493.859.99.859h7.207a1 1 0 011 1v4.416a1 1 0 01-1 1h-54.8a1 1 0 01-1-1v-4.416a1 1 0 011-1h7.208a1 1 0 00.99-.859l1.676-11.711a1 1 0 00-.85-1.132H39.405a4 4 0 01-4-4V34.07c0-2.377 1.981-4.31 4.417-4.31zm116.265 75.126H39.537a.994.994 0 01-.232-.639V34.07c0-.195.213-.41.517-.41h115.979c.304 0 .517.215.517.41v70.177a.996.996 0 01-.231.639zM85.13 121.738a1 1 0 00-.864.85L82.59 134.3a1 1 0 00.99 1.142h28.462a1 1 0 00.989-1.142l-1.675-11.712a1 1 0 00-.865-.85h-25.36z" fill="#1F3239"/><path d="M50.179 96.528V26.85a1 1 0 011-1h36.587a1 1 0 011 1v69.67a1 1 0 01-1.633.774l-16.98-13.878a1 1 0 00-1.264-.001l-17.08 13.887a1 1 0 01-1.63-.775z" fill="#30C6AB"/><path d="M68.62 43.394c.3-.922 1.604-.922 1.903 0l1.657 5.103a1 1 0 00.951.691h5.365c.968 0 1.37 1.24.587 1.809l-4.34 3.155a1 1 0 00-.363 1.118l1.658 5.104c.299.921-.756 1.687-1.54 1.118l-4.338-3.154a1 1 0 00-1.176 0l-4.339 3.154c-.783.57-1.838-.197-1.539-1.118l1.658-5.104a1 1 0 00-.363-1.118l-4.34-3.155c-.784-.57-.381-1.809.587-1.809h5.364a1 1 0 00.952-.691l1.657-5.103z" fill="#137C69"/><path d="M68.62 43.394c.3-.922 1.604-.922 1.903 0l1.657 5.103a1 1 0 00.951.691h5.365c.968 0 1.37 1.24.587 1.809l-4.34 3.155a1 1 0 00-.363 1.118l1.658 5.104c.299.921-.756 1.687-1.54 1.118l-4.338-3.154a1 1 0 00-1.176 0l-4.339 3.154c-.783.57-1.838-.197-1.539-1.118l1.658-5.104a1 1 0 00-.363-1.118l-4.34-3.155c-.784-.57-.381-1.809.587-1.809h5.364a1 1 0 00.952-.691l1.657-5.103z" fill="url(#qpaint1_linear)" fill-opacity=".33"/><defs><linearGradient id="qpaint0_linear" x1="80.208" y1=".611" x2="80.208" y2="160.611" gradientUnits="userSpaceOnUse"><stop stop-color="#3C5A63" stop-opacity="0"/><stop offset=".76" stop-color="#37535B"/></linearGradient><linearGradient id="qpaint1_linear" x1="69.572" y1="42.703" x2="69.572" y2="61.687" gradientUnits="userSpaceOnUse"><stop stop-color="#1F3239"/><stop offset="1" stop-color="#1F3239" stop-opacity="0"/></linearGradient></defs></svg><svg fill="none" viewBox="0 0 161 161" id="scaling"><path fill-rule="evenodd" clip-rule="evenodd" d="M30.44 30.61v100.001h100v-100h-100zm-22-30a8 8 0 00-8 8v144.001a8 8 0 008 8h144a8 8 0 008-8v-144a8 8 0 00-8-8h-144z" fill="#314D55"/><path fill-rule="evenodd" clip-rule="evenodd" d="M30.44 30.61v100.001h100v-100h-100zm-22-30a8 8 0 00-8 8v144.001a8 8 0 008 8h144a8 8 0 008-8v-144a8 8 0 00-8-8h-144z" fill="url(#rpaint0_linear)"/><path d="M24.534 32.855h50.478v35.98H24.534v-35.98z" fill="#30C6AB"/><path d="M44.039 92.37c-7.513-.746-14.277-3.365-20.205-7.824-8.984-6.758-14.564-16.79-15.652-28.14-.254-2.657-.143-6.578.265-9.366 1.966-13.417 10.801-25.002 23.255-30.492 3.131-1.38 6.826-2.447 10.175-2.938 3.642-.534 7.997-.534 11.638 0 13.417 1.966 25.002 10.801 30.492 23.255 1.38 3.131 2.448 6.826 2.938 10.175.534 3.641.534 7.997 0 11.638-1.511 10.315-7.153 19.746-15.555 26.001-5.9 4.394-12.666 6.977-20.146 7.694-1.643.157-5.607.156-7.205-.003zm-6.146-32.847v-1.578a5 5 0 00-5-5h-1.007a5 5 0 00-5 5v3.157a5 5 0 005 5h1.007a5 5 0 005-5v-1.579zM53.2 52.902v-4.518a5 5 0 00-5-5h-1.007a5 5 0 00-5 5v12.718a5 5 0 005 5H48.2a5 5 0 005-5v-8.2zm15.822 6.621V45.058a5 5 0 00-5-5h-1.007a5 5 0 00-5 5v16.044a5 5 0 005 5h1.007a5 5 0 005-5v-1.579z" fill="#2D464F"/><path d="M103.439 136.255l23.97-13.697c1.386 1.191 3.164 1.939 5.129 1.939 4.356 0 7.902-3.546 7.902-7.903 0-3.429-2.21-6.327-5.268-7.417V87.133c3.058-1.09 5.268-3.988 5.268-7.418 0-4.356-3.546-7.902-7.902-7.902-1.965 0-3.743.748-5.126 1.939l-23.989-13.708c.08-.453.14-.92.14-1.398 0-4.357-3.545-7.903-7.902-7.903s-7.902 3.546-7.902 7.902c0 .48.06.946.142 1.402L63.913 73.754c-1.386-1.19-3.164-1.938-5.129-1.938-4.356 0-7.902 3.545-7.902 7.902 0 3.43 2.21 6.327 5.268 7.417v22.045c-3.058 1.09-5.268 3.988-5.268 7.417 0 4.357 3.546 7.902 7.902 7.902 1.965 0 3.743-.748 5.126-1.938l23.973 13.697c.592 3.772 3.84 6.677 7.778 6.677 3.938 0 7.186-2.905 7.778-6.68zm-5.144-8.64v-19.41c3.058-1.09 5.268-3.988 5.268-7.417 0-.48-.06-.946-.142-1.402l23.988-13.707a7.876 7.876 0 002.492 1.454v22.044c-3.058 1.09-5.268 3.988-5.268 7.417 0 .48.06.946.142 1.402l-22.453 12.83a7.871 7.871 0 00-4.027-3.211zm-9.298 3.211l-22.453-12.83c.082-.456.142-.922.142-1.402 0-3.429-2.21-6.327-5.268-7.417V87.133a7.826 7.826 0 002.492-1.454L87.9 99.386c-.08.459-.14.925-.14 1.404 0 3.43 2.21 6.327 5.268 7.418v19.41a7.87 7.87 0 00-4.03 3.208zm35.781-49.707l-23.989 13.708c-1.385-1.19-3.163-1.939-5.128-1.939-1.965 0-3.743.748-5.126 1.939L66.547 81.119a8.18 8.18 0 00.14-1.401c0-.48-.061-.946-.143-1.401l23.989-13.708c1.385 1.19 3.163 1.939 5.128 1.939 1.965 0 3.743-.748 5.126-1.939l23.988 13.708c-.079.455-.14.922-.14 1.4 0 .48.061.947.143 1.402zm-29.117 22.305a2.638 2.638 0 01-2.634-2.634 2.638 2.638 0 012.634-2.634 2.638 2.638 0 012.634 2.634 2.638 2.638 0 01-2.634 2.634zm36.877 15.804a2.637 2.637 0 01-2.634-2.634 2.638 2.638 0 012.634-2.634 2.639 2.639 0 012.634 2.634 2.638 2.638 0 01-2.634 2.634zm0-42.144a2.639 2.639 0 012.634 2.634 2.639 2.639 0 01-2.634 2.634 2.638 2.638 0 01-2.634-2.634 2.638 2.638 0 012.634-2.634zM95.661 56.01a2.638 2.638 0 012.634 2.634 2.638 2.638 0 01-2.634 2.635 2.638 2.638 0 01-2.634-2.635 2.638 2.638 0 012.634-2.634zM58.784 77.084a2.638 2.638 0 012.634 2.634 2.638 2.638 0 01-2.634 2.634 2.638 2.638 0 01-2.634-2.634 2.638 2.638 0 012.634-2.634zm0 42.144a2.638 2.638 0 01-2.634-2.634 2.639 2.639 0 012.634-2.634 2.639 2.639 0 012.634 2.634 2.638 2.638 0 01-2.634 2.634zm36.877 18.439a2.639 2.639 0 01-2.634-2.634 2.638 2.638 0 012.634-2.634 2.638 2.638 0 012.634 2.634 2.639 2.639 0 01-2.634 2.634z" fill="#53808A"/><path d="M104.104 59.187a8.443 8.443 0 11-16.886 0 8.443 8.443 0 0116.886 0z" fill="#30C6AB"/><path d="M66.62 79.623a8.443 8.443 0 11-16.887 0 8.443 8.443 0 0116.886 0z" fill="#466671"/><path d="M67.166 117.107a8.443 8.443 0 11-16.886 0 8.443 8.443 0 0116.886 0z" fill="#378E7F"/><path d="M104.104 135.358a8.443 8.443 0 01-8.443 8.443 8.443 8.443 0 110-16.886 8.443 8.443 0 018.443 8.443z" fill="#466671"/><path d="M140.44 116.452a8.444 8.444 0 11-16.887-.001 8.444 8.444 0 0116.887.001z" fill="#30C6AB"/><path d="M141.314 79.623a8.443 8.443 0 11-16.886 0 8.443 8.443 0 0116.886 0z" fill="#378E7F"/><path d="M104.104 100.933a8.443 8.443 0 01-8.443 8.443 8.443 8.443 0 110-16.886 8.443 8.443 0 018.443 8.443z" fill="#30C6AB"/><defs><linearGradient id="rpaint0_linear" x1="80.44" y1=".611" x2="80.44" y2="160.611" gradientUnits="userSpaceOnUse"><stop stop-color="#425E66"/><stop offset="1" stop-color="#425E66" stop-opacity="0"/></linearGradient></defs></svg><svg fill="none" viewBox="0 0 161 161" id="smart-targeting"><path fill-rule="evenodd" clip-rule="evenodd" d="M30.44 30.61v100.001h100v-100h-100zm-22-30a8 8 0 00-8 8v144.001a8 8 0 008 8h144a8 8 0 008-8v-144a8 8 0 00-8-8h-144z" fill="#BAD0DB"/><path fill-rule="evenodd" clip-rule="evenodd" d="M30.44 30.61v100.001h100v-100h-100zm-22-30a8 8 0 00-8 8v144.001a8 8 0 008 8h144a8 8 0 008-8v-144a8 8 0 00-8-8h-144z" fill="url(#spaint0_linear)"/><path fill-rule="evenodd" clip-rule="evenodd" d="M63.61 54.199a2 2 0 012-2h37.797a2 2 0 012 2V91.89a2 2 0 01-2 2H65.609a2 2 0 01-2-2V54.2zm50.156 0a2 2 0 012-2h12.72a2 2 0 012 2V91.89a2 2 0 01-2 2h-12.72a2 2 0 01-2-2V54.2zm-75.235 0a2 2 0 012-2H53.25a2 2 0 012 2V91.89a2 2 0 01-2 2H40.53a2 2 0 01-2-2V54.198zm50.157 50.03a2 2 0 012-2h37.798a2 2 0 012 2v12.678a2 2 0 01-2 2H90.688a2 2 0 01-2-2v-12.678zm-50.157 0a2 2 0 012-2h37.797a2 2 0 012 2v12.678a2 2 0 01-2 2H40.531a2 2 0 01-2-2v-12.678zm0-75.046a2 2 0 012-2h87.955a2 2 0 012 2V41.86a2 2 0 01-2 2H40.531a2 2 0 01-2-2V29.183z" fill="#E6EFF4"/><path d="M50.643 40.97c-10.908 0-19.78 8.867-19.78 19.769 0 10.902 8.872 19.77 19.78 19.77.527 0 1.036-.019 1.545-.055l-2.527-7.74c-6.18-.51-11.035-5.688-11.035-11.975 0-6.632 5.4-12.01 12.017-12.01 6.308 0 11.49 4.869 11.98 11.029l7.745 2.525c.036-.508.055-1.017.055-1.544 0-10.902-8.872-19.77-19.78-19.77z" fill="#8F92F2"/><path d="M50.643 22.69c-20.98 0-38.05 17.062-38.05 38.03 0 20.97 17.07 38.05 38.05 38.05 2.49 0 4.945-.236 7.308-.709l-2.436-7.432a30.67 30.67 0 01-4.872.4c-16.707 0-30.306-13.591-30.306-30.29 0-16.699 13.599-30.29 30.306-30.29s30.305 13.591 30.305 30.29c0 1.653-.127 3.289-.4 4.87l7.454 2.416a38.53 38.53 0 00.71-7.304c-.019-20.95-17.09-38.031-38.07-38.031z" fill="#9CB9C7"/><path d="M97.947 77.801l-24.07 6.16-6.163 24.058-5.836-17.826-1.8-5.505-2.436-7.487-1.8-5.505-2.8-8.558 8.563 2.798 5.509 1.799 7.49 2.434 5.508 1.8L97.947 77.8z" fill="#6164A9"/><defs><linearGradient id="spaint0_linear" x1="80.44" y1=".611" x2="80.44" y2="160.611" gradientUnits="userSpaceOnUse"><stop stop-color="#D4DEE3" stop-opacity="0"/><stop offset="1" stop-color="#D4DEE3"/></linearGradient></defs></svg><svg fill="none" viewBox="0 0 161 161" id="tailored-partnership"><path fill-rule="evenodd" clip-rule="evenodd" d="M30.118 30.611v100h100v-100h-100zm-22-30a8 8 0 00-8 8v144a8 8 0 008 8h144a8 8 0 008-8v-144a8 8 0 00-8-8h-144z" fill="#314D55"/><path fill-rule="evenodd" clip-rule="evenodd" d="M30.118 30.611v100h100v-100h-100zm-22-30a8 8 0 00-8 8v144a8 8 0 008 8h144a8 8 0 008-8v-144a8 8 0 00-8-8h-144z" fill="url(#tpaint0_linear)"/><path d="M117.704 36.875H42.62a6.257 6.257 0 00-6.258 6.257v75.084a6.259 6.259 0 006.258 6.257h75.084a6.257 6.257 0 006.257-6.257V43.132a6.26 6.26 0 00-6.257-6.257zm-6.257 75.084h-62.57v-62.57h62.57v62.57zm-6.257-81.34H30.106v75.083a6.259 6.259 0 01-10.682 4.425 6.258 6.258 0 01-1.833-4.425v-81.34a6.257 6.257 0 016.257-6.258h81.342a6.256 6.256 0 010 12.514z" fill="#4C6D76"/><path d="M58.727 80.048a14.374 14.374 0 01-7.304 2.01c-8.064 0-15.034-6.875-15.034-15.9s6.97-15.9 15.034-15.9c6.796 0 12.815 4.883 14.54 11.82a19.97 19.97 0 015.802-3.289c-2.93-8.75-10.93-15.03-20.342-15.03-11.893 0-21.534 10.028-21.534 22.399s9.641 22.4 21.534 22.4c3.291 0 6.41-.768 9.2-2.141a19.867 19.867 0 01-1.896-6.37z" fill="#6A8B9D"/><path d="M102.957 78.662c-.252 2.863-1.438 5.355-3.052 7.667-2.833 4.043-6.215 7.537-10.396 10.206-1.43.912-2.94 1.659-4.658 1.876-1.332.165-2.556-.221-3.753-.75a23.145 23.145 0 01-5.675-3.754 38.691 38.691 0 01-7.56-8.711 14.37 14.37 0 01-2.375-7.766c0-3.344.946-6.324 3.419-8.666 2.913-2.758 7.052-3.28 10.738-1.456a12.515 12.515 0 014.234 3.453c.094.12.191.233.289.349.028.017.058.03.09.037.424-.476.83-.975 1.28-1.43a11.071 11.071 0 015.93-3.28 9.158 9.158 0 019.676 4.189c1.58 2.454 2.064 5.16 1.813 8.035z" fill="#D2B552"/><path d="M79.238 106.413l-17.357-4.959V85.799c0-5.293-4.295-9.588-9.588-9.588-5.291 0-9.585 4.295-9.585 9.588v27.606l-2.816-2.813c-3.739-3.745-9.812-3.739-13.558 0-3.74 3.745-3.74 9.816 0 13.558l15.98 15.981h36.675l5.138-25.693c.69-3.446-1.51-7.057-4.89-8.025zm-5.487 27.325H44.967l-14.113-14.107a3.207 3.207 0 010-4.519 3.206 3.206 0 014.526 0l12.013 12.013c.63.63 1.707.184 1.707-.707V85.799a3.191 3.191 0 013.193-3.196 3.196 3.196 0 013.195 3.196v20.481l22.47 6.417-4.207 21.041z" fill="#BBD0DB"/><defs><linearGradient id="tpaint0_linear" x1="80.118" y1=".611" x2="80.118" y2="160.611" gradientUnits="userSpaceOnUse"><stop stop-color="#425E66"/><stop offset="1" stop-color="#425E66" stop-opacity="0"/></linearGradient></defs></svg><svg fill="none" viewBox="0 0 161 161" id="verified-advertisers-only"><path fill-rule="evenodd" clip-rule="evenodd" d="M30.44 30.61v100.001h100v-100h-100zm-22-30a8 8 0 00-8 8v144.001a8 8 0 008 8h144a8 8 0 008-8v-144a8 8 0 00-8-8h-144z" fill="#EBEFF0"/><path fill-rule="evenodd" clip-rule="evenodd" d="M30.44 30.61v100.001h100v-100h-100zm-22-30a8 8 0 00-8 8v144.001a8 8 0 008 8h144a8 8 0 008-8v-144a8 8 0 00-8-8h-144z" fill="url(#upaint0_linear)"/><path d="M122.591 26.992H39.794c-8.316 0-15.083 6.765-15.083 15.081v77.075c0 8.316 6.765 15.082 15.083 15.082h82.797c8.316 0 15.083-6.766 15.083-15.082V42.073c-.002-8.316-6.767-15.081-15.083-15.081zM66.616 45.644a3 3 0 013-3h.341a3 3 0 013 3v.757a3 3 0 01-3 3h-.341a3 3 0 01-3-3v-.757zm-11.507 0a3 3 0 013-3h.341a3 3 0 013 3v.757a3 3 0 01-3 3h-.341a3 3 0 01-3-3v-.757zm-11.509 0a3 3 0 013-3h.341a3 3 0 013 3v.757a3 3 0 01-3 3H46.6a3 3 0 01-3-3v-.757zm83.937 73.504a4.952 4.952 0 01-4.948 4.946H39.794a4.952 4.952 0 01-4.948-4.946v-55.66h92.691v55.66z" fill="#BFD3DC"/><path d="M15.71 80.673a4.2 4.2 0 014.2-4.2h19.81a4.2 4.2 0 010 8.4H19.91a4.2 4.2 0 01-4.2-4.2zm0 14.307a4.2 4.2 0 014.2-4.2h19.81a4.2 4.2 0 110 8.399H19.91a4.2 4.2 0 01-4.2-4.2zm4.2 10.106a4.2 4.2 0 100 8.399h19.81a4.2 4.2 0 100-8.399H19.91z" fill="#A7AAFF"/><path d="M145.362 93.697l-22.438-38.362a1.445 1.445 0 00-1.252-.723H76.796a1.446 1.446 0 00-1.252.723L53.106 93.697a1.447 1.447 0 000 1.447l22.438 38.362a1.455 1.455 0 001.252.724h44.876a1.445 1.445 0 001.252-.724l22.438-38.362a1.448 1.448 0 000-1.447zm-46.128 30.038a29.315 29.315 0 01-5.719-58.065 29.313 29.313 0 0135.033 28.75 29.348 29.348 0 01-29.314 29.315z" fill="#6164A9"/><path d="M121.859 77.092c.977-1 2.305-1.58 3.703-1.617a5.375 5.375 0 015.073 3.286 5.374 5.374 0 01-1.187 5.927L104.363 109.8a5.375 5.375 0 01-7.589 0L82.43 95.456a5.38 5.38 0 117.596-7.618l10.558 10.558 21.276-21.304z" fill="#8F92F2"/><defs><linearGradient id="upaint0_linear" x1="80.44" y1=".611" x2="80.44" y2="160.611" gradientUnits="userSpaceOnUse"><stop stop-color="#EBEFF0"/><stop offset="1" stop-color="#fff"/></linearGradient></defs></svg></defs></svg>