<svg width="60" height="46" viewBox="0 0 60 46" fill="none" xmlns="http://www.w3.org/2000/svg">
<path d="M57.4364 0.171997H2.56358C1.15971 0.171997 0 1.33171 0 2.73557V43.2645C0 44.6684 1.15971 45.8281 2.56358 45.8281H57.4364C58.8402 45.8281 59.9999 44.6684 59.9999 43.2645V2.73557C59.9999 1.33171 58.8402 0.171997 57.4364 0.171997ZM2.56358 2.6135H57.4364C57.4974 2.6135 57.5584 2.67454 57.5584 2.73557V8.90037H2.4415V2.73557C2.4415 2.67454 2.50254 2.6135 2.56358 2.6135ZM57.4364 43.3866H2.56358C2.50254 43.3866 2.4415 43.3256 2.4415 43.2645V11.3419H57.4974V43.2645C57.5584 43.3256 57.4974 43.3866 57.4364 43.3866Z" fill="white"/>
<path d="M37.6602 7.00803H39.8576C40.529 7.00803 41.0783 6.45869 41.0783 5.78728C41.0783 5.11587 40.529 4.56653 39.8576 4.56653H37.6602C36.9888 4.56653 36.4395 5.11587 36.4395 5.78728C36.4395 6.45869 36.9888 7.00803 37.6602 7.00803Z" fill="white"/>
<path d="M44.9847 7.00803H47.182C47.8534 7.00803 48.4028 6.45869 48.4028 5.78728C48.4028 5.11587 47.8534 4.56653 47.182 4.56653H44.9847C44.3133 4.56653 43.7639 5.11587 43.7639 5.78728C43.7639 6.45869 44.3133 7.00803 44.9847 7.00803Z" fill="white"/>
<path d="M52.004 7.00803H54.2013C54.8727 7.00803 55.4221 6.45869 55.4221 5.78728C55.4221 5.11587 54.8727 4.56653 54.2013 4.56653H52.004C51.3325 4.56653 50.7832 5.11587 50.7832 5.78728C50.7832 6.45869 51.3325 7.00803 52.004 7.00803Z" fill="white"/>
<path d="M10.4929 26.7931C10.5736 27.2022 10.8824 27.479 11.2241 27.479C11.2806 27.479 11.3371 27.4721 11.3943 27.4565L11.5021 27.4271H48.775C48.7751 27.4271 48.7753 27.4271 48.7753 27.4271L48.7757 27.4271C48.8703 27.4271 48.9605 27.402 49.0456 27.3627C49.0755 27.3491 49.0999 27.3276 49.1277 27.3097C49.1794 27.2766 49.2286 27.2411 49.2726 27.1946C49.299 27.1666 49.3202 27.1356 49.343 27.1034C49.3786 27.0539 49.409 27.0017 49.4347 26.943C49.4519 26.9036 49.4658 26.8644 49.4783 26.8217C49.4864 26.7937 49.501 26.7706 49.5069 26.7412C49.5139 26.7065 49.5062 26.6734 49.5095 26.6389C49.5128 26.6053 49.526 26.576 49.526 26.5414V16.2842C49.526 16.2467 49.5117 16.2147 49.508 16.1784C49.5058 16.1643 49.5098 16.1508 49.5069 16.1367C49.5049 16.1261 49.4985 16.1185 49.4959 16.1081C49.4248 15.7064 49.1373 15.3984 48.775 15.3984H11.2249C11.2023 15.3984 11.1833 15.4113 11.1611 15.4136C11.1101 15.4189 11.0632 15.4315 11.0151 15.4484C10.9682 15.4649 10.9242 15.4822 10.8816 15.5086C10.8398 15.5344 10.8035 15.5657 10.7665 15.6001C10.728 15.6361 10.6924 15.6722 10.6605 15.7163C10.6301 15.7582 10.6063 15.8036 10.5828 15.8523C10.5575 15.9044 10.5362 15.9561 10.5201 16.0142C10.5131 16.0392 10.4981 16.0582 10.4929 16.0844C10.4863 16.119 10.4939 16.1522 10.4907 16.1867C10.4874 16.2203 10.4739 16.2496 10.4739 16.2842V26.5414C10.4739 26.573 10.4863 26.5998 10.4893 26.6307C10.4911 26.6851 10.4823 26.738 10.4929 26.7931ZM17.9872 25.6556L30.0953 22.3482L42.203 25.6556H17.9872ZM48.024 25.4267L33.4245 21.4388L48.024 17.4508V25.4267ZM42.3955 17.17L30.0953 20.5295L17.7961 17.17H42.3955ZM11.9759 17.3985L26.7664 21.4388L11.9759 25.4786V17.3985Z" fill="white"/>
<path d="M10.5212 38.1104C10.5377 38.1697 10.5608 38.222 10.5872 38.275C10.6019 38.3043 10.6059 38.3374 10.6235 38.3652C10.633 38.3801 10.6481 38.3851 10.6583 38.3991C10.7104 38.4722 10.7727 38.5294 10.842 38.5794C10.8666 38.5969 10.8868 38.6213 10.9125 38.6353C11.0082 38.6874 11.1125 38.7207 11.2249 38.7207H18.641C18.7536 38.7207 18.8577 38.6874 18.9536 38.6353C18.9795 38.6213 18.9993 38.5969 19.0239 38.5795C19.0935 38.5295 19.1555 38.4722 19.2079 38.3991C19.2178 38.3851 19.2331 38.3801 19.2424 38.3652C19.26 38.3375 19.2644 38.3044 19.2787 38.2752C19.3051 38.2221 19.3282 38.1697 19.3451 38.1103C19.3616 38.052 19.3693 37.9949 19.3752 37.9349C19.3785 37.9005 19.392 37.8704 19.392 37.835V31.3025C19.392 31.267 19.3785 31.2369 19.3752 31.2025C19.3693 31.1425 19.3616 31.0855 19.3451 31.0272C19.3282 30.9677 19.3051 30.9154 19.2787 30.8622C19.2642 30.833 19.26 30.8 19.2424 30.7723C19.2318 30.7553 19.2156 30.7474 19.2039 30.7316C19.1698 30.6844 19.1304 30.6471 19.0884 30.6093C19.051 30.5757 19.0154 30.5428 18.974 30.5184C18.9333 30.4942 18.89 30.4805 18.8453 30.4653C18.7939 30.4479 18.7448 30.4331 18.6916 30.4288C18.674 30.4273 18.659 30.4167 18.641 30.4167H11.2249C11.2069 30.4167 11.1921 30.4273 11.1743 30.4287C11.1215 30.433 11.0723 30.4479 11.0214 30.4652C10.9763 30.4804 10.933 30.4942 10.8919 30.5185C10.8508 30.5428 10.8153 30.5756 10.7781 30.609C10.7359 30.6469 10.6965 30.6843 10.662 30.7317C10.6506 30.7474 10.6343 30.7553 10.6235 30.7723C10.6059 30.8001 10.6019 30.8331 10.5872 30.8624C10.5608 30.9154 10.5377 30.9676 10.5212 31.0271C10.5047 31.0854 10.4968 31.1426 10.4911 31.2027C10.4874 31.237 10.4739 31.2671 10.4739 31.3025V37.835C10.4739 37.8704 10.4874 37.9004 10.4911 37.9348C10.4968 37.9949 10.5047 38.0521 10.5212 38.1104ZM13.4852 36.9492L14.9329 35.674L16.3807 36.9492H13.4852ZM17.89 36.0682L16.1878 34.5687L17.89 33.0693V36.0682ZM16.3807 32.1883L14.9329 33.4634L13.4852 32.1883H16.3807ZM11.9759 33.0693L13.6781 34.5687L11.9759 36.0682V33.0693Z" fill="white"/>
<path d="M34.412 31.0272C34.3951 30.9677 34.372 30.9154 34.3456 30.8622C34.3311 30.833 34.3269 30.8 34.3093 30.7723C34.2987 30.7553 34.2825 30.7474 34.2708 30.7316C34.2367 30.6844 34.1973 30.6471 34.1553 30.6093C34.1179 30.5757 34.0823 30.5428 34.0409 30.5184C34.0002 30.4942 33.9569 30.4805 33.9122 30.4653C33.8608 30.4479 33.8117 30.4331 33.7585 30.4288C33.7409 30.4273 33.7259 30.4167 33.7079 30.4167H26.2918C26.2738 30.4167 26.259 30.4273 26.2412 30.4287C26.1884 30.433 26.1392 30.4479 26.0883 30.4652C26.0432 30.4804 25.9999 30.4942 25.9588 30.5185C25.9177 30.5428 25.8822 30.5756 25.8449 30.609C25.8028 30.6469 25.7634 30.6843 25.7289 30.7317C25.7175 30.7474 25.7012 30.7553 25.6904 30.7723C25.6728 30.8001 25.6687 30.8331 25.6541 30.8624C25.6277 30.9154 25.6046 30.9676 25.5881 31.0271C25.5716 31.0854 25.5637 31.1426 25.558 31.2027C25.5543 31.237 25.5408 31.2671 25.5408 31.3025V37.835C25.5408 37.8704 25.5543 37.9004 25.558 37.9348C25.5637 37.9949 25.5716 38.0521 25.5881 38.1104C25.6046 38.1697 25.6277 38.222 25.6541 38.275C25.6687 38.3043 25.6728 38.3374 25.6904 38.3652C25.6999 38.3801 25.715 38.3851 25.7252 38.3991C25.7773 38.4722 25.8396 38.5294 25.9089 38.5794C25.9335 38.5969 25.9537 38.6213 25.9793 38.6353C26.0751 38.6874 26.1794 38.7207 26.2918 38.7207H33.7079C33.8205 38.7207 33.9246 38.6874 34.0205 38.6353C34.0464 38.6213 34.0662 38.5969 34.0907 38.5795C34.1604 38.5295 34.2224 38.4722 34.2748 38.3991C34.2847 38.3851 34.3 38.3801 34.3093 38.3652C34.3269 38.3375 34.3313 38.3044 34.3456 38.2752C34.372 38.2221 34.3951 38.1697 34.412 38.1103C34.4285 38.052 34.4362 37.9949 34.442 37.9349C34.4453 37.9005 34.4589 37.8704 34.4589 37.835V31.3025C34.4589 31.267 34.4453 31.2369 34.442 31.2025C34.4362 31.1425 34.4285 31.0855 34.412 31.0272ZM31.4476 32.1883L29.9998 33.4634L28.5521 32.1883H31.4476ZM27.0428 33.0693L28.745 34.5687L27.0428 36.0682V33.0693ZM28.5521 36.9492L29.9998 35.674L31.4476 36.9492H28.5521ZM32.9569 36.0682L31.2547 34.5687L32.9569 33.0693V36.0682Z" fill="white"/>
<path d="M49.4789 31.0272C49.462 30.9677 49.4389 30.9154 49.4125 30.8622C49.398 30.833 49.3938 30.8 49.3762 30.7723C49.3656 30.7553 49.3494 30.7474 49.3377 30.7316C49.3036 30.6844 49.2642 30.6471 49.2222 30.6093C49.1848 30.5757 49.1492 30.5428 49.1078 30.5184C49.0671 30.4942 49.0238 30.4805 48.9791 30.4653C48.9277 30.4479 48.8786 30.4331 48.8254 30.4288C48.8078 30.4273 48.7928 30.4167 48.7748 30.4167H41.3587C41.3407 30.4167 41.3258 30.4273 41.3081 30.4287C41.2553 30.433 41.2061 30.4479 41.1551 30.4652C41.11 30.4804 41.0668 30.4942 41.0257 30.5185C40.9846 30.5428 40.9491 30.5756 40.9118 30.609C40.8697 30.6469 40.8303 30.6843 40.7958 30.7317C40.7844 30.7474 40.7681 30.7553 40.7573 30.7723C40.7397 30.8001 40.7356 30.8331 40.721 30.8624C40.6946 30.9154 40.6715 30.9676 40.655 31.0271C40.6385 31.0854 40.6306 31.1426 40.6249 31.2027C40.6212 31.237 40.6077 31.2671 40.6077 31.3025V37.835C40.6077 37.8704 40.6212 37.9004 40.6249 37.9348C40.6306 37.9949 40.6385 38.0521 40.655 38.1104C40.6715 38.1697 40.6946 38.222 40.721 38.275C40.7356 38.3043 40.7397 38.3374 40.7573 38.3652C40.7668 38.3801 40.7818 38.3851 40.7921 38.3991C40.8442 38.4722 40.9065 38.5294 40.9758 38.5794C41.0004 38.5969 41.0206 38.6213 41.0462 38.6353C41.1419 38.6874 41.2463 38.7207 41.3587 38.7207H48.7748C48.8874 38.7207 48.9915 38.6874 49.0874 38.6353C49.1133 38.6213 49.1331 38.5969 49.1576 38.5795C49.2273 38.5295 49.2893 38.4722 49.3417 38.3991C49.3516 38.3851 49.3668 38.3801 49.3762 38.3652C49.3938 38.3375 49.3982 38.3044 49.4125 38.2752C49.4389 38.2221 49.462 38.1697 49.4789 38.1103C49.4954 38.052 49.5031 37.9949 49.5089 37.9349C49.5122 37.9005 49.5258 37.8704 49.5258 37.835V31.3025C49.5258 31.267 49.5122 31.2369 49.5089 31.2025C49.5031 31.1425 49.4954 31.0855 49.4789 31.0272ZM46.5145 32.1883L45.0667 33.4634L43.619 32.1883H46.5145ZM42.1097 33.0693L43.8119 34.5687L42.1097 36.0682V33.0693ZM43.619 36.9492L45.0667 35.674L46.5145 36.9492H43.619ZM48.0238 36.0682L46.3216 34.5687L48.0238 33.0693V36.0682Z" fill="white"/>
</svg>
