<svg width="60" height="46" viewBox="0 0 60 46" fill="none" xmlns="http://www.w3.org/2000/svg">
<path d="M57.4364 0.171875H2.56358C1.15972 0.171875 0 1.33159 0 2.73546V43.2644C0 44.6683 1.15972 45.828 2.56358 45.828H57.4364C58.8403 45.828 60 44.6683 60 43.2644V2.73546C60 1.33159 58.8403 0.171875 57.4364 0.171875ZM2.56358 2.61338H57.4364C57.4975 2.61338 57.5585 2.67442 57.5585 2.73546V8.90026H2.44151V2.73546C2.44151 2.67442 2.50254 2.61338 2.56358 2.61338ZM57.4364 43.3865H2.56358C2.50254 43.3865 2.44151 43.3255 2.44151 43.2644V11.3418H57.4975V43.2644C57.5585 43.3255 57.4975 43.3865 57.4364 43.3865Z" fill="white"/>
<path d="M37.6602 7.00791H39.8576C40.529 7.00791 41.0783 6.45857 41.0783 5.78716C41.0783 5.11574 40.529 4.56641 39.8576 4.56641H37.6602C36.9888 4.56641 36.4395 5.11574 36.4395 5.78716C36.4395 6.45857 36.9888 7.00791 37.6602 7.00791Z" fill="white"/>
<path d="M44.9848 7.00791H47.1821C47.8536 7.00791 48.4029 6.45857 48.4029 5.78716C48.4029 5.11574 47.8536 4.56641 47.1821 4.56641H44.9848C44.3134 4.56641 43.764 5.11574 43.764 5.78716C43.764 6.45857 44.3134 7.00791 44.9848 7.00791Z" fill="white"/>
<path d="M52.0041 7.00791H54.2014C54.8728 7.00791 55.4222 6.45857 55.4222 5.78716C55.4222 5.11574 54.8728 4.56641 54.2014 4.56641H52.0041C51.3327 4.56641 50.7833 5.11574 50.7833 5.78716C50.7833 6.45857 51.3327 7.00791 52.0041 7.00791Z" fill="white"/>
<path d="M46.3887 26.113L38.3317 19.7651C37.7824 19.3379 37.0499 19.4599 36.6227 19.9482C36.1954 20.4976 36.3175 21.23 36.8058 21.6573L44.0082 27.2727L37.172 33.3765C36.6837 33.8038 36.6227 34.5973 37.0499 35.0856C37.2941 35.3297 37.5993 35.5128 37.9655 35.5128C38.2707 35.5128 38.5148 35.3908 38.759 35.2076L46.4497 28.3714C46.8159 28.0662 46.9991 27.639 46.938 27.2117C46.938 26.7844 46.7549 26.3572 46.3887 26.113Z" fill="white"/>
<path d="M21.6073 19.7647L13.7945 25.8074C13.3062 26.1736 13.062 26.6619 13.001 27.2723C13.001 27.8216 13.2451 28.371 13.6724 28.7982L21.119 35.3293C21.3631 35.5124 21.6073 35.6345 21.9125 35.6345C22.2787 35.6345 22.5839 35.5124 22.828 35.2072C23.2553 34.7189 23.1943 33.9254 22.706 33.4981L15.7477 27.3944L23.0722 21.7789C23.6215 21.3516 23.6826 20.6192 23.3163 20.0699C22.8891 19.4595 22.0956 19.3374 21.6073 19.7647Z" fill="white"/>
<path d="M32.594 15.7972C31.9226 15.6751 31.3122 16.1023 31.1901 16.7738L27.0396 38.5032C26.9175 39.1746 27.3448 39.7849 28.0162 39.907C28.0772 39.907 28.1993 39.907 28.2603 39.907C28.8097 39.907 29.359 39.4798 29.4811 38.9304L33.6316 17.201C33.6927 16.5296 33.2654 15.9192 32.594 15.7972Z" fill="white"/>
</svg>
