<svg width="24" height="25" viewBox="0 0 24 25">
<path fill-rule="evenodd" clip-rule="evenodd" d="M4.5 0.5H19.5C20.6935 0.5 21.8381 0.974106 22.682 1.81802C23.5259 2.66193 24 3.80653 24 5V20C24 21.1935 23.5259 22.3381 22.682 23.182C21.8381 24.0259 20.6935 24.5 19.5 24.5H4.5C3.30653 24.5 2.16193 24.0259 1.31802 23.182C0.474106 22.3381 0 21.1935 0 20V16.2398H3V20C3 20.3978 3.15804 20.7794 3.43934 21.0607C3.72064 21.342 4.10218 21.5 4.5 21.5H19.5C19.8978 21.5 20.2794 21.342 20.5607 21.0607C20.842 20.7794 21 20.3978 21 20V5C21 4.60218 20.842 4.22064 20.5607 3.93934C20.2794 3.65804 19.8978 3.5 19.5 3.5H4.5C4.10218 3.5 3.72064 3.65804 3.43934 3.93934C3.15804 4.22064 3 4.60218 3 5V8.76001H0V5C0 3.80653 0.474106 2.66193 1.31802 1.81802C2.16193 0.974106 3.30653 0.5 4.5 0.5ZM5.54859 11V14H12.8775L10.6275 16.25L12.75 18.3725L17.5613 13.5613C17.7007 13.4219 17.8114 13.2565 17.8868 13.0744C17.9623 12.8923 18.0012 12.6971 18.0012 12.5C18.0012 12.3029 17.9623 12.1077 17.8868 11.9256C17.8114 11.7435 17.7007 11.5781 17.5613 11.4387L12.75 6.6275L10.6275 8.75L12.8775 11H5.54859Z" />
</svg>
