<svg width="60" height="46" viewBox="0 0 60 46" fill="none" xmlns="http://www.w3.org/2000/svg">
<path d="M57.4364 0.171997H2.56358C1.15972 0.171997 0 1.33171 0 2.73558V43.2646C0 44.6684 1.15972 45.8282 2.56358 45.8282H57.4364C58.8403 45.8282 60 44.6684 60 43.2646V2.73558C60 1.33171 58.8403 0.171997 57.4364 0.171997ZM2.56358 2.6135H57.4364C57.4975 2.6135 57.5585 2.67454 57.5585 2.73558V8.90038H2.44151V2.73558C2.44151 2.67454 2.50254 2.6135 2.56358 2.6135ZM57.4364 43.3866H2.56358C2.50254 43.3866 2.44151 43.3256 2.44151 43.2646V11.3419H57.4975V43.2646C57.5585 43.3256 57.4975 43.3866 57.4364 43.3866Z" fill="white"/>
<path d="M37.6602 7.00803H39.8576C40.529 7.00803 41.0783 6.4587 41.0783 5.78728C41.0783 5.11587 40.529 4.56653 39.8576 4.56653H37.6602C36.9888 4.56653 36.4395 5.11587 36.4395 5.78728C36.4395 6.4587 36.9888 7.00803 37.6602 7.00803Z" fill="white"/>
<path d="M44.9848 7.00803H47.1821C47.8536 7.00803 48.4029 6.4587 48.4029 5.78728C48.4029 5.11587 47.8536 4.56653 47.1821 4.56653H44.9848C44.3134 4.56653 43.764 5.11587 43.764 5.78728C43.764 6.4587 44.3134 7.00803 44.9848 7.00803Z" fill="white"/>
<path d="M52.0041 7.00803H54.2014C54.8728 7.00803 55.4222 6.4587 55.4222 5.78728C55.4222 5.11587 54.8728 4.56653 54.2014 4.56653H52.0041C51.3327 4.56653 50.7833 5.11587 50.7833 5.78728C50.7833 6.4587 51.3327 7.00803 52.0041 7.00803Z" fill="white"/>
<path d="M44.0835 15.3984H15.7106C14.606 15.3984 13.7106 16.2939 13.7106 17.3984V23.1013C13.7106 24.2059 14.606 25.1013 15.7106 25.1013H44.0835C45.188 25.1013 46.0835 24.2059 46.0835 23.1013V17.3984C46.0835 16.2939 45.188 15.3984 44.0835 15.3984Z" fill="white"/>
<path d="M45.1842 29.1461H14.6098C14.1132 29.1461 13.7106 29.5487 13.7106 30.0454C13.7106 30.542 14.1132 30.9446 14.6098 30.9446H45.1842C45.6809 30.9446 46.0835 30.542 46.0835 30.0454C46.0835 29.5487 45.6809 29.1461 45.1842 29.1461Z" fill="white"/>
<path d="M45.1842 33.0333H14.6098C14.1132 33.0333 13.7106 33.4359 13.7106 33.9326C13.7106 34.4292 14.1132 34.8318 14.6098 34.8318H45.1842C45.6809 34.8318 46.0835 34.4292 46.0835 33.9326C46.0835 33.4359 45.6809 33.0333 45.1842 33.0333Z" fill="white"/>
<path d="M45.1842 36.9222H14.6098C14.1132 36.9222 13.7106 37.3248 13.7106 37.8215C13.7106 38.3181 14.1132 38.7207 14.6098 38.7207H45.1842C45.6809 38.7207 46.0835 38.3181 46.0835 37.8215C46.0835 37.3248 45.6809 36.9222 45.1842 36.9222Z" fill="white"/>
</svg>
