<svg width="161" height="161" viewBox="0 0 161 161" fill="none" xmlns="http://www.w3.org/2000/svg">
<path d="M136.909 130.442L122.416 105.678V43.3446C122.416 36.1685 116.647 30.3995 109.471 30.3995H32.6444C25.4683 30.3995 19.6993 36.1685 19.6993 43.3446V105.678L5.20649 130.442C2.39235 135.226 5.91003 141.277 11.3976 141.277H130.577C136.205 141.277 139.723 135.226 136.909 130.442ZM31.5188 43.3446C31.5188 42.6411 32.0816 42.219 32.6444 42.219H109.471C110.174 42.219 110.596 42.7818 110.596 43.3446V96.3913H31.5188V43.3446ZM88.6459 121.859H53.4691C51.2178 121.859 49.3886 120.03 49.3886 117.779C49.3886 115.527 51.2178 113.698 53.4691 113.698H88.5052C90.7565 113.698 92.5857 115.527 92.5857 117.779C92.7265 120.03 90.8973 121.859 88.6459 121.859Z" fill="#1F3239"/>
<path fill-rule="evenodd" clip-rule="evenodd" d="M51.5963 56.7399C52.4965 56.3798 53.3968 56.9199 53.5768 57.8201C53.7569 58.7204 53.2167 59.6206 52.3165 59.8006C48.8956 60.7009 46.375 63.4016 45.4748 66.6424C45.2947 67.3626 44.5745 67.9027 43.8543 67.9027H43.4943C42.7741 67.7227 42.2339 66.8224 42.414 65.9222C43.6743 61.4211 47.0952 58.0002 51.5963 56.7399ZM48.3554 69.343C48.3554 65.7421 51.4162 62.6813 55.0171 62.6813C58.618 62.6813 61.6788 65.7421 61.6788 69.343C61.6788 72.9439 58.618 76.0047 55.0171 76.0047C51.4162 76.0047 48.3554 72.9439 48.3554 69.343ZM51.7763 69.343C51.7763 71.1434 53.2166 72.5838 55.0171 72.5838C56.8175 72.5838 58.2579 71.1434 58.2579 69.343C58.2579 67.5425 56.8175 66.1021 55.0171 66.1021C53.2166 66.1021 51.7763 67.5425 51.7763 69.343Z" fill="#30C6AB"/>
<path d="M63.4308 51.5765C60.8764 50.3137 58.0118 49.5383 54.8371 49.5383C44.0343 49.5383 35.2121 58.3606 35.2121 69.1633C35.2121 79.9661 44.0343 88.7883 54.8371 88.7883C57.8581 88.7883 60.7227 88.006 63.4308 86.7332V83.2853C60.8948 84.6591 57.9559 85.5475 55.0171 85.5475C46.0148 85.5475 38.813 78.3456 38.813 69.3434C38.813 60.3411 46.0148 53.1392 55.0171 53.1392C58.1175 53.1392 60.922 54.0266 63.4308 55.5331V51.5765Z" fill="#137C69"/>
<path d="M63.1403 52.5182C63.1403 51.4136 64.0358 50.5182 65.1403 50.5182H99.5912C100.696 50.5182 101.591 51.4136 101.591 52.5182V85.8081C101.591 86.9127 100.696 87.8081 99.5912 87.8081H65.1403C64.0358 87.8081 63.1403 86.9127 63.1403 85.8081V52.5182Z" fill="#30C6AB"/>
<path d="M87.1159 68.1823C86.5636 68.1823 86.1159 67.7345 86.1159 67.1823V61.6823C86.1159 61.13 85.6682 60.6823 85.1159 60.6823H79.6159C79.0636 60.6823 78.6159 61.13 78.6159 61.6823V67.1823C78.6159 67.7345 78.1682 68.1823 77.6159 68.1823H74.2253C73.3423 68.1823 72.8926 69.2432 73.5067 69.8777L81.6473 78.2892C82.0403 78.6953 82.6915 78.6953 83.0845 78.2892L91.2251 69.8777C91.8392 69.2432 91.3895 68.1823 90.5065 68.1823H87.1159Z" fill="#137C69"/>
<path d="M87.1159 68.1823C86.5636 68.1823 86.1159 67.7345 86.1159 67.1823V61.6823C86.1159 61.13 85.6682 60.6823 85.1159 60.6823H79.6159C79.0636 60.6823 78.6159 61.13 78.6159 61.6823V67.1823C78.6159 67.7345 78.1682 68.1823 77.6159 68.1823H74.2253C73.3423 68.1823 72.8926 69.2432 73.5067 69.8777L81.6473 78.2892C82.0403 78.6953 82.6915 78.6953 83.0845 78.2892L91.2251 69.8777C91.8392 69.2432 91.3895 68.1823 90.5065 68.1823H87.1159Z" fill="url(#paint0_linear)" fill-opacity="0.33"/>
<path d="M49.1603 117.68C49.1603 115.324 51.0701 113.415 53.426 113.415H88.3072C90.663 113.415 92.5728 115.324 92.5728 117.68C92.5728 120.036 90.663 121.946 88.3072 121.946H53.426C51.0701 121.946 49.1603 120.036 49.1603 117.68Z" fill="#137C69"/>
<path fill-rule="evenodd" clip-rule="evenodd" d="M31.3401 109.668C29.6262 109.668 28.0318 110.546 27.1152 111.994L20.1217 123.044C18.0146 126.373 20.4067 130.718 24.3466 130.718H117.288C121.081 130.718 123.493 126.659 121.679 123.328L115.665 112.278C114.789 110.669 113.104 109.668 111.273 109.668H31.3401ZM25.4252 110.925C26.7084 108.897 28.9407 107.668 31.3401 107.668H111.273C113.837 107.668 116.196 109.07 117.421 111.322L123.436 122.372C125.975 127.036 122.598 132.718 117.288 132.718H24.3466C18.8307 132.718 15.4818 126.635 18.4317 121.974L25.4252 110.925Z" fill="#436871"/>
<defs>
<linearGradient id="paint0_linear" x1="82.3659" y1="60.6823" x2="82.3659" y2="78.5938" gradientUnits="userSpaceOnUse">
<stop stop-color="#1F3239"/>
<stop offset="1" stop-color="#1F3239" stop-opacity="0"/>
</linearGradient>
</defs>
</svg>
