<svg width="179" height="160" viewBox="0 0 179 160" fill="none" xmlns="http://www.w3.org/2000/svg">
<path fill-rule="evenodd" clip-rule="evenodd" d="M40.4489 84.1262C40.4464 78.5686 44.8982 73.6107 50.207 73.6107C55.5156 73.6107 59.9219 78.5899 59.918 84.1489C59.9155 87.716 58.0821 91.0249 55.3721 92.9433C59.7451 94.4002 62.807 97.635 64.8312 101.208C66.3665 103.918 67.3787 106.844 68.137 109.449C68.8946 106.842 69.9282 103.92 71.4672 101.208C73.4946 97.6352 76.5493 94.4002 80.9262 92.9433C78.2156 91.0197 76.4047 87.6903 76.4031 84.1262C76.4006 78.5686 80.8279 73.6107 86.1368 73.6107C91.4454 73.6107 95.8761 78.5899 95.8722 84.1489C95.8696 87.716 94.0362 91.0249 91.3263 92.9433C95.6993 94.4002 98.7611 97.635 100.785 101.208C102.322 103.919 103.341 106.838 104.096 109.446C104.856 106.838 105.881 103.92 107.42 101.208C109.447 97.6352 112.503 94.4002 116.88 92.9433C114.17 91.0197 112.336 87.6903 112.334 84.1262C112.332 78.5686 116.782 73.6107 122.091 73.6107C127.4 73.6107 131.808 78.5899 131.804 84.1489C131.801 87.716 129.968 91.0249 127.258 92.9433C131.631 94.4002 134.693 97.635 136.717 101.208C138.252 103.918 139.264 106.844 140.023 109.449C140.78 106.842 141.812 103.92 143.351 101.208C145.379 97.6352 148.433 94.4002 152.81 92.9433C150.1 91.0197 148.289 87.6903 148.287 84.1262C148.284 78.5686 152.713 73.6107 158.022 73.6107C163.331 73.6107 167.76 78.5899 167.756 84.1489C167.753 87.716 165.92 91.0249 163.21 92.9433C167.583 94.4002 170.645 97.635 172.669 101.208C175.012 105.344 176.176 109.989 176.985 113.221C177.125 113.778 177.253 114.292 177.376 114.754L174.576 115.512C174.453 115.048 174.326 114.547 174.191 114.017C173.361 110.752 172.246 106.361 170.145 102.654C167.703 98.3444 164.204 95.0545 158.022 95.0545C151.841 95.0545 148.345 98.3442 145.899 102.654C143.779 106.391 142.647 110.823 141.812 114.095C141.684 114.597 141.563 115.071 141.446 115.512H138.622C138.499 115.048 138.372 114.547 138.237 114.017C137.407 110.752 136.291 106.361 134.191 102.654C131.749 98.3444 128.273 95.0545 122.091 95.0545C115.909 95.0545 112.391 98.3442 109.945 102.654C107.825 106.391 106.693 110.823 105.858 114.095C105.73 114.597 105.609 115.071 105.492 115.512H102.69C102.567 115.048 102.44 114.547 102.305 114.017C101.476 110.752 100.36 106.361 98.2597 102.654C95.8179 98.3444 92.3186 95.0545 86.1368 95.0545C79.955 95.0545 76.4615 98.3442 74.0156 102.654C71.8935 106.394 70.7607 110.829 69.9251 114.101C69.7975 114.601 69.6769 115.073 69.5607 115.512H66.7376C66.6154 115.05 66.4886 114.551 66.3543 114.023C65.5243 110.758 64.4073 106.364 62.3055 102.654C59.8637 98.3444 56.3889 95.0545 50.207 95.0545C44.0252 95.0545 40.5074 98.3442 38.0614 102.654C35.9393 106.394 34.8066 110.829 33.9709 114.101C33.8434 114.601 33.7227 115.073 33.6066 115.512L30.8062 114.754C30.9243 114.309 31.0485 113.815 31.1826 113.282C31.9967 110.047 33.174 105.369 35.5358 101.208C37.5632 97.6352 40.618 94.4002 44.9948 92.9433C42.2842 91.0197 40.4505 87.6903 40.4489 84.1262ZM56.9568 84.1262C56.9595 80.218 53.5321 76.5963 50.207 76.5963C46.8823 76.5963 43.4311 80.2189 43.4329 84.1262C43.4347 88.0302 46.8847 91.6804 50.207 91.6804C53.5294 91.6804 56.954 88.0307 56.9568 84.1262ZM92.8882 84.1262C92.8909 80.218 89.4618 76.5963 86.1368 76.5963C82.8121 76.5963 79.3625 80.2189 79.3643 84.1262C79.3661 88.0302 82.8145 91.6804 86.1368 91.6804C89.4591 91.6804 92.8854 88.0307 92.8882 84.1262ZM128.841 84.1262C128.843 80.218 125.416 76.5963 122.091 76.5963C118.766 76.5963 115.317 80.2189 115.318 84.1262C115.32 88.0302 118.769 91.6804 122.091 91.6804C125.413 91.6804 128.838 88.0307 128.841 84.1262ZM164.772 84.1262C164.775 80.218 161.347 76.5963 158.022 76.5963C154.698 76.5963 151.248 80.2189 151.25 84.1262C151.252 88.0302 154.7 91.6804 158.022 91.6804C161.345 91.6804 164.77 88.0307 164.772 84.1262ZM40.6552 111.632C40.6527 106.074 45.0817 101.094 50.3905 101.094C55.6991 101.094 60.1282 106.073 60.1243 111.632C60.1217 115.199 58.2883 118.508 55.5784 120.426C59.9514 121.883 63.0132 125.118 65.0374 128.691C66.574 131.403 67.6092 134.327 68.3676 136.934C69.1251 134.328 70.1356 131.4 71.6734 128.691C73.7008 125.118 76.7556 121.883 81.1324 120.426C78.4218 118.503 76.6109 115.196 76.6093 111.632C76.6068 106.074 81.0358 101.094 86.3447 101.094C91.6533 101.094 96.0594 106.073 96.0556 111.632C96.0532 115.199 94.2425 118.508 91.5325 120.426C95.9055 121.883 98.9674 125.118 100.992 128.691C102.524 131.396 103.543 134.308 104.297 136.911C105.051 134.308 106.068 131.396 107.603 128.691C109.631 125.118 112.71 121.883 117.087 120.426C114.376 118.503 112.542 115.196 112.541 111.632C112.538 106.074 116.966 101.094 122.274 101.094C127.583 101.094 132.014 106.073 132.01 111.632C132.007 115.199 130.174 118.508 127.464 120.426C131.837 121.883 134.899 125.118 136.923 128.691C138.459 131.403 139.493 134.327 140.252 136.934C141.009 134.328 142.02 131.4 143.557 128.691C145.585 125.118 148.639 121.883 153.016 120.426C150.306 118.503 148.495 115.196 148.493 111.632C148.491 106.074 152.92 101.094 158.229 101.094C163.537 101.094 167.943 106.073 167.94 111.632C167.937 115.199 166.128 118.508 163.418 120.426C167.791 121.883 170.853 125.118 172.877 128.691C175.219 132.824 176.382 137.468 177.191 140.699C177.33 141.257 177.459 141.773 177.582 142.237L174.782 142.995C174.659 142.531 174.532 142.03 174.397 141.5C173.568 138.235 172.452 133.844 170.351 130.137C167.91 125.827 164.41 122.537 158.229 122.537C152.047 122.537 148.529 125.827 146.083 130.137C143.982 133.84 142.868 138.225 142.04 141.488C141.904 142.023 141.776 142.528 141.652 142.995H138.828C138.705 142.531 138.578 142.03 138.443 141.5C137.613 138.235 136.498 133.844 134.397 130.137C131.955 125.827 128.456 122.537 122.274 122.537C116.093 122.537 112.599 125.827 110.153 130.137C108.031 133.876 106.898 138.312 106.063 141.584C105.935 142.084 105.815 142.556 105.698 142.995H102.898C102.776 142.533 102.649 142.034 102.515 141.506C101.685 138.241 100.568 133.847 98.4659 130.137C96.0241 125.827 92.5265 122.537 86.3447 122.537C80.1629 122.537 76.645 125.827 74.1991 130.137C72.0964 133.842 70.9819 138.231 70.1531 141.494C70.0178 142.027 69.8901 142.53 69.767 142.995H66.9439C66.8216 142.533 66.6949 142.034 66.5606 141.506C65.7306 138.241 64.6135 133.847 62.5118 130.137C60.07 125.827 56.5723 122.537 50.3905 122.537C44.2087 122.537 40.7136 125.827 38.2677 130.137C36.147 133.874 35.0156 138.306 34.1804 141.578C34.0523 142.08 33.9311 142.554 33.8144 142.995L31.0125 142.237C31.1358 141.772 31.2654 141.254 31.4056 140.693C32.2142 137.461 33.3749 132.822 35.7193 128.691C37.7467 125.118 40.8242 121.883 45.2011 120.426C42.4905 118.503 40.6568 115.196 40.6552 111.632ZM57.1403 111.632C57.143 107.724 53.7155 104.079 50.3905 104.079C47.0658 104.079 43.639 107.725 43.6408 111.632C43.6426 115.536 47.0682 119.163 50.3905 119.163C53.7129 119.163 57.1375 115.536 57.1403 111.632ZM93.0944 111.632C93.0971 107.724 89.6697 104.079 86.3447 104.079C83.0199 104.079 79.5688 107.725 79.5706 111.632C79.5723 115.536 83.0224 119.163 86.3447 119.163C89.667 119.163 93.0916 115.536 93.0944 111.632ZM129.024 111.632C129.027 107.724 125.599 104.079 122.274 104.079C118.95 104.079 115.523 107.725 115.525 111.632C115.526 115.536 118.952 119.163 122.274 119.163C125.597 119.163 129.022 115.536 129.024 111.632ZM164.978 111.632C164.981 107.724 161.554 104.079 158.229 104.079C154.904 104.079 151.454 107.725 151.456 111.632C151.458 115.536 154.906 119.163 158.229 119.163C161.551 119.163 164.976 115.536 164.978 111.632Z" fill="#89A8B7"/>
<path fill-rule="evenodd" clip-rule="evenodd" d="M30.8063 114.754C30.9243 114.309 31.0486 113.815 31.1826 113.282C31.9967 110.047 33.174 105.369 35.5358 101.208C37.4463 97.8412 40.269 94.7745 44.2507 93.2128C44.4944 93.1172 44.7424 93.0273 44.9948 92.9432C44.7809 92.7914 44.5725 92.6309 44.3699 92.4621C42.0062 90.4927 40.4504 87.409 40.449 84.1262C40.4465 78.5686 44.8982 73.6107 50.2071 73.6107C55.5157 73.6107 59.922 78.5898 59.918 84.1489C59.9157 87.4339 58.3606 90.4999 55.9981 92.4626C55.7953 92.6311 55.5865 92.7915 55.3722 92.9432C55.6247 93.0274 55.8729 93.1174 56.1168 93.2132C60.0954 94.7749 62.9239 97.8413 64.8312 101.208C66.1448 103.526 67.0755 106.003 67.7918 108.302C67.9127 108.69 68.0275 109.073 68.137 109.449C68.2463 109.073 68.3614 108.69 68.4829 108.303C69.2035 106.003 70.1503 103.528 71.4672 101.208C73.3777 97.8412 76.2005 94.7745 80.1821 93.2128C80.4258 93.1172 80.6738 93.0273 80.9262 92.9432C80.7123 92.7914 80.5039 92.6308 80.3016 92.462C77.941 90.4926 76.4046 87.409 76.4031 84.1262C76.4006 78.5686 80.828 73.6107 86.1368 73.6107C91.4454 73.6107 95.8761 78.5898 95.8722 84.1489C95.8699 87.4339 94.3148 90.4999 91.9523 92.4626C91.7494 92.6311 91.5406 92.7915 91.3263 92.9432C91.5789 93.0274 91.827 93.1174 92.0709 93.2132C96.0495 94.7749 98.8781 97.8413 100.785 101.208C102.1 103.528 103.036 105.999 103.752 108.298C103.872 108.686 103.987 109.069 104.096 109.446C104.206 109.07 104.321 108.687 104.443 108.299C105.163 106 106.103 103.528 107.42 101.208C109.33 97.8412 112.154 94.7745 116.136 93.2128C116.38 93.1172 116.628 93.0273 116.88 92.9432C116.666 92.7914 116.458 92.6309 116.255 92.4621C113.892 90.4927 112.336 87.409 112.335 84.1262C112.332 78.5686 116.782 73.6107 122.091 73.6107C127.4 73.6107 131.808 78.5898 131.804 84.1489C131.801 87.4339 130.246 90.4999 127.884 92.4626C127.681 92.6311 127.472 92.7915 127.258 92.9432C127.51 93.0274 127.758 93.1174 128.002 93.2132C131.981 94.7749 134.809 97.8413 136.717 101.208C138.03 103.526 138.961 106.003 139.677 108.302C139.798 108.69 139.913 109.073 140.023 109.449C140.132 109.073 140.247 108.69 140.368 108.303C141.089 106.003 142.034 103.528 143.351 101.208C145.262 97.8412 148.084 94.7745 152.066 93.2128C152.31 93.1172 152.558 93.0273 152.81 92.9432C152.596 92.7914 152.388 92.6308 152.186 92.462C149.825 90.4926 148.289 87.409 148.287 84.1262C148.284 78.5686 152.714 73.6107 158.022 73.6107C163.331 73.6107 167.76 78.5898 167.756 84.1489C167.754 87.4339 166.199 90.4999 163.836 92.4626C163.633 92.6311 163.425 92.7915 163.21 92.9432C163.463 93.0274 163.711 93.1174 163.955 93.2132C167.933 94.7749 170.762 97.8413 172.669 101.208C175.012 105.343 176.176 109.989 176.985 113.221C177.125 113.777 177.254 114.292 177.376 114.754L174.576 115.512C174.521 115.306 174.466 115.093 174.409 114.873C174.339 114.598 174.266 114.313 174.191 114.018L174.191 114.017C173.361 110.752 172.246 106.361 170.145 102.654C167.703 98.3444 164.204 95.0544 158.022 95.0544C151.841 95.0544 148.345 98.3442 145.9 102.654C143.779 106.391 142.647 110.823 141.812 114.095C141.684 114.597 141.563 115.071 141.446 115.512H138.622C138.499 115.048 138.372 114.547 138.237 114.017C137.407 110.752 136.291 106.361 134.191 102.654C131.749 98.3444 128.273 95.0544 122.091 95.0544C115.909 95.0544 112.391 98.3442 109.945 102.654C107.825 106.391 106.693 110.823 105.858 114.095C105.73 114.596 105.609 115.071 105.492 115.512H102.69C102.568 115.049 102.44 114.548 102.306 114.018L102.305 114.017C101.476 110.752 100.36 106.361 98.2597 102.654C95.8179 98.3444 92.3186 95.0544 86.1368 95.0544C79.955 95.0544 76.4616 98.3442 74.0156 102.654C71.8935 106.393 70.7608 110.829 69.9251 114.101L69.9248 114.102C69.7974 114.601 69.6768 115.073 69.5607 115.512H66.7377C66.6155 115.05 66.4887 114.552 66.3544 114.023C65.5244 110.758 64.4073 106.364 62.3056 102.654C59.8637 98.3444 56.3889 95.0544 50.2071 95.0544C44.0253 95.0544 40.5074 98.3442 38.0615 102.654C35.9394 106.393 34.8066 110.829 33.9709 114.101C33.9032 114.366 33.8374 114.624 33.7732 114.873C33.7165 115.093 33.6611 115.306 33.6066 115.512L30.8063 114.754ZM164.532 92.7351C168.513 94.4045 171.339 97.5206 173.243 100.882C175.631 105.096 176.812 109.813 177.619 113.036L177.626 113.061C177.765 113.618 177.893 114.128 178.014 114.585L178.182 115.22L174.108 116.322L173.938 115.681C173.815 115.217 173.688 114.716 173.554 114.19L173.551 114.179C172.718 110.902 171.621 106.597 169.571 102.98C168.379 100.876 166.954 99.0655 165.109 97.7796C163.274 96.5003 160.987 95.7144 158.022 95.7144C155.058 95.7144 152.772 96.5002 150.937 97.7795C149.093 99.0654 147.667 100.876 146.474 102.98C144.403 106.628 143.29 110.973 142.452 114.258C142.324 114.759 142.202 115.237 142.084 115.681L141.954 116.172H138.114L137.984 115.681C137.86 115.214 137.732 114.71 137.598 114.181L137.597 114.179C136.764 110.902 135.667 106.597 133.617 102.98C132.425 100.875 131.004 99.0647 129.165 97.7791C127.336 96.5002 125.055 95.7144 122.091 95.7144C119.126 95.7144 116.835 96.5003 114.994 97.78C113.144 99.0661 111.713 100.877 110.519 102.98C108.449 106.628 107.336 110.973 106.498 114.258C106.37 114.759 106.248 115.237 106.13 115.681L106 116.172H102.182L102.052 115.681C101.929 115.215 101.801 114.713 101.667 114.185L101.666 114.179C100.833 110.902 99.7352 106.597 97.6855 102.98C96.4937 100.876 95.0681 99.0655 93.2233 97.7796C91.3881 96.5003 89.1013 95.7144 86.1368 95.7144C83.1724 95.7144 80.8871 96.5002 79.0528 97.7794C77.209 99.0653 75.7836 100.876 74.5896 102.98C72.5181 106.63 71.4036 110.979 70.5646 114.265L70.5637 114.268C70.4366 114.766 70.3155 115.24 70.1988 115.681L70.0687 116.172H66.2297L66.0997 115.681C65.9766 115.216 65.8492 114.715 65.7154 114.188L65.7147 114.186C64.8814 110.907 63.7825 106.6 61.7313 102.98C60.539 100.875 59.1192 99.0647 57.2806 97.779C55.4518 96.5002 53.1714 95.7144 50.2071 95.7144C47.2425 95.7144 44.9508 96.5003 43.1101 97.78C41.2601 99.0661 39.8289 100.877 38.6355 102.98C36.564 106.63 35.4495 110.979 34.6104 114.265L34.6099 114.267C34.4827 114.765 34.3615 115.239 34.2446 115.681L34.0748 116.322L30.0002 115.22L30.1683 114.585C30.2851 114.144 30.4083 113.655 30.5426 113.121L30.5489 113.096C31.3607 109.87 32.5558 105.122 34.9618 100.882C36.8694 97.5206 39.6903 94.4036 43.6746 92.7342C41.3193 90.6381 39.7905 87.4835 39.789 84.1265C39.7863 78.258 44.482 72.9507 50.2071 72.9507C55.9373 72.9507 60.5822 78.2853 60.578 84.1494C60.5757 87.5088 59.0473 90.6466 56.6938 92.7351C60.6746 94.4045 63.5008 97.5206 65.4055 100.882C66.5816 102.958 67.4538 105.15 68.1385 107.222C68.8297 105.149 69.7146 102.959 70.8932 100.882C72.8009 97.5204 75.6219 94.4033 79.6066 92.734C77.2538 90.6365 75.7446 87.4811 75.7431 84.1265C75.7405 78.2602 80.4098 72.9507 86.1368 72.9507C91.865 72.9507 96.5363 78.2831 96.5322 84.1494C96.5298 87.5088 95.0014 90.6466 92.6479 92.7351C96.6288 94.4045 99.4549 97.5206 101.36 100.882C102.536 102.959 103.412 105.146 104.098 107.218C104.788 105.146 105.667 102.959 106.846 100.882C108.753 97.5204 111.576 94.4035 115.56 92.7342C113.205 90.6381 111.676 87.4835 111.675 84.1265C111.672 78.2581 116.366 72.9507 122.091 72.9507C127.821 72.9507 132.468 78.2851 132.464 84.1494C132.461 87.5088 130.933 90.6466 128.579 92.7351C132.56 94.4045 135.386 97.5206 137.291 100.882C138.467 102.958 139.339 105.15 140.024 107.222C140.715 105.149 141.599 102.959 142.777 100.882C144.685 97.5204 147.506 94.4033 151.49 92.734C149.138 90.6365 147.629 87.4811 147.627 84.1265C147.624 78.2601 152.295 72.9507 158.022 72.9507C163.751 72.9507 168.421 78.2832 168.416 84.1494C168.414 87.5088 166.885 90.6466 164.532 92.7351ZM31.0125 142.237C31.1358 141.772 31.2654 141.254 31.4055 140.694C32.2141 137.462 33.3749 132.822 35.7193 128.691C37.6298 125.324 40.4727 122.257 44.4567 120.696C44.7006 120.6 44.9487 120.51 45.2011 120.426C44.987 120.274 44.7785 120.114 44.5758 119.945C42.2123 117.979 40.6567 114.915 40.6552 111.632C40.6527 106.074 45.0817 101.094 50.3906 101.094C55.6992 101.094 60.1282 106.073 60.1243 111.632C60.122 114.917 58.5669 117.983 56.2044 119.946C56.0015 120.114 55.7927 120.274 55.5784 120.426C55.831 120.51 56.0791 120.6 56.323 120.696C60.3016 122.258 63.1302 125.324 65.0375 128.691C66.3523 131.011 67.3 133.487 68.0214 135.787C68.143 136.175 68.2582 136.558 68.3676 136.934C68.477 136.558 68.5917 136.175 68.7125 135.787C69.428 133.487 70.3577 131.009 71.6734 128.691C73.5839 125.324 76.4066 122.257 80.3883 120.696C80.632 120.6 80.88 120.51 81.1325 120.426C80.9184 120.274 80.7099 120.114 80.5075 119.945C78.1471 117.979 76.6108 114.914 76.6094 111.632C76.6068 106.074 81.0358 101.094 86.3447 101.094C91.6533 101.094 96.0594 106.073 96.0557 111.632C96.0535 114.917 94.5176 117.983 92.1582 119.945C91.9556 120.114 91.7469 120.274 91.5326 120.426C91.7851 120.51 92.0332 120.6 92.2771 120.696C96.2557 122.258 99.0843 125.324 100.992 128.691C102.302 131.004 103.237 133.468 103.952 135.761C104.073 136.15 104.188 136.534 104.297 136.911C104.407 136.534 104.522 136.15 104.643 135.761C105.357 133.468 106.291 131.004 107.603 128.691C109.514 125.324 112.358 122.257 116.342 120.696C116.586 120.6 116.834 120.51 117.087 120.426C116.873 120.274 116.664 120.114 116.461 119.945C114.098 117.979 112.542 114.915 112.541 111.632C112.538 106.074 116.966 101.094 122.274 101.094C127.583 101.094 132.014 106.073 132.01 111.632C132.007 114.917 130.452 117.983 128.09 119.946C127.887 120.114 127.678 120.274 127.464 120.426C127.716 120.51 127.965 120.6 128.209 120.696C132.187 122.258 135.016 125.324 136.923 128.691C138.238 131.011 139.184 133.487 139.905 135.787C140.027 136.175 140.142 136.558 140.252 136.934C140.361 136.558 140.476 136.175 140.596 135.786C141.312 133.487 142.242 131.009 143.557 128.691C145.468 125.324 148.291 122.257 152.272 120.696C152.516 120.6 152.764 120.51 153.016 120.426C152.802 120.274 152.594 120.114 152.391 119.945C150.031 117.979 148.495 114.914 148.493 111.632C148.491 106.074 152.92 101.094 158.229 101.094C163.537 101.094 167.943 106.073 167.94 111.632C167.937 114.917 166.403 117.983 164.044 119.945C163.841 120.114 163.632 120.274 163.418 120.426C163.671 120.51 163.919 120.6 164.163 120.696C168.141 122.258 170.97 125.324 172.877 128.691C175.219 132.824 176.382 137.468 177.191 140.699C177.33 141.257 177.459 141.773 177.582 142.237L174.782 142.995C174.727 142.789 174.672 142.576 174.616 142.356C174.545 142.081 174.472 141.795 174.397 141.501L174.397 141.5C173.568 138.235 172.452 133.844 170.351 130.137C167.91 125.827 164.41 122.537 158.229 122.537C152.047 122.537 148.529 125.827 146.083 130.137C143.982 133.84 142.868 138.225 142.04 141.488C141.904 142.023 141.776 142.528 141.653 142.995H138.828C138.705 142.531 138.578 142.03 138.443 141.5C137.613 138.235 136.498 133.844 134.397 130.137C131.956 125.827 128.456 122.537 122.274 122.537C116.093 122.537 112.599 125.827 110.153 130.137C108.031 133.876 106.898 138.312 106.063 141.584C105.935 142.084 105.815 142.556 105.698 142.995H102.898C102.776 142.533 102.649 142.034 102.515 141.506C101.685 138.241 100.568 133.847 98.4659 130.137C96.0241 125.827 92.5265 122.537 86.3447 122.537C80.1629 122.537 76.6451 125.827 74.1991 130.137C72.0964 133.842 70.9819 138.231 70.1531 141.494C70.0178 142.027 69.8901 142.53 69.767 142.995H66.9439C66.8217 142.533 66.695 142.035 66.5607 141.507C65.7307 138.242 64.6135 133.847 62.5118 130.137C60.07 125.827 56.5724 122.537 50.3906 122.537C44.2087 122.537 40.7137 125.827 38.2677 130.137C36.147 133.874 35.0156 138.306 34.1804 141.578C34.1121 141.845 34.0458 142.105 33.9811 142.356C33.9244 142.576 33.8689 142.789 33.8145 142.995L31.0125 142.237ZM164.739 120.218C168.72 121.887 171.547 125.003 173.451 128.365C175.838 132.577 177.018 137.291 177.825 140.514L177.831 140.539C177.971 141.098 178.099 141.61 178.22 142.068L178.388 142.703L174.314 143.805L174.144 143.164C174.02 142.697 173.892 142.193 173.758 141.663L173.757 141.662C172.925 138.384 171.827 134.08 169.777 130.462C168.585 128.359 167.16 126.548 165.315 125.263C163.48 123.983 161.193 123.197 158.229 123.197C155.264 123.197 152.972 123.983 151.132 125.263C149.282 126.549 147.85 128.36 146.657 130.463C144.607 134.076 143.511 138.374 142.68 141.65L142.679 141.653C142.544 142.186 142.415 142.694 142.291 143.164L142.16 143.655H138.32L138.19 143.164C138.066 142.697 137.938 142.194 137.804 141.665L137.803 141.662C136.97 138.385 135.873 134.08 133.823 130.462C132.631 128.359 131.206 126.548 129.361 125.263C127.526 123.983 125.239 123.197 122.274 123.197C119.31 123.197 117.025 123.983 115.19 125.262C113.347 126.548 111.921 128.359 110.727 130.463C108.656 134.113 107.541 138.462 106.702 141.748C106.575 142.246 106.453 142.722 106.336 143.164L106.206 143.655H102.39L102.26 143.164C102.137 142.699 102.01 142.198 101.876 141.672L101.875 141.669C101.042 138.39 99.9428 134.083 97.8917 130.462C96.6999 128.359 95.2747 126.548 93.4303 125.262C91.5955 123.983 89.3092 123.197 86.3447 123.197C83.3801 123.197 81.0884 123.983 79.2477 125.263C77.3977 126.549 75.9665 128.36 74.7731 130.463C72.7213 134.078 71.6249 138.38 70.7928 141.656L70.7922 141.659C70.6573 142.19 70.5289 142.695 70.405 143.164L70.2749 143.655H66.4359L66.3059 143.164C66.1829 142.699 66.0555 142.198 65.9217 141.672L65.921 141.669C65.0876 138.39 63.9887 134.083 61.9376 130.462C60.7458 128.359 59.3205 126.548 57.4762 125.262C55.6414 123.983 53.355 123.197 50.3906 123.197C47.4261 123.197 45.1404 123.983 43.3057 125.262C41.4614 126.548 40.0357 128.359 38.8417 130.463C36.7716 134.11 35.6584 138.456 34.8199 141.741C34.692 142.242 34.57 142.72 34.4525 143.164L34.2826 143.805L30.2064 142.703L30.3745 142.068C30.4965 141.608 30.6249 141.094 30.7654 140.533L30.7716 140.508C31.5779 137.285 32.7564 132.574 35.1453 128.365C37.0537 125.002 39.8939 121.886 43.8801 120.217C41.5261 118.126 39.9967 114.99 39.9952 111.632C39.9926 105.768 44.6619 100.434 50.3906 100.434C56.1189 100.434 60.7884 105.766 60.7843 111.632C60.7819 114.992 59.2535 118.129 56.9 120.218C60.8809 121.887 63.707 125.004 65.6117 128.365C66.7882 130.442 67.6736 132.633 68.3655 134.706C69.0495 132.634 69.9213 130.441 71.0994 128.365C73.007 125.003 75.8279 121.887 79.8122 120.217C77.4606 118.124 75.9508 114.988 75.9494 111.632C75.9467 105.768 80.616 100.434 86.3447 100.434C92.075 100.434 96.7196 105.768 96.7157 111.632C96.7134 114.989 95.2045 118.128 92.8536 120.218C96.8348 121.887 99.6611 125.003 101.566 128.365C102.738 130.434 103.612 132.613 104.297 134.678C104.981 132.613 105.855 130.434 107.029 128.365C108.938 125.002 111.779 121.886 115.766 120.217C113.412 118.126 111.882 114.99 111.881 111.632C111.878 105.768 116.546 100.434 122.274 100.434C128.003 100.434 132.674 105.766 132.67 111.632C132.667 114.992 131.139 118.129 128.786 120.218C132.575 121.825 135.593 125.004 137.497 128.365C138.674 130.442 139.558 132.632 140.25 134.706C140.933 132.634 141.805 130.441 142.983 128.365C144.891 125.003 147.712 121.887 151.696 120.217C149.345 118.124 147.835 114.988 147.833 111.632C147.831 105.768 152.5 100.434 158.229 100.434C163.959 100.434 168.603 105.768 168.6 111.632C168.597 114.989 167.09 118.128 164.739 120.218ZM54.3423 79.3405C53.1579 78.0427 51.635 77.2563 50.2071 77.2563C48.7788 77.2563 47.2498 78.0434 46.059 79.342C44.8737 80.6349 44.0922 82.3635 44.093 84.1259C44.0938 85.8872 44.8762 87.6226 46.0623 88.9224C47.2539 90.2282 48.7819 91.0204 50.2071 91.0204C51.6317 91.0204 53.153 90.2289 54.3382 88.9238C55.518 87.6245 56.2956 85.8888 56.2968 84.1257C56.298 82.3615 55.5216 80.6327 54.3423 79.3405ZM90.273 79.3406C89.0881 78.0427 87.5648 77.2563 86.1368 77.2563C84.7086 77.2563 83.18 78.0433 81.9897 79.342C80.8047 80.6348 80.0235 82.3634 80.0244 84.1259C80.0252 85.8873 80.8073 87.6227 81.993 88.9225C83.1841 90.2283 84.7117 91.0204 86.1368 91.0204C87.5615 91.0204 89.0832 90.2289 90.2688 88.9237C91.4491 87.6244 92.2269 85.8887 92.2282 84.1257C92.2294 82.3616 91.4526 80.6328 90.273 79.3406ZM126.226 79.3405C125.042 78.0427 123.519 77.2563 122.091 77.2563C120.663 77.2563 119.134 78.0433 117.944 79.342C116.759 80.6348 115.978 82.3634 115.979 84.1259C115.979 85.8873 116.761 87.6227 117.947 88.9225C119.138 90.2283 120.666 91.0204 122.091 91.0204C123.516 91.0204 125.037 90.2289 126.222 88.9238C127.402 87.6245 128.18 85.8888 128.181 84.1257C128.182 82.3615 127.405 80.6327 126.226 79.3405ZM162.158 79.3405C160.973 78.0427 159.45 77.2563 158.022 77.2563C156.594 77.2563 155.066 78.0433 153.875 79.342C152.69 80.6348 151.909 82.3634 151.91 84.1259C151.911 85.8873 152.693 87.6227 153.878 88.9225C155.07 90.2283 156.597 91.0204 158.022 91.0204C159.447 91.0204 160.968 90.2289 162.154 88.9238C163.333 87.6245 164.111 85.8888 164.112 84.1257C164.113 82.3615 163.337 80.6327 162.158 79.3405ZM54.5249 106.834C53.3397 105.53 51.8171 104.739 50.3906 104.739C48.9643 104.739 47.4419 105.53 46.2567 106.834C45.0768 108.132 44.3 109.867 44.3008 111.632C44.3016 113.394 45.0788 115.124 46.2582 116.417C47.4428 117.716 48.9645 118.503 50.3906 118.503C51.8166 118.503 53.3381 117.716 54.5226 116.417C55.7018 115.124 56.479 113.394 56.4803 111.631C56.4815 109.867 55.7048 108.132 54.5249 106.834ZM90.4791 106.834C89.2939 105.53 87.7712 104.739 86.3447 104.739C84.9179 104.739 83.389 105.531 82.1976 106.835C81.0116 108.134 80.2298 109.869 80.2306 111.632C80.2314 113.393 81.0136 115.122 82.1991 116.416C83.3899 117.715 84.9181 118.503 86.3447 118.503C87.7708 118.503 89.2922 117.716 90.4767 116.417C91.6559 115.124 92.4332 113.394 92.4344 111.631C92.4357 109.867 91.6589 108.132 90.4791 106.834ZM126.409 106.834C125.224 105.53 123.701 104.739 122.274 104.739C120.848 104.739 119.326 105.53 118.141 106.834C116.961 108.132 116.184 109.867 116.185 111.632C116.186 113.394 116.963 115.124 118.142 116.417C119.327 117.716 120.848 118.503 122.274 118.503C123.701 118.503 125.222 117.716 126.407 116.417C127.586 115.124 128.363 113.394 128.364 111.631C128.365 109.867 127.589 108.132 126.409 106.834ZM162.363 106.834C161.178 105.53 159.655 104.739 158.229 104.739C156.802 104.739 155.273 105.531 154.082 106.835C152.897 108.134 152.115 109.869 152.116 111.632C152.117 113.393 152.899 115.122 154.084 116.416C155.274 117.715 156.802 118.503 158.229 118.503C159.655 118.503 161.176 117.716 162.361 116.417C163.54 115.124 164.317 113.394 164.318 111.631C164.32 109.867 163.543 108.132 162.363 106.834ZM50.2071 76.5963C53.5321 76.5963 56.9595 80.2179 56.9568 84.1262C56.954 88.0307 53.5294 91.6804 50.2071 91.6804C46.8848 91.6804 43.4347 88.0302 43.433 84.1262C43.4312 80.2189 46.8823 76.5963 50.2071 76.5963ZM86.1368 76.5963C89.4618 76.5963 92.8909 80.2179 92.8882 84.1262C92.8854 88.0307 89.4592 91.6804 86.1368 91.6804C82.8145 91.6804 79.3661 88.0302 79.3644 84.1262C79.3626 80.2189 82.8121 76.5963 86.1368 76.5963ZM122.091 76.5963C125.416 76.5963 128.843 80.2179 128.841 84.1262C128.838 88.0307 125.413 91.6804 122.091 91.6804C118.769 91.6804 115.32 88.0302 115.318 84.1262C115.317 80.2189 118.766 76.5963 122.091 76.5963ZM158.022 76.5963C161.347 76.5963 164.775 80.2179 164.772 84.1262C164.77 88.0307 161.345 91.6804 158.022 91.6804C154.7 91.6804 151.252 88.0302 151.25 84.1262C151.248 80.2189 154.698 76.5963 158.022 76.5963ZM50.3906 104.079C53.7156 104.079 57.143 107.724 57.1403 111.632C57.1375 115.536 53.7129 119.163 50.3906 119.163C47.0682 119.163 43.6426 115.536 43.6408 111.632C43.639 107.725 47.0658 104.079 50.3906 104.079ZM86.3447 104.079C89.6697 104.079 93.0972 107.724 93.0944 111.632C93.0917 115.536 89.667 119.163 86.3447 119.163C83.0224 119.163 79.5724 115.536 79.5706 111.632C79.5688 107.725 83.02 104.079 86.3447 104.079ZM122.274 104.079C125.599 104.079 129.027 107.724 129.024 111.632C129.022 115.536 125.597 119.163 122.274 119.163C118.952 119.163 115.526 115.536 115.525 111.632C115.523 107.725 118.95 104.079 122.274 104.079ZM158.229 104.079C161.554 104.079 164.981 107.724 164.978 111.632C164.976 115.536 161.551 119.163 158.229 119.163C154.906 119.163 151.458 115.536 151.456 111.632C151.454 107.725 154.904 104.079 158.229 104.079Z" fill="#89A7B7"/>
<path d="M27.8678 17.613C26.0777 17.613 24.6265 19.0642 24.6265 20.8543V30.2838H15.1973C13.4072 30.2838 11.9561 31.735 11.9561 33.5251C11.9561 35.3152 13.4072 36.7664 15.1973 36.7664H24.6265V46.1952C24.6265 47.9853 26.0777 49.4364 27.8678 49.4364C29.6579 49.4364 31.1091 47.9853 31.1091 46.1952V36.7664H40.5382C42.3283 36.7664 43.7794 35.3152 43.7794 33.5251C43.7794 31.735 42.3283 30.2838 40.5382 30.2838H31.1091V20.8543C31.1091 19.0642 29.6579 17.613 27.8678 17.613Z" fill="#D9B537"/>
</svg>
