<svg xmlns="http://www.w3.org/2000/svg" fill="none" viewBox="0 0 180 161"><defs/><path fill="#BAD0DB" fill-rule="evenodd" d="M30.655 30.159v100h100v-100h-100zm-22-30a8 8 0 00-8 8v144a8 8 0 008 8h144a8 8 0 008-8v-144a8 8 0 00-8-8h-144z" clip-rule="evenodd"/><path fill="url(#paint0_linear)" fill-rule="evenodd" d="M30.655 30.159v100h100v-100h-100zm-22-30a8 8 0 00-8 8v144a8 8 0 008 8h144a8 8 0 008-8v-144a8 8 0 00-8-8h-144z" clip-rule="evenodd"/><path fill="#89A8B7" fill-rule="evenodd" d="M41.449 84.126c-.003-5.557 4.45-10.515 9.758-10.515 5.309 0 9.715 4.979 9.711 10.538-.002 3.567-1.836 6.876-4.546 8.794 4.373 1.457 7.435 4.692 9.46 8.265 1.535 2.71 2.547 5.636 3.305 8.241.758-2.607 1.791-5.529 3.33-8.241 2.028-3.573 5.082-6.808 9.46-8.265-2.711-1.923-4.522-5.253-4.524-8.817-.002-5.557 4.425-10.515 9.734-10.515 5.308 0 9.74 4.979 9.735 10.538-.002 3.567-1.836 6.876-4.546 8.794 4.373 1.457 7.435 4.692 9.459 8.265 1.537 2.711 2.556 5.63 3.311 8.238.76-2.608 1.785-5.526 3.324-8.238 2.027-3.573 5.083-6.808 9.46-8.265-2.71-1.923-4.544-5.253-4.546-8.817-.002-5.557 4.448-10.515 9.757-10.515 5.309 0 9.717 4.979 9.713 10.538-.003 3.567-1.836 6.876-4.546 8.794 4.373 1.457 7.435 4.692 9.459 8.265 1.535 2.71 2.547 5.636 3.306 8.241.757-2.607 1.789-5.529 3.328-8.241 2.028-3.573 5.082-6.808 9.459-8.265-2.71-1.923-4.521-5.253-4.523-8.817-.003-5.557 4.426-10.515 9.735-10.515 5.309 0 9.738 4.979 9.734 10.538-.003 3.567-1.836 6.876-4.546 8.794 4.373 1.457 7.435 4.692 9.459 8.265 2.343 4.136 3.507 8.781 4.316 12.013.14.557.268 1.071.391 1.533l-2.8.758c-.123-.464-.25-.965-.385-1.495-.83-3.265-1.945-7.656-4.046-11.363-2.442-4.31-5.941-7.6-12.123-7.6-6.181 0-9.677 3.29-12.123 7.6-2.12 3.737-3.252 8.169-4.087 11.441-.128.502-.249.976-.366 1.417h-2.824c-.123-.464-.25-.965-.385-1.495-.83-3.265-1.946-7.656-4.046-11.363-2.442-4.31-5.918-7.6-12.1-7.6-6.182 0-9.7 3.29-12.146 7.6-2.12 3.737-3.252 8.169-4.087 11.441-.128.502-.249.976-.366 1.417h-2.802c-.123-.464-.25-.965-.385-1.495-.829-3.265-1.945-7.656-4.045-11.363-2.442-4.31-5.941-7.6-12.123-7.6-6.182 0-9.675 3.29-12.121 7.6-2.123 3.74-3.255 8.175-4.09 11.447-.129.5-.25.972-.365 1.411h-2.823c-.123-.462-.25-.961-.384-1.489-.83-3.265-1.947-7.659-4.048-11.369-2.442-4.31-5.917-7.6-12.099-7.6s-9.7 3.29-12.146 7.6c-2.122 3.74-3.254 8.175-4.09 11.447-.128.5-.248.972-.364 1.411l-2.8-.758c.117-.445.241-.939.376-1.472.814-3.235 1.991-7.913 4.353-12.074 2.027-3.573 5.082-6.808 9.459-8.265-2.71-1.923-4.544-5.253-4.546-8.817zm16.508 0c.002-3.908-3.425-7.53-6.75-7.53s-6.776 3.623-6.774 7.53c.002 3.904 3.452 7.554 6.774 7.554s6.747-3.65 6.75-7.554zm35.931 0c.003-3.908-3.426-7.53-6.751-7.53s-6.775 3.623-6.773 7.53c.002 3.904 3.45 7.554 6.773 7.554 3.322 0 6.748-3.65 6.751-7.554zm35.953 0c.002-3.908-3.425-7.53-6.75-7.53s-6.774 3.623-6.773 7.53c.002 3.904 3.451 7.554 6.773 7.554 3.322 0 6.747-3.65 6.75-7.554zm35.931 0c.003-3.908-3.425-7.53-6.75-7.53-3.324 0-6.774 3.623-6.772 7.53.002 3.904 3.45 7.554 6.772 7.554 3.323 0 6.748-3.65 6.75-7.554zM41.655 111.632c-.002-5.558 4.427-10.538 9.736-10.538 5.308 0 9.737 4.979 9.733 10.538-.002 3.567-1.836 6.876-4.546 8.794 4.373 1.457 7.435 4.692 9.46 8.265 1.536 2.712 2.571 5.636 3.33 8.243.757-2.606 1.768-5.534 3.305-8.243 2.028-3.573 5.083-6.808 9.46-8.265-2.711-1.923-4.522-5.23-4.524-8.794-.002-5.558 4.427-10.538 9.736-10.538 5.308 0 9.714 4.979 9.71 10.538-.002 3.567-1.813 6.876-4.523 8.794 4.374 1.457 7.435 4.692 9.46 8.265 1.532 2.705 2.551 5.617 3.305 8.22.754-2.603 1.771-5.515 3.306-8.22 2.028-3.573 5.107-6.808 9.484-8.265-2.711-1.923-4.545-5.23-4.546-8.794-.003-5.558 4.425-10.538 9.733-10.538 5.309 0 9.74 4.979 9.736 10.538-.003 3.567-1.836 6.876-4.546 8.794 4.373 1.457 7.435 4.692 9.459 8.265 1.536 2.712 2.57 5.636 3.329 8.243.757-2.606 1.768-5.534 3.305-8.243 2.028-3.573 5.082-6.808 9.459-8.265-2.71-1.923-4.521-5.23-4.523-8.794-.002-5.558 4.427-10.538 9.736-10.538 5.308 0 9.714 4.979 9.711 10.538-.003 3.567-1.812 6.876-4.522 8.794 4.373 1.457 7.435 4.692 9.459 8.265 2.342 4.133 3.505 8.777 4.314 12.008.139.558.268 1.074.391 1.538l-2.8.758c-.123-.464-.25-.965-.385-1.495-.829-3.265-1.945-7.656-4.046-11.363-2.441-4.31-5.941-7.6-12.122-7.6-6.182 0-9.7 3.29-12.146 7.6-2.101 3.703-3.215 8.088-4.043 11.351-.136.535-.264 1.04-.388 1.507h-2.824c-.123-.464-.25-.965-.385-1.495-.83-3.265-1.945-7.656-4.046-11.363-2.442-4.31-5.941-7.6-12.123-7.6-6.181 0-9.675 3.29-12.121 7.6-2.122 3.739-3.255 8.175-4.09 11.447-.128.5-.248.972-.365 1.411h-2.8c-.122-.462-.249-.961-.383-1.489-.83-3.265-1.947-7.659-4.05-11.369-2.44-4.31-5.939-7.6-12.12-7.6-6.182 0-9.7 3.29-12.146 7.6-2.103 3.705-3.217 8.094-4.046 11.357-.135.533-.263 1.036-.386 1.501h-2.823c-.122-.462-.25-.961-.383-1.489-.83-3.265-1.948-7.659-4.05-11.369-2.441-4.31-5.939-7.6-12.12-7.6-6.182 0-9.677 3.29-12.123 7.6-2.121 3.737-3.252 8.169-4.088 11.441-.128.502-.249.976-.366 1.417l-2.801-.758c.123-.465.252-.983.393-1.544.808-3.232 1.969-7.871 4.313-12.002 2.028-3.573 5.105-6.808 9.482-8.265-2.71-1.923-4.544-5.23-4.546-8.794zm16.485 0c.003-3.908-3.425-7.553-6.75-7.553-3.324 0-6.751 3.646-6.75 7.553.003 3.904 3.428 7.531 6.75 7.531 3.323 0 6.748-3.627 6.75-7.531zm35.954 0c.003-3.908-3.424-7.553-6.75-7.553-3.324 0-6.775 3.646-6.773 7.553.001 3.904 3.451 7.531 6.774 7.531 3.322 0 6.747-3.627 6.75-7.531zm35.93 0c.003-3.908-3.425-7.553-6.75-7.553-3.324 0-6.751 3.646-6.749 7.553.001 3.904 3.427 7.531 6.749 7.531 3.323 0 6.748-3.627 6.75-7.531zm35.954 0c.003-3.908-3.424-7.553-6.749-7.553-3.325 0-6.775 3.646-6.773 7.553.002 3.904 3.45 7.531 6.773 7.531 3.322 0 6.747-3.627 6.749-7.531z" clip-rule="evenodd"/><path fill="#89A7B7" fill-rule="evenodd" d="M31.806 114.754c.118-.445.243-.939.377-1.472.814-3.235 1.991-7.913 4.353-12.074 1.91-3.367 4.733-6.433 8.715-7.995.243-.096.491-.186.744-.27a10.185 10.185 0 01-.625-.48c-2.364-1.97-3.92-5.054-3.921-8.337-.002-5.557 4.45-10.515 9.758-10.515 5.309 0 9.715 4.979 9.711 10.538-.002 3.285-1.557 6.35-3.92 8.314-.203.168-.411.329-.626.48.253.084.5.174.745.27 3.978 1.562 6.807 4.628 8.714 7.995 1.314 2.318 2.245 4.795 2.96 7.094.122.388.237.771.346 1.147.11-.376.224-.759.346-1.146.72-2.3 1.667-4.775 2.984-7.095 1.91-3.367 4.734-6.433 8.715-7.995.244-.096.492-.186.744-.27a10.09 10.09 0 01-.624-.481c-2.361-1.97-3.897-5.053-3.899-8.336-.002-5.557 4.425-10.515 9.734-10.515 5.308 0 9.74 4.979 9.735 10.538-.002 3.285-1.557 6.35-3.92 8.314-.203.168-.411.329-.626.48.253.084.501.174.745.27 3.978 1.562 6.807 4.628 8.714 7.995 1.315 2.32 2.251 4.791 2.967 7.09.12.388.235.771.344 1.148.11-.376.225-.759.347-1.147.72-2.299 1.66-4.771 2.977-7.091 1.91-3.367 4.734-6.433 8.716-7.995.244-.096.492-.186.744-.27a10.279 10.279 0 01-.625-.48c-2.363-1.97-3.919-5.054-3.92-8.337-.003-5.557 4.447-10.515 9.756-10.515s9.717 4.979 9.713 10.538c-.003 3.285-1.558 6.35-3.92 8.314-.203.168-.412.329-.626.48.252.084.5.174.744.27 3.979 1.562 6.807 4.628 8.715 7.995 1.313 2.318 2.244 4.795 2.96 7.094.121.388.236.771.346 1.147.109-.376.224-.759.345-1.146.721-2.3 1.666-4.775 2.983-7.095 1.911-3.367 4.733-6.433 8.715-7.995.244-.096.492-.186.744-.27a9.96 9.96 0 01-.624-.481c-2.361-1.97-3.897-5.053-3.899-8.336-.003-5.557 4.427-10.515 9.735-10.515 5.309 0 9.738 4.979 9.734 10.538-.002 3.285-1.557 6.35-3.92 8.314-.203.168-.411.329-.626.48.253.084.501.174.745.27 3.978 1.562 6.807 4.628 8.714 7.995 2.343 4.135 3.507 8.781 4.316 12.013.14.556.269 1.071.391 1.533l-2.8.758c-.055-.206-.11-.419-.167-.639l-.218-.855v-.001c-.83-3.265-1.945-7.656-4.046-11.363-2.442-4.31-5.941-7.6-12.123-7.6-6.181 0-9.677 3.29-12.122 7.6-2.121 3.737-3.253 8.169-4.088 11.441-.128.502-.249.976-.366 1.417h-2.824c-.123-.464-.25-.965-.385-1.495-.83-3.265-1.946-7.656-4.046-11.363-2.442-4.31-5.918-7.6-12.1-7.6-6.182 0-9.7 3.29-12.146 7.6-2.12 3.737-3.252 8.169-4.087 11.441-.128.501-.249.976-.366 1.417h-2.802c-.122-.463-.25-.964-.384-1.494l-.001-.001c-.829-3.265-1.945-7.656-4.045-11.363-2.442-4.31-5.941-7.6-12.123-7.6-6.182 0-9.675 3.29-12.121 7.6-2.123 3.739-3.255 8.175-4.09 11.447l-.001.001c-.128.499-.248.971-.364 1.41h-2.823c-.123-.462-.25-.96-.384-1.489-.83-3.265-1.947-7.659-4.048-11.369-2.442-4.31-5.917-7.6-12.099-7.6s-9.7 3.29-12.145 7.6c-2.123 3.739-3.255 8.175-4.091 11.447l-.198.772c-.056.22-.112.433-.166.639l-2.8-.758zm133.726-22.019c3.981 1.67 6.807 4.786 8.711 8.147 2.388 4.214 3.569 8.931 4.376 12.154l.007.025c.139.557.267 1.067.388 1.524l.168.635-4.074 1.102-.17-.641c-.123-.464-.25-.965-.384-1.491l-.003-.011c-.833-3.277-1.93-7.582-3.98-11.199-1.192-2.104-2.617-3.915-4.462-5.2-1.835-1.28-4.122-2.066-7.087-2.066-2.964 0-5.25.786-7.085 2.066-1.844 1.285-3.27 3.096-4.463 5.2-2.071 3.648-3.184 7.993-4.022 11.278-.128.501-.25.979-.368 1.423l-.13.491h-3.84l-.13-.491c-.124-.467-.252-.971-.386-1.5l-.001-.002c-.833-3.277-1.93-7.582-3.98-11.199-1.192-2.105-2.613-3.915-4.452-5.2-1.829-1.28-4.11-2.066-7.074-2.066-2.965 0-5.256.786-7.097 2.066-1.85 1.286-3.281 3.097-4.475 5.2-2.07 3.648-3.183 7.993-4.021 11.278-.128.501-.25.979-.368 1.423l-.13.491h-3.818l-.13-.491c-.123-.466-.251-.968-.385-1.496l-.001-.006c-.833-3.277-1.931-7.582-3.98-11.199-1.192-2.104-2.618-3.915-4.463-5.2-1.835-1.28-4.122-2.066-7.086-2.066-2.965 0-5.25.786-7.084 2.065-1.844 1.286-3.27 3.097-4.463 5.201-2.072 3.65-3.186 7.999-4.025 11.285l-.001.003c-.127.498-.248.972-.365 1.413l-.13.491h-3.84l-.13-.491c-.122-.465-.25-.966-.384-1.493v-.002c-.834-3.279-1.933-7.586-3.984-11.206-1.192-2.105-2.612-3.915-4.45-5.201-1.83-1.279-4.11-2.065-7.074-2.065-2.965 0-5.256.786-7.097 2.066-1.85 1.286-3.281 3.097-4.474 5.2-2.072 3.65-3.187 7.999-4.026 11.285v.002c-.127.498-.248.972-.365 1.414l-.17.641L31 115.22l.168-.635c.117-.441.24-.93.375-1.464l.006-.025c.812-3.226 2.007-7.974 4.413-12.214 1.907-3.361 4.728-6.478 8.713-8.148-2.356-2.096-3.884-5.25-3.886-8.608-.003-5.868 4.693-11.175 10.418-11.175 5.73 0 10.375 5.334 10.371 11.198-.002 3.36-1.53 6.498-3.884 8.586 3.98 1.67 6.807 4.786 8.712 8.147 1.176 2.076 2.048 4.268 2.732 6.34.692-2.073 1.577-4.263 2.755-6.34 1.908-3.362 4.729-6.479 8.714-8.148-2.353-2.097-3.862-5.253-3.864-8.608-.002-5.866 4.667-11.175 10.394-11.175 5.728 0 10.4 5.332 10.395 11.198-.002 3.36-1.53 6.498-3.884 8.586 3.98 1.67 6.807 4.786 8.712 8.147 1.176 2.077 2.052 4.264 2.738 6.336.69-2.072 1.569-4.259 2.748-6.336 1.907-3.362 4.73-6.479 8.714-8.148-2.355-2.096-3.884-5.25-3.885-8.608-.003-5.868 4.691-11.175 10.416-11.175 5.73 0 10.377 5.334 10.373 11.198-.003 3.36-1.531 6.498-3.885 8.586 3.981 1.67 6.807 4.786 8.712 8.147 1.176 2.076 2.048 4.268 2.733 6.34.691-2.073 1.575-4.263 2.753-6.34 1.908-3.362 4.729-6.479 8.713-8.148-2.352-2.097-3.861-5.253-3.863-8.608-.003-5.866 4.668-11.175 10.395-11.175 5.729 0 10.399 5.332 10.394 11.198-.002 3.36-1.531 6.498-3.884 8.586zm-133.52 49.502c.124-.465.253-.983.394-1.543.808-3.232 1.969-7.872 4.313-12.003 1.91-3.367 4.754-6.434 8.738-7.995.244-.096.492-.186.744-.27a10.16 10.16 0 01-.625-.481c-2.364-1.966-3.92-5.03-3.92-8.313-.003-5.558 4.426-10.538 9.735-10.538 5.308 0 9.737 4.979 9.733 10.538-.002 3.285-1.557 6.351-3.92 8.314-.203.168-.411.328-.626.48.253.084.501.174.745.27 3.979 1.562 6.807 4.628 8.714 7.995 1.315 2.32 2.263 4.796 2.984 7.096.122.388.237.771.347 1.147.109-.376.224-.759.345-1.147.715-2.3 1.645-4.778 2.96-7.096 1.91-3.367 4.734-6.434 8.715-7.995.244-.096.492-.186.744-.27a10.064 10.064 0 01-.625-.481c-2.36-1.966-3.896-5.031-3.898-8.313-.002-5.558 4.427-10.538 9.736-10.538 5.308 0 9.714 4.979 9.71 10.538a10.926 10.926 0 01-3.897 8.313c-.202.169-.411.329-.625.481.252.084.5.174.744.27 3.979 1.562 6.807 4.628 8.715 7.995 1.31 2.313 2.245 4.777 2.96 7.07.121.389.236.773.345 1.15.11-.377.225-.761.346-1.15.714-2.293 1.648-4.757 2.96-7.07 1.911-3.367 4.755-6.434 8.739-7.995.244-.096.492-.186.745-.27a10.297 10.297 0 01-.626-.481c-2.363-1.966-3.919-5.03-3.92-8.313-.003-5.558 4.425-10.538 9.733-10.538 5.309 0 9.74 4.979 9.736 10.538-.003 3.285-1.558 6.351-3.92 8.314-.203.168-.412.328-.626.48.252.084.501.174.745.27 3.978 1.562 6.807 4.628 8.714 7.995 1.315 2.32 2.261 4.796 2.982 7.096.122.388.237.771.347 1.147.109-.376.224-.759.344-1.148.716-2.299 1.646-4.777 2.961-7.095 1.911-3.367 4.734-6.434 8.715-7.995.244-.096.492-.186.744-.27a10.277 10.277 0 01-.625-.481c-2.36-1.966-3.896-5.031-3.898-8.313-.002-5.558 4.427-10.538 9.736-10.538 5.308 0 9.714 4.979 9.711 10.538a10.929 10.929 0 01-3.896 8.313c-.203.169-.412.329-.626.481.253.084.501.174.745.27 3.978 1.562 6.807 4.628 8.714 7.995 2.342 4.133 3.505 8.777 4.314 12.008.139.558.268 1.074.391 1.538l-2.8.758a309.198 309.198 0 01-.385-1.494v-.001c-.829-3.265-1.945-7.656-4.046-11.363-2.441-4.31-5.941-7.6-12.122-7.6-6.182 0-9.7 3.29-12.146 7.6-2.101 3.703-3.215 8.088-4.043 11.351-.136.535-.264 1.04-.387 1.507h-2.825c-.123-.464-.25-.965-.385-1.495-.83-3.265-1.945-7.656-4.046-11.363-2.441-4.31-5.941-7.6-12.123-7.6-6.181 0-9.675 3.29-12.121 7.6-2.122 3.739-3.255 8.175-4.09 11.447-.128.5-.248.972-.365 1.411h-2.8c-.122-.462-.249-.961-.383-1.489-.83-3.265-1.947-7.659-4.05-11.369-2.44-4.31-5.939-7.6-12.12-7.6-6.182 0-9.7 3.29-12.146 7.6-2.103 3.705-3.217 8.094-4.046 11.357-.135.533-.263 1.036-.386 1.501h-2.823c-.122-.462-.249-.96-.383-1.488-.83-3.265-1.948-7.66-4.05-11.37-2.441-4.31-5.939-7.6-12.12-7.6-6.182 0-9.677 3.29-12.123 7.6-2.121 3.737-3.252 8.169-4.088 11.441l-.199.778-.166.639-2.802-.758zm133.727-22.019c3.981 1.669 6.808 4.785 8.712 8.147 2.387 4.212 3.567 8.926 4.374 12.149l.006.025c.14.559.268 1.071.389 1.529l.168.635-4.074 1.102-.17-.641a133.19 133.19 0 01-.386-1.501l-.001-.001c-.832-3.278-1.93-7.582-3.98-11.2-1.192-2.103-2.617-3.914-4.462-5.199-1.835-1.28-4.122-2.066-7.086-2.066-2.965 0-5.257.786-7.097 2.066-1.85 1.286-3.282 3.097-4.475 5.2-2.05 3.613-3.146 7.911-3.977 11.187l-.001.003c-.135.533-.264 1.041-.388 1.511l-.131.491h-3.84l-.13-.491c-.124-.467-.252-.97-.386-1.499l-.001-.003c-.833-3.277-1.93-7.582-3.98-11.2-1.192-2.103-2.617-3.914-4.462-5.199-1.835-1.28-4.122-2.066-7.087-2.066-2.964 0-5.249.786-7.084 2.065-1.843 1.286-3.269 3.097-4.463 5.201-2.071 3.65-3.186 7.999-4.025 11.285-.127.498-.249.974-.366 1.416l-.13.491h-3.816l-.13-.491c-.123-.465-.25-.966-.384-1.492l-.001-.003c-.833-3.279-1.932-7.586-3.983-11.207-1.192-2.103-2.617-3.914-4.462-5.2-1.835-1.279-4.12-2.065-7.085-2.065s-5.257.786-7.097 2.066c-1.85 1.286-3.282 3.097-4.475 5.2-2.052 3.615-3.148 7.917-3.98 11.193v.003c-.136.531-.264 1.036-.388 1.505l-.13.491h-3.84l-.13-.491c-.122-.465-.25-.966-.383-1.492l-.001-.003c-.833-3.279-1.932-7.586-3.983-11.207-1.192-2.103-2.617-3.914-4.462-5.2-1.835-1.279-4.121-2.065-7.085-2.065-2.965 0-5.25.786-7.085 2.065-1.845 1.286-3.27 3.097-4.464 5.201-2.07 3.647-3.184 7.993-4.022 11.278-.128.501-.25.979-.367 1.423l-.17.641-4.077-1.102.169-.635c.122-.46.25-.974.39-1.535l.007-.025c.806-3.223 1.984-7.934 4.373-12.143 1.909-3.363 4.749-6.479 8.735-8.148-2.354-2.091-3.883-5.227-3.885-8.585-.002-5.864 4.667-11.198 10.396-11.198 5.728 0 10.397 5.332 10.393 11.198-.002 3.36-1.53 6.497-3.884 8.586 3.98 1.669 6.807 4.786 8.712 8.147 1.176 2.077 2.062 4.268 2.754 6.341.683-2.072 1.555-4.265 2.733-6.341 1.908-3.362 4.729-6.478 8.713-8.148-2.351-2.093-3.861-5.229-3.863-8.585-.002-5.864 4.667-11.198 10.396-11.198 5.73 0 10.375 5.334 10.37 11.198-.002 3.357-1.51 6.496-3.861 8.586 3.98 1.669 6.807 4.785 8.712 8.147 1.172 2.069 2.046 4.248 2.731 6.313.684-2.065 1.558-4.244 2.732-6.313 1.909-3.363 4.75-6.479 8.737-8.148-2.354-2.091-3.884-5.227-3.885-8.585-.003-5.864 4.665-11.198 10.393-11.198 5.729 0 10.4 5.332 10.396 11.198-.003 3.36-1.531 6.497-3.884 8.586 3.789 1.607 6.807 4.786 8.711 8.147 1.177 2.077 2.061 4.267 2.753 6.341.683-2.072 1.555-4.265 2.733-6.341 1.908-3.362 4.729-6.478 8.713-8.148-2.351-2.093-3.861-5.229-3.863-8.585-.002-5.864 4.667-11.198 10.396-11.198 5.73 0 10.374 5.334 10.371 11.198-.003 3.357-1.51 6.496-3.861 8.586zM55.342 79.341c-1.184-1.298-2.707-2.085-4.135-2.085s-2.957.787-4.148 2.086c-1.185 1.293-1.967 3.022-1.966 4.784 0 1.761.783 3.497 1.97 4.796 1.19 1.306 2.719 2.098 4.144 2.098 1.425 0 2.946-.791 4.131-2.096 1.18-1.3 1.958-3.035 1.959-4.798.001-1.764-.775-3.493-1.955-4.785zm35.931 0c-1.185-1.298-2.708-2.085-4.136-2.085s-2.957.787-4.147 2.086c-1.185 1.293-1.966 3.021-1.966 4.784.001 1.761.783 3.497 1.969 4.796 1.191 1.306 2.719 2.098 4.144 2.098 1.424 0 2.946-.791 4.132-2.096 1.18-1.3 1.958-3.035 1.96-4.798 0-1.764-.776-3.493-1.956-4.785zm35.953 0c-1.184-1.298-2.707-2.085-4.135-2.085s-2.957.787-4.147 2.086c-1.185 1.293-1.966 3.021-1.965 4.784 0 1.761.782 3.497 1.968 4.796 1.191 1.306 2.719 2.098 4.144 2.098 1.425 0 2.946-.791 4.131-2.096 1.18-1.3 1.958-3.035 1.959-4.798.001-1.764-.776-3.493-1.955-4.785zm35.932 0c-1.185-1.298-2.708-2.085-4.136-2.085s-2.956.787-4.147 2.086c-1.185 1.293-1.966 3.021-1.965 4.784.001 1.761.783 3.497 1.968 4.796 1.192 1.306 2.719 2.098 4.144 2.098 1.425 0 2.946-.791 4.132-2.096 1.179-1.3 1.957-3.035 1.958-4.798.001-1.764-.775-3.493-1.954-4.785zM55.525 106.834c-1.185-1.304-2.708-2.095-4.134-2.095-1.427 0-2.95.791-4.134 2.095-1.18 1.298-1.957 3.033-1.956 4.798 0 1.762.778 3.492 1.957 4.785 1.185 1.299 2.706 2.086 4.133 2.086 1.426 0 2.947-.787 4.132-2.086 1.179-1.293 1.956-3.023 1.957-4.786.002-1.764-.775-3.499-1.955-4.797zm35.954 0c-1.185-1.304-2.708-2.095-4.134-2.095-1.427 0-2.956.792-4.147 2.096-1.186 1.299-1.968 3.034-1.967 4.797 0 1.761.783 3.49 1.968 4.784 1.19 1.299 2.72 2.087 4.146 2.087 1.426 0 2.947-.787 4.132-2.086 1.179-1.293 1.956-3.023 1.957-4.786.002-1.764-.775-3.499-1.955-4.797zm35.93 0c-1.185-1.304-2.708-2.095-4.135-2.095-1.426 0-2.948.791-4.133 2.095-1.18 1.298-1.957 3.033-1.956 4.798.001 1.762.778 3.492 1.957 4.785 1.185 1.299 2.706 2.086 4.132 2.086 1.427 0 2.948-.787 4.133-2.086 1.179-1.293 1.956-3.023 1.957-4.786.001-1.764-.775-3.499-1.955-4.797zm35.954 0c-1.185-1.304-2.708-2.095-4.134-2.095-1.427 0-2.956.792-4.147 2.096-1.185 1.299-1.967 3.034-1.966 4.797.001 1.761.783 3.49 1.968 4.784 1.19 1.299 2.718 2.087 4.145 2.087 1.426 0 2.947-.787 4.132-2.086 1.179-1.293 1.956-3.023 1.957-4.786.002-1.764-.775-3.499-1.955-4.797zM51.207 76.596c3.325 0 6.752 3.622 6.75 7.53-.003 3.905-3.428 7.554-6.75 7.554s-6.772-3.65-6.774-7.554c-.002-3.907 3.45-7.53 6.774-7.53zm35.93 0c3.325 0 6.754 3.622 6.751 7.53-.003 3.905-3.429 7.554-6.751 7.554-3.323 0-6.77-3.65-6.773-7.554-.001-3.907 3.448-7.53 6.773-7.53zm35.954 0c3.325 0 6.752 3.622 6.75 7.53-.003 3.905-3.428 7.554-6.75 7.554s-6.771-3.65-6.773-7.554c-.001-3.907 3.448-7.53 6.773-7.53zm35.931 0c3.325 0 6.753 3.622 6.75 7.53-.002 3.905-3.427 7.554-6.75 7.554-3.322 0-6.77-3.65-6.772-7.554-.002-3.907 3.448-7.53 6.772-7.53zM51.391 104.08c3.325 0 6.752 3.645 6.75 7.553-.003 3.904-3.428 7.531-6.75 7.531-3.323 0-6.748-3.627-6.75-7.531-.002-3.907 3.425-7.553 6.75-7.553zm35.954 0c3.325 0 6.752 3.645 6.75 7.553-.003 3.904-3.428 7.531-6.75 7.531-3.323 0-6.773-3.627-6.774-7.531-.002-3.907 3.449-7.553 6.774-7.553zm35.929 0c3.325 0 6.753 3.645 6.75 7.553-.002 3.904-3.427 7.531-6.75 7.531-3.322 0-6.748-3.627-6.749-7.531-.002-3.907 3.425-7.553 6.749-7.553zm35.955 0c3.325 0 6.752 3.645 6.749 7.553-.002 3.904-3.427 7.531-6.749 7.531-3.323 0-6.771-3.627-6.773-7.531-.002-3.907 3.448-7.553 6.773-7.553z" clip-rule="evenodd"/><path fill="#D9B537" d="M28.868 17.613a3.241 3.241 0 00-3.241 3.241v9.43h-9.43a3.241 3.241 0 000 6.482h9.43v9.43a3.241 3.241 0 006.482 0v-9.43h9.43a3.241 3.241 0 000-6.482h-9.43v-9.43a3.241 3.241 0 00-3.241-3.241z"/><defs><linearGradient id="paint0_linear" x1="80.655" x2="80.655" y1=".159" y2="160.159" gradientUnits="userSpaceOnUse"><stop stop-color="#D4DEE3" stop-opacity="0"/><stop offset="1" stop-color="#D4DEE3"/></linearGradient></defs></svg>