<svg width="164" height="161" viewBox="0 0 164 161" fill="none" xmlns="http://www.w3.org/2000/svg">
<path fill-rule="evenodd" clip-rule="evenodd" d="M30.0912 30.6108V130.611H130.091V30.6108H30.0912ZM8.09119 0.61084C3.67291 0.61084 0.0911865 4.19256 0.0911865 8.61084V152.611C0.0911865 157.029 3.67291 160.611 8.09119 160.611H152.091C156.509 160.611 160.091 157.029 160.091 152.611V8.61084C160.091 4.19256 156.509 0.61084 152.091 0.61084H8.09119Z" fill="#477079" fill-opacity="0.7"/>
<path fill-rule="evenodd" clip-rule="evenodd" d="M30.0912 30.6108V130.611H130.091V30.6108H30.0912ZM8.09119 0.61084C3.67291 0.61084 0.0911865 4.19256 0.0911865 8.61084V152.611C0.0911865 157.029 3.67291 160.611 8.09119 160.611H152.091C156.509 160.611 160.091 157.029 160.091 152.611V8.61084C160.091 4.19256 156.509 0.61084 152.091 0.61084H8.09119Z" fill="url(#paint0_linear)"/>
<path d="M63.1394 113.78C58.7108 113.78 55.1207 110.19 55.1207 105.761C55.1207 101.333 58.7108 97.7427 63.1394 97.7427C67.568 97.7427 71.1581 101.333 71.1581 105.761C71.1581 110.19 67.568 113.78 63.1394 113.78Z" fill="#6164A9"/>
<path fill-rule="evenodd" clip-rule="evenodd" d="M91.2013 105.761C91.2013 121.26 78.6376 133.823 63.1395 133.823C47.6414 133.823 35.0778 121.26 35.0778 105.761C35.0778 90.2634 47.6414 77.6997 63.1395 77.6997C78.6376 77.6997 91.2013 90.2634 91.2013 105.761ZM84.2013 105.761C84.2013 117.394 74.7716 126.823 63.1395 126.823C51.5074 126.823 42.0778 117.394 42.0778 105.761C42.0778 94.1294 51.5074 84.6997 63.1395 84.6997C74.7716 84.6997 84.2013 94.1294 84.2013 105.761Z" fill="#6164A9"/>
<path fill-rule="evenodd" clip-rule="evenodd" d="M100.614 107.838C120.703 107.838 136.956 91.6187 136.956 71.6509C136.956 51.683 120.703 35.4636 100.614 35.4636C80.5241 35.4636 64.2706 51.683 64.2706 71.6509C64.2706 91.6187 80.5241 107.838 100.614 107.838ZM100.614 112.838C123.447 112.838 141.956 94.3979 141.956 71.6509C141.956 48.9038 123.447 30.4636 100.614 30.4636C77.7805 30.4636 59.2706 48.9038 59.2706 71.6509C59.2706 94.3979 77.7805 112.838 100.614 112.838Z" fill="#6164A9"/>
<path fill-rule="evenodd" clip-rule="evenodd" d="M142.755 62.1084L142.683 61.7916L130.25 50.9306C128.453 49.3615 125.731 49.5411 124.152 51.3275L101.805 76.7181L80.0793 61.4699L80.0773 61.4685C79.0984 60.776 77.8743 60.534 76.7173 60.7696L76.7146 60.7702C75.5469 61.0114 74.5295 61.7258 73.9039 62.739L60.7272 84.129L60.8667 84.5664C61.7193 87.2403 62.8289 89.7991 64.1663 92.2136L64.9952 93.7102L78.8657 71.1955L100.007 86.0318C101.801 87.2939 104.277 87.0034 105.741 85.354L127.801 60.2874L143.796 74.2598L143.82 72.0899C143.821 71.9334 143.822 71.7767 143.822 71.6198C143.822 68.3511 143.454 65.1674 142.755 62.1084Z" fill="#53808A"/>
<path d="M127.196 63.9283C131.338 63.9283 134.696 60.5705 134.696 56.4283C134.696 52.2862 131.338 48.9283 127.196 48.9283C123.054 48.9283 119.696 52.2862 119.696 56.4283C119.696 60.5705 123.054 63.9283 127.196 63.9283Z" fill="#A7AAFF"/>
<path d="M84.8529 66.4799C84.8529 70.622 81.495 73.9799 77.3529 73.9799C73.2108 73.9799 69.8529 70.622 69.8529 66.4799C69.8529 62.3377 73.2108 58.9799 77.3529 58.9799C81.495 58.9799 84.8529 62.3377 84.8529 66.4799Z" fill="#A7AAFF"/>
<path d="M108.438 81.4796C108.438 85.6217 105.081 88.9796 100.938 88.9796C96.7963 88.9796 93.4384 85.6217 93.4384 81.4796C93.4384 77.3375 96.7963 73.9796 100.938 73.9796C105.081 73.9796 108.438 77.3375 108.438 81.4796Z" fill="#A7AAFF"/>
<path fill-rule="evenodd" clip-rule="evenodd" d="M162.272 125.948L140.515 104.191C147.811 95.3241 152.155 84.0095 152.155 71.6407C152.155 43.3187 129.136 20.1794 100.693 20.1794C72.2498 20.1794 49.3516 43.2001 49.3516 71.6407C49.3516 99.9626 72.37 123.102 100.813 123.102C113.182 123.102 124.497 118.758 133.364 111.462L155.12 133.1C156.053 134.033 157.376 134.559 158.696 134.559C160.017 134.559 161.339 134.033 162.272 133.1C164.258 131.114 164.258 127.934 162.272 125.948ZM59.4219 71.6407C59.4219 48.8828 77.9356 30.3692 100.693 30.3692C123.451 30.3692 141.965 48.8828 141.965 71.6407C141.965 94.3985 123.451 112.912 100.693 112.912C77.9356 112.912 59.4219 94.3985 59.4219 71.6407Z" fill="#1F3239"/>
<defs>
<linearGradient id="paint0_linear" x1="80.0912" y1="0.61084" x2="80.0912" y2="160.611" gradientUnits="userSpaceOnUse">
<stop stop-color="#3C5A63" stop-opacity="0"/>
<stop offset="0.760417" stop-color="#37535B"/>
</linearGradient>
</defs>
</svg>
