<svg width="170" height="162" viewBox="0 0 170 162" fill="none" xmlns="http://www.w3.org/2000/svg">
<path fill-rule="evenodd" clip-rule="evenodd" d="M47.6547 49.0405C52.2511 46.8332 57.2451 45.3219 62.5 44.643C62.5961 44.5272 62.6928 44.4116 62.7901 44.2964C68.2558 37.8246 75.0113 33.085 82.361 30.1363C82.997 32.6612 83.6114 34.5287 83.6294 34.5803C84.2352 36.3214 86.1468 37.8377 88.5832 39.6394C88.6647 39.6997 88.7515 39.7638 88.8395 39.8289C88.9371 39.901 89.0362 39.9742 89.1313 40.0444L89.1416 40.052L89.1432 40.0532L89.1519 40.0596C89.4448 40.2759 89.6949 40.4606 89.7358 40.4916C91.09 42.2875 99.7771 43.7304 102.107 43.92C102.659 44.4479 103.653 46.1602 104.272 47.2258L104.283 47.2448C104.993 48.4701 105.729 49.7382 106.505 50.765C108.787 53.8065 113.436 52.699 117.537 51.7212L117.554 51.7172C118.961 51.3826 120.288 51.0669 121.154 51.0179C124.967 50.7997 124.939 47.0008 124.924 45.3778C124.918 44.8129 124.911 43.8986 125.034 43.5367C126.449 43.2192 127.903 44.7418 129.954 47.0955C130.519 47.7458 131.082 48.3909 131.656 48.981C133.867 51.2558 138.07 49.9826 142.071 47.8529C152.093 62.1273 153.923 80.7094 146.974 96.6308C146.938 96.5922 146.902 96.5535 146.865 96.5147C145.74 95.33 144.777 94.2165 143.925 93.232L143.9 93.2022C140.428 89.1833 137.684 86.0076 131.809 88.8489C128.166 90.6098 126.353 92.3478 124.755 93.8801L124.754 93.8812C123.794 94.8008 122.966 95.5945 121.798 96.3512C121.571 96.4968 120.746 96.4938 117.835 93.9047C117.811 95.7122 117.689 97.4962 117.474 99.2514C119.611 100.667 122.002 101.47 124.189 100.06C125.712 99.0758 126.776 98.0556 127.804 97.0687C129.298 95.6347 130.71 94.2816 133.726 92.8246C136.399 91.5321 137.008 91.9794 140.561 96.0895C141.448 97.1184 142.455 98.2843 143.664 99.5552C144.109 100.023 144.502 100.479 144.85 100.922C143.297 103.712 141.454 106.394 139.316 108.925C130.278 119.626 117.714 125.591 104.769 126.555C101.254 130.344 97.1472 133.575 92.5957 136.103C112.377 138.896 133.114 131.767 146.956 115.377C168.366 90.0259 165.171 52.1181 139.819 30.708C114.468 9.29779 76.5603 12.4928 55.1501 37.8442C52.1804 41.3606 49.6841 45.1185 47.6547 49.0405ZM133.367 38.3479C135.543 40.1852 137.523 42.1683 139.304 44.2707C137.188 45.3483 135.456 45.964 134.723 45.8121C134.241 45.3078 133.765 44.7608 133.288 44.2127L133.275 44.1985C130.965 41.5468 128.09 38.2471 123.948 39.2615C120.471 40.1185 120.497 43.5578 120.512 45.4124L120.512 45.44C120.515 45.8077 120.519 46.2968 120.491 46.6465C119.326 46.7612 117.968 47.0837 116.542 47.4224L116.513 47.4293C115.045 47.7794 110.575 48.8436 110.025 48.1096C109.409 47.2936 108.746 46.15 108.103 45.0417L108.096 45.03C106.343 42.0044 104.829 39.3916 102.339 39.5347C101.02 39.5864 94.4263 38.1319 92.9464 37.4805C92.5808 37.116 92.0552 36.7222 91.2041 36.0918C90.2786 35.4083 88.1124 33.806 87.7976 33.1399C87.3717 31.8973 86.9266 30.3174 86.5324 28.6733C102.22 23.9373 119.915 26.9867 133.367 38.3479Z" fill="#BFD3DC"/>
<path d="M63.7579 95.7115L66.2328 93.2366L63.7579 90.7618L52.9606 79.9645L49.7652 76.7691L47.4705 80.6622C42.9027 88.412 42.8963 98.0624 47.4725 105.813L49.7683 109.701L52.9612 106.508L63.7579 95.7115ZM71.3122 98.3167L68.8373 95.8419L66.3625 98.3167L55.5658 109.113L52.3724 112.307L56.2616 114.602C64.0072 119.174 73.662 119.173 81.4101 114.599L85.2992 112.304L82.1059 109.11L71.3122 98.3167Z" fill="#3C9786" stroke="white" stroke-width="7"/>
<path d="M66.3632 88.1566L68.838 90.6314L71.3129 88.1566L82.1102 77.3593L85.3076 74.1619L81.4107 71.8681C73.6575 67.3046 64.0168 67.299 56.2635 71.8693L52.3706 74.164L55.5659 77.3593L66.3632 88.1566Z" fill="#60D7C1" stroke="white" stroke-width="7"/>
<path d="M73.9178 90.7615L71.443 93.2364L73.9178 95.7113L84.7115 106.505L87.9048 109.698L90.2004 105.809C94.7763 98.0576 94.7655 88.4126 90.2065 80.6643L87.9131 76.7663L84.7151 79.9643L73.9178 90.7615Z" fill="#30C6AB" stroke="white" stroke-width="7"/>
<path d="M50.3328 67.1766C61.3992 59.3163 76.2758 59.3151 87.3434 67.1766L94.9059 59.6141C79.544 47.7056 58.1357 47.702 42.7739 59.6177L50.3328 67.1766Z" fill="#60D7C1"/>
<path d="M42.7773 111.743C34.9164 100.676 34.9164 85.7989 42.7773 74.7319L35.2184 67.173C23.3105 82.5271 23.3069 103.943 35.2226 119.297L42.7773 111.743Z" fill="#30C6AB"/>
<path d="M87.3391 119.294C76.2727 127.154 61.4026 127.162 50.332 119.297L42.7773 126.852C58.132 138.768 79.551 138.768 94.9015 126.856L87.3391 119.294Z" fill="#3C9786"/>
<path d="M94.898 74.7311C102.762 85.8017 102.755 100.671 94.8944 111.738L102.457 119.301C114.376 103.942 114.369 82.5305 102.46 67.1686L94.898 74.7311Z" fill="#30C6AB"/>
<path d="M127.286 66.2449C127.286 69.8083 130.175 72.697 133.739 72.697C137.302 72.697 140.191 69.8083 140.191 66.2449C140.191 62.6815 137.302 59.7928 133.739 59.7928C130.175 59.7928 127.286 62.6815 127.286 66.2449Z" fill="#30C6AB"/>
<path d="M116.696 69.2557C116.696 71.1562 118.237 72.6969 120.137 72.6969C122.038 72.6969 123.578 71.1562 123.578 69.2557C123.578 67.3552 122.038 65.8146 120.137 65.8146C118.237 65.8146 116.696 67.3552 116.696 69.2557Z" fill="#30C6AB"/>
</svg>
