<svg width="161" height="161" viewBox="0 0 161 161" fill="none" xmlns="http://www.w3.org/2000/svg">
<path d="M56.9284 127.113C56.9284 125.065 55.2596 123.397 53.2118 123.397H42.0623C35.9151 123.397 30.9127 118.394 30.9127 112.247C30.9127 106.1 35.9151 101.098 42.0623 101.098C44.1101 101.098 45.7788 99.4289 45.7788 97.3811C45.7788 95.3333 44.1101 93.6646 42.0623 93.6646H12.5196C12.423 94.8947 12.3301 96.1249 12.3301 97.3811C12.3301 110.363 17.5035 122.141 25.8619 130.83H53.2118C55.2596 130.83 56.9284 129.161 56.9284 127.113Z" fill="#53808A"/>
<path d="M60.6451 97.3811C60.6451 91.234 65.6476 86.2315 71.7947 86.2315H75.5112C77.559 86.2315 79.2278 84.5628 79.2278 82.515C79.2278 80.4672 77.559 78.7985 75.5112 78.7985H64.3617C58.2145 78.7985 53.2121 73.796 53.2121 67.6489C53.2121 61.5018 58.2145 56.4993 64.3617 56.4993H86.278C78.8375 51.8165 70.0665 49.0663 60.6451 49.0663C37.848 49.0663 18.7339 64.9581 13.6794 86.2315H42.0625C48.2097 86.2315 53.2121 91.234 53.2121 97.3811C53.2121 103.528 48.2097 108.531 42.0625 108.531C40.0147 108.531 38.346 110.199 38.346 112.247C38.346 114.295 40.0147 115.964 42.0625 115.964H53.2121C59.3592 115.964 64.3617 120.966 64.3617 127.113C64.3617 133.26 59.3592 138.263 53.2121 138.263H35.0123C42.4528 142.946 51.2238 145.696 60.6451 145.696C83.4423 145.696 102.556 129.804 107.611 108.531H71.7947C65.6476 108.531 60.6451 103.528 60.6451 97.3811Z" fill="#53808A"/>
<path d="M95.4275 63.9321H64.3611C62.3133 63.9321 60.6445 65.6008 60.6445 67.6487C60.6445 69.6965 62.3133 71.3652 64.3611 71.3652H75.5106C81.6578 71.3652 86.6602 76.3676 86.6602 82.5147C86.6602 88.6619 81.6578 93.6643 75.5106 93.6643H71.7941C69.7463 93.6643 68.0776 95.333 68.0776 97.3808C68.0776 99.4286 69.7463 101.097 71.7941 101.097H108.77C108.866 99.8672 108.959 98.637 108.959 97.3808C108.959 84.399 103.786 72.6214 95.4275 63.9321Z" fill="#53808A"/>
<path d="M59.3107 42.1505C60.909 42.1505 62.2093 40.8577 62.2093 39.2571C62.2093 37.6566 60.909 36.3638 59.3107 36.3638C57.7125 36.3638 56.4122 37.6566 56.4122 39.2571C56.4122 40.8577 57.7125 42.1505 59.3107 42.1505Z" fill="#1F3239"/>
<path d="M66.9053 42.1505C68.5036 42.1505 69.8039 40.8577 69.8039 39.2571C69.8039 37.6566 68.5036 36.3638 66.9053 36.3638C65.3071 36.3638 64.0068 37.6566 64.0068 39.2571C64.0068 40.8577 65.3071 42.1505 66.9053 42.1505Z" fill="#1F3239"/>
<path d="M74.4994 42.1505C76.0977 42.1505 77.398 40.8577 77.398 39.2571C77.398 37.6566 76.0977 36.3638 74.4994 36.3638C72.9012 36.3638 71.6009 37.6566 71.6009 39.2571C71.6009 40.8577 72.9012 42.1505 74.4994 42.1505Z" fill="#1F3239"/>
<path fill-rule="evenodd" clip-rule="evenodd" d="M127.659 89.3776C126.061 89.3776 124.76 90.6709 124.76 92.2709V103.631C124.76 106.208 122.655 108.311 120.064 108.311H59.3109C56.7204 108.311 54.6152 106.208 54.6152 103.631V49.724H124.76V61.9774C124.76 63.5774 126.061 64.8708 127.659 64.8708C129.256 64.8708 130.557 63.5774 130.557 61.9774V39.2573C130.557 33.4843 125.846 28.7905 120.064 28.7905H59.3109C53.5288 28.7905 48.8181 33.4843 48.8181 39.2573V103.631C48.8181 109.404 53.5288 114.098 59.3109 114.098H120.064C125.846 114.098 130.557 109.404 130.557 103.631V92.2709C130.557 90.671 129.256 89.3776 127.659 89.3776ZM59.3109 34.5772H120.064C122.655 34.5772 124.76 36.6805 124.76 39.2573V43.9373H54.6152V39.2573C54.6152 36.6805 56.7204 34.5772 59.3109 34.5772Z" fill="#1F3239"/>
<path d="M147.754 97.9569C148.621 98.7609 148.605 100.137 147.72 100.921L142.559 105.49C142.181 105.82 142.019 106.326 142.141 106.812L143.703 113.309C143.976 114.449 143.216 115.578 142.057 115.754L135.124 116.804C134.665 116.871 134.274 117.168 134.092 117.593L131.543 123.372C131.085 124.409 129.858 124.859 128.838 124.363L122.838 121.446C122.46 121.264 122.015 121.27 121.637 121.459L115.882 124.375C114.882 124.882 113.661 124.468 113.176 123.458L110.437 117.762C110.248 117.371 109.877 117.094 109.446 117.02L102.666 115.871C101.529 115.678 100.79 114.566 101.053 113.442L102.53 107.149C102.645 106.677 102.49 106.184 102.139 105.854L96.9906 101.08C96.1236 100.276 96.1395 98.8999 97.0249 98.1162L102.186 93.5477C102.564 93.2171 102.726 92.7111 102.604 92.2254L101.042 85.7284C100.768 84.5888 101.529 83.4589 102.688 83.2834L109.621 82.2334C110.08 82.1659 110.471 81.869 110.653 81.444L113.202 75.6653C113.66 74.628 114.887 74.1781 115.907 74.6739L121.907 77.5916C122.285 77.7737 122.73 77.7737 123.101 77.5781L128.863 74.6612C129.863 74.155 131.083 74.569 131.569 75.579L134.308 81.2753C134.496 81.6666 134.868 81.9432 135.299 82.0175L142.08 83.1716C143.217 83.3652 143.955 84.4777 143.692 85.6006L142.215 91.888C142.1 92.3603 142.255 92.8528 142.606 93.1834L147.754 97.9569Z" fill="#D2B552"/>
<path fill-rule="evenodd" clip-rule="evenodd" d="M130.936 92.5097C130.932 92.4935 130.917 92.4309 130.891 92.3496C130.869 92.2613 130.838 92.1633 130.798 92.0619L130.774 92.0039L130.746 91.948C130.729 91.913 130.711 91.8791 130.701 91.861L130.7 91.8577L130.687 91.8345C130.685 91.8307 130.684 91.8282 130.684 91.8282L130.682 91.8235C130.668 91.7962 130.614 91.6849 130.534 91.565C130.417 91.3845 130.294 91.2435 130.178 91.1279L130.173 91.1231C130.063 91.0136 129.918 90.8841 129.733 90.7643C129.641 90.703 129.562 90.6619 129.519 90.6407L129.51 90.6352C129.463 90.6073 129.362 90.5482 129.229 90.4949L129.188 90.4783L129.145 90.4643C129.076 90.4412 129.011 90.4244 128.991 90.419L128.988 90.4184L128.958 90.4082L128.948 90.4057C128.908 90.3925 128.815 90.3626 128.692 90.3409C128.513 90.3047 128.333 90.2875 128.149 90.2876L116.669 90.2987C115.088 90.2928 113.812 91.5692 113.817 93.1502C113.813 94.7303 115.09 96.0048 116.67 95.9986L118.018 96.0026L121.268 96.0008L114.605 102.673C113.494 103.786 113.495 105.597 114.607 106.709C115.72 107.821 117.532 107.82 118.644 106.707L125.305 100.036L125.307 103.278L125.313 104.633L125.313 104.636C125.314 105.411 125.624 106.129 126.146 106.65C126.667 107.171 127.385 107.48 128.16 107.481C129.743 107.488 131.02 106.209 131.013 104.626L131.011 93.1455C131.011 92.9438 130.99 92.7483 130.946 92.5519L130.942 92.5325L130.937 92.5132L130.936 92.5097Z" fill="#1F3239"/>
</svg>
