<svg width="161" height="161" viewBox="0 0 161 161" fill="none" xmlns="http://www.w3.org/2000/svg">
<path fill-rule="evenodd" clip-rule="evenodd" d="M30.4404 30.6109V130.611H130.44V30.6109H30.4404ZM8.44043 0.61087C4.02215 0.61087 0.44043 4.19259 0.44043 8.61087V152.611C0.44043 157.029 4.02215 160.611 8.44043 160.611H152.44C156.859 160.611 160.44 157.029 160.44 152.611V8.61087C160.44 4.19259 156.859 0.61087 152.44 0.61087H8.44043Z" fill="#BAD0DB"/>
<path fill-rule="evenodd" clip-rule="evenodd" d="M30.4404 30.6109V130.611H130.44V30.6109H30.4404ZM8.44043 0.61087C4.02215 0.61087 0.44043 4.19259 0.44043 8.61087V152.611C0.44043 157.029 4.02215 160.611 8.44043 160.611H152.44C156.859 160.611 160.44 157.029 160.44 152.611V8.61087C160.44 4.19259 156.859 0.61087 152.44 0.61087H8.44043Z" fill="url(#paint0_linear)"/>
<path d="M119.851 125.815C119.851 127.472 118.508 128.815 116.851 128.815H24.2222C22.5653 128.815 21.2222 127.472 21.2222 125.815V58.5244C21.2222 56.8675 22.5653 55.5244 24.2222 55.5244H27.5777C29.2346 55.5244 30.5777 56.8675 30.5777 58.5244V116.459C30.5777 118.116 31.9209 119.459 33.5777 119.459H116.851C118.508 119.459 119.851 120.803 119.851 122.459V125.815Z" fill="#9CB9C8"/>
<path d="M35.5812 111.213V99.4346C35.5812 98.3629 36.1529 97.3726 37.081 96.8367L50.7936 88.9186C51.6107 88.4468 52.6022 88.3869 53.4701 88.7568L64.537 93.4743C65.5997 93.9273 66.8281 93.7299 67.6954 92.9667L82.8655 79.6161C83.4132 79.1341 84.1179 78.8682 84.8475 78.8682H91.5189C92.3285 78.8682 93.1037 78.541 93.6684 77.9609L104.842 66.4842C106.72 64.5553 109.992 65.8848 109.992 68.5769V111.213C109.992 112.87 108.649 114.213 106.992 114.213H38.5812C36.9243 114.213 35.5812 112.87 35.5812 111.213Z" fill="#30C6AB"/>
<path d="M160.44 58.21C160.44 56.9613 159.944 55.7637 159.062 54.8808C158.18 53.9978 156.983 53.5018 155.735 53.5018C150.271 53.5052 144.873 54.6988 139.917 56.9998C134.96 59.3007 130.564 62.6537 127.033 66.826C125.714 57.8993 121.236 49.743 114.414 43.8413C107.592 37.9396 98.8795 34.6847 89.8615 34.6689C88.6136 34.6689 87.4168 35.165 86.5344 36.0479C85.652 36.9309 85.1562 38.1285 85.1562 39.3772C85.1646 48.5454 88.5145 57.3959 94.578 64.2693C100.642 71.1427 109.002 75.5672 118.093 76.7132V101.243C114.063 102.284 110.492 104.633 107.938 107.921C105.383 111.209 103.991 115.252 103.977 119.417V124.125C103.977 125.374 104.473 126.571 105.355 127.454C106.238 128.337 107.435 128.833 108.682 128.833H136.914C138.162 128.833 139.359 128.337 140.241 127.454C141.123 126.571 141.619 125.374 141.619 124.125V119.417C141.606 115.252 140.213 111.209 137.659 107.921C135.105 104.633 131.533 102.284 127.503 101.243V95.5461C136.594 94.4 144.955 89.9756 151.018 83.1021C157.082 76.2287 160.432 67.3782 160.44 58.21ZM150.559 63.389C149.515 68.9974 146.799 74.158 142.768 78.1919C138.736 82.2258 133.579 84.9439 127.974 85.9884C129.018 80.3801 131.734 75.2194 135.765 71.1855C139.797 67.1516 144.954 64.4335 150.559 63.389ZM95.0372 44.5562C100.642 45.6007 105.799 48.3188 109.831 52.3526C113.862 56.3865 116.579 61.5472 117.622 67.1556C112.018 66.1111 106.86 63.393 102.829 59.3591C98.7974 55.3252 96.0811 50.1645 95.0372 44.5562ZM132.209 119.417H113.388C113.388 116.919 114.379 114.524 116.144 112.758C117.909 110.992 120.302 110 122.798 110C125.294 110 127.688 110.992 129.452 112.758C131.217 114.524 132.209 116.919 132.209 119.417Z" fill="#3C9786"/>
<path d="M160.44 58.21C160.44 56.9613 159.944 55.7637 159.062 54.8808C158.18 53.9978 156.983 53.5018 155.735 53.5018C150.271 53.5052 144.873 54.6988 139.917 56.9998C134.96 59.3007 130.564 62.6537 127.033 66.826C125.714 57.8993 121.236 49.743 114.414 43.8413C107.592 37.9396 98.8795 34.6847 89.8615 34.6689C88.6136 34.6689 87.4168 35.165 86.5344 36.0479C85.652 36.9309 85.1562 38.1285 85.1562 39.3772C85.1646 48.5454 88.5145 57.3959 94.578 64.2693C100.642 71.1427 109.002 75.5672 118.093 76.7132V101.243C114.063 102.284 110.492 104.633 107.938 107.921C105.383 111.209 103.991 115.252 103.977 119.417V124.125C103.977 125.374 104.473 126.571 105.355 127.454C106.238 128.337 107.435 128.833 108.682 128.833H136.914C138.162 128.833 139.359 128.337 140.241 127.454C141.123 126.571 141.619 125.374 141.619 124.125V119.417C141.606 115.252 140.213 111.209 137.659 107.921C135.105 104.633 131.533 102.284 127.503 101.243V95.5461C136.594 94.4 144.955 89.9756 151.018 83.1021C157.082 76.2287 160.432 67.3782 160.44 58.21ZM150.559 63.389C149.515 68.9974 146.799 74.158 142.768 78.1919C138.736 82.2258 133.579 84.9439 127.974 85.9884C129.018 80.3801 131.734 75.2194 135.765 71.1855C139.797 67.1516 144.954 64.4335 150.559 63.389ZM95.0372 44.5562C100.642 45.6007 105.799 48.3188 109.831 52.3526C113.862 56.3865 116.579 61.5472 117.622 67.1556C112.018 66.1111 106.86 63.393 102.829 59.3591C98.7974 55.3252 96.0811 50.1645 95.0372 44.5562ZM132.209 119.417H113.388C113.388 116.919 114.379 114.524 116.144 112.758C117.909 110.992 120.302 110 122.798 110C125.294 110 127.688 110.992 129.452 112.758C131.217 114.524 132.209 116.919 132.209 119.417Z" fill="url(#paint1_linear)" fill-opacity="0.5"/>
<defs>
<linearGradient id="paint0_linear" x1="80.4404" y1="0.61087" x2="80.4404" y2="160.611" gradientUnits="userSpaceOnUse">
<stop stop-color="#D4DEE3" stop-opacity="0"/>
<stop offset="1" stop-color="#D4DEE3"/>
</linearGradient>
<linearGradient id="paint1_linear" x1="122.798" y1="34.6689" x2="122.798" y2="128.833" gradientUnits="userSpaceOnUse">
<stop stop-color="#30C6AB"/>
<stop offset="1" stop-color="#30C6AB" stop-opacity="0"/>
</linearGradient>
</defs>
</svg>
