<svg width="184" height="161" viewBox="0 0 184 161" fill="none" xmlns="http://www.w3.org/2000/svg">
<path fill-rule="evenodd" clip-rule="evenodd" d="M155.697 37.5273C158.793 37.5273 161.476 40.2209 161.476 43.3288V55.3461H62.4072V43.3288C62.4072 40.2209 65.0903 37.5273 68.1862 37.5273H155.697ZM72.9332 45.8151C72.9332 47.2655 74.1716 48.5087 75.6163 48.5087C77.2675 48.5087 78.2994 47.2655 78.2994 45.8151C78.2994 44.3648 77.0611 43.1216 75.6163 43.1216C74.1716 43.1216 72.9332 44.3648 72.9332 45.8151ZM80.7762 45.8151C80.7762 47.2655 82.2209 48.5087 83.6657 48.5087C85.1104 48.5087 86.3488 47.2655 86.3488 45.8151C86.3488 44.3648 85.3168 43.1216 83.6657 43.1216C82.0145 43.1216 80.7762 44.3648 80.7762 45.8151ZM88.8255 45.8151C88.8255 47.2655 89.8574 48.5087 91.5086 48.5087C92.9533 48.5087 94.1917 47.2655 94.1917 45.8151C94.1917 44.3648 92.9533 43.1216 91.5086 43.1216C90.0638 43.1216 88.8255 44.3648 88.8255 45.8151ZM150.124 47.2655C150.95 47.2655 151.775 46.6439 151.775 45.6079C151.775 44.7792 151.156 43.9504 150.124 43.9504H107.814C106.988 43.9504 106.162 44.7792 106.162 45.6079C106.162 46.4367 106.988 47.2655 107.814 47.2655H150.124ZM155.695 117.504H68.1846C65.0887 117.504 62.4056 115.018 62.4056 111.703V59.49H161.474V111.703C161.474 114.811 158.791 117.504 155.695 117.504ZM156.314 69.6425C156.314 66.7418 154.044 64.4627 151.154 64.4627C148.265 64.4627 145.995 66.949 145.995 69.6425C145.995 72.5433 148.471 74.8224 151.154 74.8224C154.044 74.8224 156.314 72.5433 156.314 69.6425ZM145.788 77.3087C144.55 76.4799 143.518 75.444 142.899 74.2008L132.786 83.1102C133.817 84.1462 134.643 85.3893 135.262 86.6325L145.788 77.3087ZM131.754 90.362C131.754 87.4613 129.277 85.1821 126.594 85.1821C123.911 85.1821 121.434 87.4613 121.434 90.362C121.434 93.2627 123.704 95.5419 126.594 95.5419C129.483 95.5419 131.754 93.2627 131.754 90.362ZM119.576 84.3533L110.082 77.1015C109.67 78.5519 109.05 79.7951 108.225 81.0382L117.719 88.29C117.925 86.8397 118.544 85.3893 119.576 84.3533ZM106.161 75.0296C106.161 72.1289 103.891 69.8497 101.001 69.8497C98.1116 69.8497 95.8412 72.1289 95.8412 75.0296C95.8412 77.9303 98.1116 80.2095 101.001 80.2095C103.891 80.2095 106.161 77.9303 106.161 75.0296ZM93.5709 80.4166C92.7454 79.3807 92.1262 77.9303 91.9198 76.4799L78.2979 86.4253C79.3298 87.2541 80.1554 88.4972 80.5682 89.9476L93.5709 80.4166ZM76.8531 92.4339C76.4403 89.7404 74.17 87.8757 71.6933 87.8757C69.0102 87.8757 66.5335 90.1548 66.5335 93.0555C66.5335 95.9562 68.8038 98.2354 71.6933 98.2354C74.5828 98.2354 77.2659 95.7491 76.8531 92.4339Z" fill="#53808A"/>
<path fill-rule="evenodd" clip-rule="evenodd" d="M127.097 104.852C127.097 107.735 126.819 108.138 124.353 109.387C121.889 110.636 121.418 115.165 121.112 117.605C120.803 120.043 120.219 124.617 118.615 129.789C117.016 134.961 112.451 141.408 98.6614 141.408C84.873 141.408 79.2719 136.17 76.4637 132.624C73.6583 129.079 69.7523 116.426 68.733 113.354C67.7152 110.282 63.9926 110.52 63.9926 110.52V110.47C63.9926 110.47 60.2741 110.233 59.2534 113.308C58.2342 116.384 54.3281 129.058 51.5214 132.61C48.7146 136.161 43.1121 141.408 29.3209 141.408C15.5298 141.408 10.9658 134.952 9.36592 129.771C7.76598 124.589 7.17842 120.009 6.87085 117.565C6.56328 115.121 6.09157 110.584 3.62823 109.333C1.16351 108.084 0.883518 107.68 0.883518 104.792C0.883518 101.905 0.524912 100.301 3.87649 99.6829C7.22945 99.0663 23.1157 96.0375 36.3041 97.4126C49.4925 98.7891 51.7145 102.239 63.9912 102.239V102.301C76.2679 102.301 78.4912 98.8567 91.6769 97.483C104.863 96.1092 120.747 99.1339 124.1 99.7505C127.455 100.367 127.097 101.97 127.097 104.852ZM47.6374 108.027C42.9935 104.665 38.3619 104.005 31.3112 104.164C18.2152 104.459 15.1836 107.451 15.1933 112.857C15.2001 116.83 14.1892 124.184 17.7049 130.244C21.222 136.308 30.5967 137.473 38.4267 134.592C46.2554 131.709 47.8346 122.941 48.8925 118.894C49.9504 114.849 50.5793 110.158 47.6374 108.027ZM112.789 112.863C112.799 107.458 109.767 104.465 96.6739 104.171C89.6246 104.012 84.993 104.673 80.3491 108.034C77.4072 110.164 78.0361 114.855 79.094 118.9C80.1533 122.944 81.7297 131.715 89.557 134.594C97.387 137.477 106.762 136.309 110.276 130.248C113.793 124.188 112.782 116.835 112.789 112.863Z" fill="#1F3239"/>
<rect x="62.4056" y="59.473" width="11.7078" height="20.2431" fill="#3A5760"/>
<path d="M0.872375 84.1662V79.0891L8.48803 71.3086C9.19135 70.6053 9.74083 69.9569 10.1364 69.3635C10.554 68.7481 10.7628 68.1327 10.7628 67.5173C10.7628 66.1985 9.93863 65.5392 8.29022 65.5392H1.26799V60.4621C2.34496 60.2203 3.5428 60.0005 4.86153 59.8027C6.20224 59.5829 7.75174 59.473 9.51005 59.473C11.4442 59.473 12.9607 59.7368 14.0597 60.2643C15.1806 60.7918 15.9718 61.572 16.4334 62.605C16.9169 63.638 17.1587 64.9018 17.1587 66.3963C17.1587 68.0008 16.84 69.3965 16.2026 70.5833C15.5652 71.7702 14.6751 72.946 13.5322 74.1109L9.31224 78.4297H17.818V84.1662H0.872375Z" fill="#D2B552"/>
<path d="M26.7535 84.364C24.4896 84.364 22.8083 83.7816 21.7093 82.6167C20.6104 81.4299 20.0609 79.7924 20.0609 77.7044V66.4623C20.0609 64.1985 20.6433 62.4731 21.8082 61.2863C22.9731 60.0774 24.6325 59.473 26.7864 59.473H32.1273C34.2153 59.473 35.8087 60.0774 36.9077 61.2863C38.0066 62.4731 38.5561 64.1985 38.5561 66.4623V77.7044C38.5561 79.7705 37.9956 81.3969 36.8747 82.5837C35.7758 83.7706 34.1823 84.364 32.0943 84.364H26.7535ZM28.3359 78.6276H30.314C30.9074 78.6276 31.358 78.4847 31.6657 78.199C31.9954 77.8913 32.1602 77.3967 32.1602 76.7154V67.1216C32.1602 66.3524 32.0064 65.8469 31.6987 65.6051C31.391 65.3414 31.0173 65.2095 30.5778 65.2095H28.1051C27.0062 65.2095 26.4567 65.8469 26.4567 67.1216V76.6824C26.4567 77.3857 26.6106 77.8913 26.9183 78.199C27.226 78.4847 27.6985 78.6276 28.3359 78.6276Z" fill="#D2B552"/>
<path d="M47.8737 84.364C45.6099 84.364 43.9285 83.7816 42.8296 82.6167C41.7306 81.4299 41.1812 79.7924 41.1812 77.7044V66.4623C41.1812 64.1985 41.7636 62.4731 42.9285 61.2863C44.0934 60.0774 45.7528 59.473 47.9067 59.473H53.2475C55.3355 59.473 56.929 60.0774 58.0279 61.2863C59.1269 62.4731 59.6763 64.1985 59.6763 66.4623V77.7044C59.6763 79.7705 59.1159 81.3969 57.995 82.5837C56.896 83.7706 55.3026 84.364 53.2146 84.364H47.8737ZM49.4562 78.6276H51.4343C52.0277 78.6276 52.4783 78.4847 52.786 78.199C53.1157 77.8913 53.2805 77.3967 53.2805 76.7154V67.1216C53.2805 66.3524 53.1267 65.8469 52.8189 65.6051C52.5112 65.3414 52.1376 65.2095 51.698 65.2095H49.2254C48.1265 65.2095 47.577 65.8469 47.577 67.1216V76.6824C47.577 77.3857 47.7309 77.8913 48.0386 78.199C48.3463 78.4847 48.8188 78.6276 49.4562 78.6276Z" fill="#D2B552"/>
<path d="M69.1588 84.364C68.3236 84.364 67.4994 84.2981 66.6862 84.1662C65.873 84.0124 65.1367 83.7376 64.4773 83.342C63.8399 82.9464 63.3234 82.3859 62.9278 81.6606C62.5542 80.9133 62.3674 79.9353 62.3674 78.7265V75.4626C62.3674 74.9351 62.4443 74.4076 62.5981 73.8801C62.752 73.3526 63.0048 72.8801 63.3564 72.4625C63.7081 72.0449 64.1916 71.7702 64.807 71.6383C64.1477 71.2866 63.6751 70.891 63.3894 70.4514C63.1256 70.0119 62.9718 69.5283 62.9278 69.0008C62.8839 68.4733 62.8619 67.9239 62.8619 67.3524V64.5831C62.8619 63.3303 63.1366 62.3303 63.6861 61.583C64.2575 60.8357 64.9938 60.2972 65.895 59.9675C66.8181 59.6379 67.7961 59.473 68.8291 59.473H73.5106C74.5656 59.473 75.5437 59.6379 76.4448 59.9675C77.3459 60.2972 78.0712 60.8357 78.6207 61.583C79.1921 62.3303 79.4779 63.3303 79.4779 64.5831V67.3524C79.4779 67.5722 79.4559 67.8799 79.4119 68.2755C79.368 68.6712 79.2801 69.0887 79.1482 69.5283C79.0163 69.9459 78.8185 70.3086 78.5548 70.6163C78.291 70.924 77.9394 71.1108 77.4998 71.1767C78.269 71.3526 78.8185 71.7152 79.1482 72.2647C79.4998 72.7922 79.7196 73.3526 79.8076 73.9461C79.9174 74.5395 79.9724 75.045 79.9724 75.4626V78.7265C79.9724 80.3309 79.6757 81.5397 79.0823 82.353C78.4888 83.1442 77.7086 83.6827 76.7415 83.9684C75.7744 84.2322 74.7304 84.364 73.6095 84.364H69.1588ZM70.3127 68.9349H72.0271C72.5985 68.9349 72.9392 68.803 73.0491 68.5393C73.1809 68.2536 73.2469 67.803 73.2469 67.1876V66.1656C73.2469 65.5282 73.115 65.1545 72.8513 65.0446C72.6095 64.9348 72.3348 64.8798 72.0271 64.8798H70.3127C69.9171 64.8798 69.6094 64.9457 69.3896 65.0776C69.1918 65.1875 69.0929 65.5502 69.0929 66.1656V67.1876C69.0929 67.9788 69.1808 68.4733 69.3566 68.6712C69.5544 68.847 69.8731 68.9349 70.3127 68.9349ZM70.3127 78.9572H72.0271C72.7524 78.9572 73.1919 78.8254 73.3458 78.5616C73.4996 78.2759 73.5766 77.9023 73.5766 77.4407V75.8912C73.5766 75.4516 73.4447 75.089 73.1809 74.8032C72.9392 74.4955 72.5765 74.3417 72.093 74.3417H70.3127C69.7852 74.3417 69.3896 74.4955 69.1259 74.8032C68.8841 75.089 68.7632 75.4516 68.7632 75.8912V77.4407C68.7632 78.0121 68.8731 78.4078 69.0929 78.6276C69.3346 78.8473 69.7413 78.9572 70.3127 78.9572Z" fill="#D2B552"/>
</svg>
