<svg width="185" height="161" viewBox="0 0 185 161" fill="none" xmlns="http://www.w3.org/2000/svg">
<path fill-rule="evenodd" clip-rule="evenodd" d="M155.038 38.6108C158.134 38.6108 160.817 41.3044 160.817 44.4123V56.4296H61.7489V44.4123C61.7489 41.3044 64.432 38.6108 67.5279 38.6108H155.038ZM72.2749 46.8986C72.2749 48.349 73.5133 49.5922 74.958 49.5922C76.6092 49.5922 77.6411 48.349 77.6411 46.8986C77.6411 45.4483 76.4028 44.2051 74.958 44.2051C73.5133 44.2051 72.2749 45.4483 72.2749 46.8986ZM80.1178 46.8986C80.1178 48.349 81.5626 49.5922 83.0073 49.5922C84.4521 49.5922 85.6904 48.349 85.6904 46.8986C85.6904 45.4483 84.6585 44.2051 83.0073 44.2051C81.3562 44.2051 80.1178 45.4483 80.1178 46.8986ZM88.1672 46.8986C88.1672 48.349 89.1991 49.5922 90.8503 49.5922C92.295 49.5922 93.5334 48.349 93.5334 46.8986C93.5334 45.4483 92.295 44.2051 90.8503 44.2051C89.4055 44.2051 88.1672 45.4483 88.1672 46.8986ZM149.466 48.349C150.291 48.349 151.117 47.7274 151.117 46.6914C151.117 45.8627 150.498 45.0339 149.466 45.0339H107.155C106.33 45.0339 105.504 45.8627 105.504 46.6914C105.504 47.5202 106.33 48.349 107.155 48.349H149.466ZM155.037 118.588H67.5263C64.4304 118.588 61.7473 116.102 61.7473 112.787V60.5735H160.816V112.787C160.816 115.894 158.133 118.588 155.037 118.588ZM155.656 70.726C155.656 67.8253 153.386 65.5462 150.496 65.5462C147.607 65.5462 145.336 68.0325 145.336 70.726C145.336 73.6267 147.813 75.9059 150.496 75.9059C153.386 75.9059 155.656 73.6267 155.656 70.726ZM145.13 78.3922C143.892 77.5634 142.86 76.5275 142.24 75.2843L132.127 84.1937C133.159 85.2296 133.985 86.4728 134.604 87.716L145.13 78.3922ZM131.095 91.4455C131.095 88.5448 128.619 86.2656 125.935 86.2656C123.252 86.2656 120.776 88.5448 120.776 91.4455C120.776 94.3462 123.046 96.6254 125.935 96.6254C128.825 96.6254 131.095 94.3462 131.095 91.4455ZM118.918 85.4368L109.424 78.185C109.011 79.6354 108.392 80.8786 107.566 82.1217L117.061 89.3735C117.267 87.9232 117.886 86.4728 118.918 85.4368ZM105.503 76.1131C105.503 73.2124 103.232 70.9332 100.343 70.9332C97.4532 70.9332 95.1829 73.2124 95.1829 76.1131C95.1829 79.0138 97.4532 81.2929 100.343 81.2929C103.232 81.2929 105.503 79.0138 105.503 76.1131ZM92.9126 81.5001C92.087 80.4642 91.4679 79.0138 91.2615 77.5634L77.6395 87.5088C78.6715 88.3376 79.4971 89.5807 79.9099 91.0311L92.9126 81.5001ZM76.1948 93.5174C75.782 90.8239 73.5117 88.9592 71.035 88.9592C68.3519 88.9592 65.8752 91.2383 65.8752 94.139C65.8752 97.0397 68.1455 99.3189 71.035 99.3189C73.9245 99.3189 76.6076 96.8325 76.1948 93.5174Z" fill="#53808A"/>
<path fill-rule="evenodd" clip-rule="evenodd" d="M126.439 105.936C126.439 108.818 126.161 109.221 123.694 110.471C121.231 111.719 120.759 116.248 120.453 118.688C120.144 121.127 119.561 125.7 117.957 130.873C116.358 136.045 111.793 142.491 98.0032 142.491C84.2148 142.491 78.6136 137.253 75.8055 133.707C73.0001 130.162 69.094 117.509 68.0748 114.438C67.0569 111.366 63.3343 111.603 63.3343 111.603V111.553C63.3343 111.553 59.6158 111.316 58.5952 114.392C57.5759 117.468 53.6699 130.142 50.8631 133.693C48.0563 137.245 42.4538 142.491 28.6627 142.491C14.8715 142.491 10.3076 136.035 8.70765 130.855C7.10772 125.673 6.52016 121.092 6.21259 118.648C5.90501 116.204 5.43331 111.668 2.96996 110.417C0.505242 109.167 0.225254 108.763 0.225254 105.875C0.225254 102.988 -0.133352 101.384 3.21823 100.766C6.57119 100.15 22.4574 97.121 35.6458 98.4961C48.8342 99.8726 51.0562 103.322 63.3329 103.322V103.384C75.6096 103.384 77.833 99.9402 91.0186 98.5665C104.204 97.1927 120.089 100.217 123.442 100.834C126.796 101.45 126.439 103.053 126.439 105.936ZM46.9791 109.111C42.3352 105.748 37.7037 105.089 30.6529 105.248C17.5569 105.543 14.5253 108.534 14.535 113.941C14.5419 117.913 13.5309 125.267 17.0466 131.328C20.5637 137.391 29.9385 138.556 37.7685 135.675C45.5971 132.793 47.1764 124.025 48.2342 119.978C49.2921 115.933 49.9211 111.242 46.9791 109.111ZM112.131 113.946C112.14 108.541 109.109 105.548 96.0157 105.254C88.9663 105.096 84.3348 105.757 79.6908 109.118C76.7489 111.247 77.3778 115.938 78.4357 119.983C79.495 124.027 81.0715 132.798 88.8987 135.678C96.7287 138.561 106.104 137.392 109.618 131.332C113.135 125.272 112.124 117.919 112.131 113.946Z" fill="#1F3239"/>
<rect x="61.7473" y="60.5565" width="11.7078" height="20.2431" fill="#3A5760"/>
<path d="M0.214111 85.2497V80.1726L7.82977 72.3921C8.53309 71.6888 9.08256 71.0404 9.47818 70.447C9.89578 69.8316 10.1046 69.2162 10.1046 68.6008C10.1046 67.282 9.28037 66.6227 7.63196 66.6227H0.60973V61.5456C1.68669 61.3038 2.88454 61.084 4.20327 60.8862C5.54397 60.6664 7.09348 60.5565 8.85178 60.5565C10.7859 60.5565 12.3025 60.8203 13.4014 61.3478C14.5223 61.8752 15.3136 62.6555 15.7751 63.6885C16.2586 64.7215 16.5004 65.9853 16.5004 67.4798C16.5004 69.0843 16.1817 70.4799 15.5443 71.6668C14.9069 72.8537 14.0168 74.0295 12.8739 75.1944L8.65397 79.5132H17.1598V85.2497H0.214111Z" fill="#A7AAFF"/>
<path d="M26.0952 85.4475C23.8314 85.4475 22.15 84.8651 21.0511 83.7002C19.9521 82.5133 19.4026 80.8759 19.4026 78.7879V67.5458C19.4026 65.282 19.9851 63.5566 21.15 62.3698C22.3148 61.1609 23.9742 60.5565 26.1282 60.5565H31.469C33.557 60.5565 35.1505 61.1609 36.2494 62.3698C37.3483 63.5566 37.8978 65.282 37.8978 67.5458V78.7879C37.8978 80.8539 37.3374 82.4804 36.2164 83.6672C35.1175 84.8541 33.524 85.4475 31.436 85.4475H26.0952ZM27.6777 79.7111H29.6558C30.2492 79.7111 30.6998 79.5682 31.0075 79.2825C31.3371 78.9748 31.502 78.4802 31.502 77.7989V68.2051C31.502 67.4359 31.3481 66.9304 31.0404 66.6886C30.7327 66.4249 30.3591 66.293 29.9195 66.293H27.4469C26.3479 66.293 25.7985 66.9304 25.7985 68.2051V77.7659C25.7985 78.4692 25.9523 78.9748 26.26 79.2825C26.5677 79.5682 27.0403 79.7111 27.6777 79.7111Z" fill="#A7AAFF"/>
<path d="M47.2155 85.4475C44.9516 85.4475 43.2703 84.8651 42.1713 83.7002C41.0724 82.5133 40.5229 80.8759 40.5229 78.7879V67.5458C40.5229 65.282 41.1053 63.5566 42.2702 62.3698C43.4351 61.1609 45.0945 60.5565 47.2484 60.5565H52.5893C54.6773 60.5565 56.2707 61.1609 57.3697 62.3698C58.4686 63.5566 59.0181 65.282 59.0181 67.5458V78.7879C59.0181 80.8539 58.4576 82.4804 57.3367 83.6672C56.2378 84.8541 54.6443 85.4475 52.5563 85.4475H47.2155ZM48.7979 79.7111H50.776C51.3694 79.7111 51.82 79.5682 52.1277 79.2825C52.4574 78.9748 52.6222 78.4802 52.6222 77.7989V68.2051C52.6222 67.4359 52.4684 66.9304 52.1607 66.6886C51.853 66.4249 51.4793 66.293 51.0398 66.293H48.5672C47.4682 66.293 46.9187 66.9304 46.9187 68.2051V77.7659C46.9187 78.4692 47.0726 78.9748 47.3803 79.2825C47.688 79.5682 48.1605 79.7111 48.7979 79.7111Z" fill="#A7AAFF"/>
<path d="M68.5006 85.4475C67.6654 85.4475 66.8412 85.3816 66.0279 85.2497C65.2147 85.0959 64.4784 84.8211 63.8191 84.4255C63.1817 84.0299 62.6652 83.4694 62.2696 82.7441C61.8959 81.9968 61.7091 81.0188 61.7091 79.81V76.5461C61.7091 76.0186 61.786 75.4911 61.9399 74.9636C62.0937 74.4361 62.3465 73.9636 62.6982 73.546C63.0498 73.1284 63.5333 72.8537 64.1488 72.7218C63.4894 72.3701 63.0168 71.9745 62.7311 71.5349C62.4674 71.0954 62.3135 70.6118 62.2696 70.0843C62.2256 69.5568 62.2036 69.0074 62.2036 68.4359V65.6666C62.2036 64.4138 62.4784 63.4138 63.0278 62.6665C63.5993 61.9192 64.3356 61.3807 65.2367 61.051C66.1598 60.7214 67.1379 60.5565 68.1709 60.5565H72.8524C73.9073 60.5565 74.8854 60.7214 75.7865 61.051C76.6877 61.3807 77.413 61.9192 77.9624 62.6665C78.5339 63.4138 78.8196 64.4138 78.8196 65.6666V68.4359C78.8196 68.6557 78.7976 68.9634 78.7537 69.359C78.7097 69.7546 78.6218 70.1722 78.4899 70.6118C78.358 71.0294 78.1602 71.3921 77.8965 71.6998C77.6328 72.0075 77.2811 72.1943 76.8415 72.2602C77.6108 72.4361 78.1602 72.7987 78.4899 73.3482C78.8416 73.8757 79.0614 74.4361 79.1493 75.0296C79.2592 75.623 79.3141 76.1285 79.3141 76.5461V79.81C79.3141 81.4144 79.0174 82.6232 78.424 83.4365C77.8306 84.2277 77.0503 84.7662 76.0832 85.0519C75.1162 85.3156 74.0722 85.4475 72.9513 85.4475H68.5006ZM69.6544 70.0184H71.3688C71.9402 70.0184 72.2809 69.8865 72.3908 69.6228C72.5227 69.3371 72.5886 68.8865 72.5886 68.2711V67.2491C72.5886 66.6117 72.4567 66.238 72.193 66.1281C71.9512 66.0183 71.6765 65.9633 71.3688 65.9633H69.6544C69.2588 65.9633 68.9511 66.0292 68.7313 66.1611C68.5335 66.271 68.4346 66.6337 68.4346 67.2491V68.2711C68.4346 69.0623 68.5225 69.5568 68.6984 69.7546C68.8962 69.9305 69.2149 70.0184 69.6544 70.0184ZM69.6544 80.0407H71.3688C72.0941 80.0407 72.5337 79.9089 72.6875 79.6451C72.8414 79.3594 72.9183 78.9857 72.9183 78.5242V76.9747C72.9183 76.5351 72.7864 76.1725 72.5227 75.8867C72.2809 75.579 71.9183 75.4252 71.4347 75.4252H69.6544C69.127 75.4252 68.7313 75.579 68.4676 75.8867C68.2258 76.1725 68.1049 76.5351 68.1049 76.9747V78.5242C68.1049 79.0956 68.2148 79.4913 68.4346 79.7111C68.6764 79.9308 69.083 80.0407 69.6544 80.0407Z" fill="#A7AAFF"/>
</svg>
