<svg width="186" height="161" viewBox="0 0 186 161" fill="none" xmlns="http://www.w3.org/2000/svg">
<path fill-rule="evenodd" clip-rule="evenodd" d="M155.538 38.6108C158.634 38.6108 161.317 41.3044 161.317 44.4123V56.4296H62.2489V44.4123C62.2489 41.3044 64.932 38.6108 68.0279 38.6108H155.538ZM72.7749 46.8986C72.7749 48.349 74.0133 49.5922 75.458 49.5922C77.1092 49.5922 78.1411 48.349 78.1411 46.8986C78.1411 45.4483 76.9028 44.2051 75.458 44.2051C74.0133 44.2051 72.7749 45.4483 72.7749 46.8986ZM80.6178 46.8986C80.6178 48.349 82.0626 49.5922 83.5073 49.5922C84.9521 49.5922 86.1904 48.349 86.1904 46.8986C86.1904 45.4483 85.1585 44.2051 83.5073 44.2051C81.8562 44.2051 80.6178 45.4483 80.6178 46.8986ZM88.6672 46.8986C88.6672 48.349 89.6991 49.5922 91.3503 49.5922C92.795 49.5922 94.0334 48.349 94.0334 46.8986C94.0334 45.4483 92.795 44.2051 91.3503 44.2051C89.9055 44.2051 88.6672 45.4483 88.6672 46.8986ZM149.966 48.349C150.791 48.349 151.617 47.7274 151.617 46.6914C151.617 45.8627 150.998 45.0339 149.966 45.0339H107.655C106.83 45.0339 106.004 45.8627 106.004 46.6914C106.004 47.5202 106.83 48.349 107.655 48.349H149.966ZM155.537 118.588H68.0263C64.9304 118.588 62.2473 116.102 62.2473 112.787V60.5735H161.316V112.787C161.316 115.894 158.633 118.588 155.537 118.588ZM156.156 70.726C156.156 67.8253 153.886 65.5462 150.996 65.5462C148.107 65.5462 145.836 68.0325 145.836 70.726C145.836 73.6267 148.313 75.9059 150.996 75.9059C153.886 75.9059 156.156 73.6267 156.156 70.726ZM145.63 78.3922C144.392 77.5634 143.36 76.5275 142.74 75.2843L132.627 84.1937C133.659 85.2296 134.485 86.4728 135.104 87.716L145.63 78.3922ZM131.595 91.4455C131.595 88.5448 129.119 86.2656 126.435 86.2656C123.752 86.2656 121.276 88.5448 121.276 91.4455C121.276 94.3462 123.546 96.6254 126.435 96.6254C129.325 96.6254 131.595 94.3462 131.595 91.4455ZM119.418 85.4368L109.924 78.185C109.511 79.6354 108.892 80.8786 108.066 82.1217L117.561 89.3735C117.767 87.9232 118.386 86.4728 119.418 85.4368ZM106.003 76.1131C106.003 73.2124 103.732 70.9332 100.843 70.9332C97.9532 70.9332 95.6829 73.2124 95.6829 76.1131C95.6829 79.0138 97.9532 81.2929 100.843 81.2929C103.732 81.2929 106.003 79.0138 106.003 76.1131ZM93.4126 81.5001C92.587 80.4642 91.9679 79.0138 91.7615 77.5634L78.1395 87.5088C79.1715 88.3376 79.9971 89.5807 80.4099 91.0311L93.4126 81.5001ZM76.6948 93.5174C76.282 90.8239 74.0117 88.9592 71.535 88.9592C68.8519 88.9592 66.3752 91.2383 66.3752 94.139C66.3752 97.0397 68.6455 99.3189 71.535 99.3189C74.4245 99.3189 77.1076 96.8325 76.6948 93.5174Z" fill="#53808A"/>
<path fill-rule="evenodd" clip-rule="evenodd" d="M126.939 105.936C126.939 108.818 126.661 109.221 124.194 110.471C121.731 111.719 121.259 116.248 120.953 118.688C120.644 121.127 120.061 125.7 118.457 130.873C116.858 136.045 112.293 142.491 98.5032 142.491C84.7148 142.491 79.1136 137.253 76.3055 133.707C73.5001 130.162 69.594 117.509 68.5748 114.438C67.5569 111.366 63.8343 111.603 63.8343 111.603V111.553C63.8343 111.553 60.1158 111.316 59.0952 114.392C58.0759 117.468 54.1699 130.142 51.3631 133.693C48.5563 137.245 42.9538 142.491 29.1627 142.491C15.3715 142.491 10.8076 136.035 9.20765 130.855C7.60772 125.673 7.02016 121.092 6.71259 118.648C6.40501 116.204 5.93331 111.668 3.46996 110.417C1.00524 109.167 0.725254 108.763 0.725254 105.875C0.725254 102.988 0.366648 101.384 3.71823 100.766C7.07119 100.15 22.9574 97.121 36.1458 98.4961C49.3342 99.8726 51.5562 103.322 63.8329 103.322V103.384C76.1096 103.384 78.333 99.9402 91.5186 98.5665C104.704 97.1927 120.589 100.217 123.942 100.834C127.296 101.45 126.939 103.053 126.939 105.936ZM47.4791 109.111C42.8352 105.748 38.2037 105.089 31.1529 105.248C18.0569 105.543 15.0253 108.534 15.035 113.941C15.0419 117.913 14.0309 125.267 17.5466 131.328C21.0637 137.391 30.4385 138.556 38.2685 135.675C46.0971 132.793 47.6764 124.025 48.7342 119.978C49.7921 115.933 50.4211 111.242 47.4791 109.111ZM112.631 113.946C112.64 108.541 109.609 105.548 96.5157 105.254C89.4663 105.096 84.8348 105.757 80.1908 109.118C77.2489 111.247 77.8778 115.938 78.9357 119.983C79.995 124.027 81.5715 132.798 89.3987 135.678C97.2287 138.561 106.604 137.392 110.118 131.332C113.635 125.272 112.624 117.919 112.631 113.946Z" fill="#1F3239"/>
<rect x="62.2473" y="60.5565" width="11.7078" height="20.2431" fill="#3A5760"/>
<path d="M0.714111 85.2497V80.1726L8.32977 72.3921C9.03309 71.6888 9.58256 71.0404 9.97818 70.447C10.3958 69.8316 10.6046 69.2162 10.6046 68.6008C10.6046 67.282 9.78037 66.6227 8.13196 66.6227H1.10973V61.5456C2.18669 61.3038 3.38454 61.084 4.70327 60.8862C6.04397 60.6664 7.59348 60.5565 9.35178 60.5565C11.2859 60.5565 12.8025 60.8203 13.9014 61.3478C15.0223 61.8752 15.8136 62.6555 16.2751 63.6885C16.7586 64.7215 17.0004 65.9853 17.0004 67.4798C17.0004 69.0843 16.6817 70.4799 16.0443 71.6668C15.4069 72.8537 14.5168 74.0295 13.3739 75.1944L9.15397 79.5132H17.6598V85.2497H0.714111Z" fill="#30C6AB"/>
<path d="M26.5952 85.4475C24.3314 85.4475 22.65 84.8651 21.5511 83.7002C20.4521 82.5133 19.9026 80.8759 19.9026 78.7879V67.5458C19.9026 65.282 20.4851 63.5566 21.65 62.3698C22.8148 61.1609 24.4742 60.5565 26.6282 60.5565H31.969C34.057 60.5565 35.6505 61.1609 36.7494 62.3698C37.8483 63.5566 38.3978 65.282 38.3978 67.5458V78.7879C38.3978 80.8539 37.8374 82.4804 36.7164 83.6672C35.6175 84.8541 34.024 85.4475 31.936 85.4475H26.5952ZM28.1777 79.7111H30.1558C30.7492 79.7111 31.1998 79.5682 31.5075 79.2825C31.8371 78.9748 32.002 78.4802 32.002 77.7989V68.2051C32.002 67.4359 31.8481 66.9304 31.5404 66.6886C31.2327 66.4249 30.8591 66.293 30.4195 66.293H27.9469C26.8479 66.293 26.2985 66.9304 26.2985 68.2051V77.7659C26.2985 78.4692 26.4523 78.9748 26.76 79.2825C27.0677 79.5682 27.5403 79.7111 28.1777 79.7111Z" fill="#30C6AB"/>
<path d="M47.7155 85.4475C45.4516 85.4475 43.7703 84.8651 42.6713 83.7002C41.5724 82.5133 41.0229 80.8759 41.0229 78.7879V67.5458C41.0229 65.282 41.6053 63.5566 42.7702 62.3698C43.9351 61.1609 45.5945 60.5565 47.7484 60.5565H53.0893C55.1773 60.5565 56.7707 61.1609 57.8697 62.3698C58.9686 63.5566 59.5181 65.282 59.5181 67.5458V78.7879C59.5181 80.8539 58.9576 82.4804 57.8367 83.6672C56.7378 84.8541 55.1443 85.4475 53.0563 85.4475H47.7155ZM49.2979 79.7111H51.276C51.8694 79.7111 52.32 79.5682 52.6277 79.2825C52.9574 78.9748 53.1222 78.4802 53.1222 77.7989V68.2051C53.1222 67.4359 52.9684 66.9304 52.6607 66.6886C52.353 66.4249 51.9793 66.293 51.5398 66.293H49.0672C47.9682 66.293 47.4187 66.9304 47.4187 68.2051V77.7659C47.4187 78.4692 47.5726 78.9748 47.8803 79.2825C48.188 79.5682 48.6605 79.7111 49.2979 79.7111Z" fill="#30C6AB"/>
<path d="M69.0006 85.4475C68.1654 85.4475 67.3412 85.3816 66.5279 85.2497C65.7147 85.0959 64.9784 84.8211 64.3191 84.4255C63.6817 84.0299 63.1652 83.4694 62.7696 82.7441C62.3959 81.9968 62.2091 81.0188 62.2091 79.81V76.5461C62.2091 76.0186 62.286 75.4911 62.4399 74.9636C62.5937 74.4361 62.8465 73.9636 63.1982 73.546C63.5498 73.1284 64.0333 72.8537 64.6488 72.7218C63.9894 72.3701 63.5168 71.9745 63.2311 71.5349C62.9674 71.0954 62.8135 70.6118 62.7696 70.0843C62.7256 69.5568 62.7036 69.0074 62.7036 68.4359V65.6666C62.7036 64.4138 62.9784 63.4138 63.5278 62.6665C64.0993 61.9192 64.8356 61.3807 65.7367 61.051C66.6598 60.7214 67.6379 60.5565 68.6709 60.5565H73.3524C74.4073 60.5565 75.3854 60.7214 76.2865 61.051C77.1877 61.3807 77.913 61.9192 78.4624 62.6665C79.0339 63.4138 79.3196 64.4138 79.3196 65.6666V68.4359C79.3196 68.6557 79.2976 68.9634 79.2537 69.359C79.2097 69.7546 79.1218 70.1722 78.9899 70.6118C78.858 71.0294 78.6602 71.3921 78.3965 71.6998C78.1328 72.0075 77.7811 72.1943 77.3415 72.2602C78.1108 72.4361 78.6602 72.7987 78.9899 73.3482C79.3416 73.8757 79.5614 74.4361 79.6493 75.0296C79.7592 75.623 79.8141 76.1285 79.8141 76.5461V79.81C79.8141 81.4144 79.5174 82.6232 78.924 83.4365C78.3306 84.2277 77.5503 84.7662 76.5832 85.0519C75.6162 85.3156 74.5722 85.4475 73.4513 85.4475H69.0006ZM70.1544 70.0184H71.8688C72.4402 70.0184 72.7809 69.8865 72.8908 69.6228C73.0227 69.3371 73.0886 68.8865 73.0886 68.2711V67.2491C73.0886 66.6117 72.9567 66.238 72.693 66.1281C72.4512 66.0183 72.1765 65.9633 71.8688 65.9633H70.1544C69.7588 65.9633 69.4511 66.0292 69.2313 66.1611C69.0335 66.271 68.9346 66.6337 68.9346 67.2491V68.2711C68.9346 69.0623 69.0225 69.5568 69.1984 69.7546C69.3962 69.9305 69.7149 70.0184 70.1544 70.0184ZM70.1544 80.0407H71.8688C72.5941 80.0407 73.0337 79.9089 73.1875 79.6451C73.3414 79.3594 73.4183 78.9857 73.4183 78.5242V76.9747C73.4183 76.5351 73.2864 76.1725 73.0227 75.8867C72.7809 75.579 72.4183 75.4252 71.9347 75.4252H70.1544C69.627 75.4252 69.2313 75.579 68.9676 75.8867C68.7258 76.1725 68.6049 76.5351 68.6049 76.9747V78.5242C68.6049 79.0956 68.7148 79.4913 68.9346 79.7111C69.1764 79.9308 69.583 80.0407 70.1544 80.0407Z" fill="#30C6AB"/>
</svg>
