<svg width="161" height="161" viewBox="0 0 161 161" fill="none" xmlns="http://www.w3.org/2000/svg">
<path fill-rule="evenodd" clip-rule="evenodd" d="M30.4404 30.6108V130.611H130.44V30.6108H30.4404ZM8.44043 0.61084C4.02215 0.61084 0.44043 4.19256 0.44043 8.61084V152.611C0.44043 157.029 4.02215 160.611 8.44043 160.611H152.44C156.859 160.611 160.44 157.029 160.44 152.611V8.61084C160.44 4.19256 156.859 0.61084 152.44 0.61084H8.44043Z" fill="#477079" fill-opacity="0.7"/>
<path fill-rule="evenodd" clip-rule="evenodd" d="M30.4404 30.6108V130.611H130.44V30.6108H30.4404ZM8.44043 0.61084C4.02215 0.61084 0.44043 4.19256 0.44043 8.61084V152.611C0.44043 157.029 4.02215 160.611 8.44043 160.611H152.44C156.859 160.611 160.44 157.029 160.44 152.611V8.61084C160.44 4.19256 156.859 0.61084 152.44 0.61084H8.44043Z" fill="url(#paint0_linear)"/>
<path d="M129.04 90.3953C128.758 90.1858 128.541 89.9004 128.414 89.5723C128.288 89.2441 128.258 88.8869 128.327 88.5422C129.039 83.1368 128.895 77.6528 127.9 72.2923C127.842 71.9603 127.863 71.6194 127.963 71.2974C128.062 70.9754 128.235 70.6813 128.47 70.4392L134.599 64.5949L128.612 51.0533L120.202 51.6235C119.845 51.6609 119.484 51.6012 119.158 51.4507C118.832 51.3001 118.553 51.0644 118.349 50.7682C115.145 46.3971 111.186 42.6321 106.661 39.6498C106.366 39.4359 106.123 39.1581 105.95 38.8373C105.777 38.5165 105.679 38.1608 105.663 37.7968L105.948 29.3867L92.1212 24.1126L86.7046 30.3845C86.4951 30.6669 86.2096 30.8838 85.8815 31.01C85.5534 31.1362 85.1962 31.1664 84.8515 31.0972C79.446 30.3851 73.9621 30.5294 68.6015 31.5249C68.2696 31.5826 67.9287 31.561 67.6067 31.4619C67.2846 31.3628 66.9906 31.189 66.7485 30.9547L60.9042 24.8253L47.3626 30.8121L47.9328 39.2222C47.9702 39.5795 47.9105 39.9402 47.7599 40.2663C47.6094 40.5925 47.3736 40.872 47.0775 41.0753C42.7064 44.28 38.9414 48.238 35.9591 52.7638C35.7451 53.0588 35.4674 53.3017 35.1466 53.4744C34.8257 53.6472 34.4701 53.7453 34.106 53.7616L25.696 53.4765L20.4219 67.3033L26.6938 72.7199C26.9761 72.9294 27.1931 73.2148 27.3193 73.5429C27.4455 73.8711 27.4757 74.2283 27.4065 74.573C26.6944 79.9784 26.8387 85.4624 27.8341 90.8229C27.8918 91.1549 27.8702 91.4958 27.7712 91.8178C27.6721 92.1398 27.4983 92.4339 27.264 92.676L21.1346 98.5203L27.1214 112.062L35.5315 111.492C35.8887 111.454 36.2495 111.514 36.5756 111.665C36.9018 111.815 37.1812 112.051 37.3845 112.347C40.5892 116.718 44.5473 120.483 49.0731 123.465C49.368 123.679 49.6109 123.957 49.7837 124.278C49.9564 124.599 50.0546 124.954 50.0709 125.318L49.7858 133.728L63.6125 139.003L69.0292 132.731C69.2386 132.448 69.5241 132.231 69.8522 132.105C70.1803 131.979 70.5376 131.949 70.8822 132.018C76.2877 132.73 81.7716 132.586 87.1322 131.59C87.4641 131.533 87.805 131.554 88.1271 131.653C88.4491 131.752 88.7431 131.926 88.9852 132.161L94.8295 138.29L108.371 132.303L107.801 123.893C107.764 123.536 107.823 123.175 107.974 122.849C108.124 122.523 108.36 122.243 108.656 122.04C113.027 118.835 116.792 114.877 119.775 110.351C119.989 110.056 120.266 109.814 120.587 109.641C120.908 109.468 121.264 109.37 121.628 109.354L130.038 109.639L135.312 95.8119L129.04 90.3953ZM77.8669 122.895C69.6911 122.895 61.6989 120.471 54.9009 115.929C48.103 111.386 42.8047 104.93 39.6759 97.3768C36.5472 89.8234 35.7285 81.5117 37.3236 73.493C38.9186 65.4743 42.8556 58.1087 48.6368 52.3275C54.4179 46.5463 61.7836 42.6093 69.8023 41.0143C77.821 39.4193 86.1326 40.2379 93.6861 43.3666C101.24 46.4954 107.696 51.7937 112.238 58.5917C116.78 65.3896 119.204 73.3818 119.204 81.5576C119.204 92.521 114.849 103.035 107.097 110.788C99.3447 118.54 88.8303 122.895 77.8669 122.895Z" fill="#1F3239"/>
<circle cx="77.9264" cy="81.6194" r="41.3018" fill="#1F3239" fill-opacity="0.5"/>
<rect x="53.2815" y="50.0269" width="12.7155" height="33.9859" fill="#A7AAFF"/>
<path d="M41.0249 50.027H53.2816V84.0129H41.0249V50.027Z" fill="#6164A9"/>
<path d="M53.4367 22.0995C34.391 22.0995 18.9417 37.735 18.9417 56.9695C18.9587 69.3126 25.5869 80.4069 35.782 86.6012H71.0767C81.2814 80.411 87.9252 69.3178 87.9405 56.9695C87.9405 37.735 72.4824 22.0995 53.4367 22.0995ZM53.4367 50.6003C60.0499 50.6003 65.4399 55.9179 65.4399 62.4834V83.6011H41.4422V62.4834C41.4422 55.9179 46.8236 50.6032 53.4367 50.6032V50.6003ZM41.4422 89.6013V94.0984C41.4392 94.928 42.1098 95.6026 42.9393 95.6043H63.9428C64.7723 95.6027 65.4431 94.928 65.4399 94.0984V89.6012C57.4618 89.6125 49.4446 89.6013 41.4422 89.6013ZM43.1151 98.6044C42.1685 98.7025 41.5514 99.6461 41.8407 100.553C43.4031 105.516 48.0019 109.102 53.4367 109.102C58.8715 109.102 63.479 105.516 65.0414 100.553C65.3436 99.5874 64.623 98.6058 63.6117 98.6044H43.1151Z" fill="#53808A"/>
<path fill-rule="evenodd" clip-rule="evenodd" d="M87.7603 108.364C91.2042 108.364 93.996 105.572 93.996 102.129C93.996 98.6847 91.2042 95.8928 87.7603 95.8928C84.3164 95.8928 81.5245 98.6847 81.5245 102.129C81.5245 105.572 84.3164 108.364 87.7603 108.364ZM87.7603 114.364C94.5179 114.364 99.996 108.886 99.996 102.129C99.996 95.3709 94.5179 89.8928 87.7603 89.8928C81.0027 89.8928 75.5245 95.3709 75.5245 102.129C75.5245 108.886 81.0027 114.364 87.7603 114.364Z" fill="#6164A9"/>
<path fill-rule="evenodd" clip-rule="evenodd" d="M103.14 85.9471C104.79 85.9471 106.127 84.6098 106.127 82.9602C106.127 81.3106 104.79 79.9733 103.14 79.9733C101.491 79.9733 100.153 81.3106 100.153 82.9602C100.153 84.6098 101.491 85.9471 103.14 85.9471ZM103.14 90.9471C107.551 90.9471 111.127 87.3712 111.127 82.9602C111.127 78.5491 107.551 74.9733 103.14 74.9733C98.7292 74.9733 95.1533 78.5491 95.1533 82.9602C95.1533 87.3712 98.7292 90.9471 103.14 90.9471Z" fill="#A7AAFF"/>
<circle cx="102.145" cy="65.3816" r="4.68582" fill="#53808A"/>
<defs>
<linearGradient id="paint0_linear" x1="80.4404" y1="0.61084" x2="80.4404" y2="160.611" gradientUnits="userSpaceOnUse">
<stop stop-color="#3C5A63" stop-opacity="0"/>
<stop offset="0.760417" stop-color="#37535B"/>
</linearGradient>
</defs>
</svg>
