<svg width="161" height="161" viewBox="0 0 161 161" fill="none" xmlns="http://www.w3.org/2000/svg">
<path fill-rule="evenodd" clip-rule="evenodd" d="M30.9511 30.6108V130.611H130.951V30.6108H30.9511ZM8.95111 0.61084C4.53283 0.61084 0.951111 4.19256 0.951111 8.61084V152.611C0.951111 157.029 4.53284 160.611 8.95111 160.611H152.951C157.369 160.611 160.951 157.029 160.951 152.611V8.61084C160.951 4.19256 157.369 0.61084 152.951 0.61084H8.95111Z" fill="#BAD0DB"/>
<path fill-rule="evenodd" clip-rule="evenodd" d="M30.9511 30.6108V130.611H130.951V30.6108H30.9511ZM8.95111 0.61084C4.53283 0.61084 0.951111 4.19256 0.951111 8.61084V152.611C0.951111 157.029 4.53284 160.611 8.95111 160.611H152.951C157.369 160.611 160.951 157.029 160.951 152.611V8.61084C160.951 4.19256 157.369 0.61084 152.951 0.61084H8.95111Z" fill="url(#paint0_linear)"/>
<path d="M121.783 37.7534H76.2552V103.522H121.744C121.757 103.522 121.77 103.522 121.783 103.522C139.939 103.522 154.658 88.8036 154.658 70.6476C154.658 52.4916 139.939 37.7732 121.783 37.7732V37.7534Z" fill="#D2B552"/>
<path d="M141.753 109.974C141.753 113.538 144.642 116.426 148.206 116.426C151.769 116.426 154.658 113.538 154.658 109.974C154.658 106.411 151.769 103.522 148.206 103.522C144.642 103.522 141.753 106.411 141.753 109.974Z" fill="#CFB764"/>
<path d="M141.754 123.575C141.754 125.476 143.294 127.017 145.195 127.017C147.095 127.017 148.636 125.476 148.636 123.575C148.636 121.675 147.095 120.134 145.195 120.134C143.294 120.134 141.754 121.675 141.754 123.575Z" fill="#CFB764"/>
<path d="M77.4293 69.7888H77.5041L77.5785 69.7814C78.7401 69.6652 79.9002 70.0152 80.8037 70.7544C81.7071 71.4936 82.28 72.5615 82.3961 73.723C82.5123 74.8846 82.1622 76.0447 81.423 76.9482C80.6838 77.8516 79.616 78.4245 78.4544 78.5406L77.1037 78.6757V80.0332V82.3821C77.1037 82.6072 77.0143 82.8231 76.8551 82.9823C76.6959 83.1415 76.48 83.2309 76.2548 83.2309C76.0297 83.2309 75.8138 83.1415 75.6546 82.9823C75.4954 82.8231 75.4059 82.6072 75.4059 82.3821V80.0332V78.5332H73.9059H71.5571C71.3319 78.5332 71.116 78.4437 70.9568 78.2846C70.7976 78.1254 70.7082 77.9094 70.7082 77.6843C70.7082 77.4592 70.7976 77.2433 70.9568 77.0841C71.116 76.9249 71.3319 76.8354 71.5571 76.8354H77.4293C78.1386 76.8354 78.8188 76.5537 79.3204 76.0521C79.8219 75.5505 80.1037 74.8703 80.1037 74.161C80.1037 73.4517 79.8219 72.7714 79.3204 72.2699C78.8188 71.7683 78.1386 71.4866 77.4293 71.4866H75.0804H75.0789C73.9946 71.4876 72.9486 71.0858 72.144 70.3591C71.3393 69.6323 70.8334 68.6325 70.7244 67.5538C70.6155 66.475 70.9112 65.3942 71.5543 64.5212C72.1974 63.6483 73.1419 63.0454 74.2044 62.8296L75.4059 62.5856V61.3596V58.8933C75.4059 58.6682 75.4954 58.4523 75.6546 58.2931C75.8138 58.1339 76.0297 58.0444 76.2548 58.0444C76.48 58.0444 76.6959 58.1339 76.8551 58.2931C77.0143 58.4522 77.1037 58.6682 77.1037 58.8933V61.2422V62.7422H78.6037H80.9526C81.1777 62.7422 81.3936 62.8316 81.5528 62.9908C81.712 63.15 81.8014 63.3659 81.8014 63.5911C81.8014 63.8162 81.712 64.0321 81.5528 64.1913C81.3936 64.3505 81.1777 64.4399 80.9526 64.4399H75.0804C74.3711 64.4399 73.6908 64.7217 73.1893 65.2233C72.6877 65.7248 72.4059 66.4051 72.4059 67.1144C72.4059 67.8237 72.6877 68.5039 73.1893 69.0055C73.6908 69.507 74.3711 69.7888 75.0804 69.7888H77.4293ZM76.2548 36.2534C69.4543 36.2534 62.8064 38.27 57.1519 42.0482C51.4975 45.8264 47.0904 51.1965 44.4879 57.4794C41.8854 63.7623 41.2045 70.6758 42.5312 77.3457C43.858 84.0156 47.1328 90.1423 51.9415 94.951C56.7502 99.7597 62.8769 103.035 69.5468 104.361C76.2167 105.688 83.1302 105.007 89.4131 102.405C95.696 99.8021 101.066 95.395 104.844 89.7405C108.622 84.0861 110.639 77.4382 110.639 70.6377C110.639 61.5184 107.016 52.7726 100.568 46.3243C94.1199 39.876 85.3741 36.2534 76.2548 36.2534ZM76.2548 92.6264C71.9059 92.6264 67.6546 91.3368 64.0385 88.9207C60.4225 86.5045 57.6041 83.0703 55.9399 79.0524C54.2756 75.0345 53.8401 70.6133 54.6886 66.3479C55.537 62.0825 57.6312 58.1645 60.7064 55.0893C63.7816 52.0141 67.6996 49.9199 71.965 49.0714C76.2304 48.223 80.6516 48.6584 84.6696 50.3227C88.6875 51.987 92.1216 54.8053 94.5378 58.4214C96.954 62.0374 98.2436 66.2887 98.2436 70.6377C98.2436 76.4695 95.9269 82.0624 91.8032 86.1861C87.6795 90.3098 82.0866 92.6264 76.2548 92.6264ZM76.2548 50.3467C72.2416 50.3467 68.3186 51.5367 64.9817 53.7663C61.6449 55.9959 59.0442 59.165 57.5084 62.8726C55.9726 66.5803 55.5708 70.6602 56.3537 74.5963C57.1366 78.5323 59.0692 82.1478 61.9069 84.9856C64.7447 87.8233 68.3602 89.7559 72.2962 90.5388C76.2323 91.3217 80.3122 90.9199 84.0199 89.3841C87.7276 87.8483 90.8966 85.2476 93.1262 81.9108C95.3558 78.5739 96.5458 74.6509 96.5458 70.6377C96.5458 65.2562 94.408 60.0951 90.6027 56.2898C86.7974 52.4845 81.6363 50.3467 76.2548 50.3467Z" fill="#9F9F9F"/>
<path d="M77.4293 69.7888H77.5041L77.5785 69.7814C78.7401 69.6652 79.9002 70.0152 80.8037 70.7544C81.7071 71.4936 82.28 72.5615 82.3961 73.723C82.5123 74.8846 82.1622 76.0447 81.423 76.9482C80.6838 77.8516 79.616 78.4245 78.4544 78.5406L77.1037 78.6757V80.0332V82.3821C77.1037 82.6072 77.0143 82.8231 76.8551 82.9823C76.6959 83.1415 76.48 83.2309 76.2548 83.2309C76.0297 83.2309 75.8138 83.1415 75.6546 82.9823C75.4954 82.8231 75.4059 82.6072 75.4059 82.3821V80.0332V78.5332H73.9059H71.5571C71.3319 78.5332 71.116 78.4437 70.9568 78.2846C70.7976 78.1254 70.7082 77.9094 70.7082 77.6843C70.7082 77.4592 70.7976 77.2433 70.9568 77.0841C71.116 76.9249 71.3319 76.8354 71.5571 76.8354H77.4293C78.1386 76.8354 78.8188 76.5537 79.3204 76.0521C79.8219 75.5505 80.1037 74.8703 80.1037 74.161C80.1037 73.4517 79.8219 72.7714 79.3204 72.2699C78.8188 71.7683 78.1386 71.4866 77.4293 71.4866H75.0804H75.0789C73.9946 71.4876 72.9486 71.0858 72.144 70.3591C71.3393 69.6323 70.8334 68.6325 70.7244 67.5538C70.6155 66.475 70.9112 65.3942 71.5543 64.5212C72.1974 63.6483 73.1419 63.0454 74.2044 62.8296L75.4059 62.5856V61.3596V58.8933C75.4059 58.6682 75.4954 58.4523 75.6546 58.2931C75.8138 58.1339 76.0297 58.0444 76.2548 58.0444C76.48 58.0444 76.6959 58.1339 76.8551 58.2931C77.0143 58.4522 77.1037 58.6682 77.1037 58.8933V61.2422V62.7422H78.6037H80.9526C81.1777 62.7422 81.3936 62.8316 81.5528 62.9908C81.712 63.15 81.8014 63.3659 81.8014 63.5911C81.8014 63.8162 81.712 64.0321 81.5528 64.1913C81.3936 64.3505 81.1777 64.4399 80.9526 64.4399H75.0804C74.3711 64.4399 73.6908 64.7217 73.1893 65.2233C72.6877 65.7248 72.4059 66.4051 72.4059 67.1144C72.4059 67.8237 72.6877 68.5039 73.1893 69.0055C73.6908 69.507 74.3711 69.7888 75.0804 69.7888H77.4293ZM76.2548 36.2534C69.4543 36.2534 62.8064 38.27 57.1519 42.0482C51.4975 45.8264 47.0904 51.1965 44.4879 57.4794C41.8854 63.7623 41.2045 70.6758 42.5312 77.3457C43.858 84.0156 47.1328 90.1423 51.9415 94.951C56.7502 99.7597 62.8769 103.035 69.5468 104.361C76.2167 105.688 83.1302 105.007 89.4131 102.405C95.696 99.8021 101.066 95.395 104.844 89.7405C108.622 84.0861 110.639 77.4382 110.639 70.6377C110.639 61.5184 107.016 52.7726 100.568 46.3243C94.1199 39.876 85.3741 36.2534 76.2548 36.2534ZM76.2548 92.6264C71.9059 92.6264 67.6546 91.3368 64.0385 88.9207C60.4225 86.5045 57.6041 83.0703 55.9399 79.0524C54.2756 75.0345 53.8401 70.6133 54.6886 66.3479C55.537 62.0825 57.6312 58.1645 60.7064 55.0893C63.7816 52.0141 67.6996 49.9199 71.965 49.0714C76.2304 48.223 80.6516 48.6584 84.6696 50.3227C88.6875 51.987 92.1216 54.8053 94.5378 58.4214C96.954 62.0374 98.2436 66.2887 98.2436 70.6377C98.2436 76.4695 95.9269 82.0624 91.8032 86.1861C87.6795 90.3098 82.0866 92.6264 76.2548 92.6264ZM76.2548 50.3467C72.2416 50.3467 68.3186 51.5367 64.9817 53.7663C61.6449 55.9959 59.0442 59.165 57.5084 62.8726C55.9726 66.5803 55.5708 70.6602 56.3537 74.5963C57.1366 78.5323 59.0692 82.1478 61.9069 84.9856C64.7447 87.8233 68.3602 89.7559 72.2962 90.5388C76.2323 91.3217 80.3122 90.9199 84.0199 89.3841C87.7276 87.8483 90.8966 85.2476 93.1262 81.9108C95.3558 78.5739 96.5458 74.6509 96.5458 70.6377C96.5458 65.2562 94.408 60.0951 90.6027 56.2898C86.7974 52.4845 81.6363 50.3467 76.2548 50.3467Z" fill="url(#paint1_linear)"/>
<path d="M77.4293 69.7888H77.5041L77.5785 69.7814C78.7401 69.6652 79.9002 70.0152 80.8037 70.7544C81.7071 71.4936 82.28 72.5615 82.3961 73.723C82.5123 74.8846 82.1622 76.0447 81.423 76.9482C80.6838 77.8516 79.616 78.4245 78.4544 78.5406L77.1037 78.6757V80.0332V82.3821C77.1037 82.6072 77.0143 82.8231 76.8551 82.9823C76.6959 83.1415 76.48 83.2309 76.2548 83.2309C76.0297 83.2309 75.8138 83.1415 75.6546 82.9823C75.4954 82.8231 75.4059 82.6072 75.4059 82.3821V80.0332V78.5332H73.9059H71.5571C71.3319 78.5332 71.116 78.4437 70.9568 78.2846C70.7976 78.1254 70.7082 77.9094 70.7082 77.6843C70.7082 77.4592 70.7976 77.2433 70.9568 77.0841C71.116 76.9249 71.3319 76.8354 71.5571 76.8354H77.4293C78.1386 76.8354 78.8188 76.5537 79.3204 76.0521C79.8219 75.5505 80.1037 74.8703 80.1037 74.161C80.1037 73.4517 79.8219 72.7714 79.3204 72.2699C78.8188 71.7683 78.1386 71.4866 77.4293 71.4866H75.0804H75.0789C73.9946 71.4876 72.9486 71.0858 72.144 70.3591C71.3393 69.6323 70.8334 68.6325 70.7244 67.5538C70.6155 66.475 70.9112 65.3942 71.5543 64.5212C72.1974 63.6483 73.1419 63.0454 74.2044 62.8296L75.4059 62.5856V61.3596V58.8933C75.4059 58.6682 75.4954 58.4523 75.6546 58.2931C75.8138 58.1339 76.0297 58.0444 76.2548 58.0444C76.48 58.0444 76.6959 58.1339 76.8551 58.2931C77.0143 58.4522 77.1037 58.6682 77.1037 58.8933V61.2422V62.7422H78.6037H80.9526C81.1777 62.7422 81.3936 62.8316 81.5528 62.9908C81.712 63.15 81.8014 63.3659 81.8014 63.5911C81.8014 63.8162 81.712 64.0321 81.5528 64.1913C81.3936 64.3505 81.1777 64.4399 80.9526 64.4399H75.0804C74.3711 64.4399 73.6908 64.7217 73.1893 65.2233C72.6877 65.7248 72.4059 66.4051 72.4059 67.1144C72.4059 67.8237 72.6877 68.5039 73.1893 69.0055C73.6908 69.507 74.3711 69.7888 75.0804 69.7888H77.4293ZM76.2548 36.2534C69.4543 36.2534 62.8064 38.27 57.1519 42.0482C51.4975 45.8264 47.0904 51.1965 44.4879 57.4794C41.8854 63.7623 41.2045 70.6758 42.5312 77.3457C43.858 84.0156 47.1328 90.1423 51.9415 94.951C56.7502 99.7597 62.8769 103.035 69.5468 104.361C76.2167 105.688 83.1302 105.007 89.4131 102.405C95.696 99.8021 101.066 95.395 104.844 89.7405C108.622 84.0861 110.639 77.4382 110.639 70.6377C110.639 61.5184 107.016 52.7726 100.568 46.3243C94.1199 39.876 85.3741 36.2534 76.2548 36.2534ZM76.2548 92.6264C71.9059 92.6264 67.6546 91.3368 64.0385 88.9207C60.4225 86.5045 57.6041 83.0703 55.9399 79.0524C54.2756 75.0345 53.8401 70.6133 54.6886 66.3479C55.537 62.0825 57.6312 58.1645 60.7064 55.0893C63.7816 52.0141 67.6996 49.9199 71.965 49.0714C76.2304 48.223 80.6516 48.6584 84.6696 50.3227C88.6875 51.987 92.1216 54.8053 94.5378 58.4214C96.954 62.0374 98.2436 66.2887 98.2436 70.6377C98.2436 76.4695 95.9269 82.0624 91.8032 86.1861C87.6795 90.3098 82.0866 92.6264 76.2548 92.6264ZM76.2548 50.3467C72.2416 50.3467 68.3186 51.5367 64.9817 53.7663C61.6449 55.9959 59.0442 59.165 57.5084 62.8726C55.9726 66.5803 55.5708 70.6602 56.3537 74.5963C57.1366 78.5323 59.0692 82.1478 61.9069 84.9856C64.7447 87.8233 68.3602 89.7559 72.2962 90.5388C76.2323 91.3217 80.3122 90.9199 84.0199 89.3841C87.7276 87.8483 90.8966 85.2476 93.1262 81.9108C95.3558 78.5739 96.5458 74.6509 96.5458 70.6377C96.5458 65.2562 94.408 60.0951 90.6027 56.2898C86.7974 52.4845 81.6363 50.3467 76.2548 50.3467Z" stroke="#D4DEE3" stroke-width="3"/>
<path d="M28.1397 106.288C29.5457 100.977 33.7636 96.9149 39.0751 95.3527C40.7935 94.8841 41.887 93.0094 41.4184 91.291C40.9497 89.5726 39.0751 88.4791 37.3566 88.9477C29.8581 90.9786 23.9217 96.9149 21.8909 104.413C21.4222 106.132 22.5158 108.007 24.2342 108.475C24.5466 108.631 24.8591 108.631 25.1715 108.631C26.5775 108.788 27.8272 107.85 28.1397 106.288Z" fill="#6A8B9D"/>
<path fill-rule="evenodd" clip-rule="evenodd" d="M43.2927 122.066C36.8877 122.066 31.7325 116.911 31.7325 110.506C31.7325 104.257 36.8877 98.9458 43.2927 98.9458C49.6977 98.9458 54.853 104.101 54.853 110.506C54.853 116.911 49.6977 122.066 43.2927 122.066ZM48.2918 110.506C48.2918 107.694 46.1047 105.507 43.2927 105.507C40.4808 105.507 38.2937 107.85 38.2937 110.506C38.2937 113.318 40.4808 115.505 43.2927 115.505C46.1047 115.505 48.2918 113.318 48.2918 110.506Z" fill="#6A8B9D"/>
<path fill-rule="evenodd" clip-rule="evenodd" d="M43.2929 143.468C61.4144 143.468 76.2553 128.627 76.2553 110.506C76.2553 92.3844 61.4144 77.6997 43.2929 77.6997C25.1714 77.6997 10.3305 92.3844 10.3305 110.506C10.3305 128.784 25.1714 143.468 43.2929 143.468ZM43.2929 84.1047C57.8213 84.1047 69.694 95.9774 69.694 110.506C69.694 125.034 57.8213 136.907 43.2929 136.907C28.7644 136.907 16.8917 125.191 16.8917 110.506C16.8917 95.8212 28.7644 84.1047 43.2929 84.1047Z" fill="#6A8B9D"/>
<path fill-rule="evenodd" clip-rule="evenodd" d="M118.336 52.4719C117.298 52.4719 116.456 53.3136 116.456 54.3519V68.8699C116.456 69.9082 117.298 70.7499 118.336 70.7499C119.375 70.7499 120.217 69.9082 120.217 68.8699V54.3519C120.217 53.3136 119.375 52.4719 118.336 52.4719ZM126.234 52.4719C125.196 52.4719 124.354 53.3136 124.354 54.3519V68.8699C124.354 69.9082 125.196 70.7499 126.234 70.7499C127.272 70.7499 128.114 69.9082 128.114 68.8699V54.3519C128.114 53.3136 127.272 52.4719 126.234 52.4719ZM134.083 52.4719C133.044 52.4719 132.203 53.3136 132.203 54.3519V68.8699C132.203 69.9082 133.044 70.7499 134.083 70.7499C135.121 70.7499 135.963 69.9082 135.963 68.8699V54.3519C135.963 53.3136 135.121 52.4719 134.083 52.4719ZM140.052 54.3519C140.052 53.3136 140.893 52.4719 141.932 52.4719C142.97 52.4719 143.812 53.3136 143.812 54.3519V68.8699C143.812 69.9082 142.97 70.7499 141.932 70.7499C140.893 70.7499 140.052 69.9082 140.052 68.8699V54.3519Z" fill="#D4DEE3"/>
<defs>
<linearGradient id="paint0_linear" x1="80.9511" y1="0.61084" x2="80.9511" y2="160.611" gradientUnits="userSpaceOnUse">
<stop stop-color="#D4DEE3" stop-opacity="0"/>
<stop offset="1" stop-color="#D4DEE3"/>
</linearGradient>
<linearGradient id="paint1_linear" x1="92.4088" y1="49.3975" x2="43.3705" y2="103.522" gradientUnits="userSpaceOnUse">
<stop stop-color="#CEB764"/>
<stop offset="0.755208" stop-color="#D8B94D" stop-opacity="0"/>
</linearGradient>
</defs>
</svg>
