<svg width="170" height="164" viewBox="0 0 170 164" fill="none" xmlns="http://www.w3.org/2000/svg">
<path d="M111.265 55.2C106.566 55.2093 102.721 58.7415 102.121 63.2749L76.088 63.3266C75.6236 55.9934 71.1945 49.7397 64.9161 46.6726L70.5923 24.981C70.9242 25.0073 71.2438 25.0804 71.5806 25.0798C78.3813 25.0663 83.9028 19.5228 83.8893 12.7221C83.8758 5.92133 78.3323 0.402282 71.534 0.415787C64.7309 0.429302 59.2093 5.97279 59.2229 12.7735C59.234 18.3822 63.0283 23.0666 68.1681 24.5483L62.626 45.7259C60.5945 45.0319 58.4259 44.6405 56.1647 44.645C50.0694 44.6572 44.6161 47.4232 40.9626 51.7513L24.9581 40.9687C25.675 39.355 26.0917 37.5796 26.088 35.6994C26.0738 28.5398 20.2372 22.7264 13.0752 22.7407C5.91566 22.7549 0.10226 28.5914 0.116483 35.751C0.130705 42.9105 5.96725 48.7239 13.1268 48.7097C17.5287 48.701 21.4076 46.4813 23.7506 43.1168L39.4943 53.7253C37.4433 56.868 36.244 60.6112 36.252 64.6371C36.2702 73.8022 42.5087 81.5122 50.9485 83.823L46.4587 98.9892C46.0899 98.931 45.7162 98.8752 45.3303 98.8759C41.2922 98.884 38.0126 102.177 38.0206 106.212C38.0287 110.253 41.3213 113.532 45.3594 113.524C49.4 113.516 52.6796 110.221 52.6716 106.183C52.666 103.401 51.0834 101.01 48.7878 99.776L53.3655 84.3196C54.3071 84.4578 55.2634 84.5493 56.244 84.5474C66.8297 84.5263 75.477 76.2141 76.0953 65.7868L102.128 65.7351C102.744 70.2685 106.603 73.7804 111.304 73.7711C116.424 73.7609 120.582 69.5892 120.572 64.4696C120.561 59.35 116.385 55.1898 111.265 55.2Z" fill="#BFD3DC"/>
<path d="M51.7987 79.7358C43.4491 77.2668 38.6303 68.4016 41.0992 60.052C41.6159 58.3046 42.629 56.368 43.6754 54.8157C43.9956 54.3407 43.8879 53.6883 43.413 53.3678L37.1309 49.1268C36.7135 48.845 36.1487 48.9159 35.8358 49.3106C33.9386 51.7034 32.9937 54.1989 32.0538 57.3772C28.1103 70.7134 35.7061 84.6874 49.0423 88.631C53.1901 89.8575 57.4601 89.9534 61.5046 89.1077C62.0889 88.9855 62.4107 88.3663 62.1998 87.808L59.5854 80.8858C59.4062 80.4114 58.9007 80.1507 58.4005 80.2349C56.3135 80.5865 54.0348 80.397 51.7987 79.7358Z" fill="#A7ABFF"/>
<path d="M60.7844 49.3529C63.422 50.1328 65.765 51.5563 67.5771 53.4585C67.8937 53.7908 68.3885 53.8947 68.7993 53.6901L75.6227 50.2908C76.1754 50.0154 76.3498 49.309 75.9647 48.8263C72.8705 44.9486 68.5823 41.9485 63.4248 40.4234C55.5715 38.1012 47.4392 39.8265 41.2442 44.3946C40.764 44.7488 40.7296 45.4456 41.1539 45.8651L46.48 51.1311C46.8314 51.4785 47.382 51.5141 47.7937 51.2411C51.5586 48.7445 56.2032 47.9982 60.7844 49.3529Z" fill="#A7ABFF"/>
<path d="M71.4455 57.2243C70.9537 57.4685 70.754 58.0623 70.9622 58.5703C72.2694 61.7601 72.5463 65.439 71.4825 69.0363C70.3035 73.0237 67.6109 76.2368 64.249 78.2168C63.8118 78.4743 63.6054 79.0051 63.7846 79.4798L66.418 86.4518C66.6219 86.9919 67.2407 87.2491 67.756 86.9888C73.7038 83.9832 78.3609 78.6132 80.412 71.6768C82.1616 65.7598 81.584 59.7177 79.2593 54.4664C79.0349 53.9596 78.4307 53.7559 77.9343 54.0024L71.4455 57.2243Z" fill="#6164A9"/>
<path d="M113.445 66.7257C106.941 66.7257 100.583 68.6543 95.1757 72.2677C89.7679 75.8811 85.553 81.0169 83.0641 87.0257C80.5752 93.0345 79.9239 99.6464 81.1928 106.025C82.4616 112.404 85.5936 118.264 90.1925 122.863C94.7915 127.462 100.651 130.594 107.03 131.862C113.409 133.131 120.021 132.48 126.029 129.991C132.038 127.502 137.174 123.287 140.787 117.879C144.401 112.472 146.329 106.114 146.329 99.61C146.329 90.8885 142.865 82.5243 136.698 76.3573C130.531 70.1903 122.167 66.7257 113.445 66.7257ZM113.445 123.099C108.8 123.099 104.258 121.721 100.396 119.14C96.5328 116.559 93.5222 112.891 91.7444 108.599C89.9666 104.307 89.5014 99.5839 90.4078 95.0275C91.3141 90.4712 93.5512 86.2859 96.8361 83.0009C100.121 79.7159 104.306 77.4789 108.863 76.5725C113.419 75.6662 118.142 76.1314 122.434 77.9092C126.726 79.687 130.394 82.6976 132.975 86.5603C135.556 90.423 136.934 94.9643 136.934 99.61C136.934 105.84 134.459 111.814 130.054 116.219C125.649 120.624 119.675 123.099 113.445 123.099ZM113.445 80.819C109.729 80.819 106.096 81.921 103.005 83.9858C99.9153 86.0506 97.5068 88.9854 96.0846 92.419C94.6623 95.8526 94.2902 99.6308 95.0152 103.276C95.7403 106.921 97.53 110.269 100.158 112.897C102.786 115.525 106.134 117.315 109.779 118.04C113.424 118.765 117.203 118.393 120.636 116.971C124.07 115.548 127.005 113.14 129.069 110.05C131.134 106.96 132.236 103.326 132.236 99.61C132.236 94.6263 130.256 89.8467 126.732 86.3227C123.208 82.7987 118.429 80.819 113.445 80.819ZM112.271 97.2611H114.62C116.177 97.1054 117.733 97.5747 118.944 98.5658C120.155 99.5569 120.923 100.989 121.079 102.546C121.235 104.103 120.765 105.659 119.774 106.87C118.783 108.082 117.351 108.85 115.794 109.005V111.354C115.794 111.977 115.547 112.575 115.106 113.015C114.666 113.456 114.068 113.703 113.445 113.703C112.822 113.703 112.225 113.456 111.784 113.015C111.344 112.575 111.096 111.977 111.096 111.354V109.005H108.747C108.124 109.005 107.527 108.758 107.087 108.318C106.646 107.877 106.399 107.28 106.399 106.657C106.399 106.034 106.646 105.436 107.087 104.996C107.527 104.555 108.124 104.308 108.747 104.308H114.62C114.931 104.308 115.23 104.184 115.45 103.964C115.67 103.743 115.794 103.445 115.794 103.133C115.794 102.822 115.67 102.523 115.45 102.303C115.23 102.083 114.931 101.959 114.62 101.959H112.271C110.815 101.96 109.41 101.421 108.329 100.445C107.248 99.4685 106.569 98.1257 106.422 96.6768C106.276 95.2279 106.673 93.7764 107.537 92.6039C108.401 91.4314 109.669 90.6217 111.096 90.3319V87.8656C111.096 87.2426 111.344 86.6452 111.784 86.2047C112.225 85.7642 112.822 85.5167 113.445 85.5167C114.068 85.5167 114.666 85.7642 115.106 86.2047C115.547 86.6452 115.794 87.2426 115.794 87.8656V90.2145H118.143C118.766 90.2145 119.363 90.4619 119.804 90.9024C120.244 91.3429 120.492 91.9404 120.492 92.5633C120.492 93.1863 120.244 93.7837 119.804 94.2242C119.363 94.6647 118.766 94.9122 118.143 94.9122H112.271C111.959 94.9122 111.661 95.036 111.44 95.2562C111.22 95.4765 111.096 95.7752 111.096 96.0867C111.096 96.3981 111.22 96.6969 111.44 96.9171C111.661 97.1374 111.959 97.2611 112.271 97.2611Z" fill="#8C8FF0"/>
<path d="M113.445 66.7257C106.941 66.7257 100.583 68.6543 95.1757 72.2677C89.7679 75.8811 85.553 81.0169 83.0641 87.0257C80.5752 93.0345 79.9239 99.6464 81.1928 106.025C82.4616 112.404 85.5936 118.264 90.1925 122.863C94.7915 127.462 100.651 130.594 107.03 131.862C113.409 133.131 120.021 132.48 126.029 129.991C132.038 127.502 137.174 123.287 140.787 117.879C144.401 112.472 146.329 106.114 146.329 99.61C146.329 90.8885 142.865 82.5243 136.698 76.3573C130.531 70.1903 122.167 66.7257 113.445 66.7257ZM113.445 123.099C108.8 123.099 104.258 121.721 100.396 119.14C96.5328 116.559 93.5222 112.891 91.7444 108.599C89.9666 104.307 89.5014 99.5839 90.4078 95.0275C91.3141 90.4712 93.5512 86.2859 96.8361 83.0009C100.121 79.7159 104.306 77.4789 108.863 76.5725C113.419 75.6662 118.142 76.1314 122.434 77.9092C126.726 79.687 130.394 82.6976 132.975 86.5603C135.556 90.423 136.934 94.9643 136.934 99.61C136.934 105.84 134.459 111.814 130.054 116.219C125.649 120.624 119.675 123.099 113.445 123.099ZM113.445 80.819C109.729 80.819 106.096 81.921 103.005 83.9858C99.9153 86.0506 97.5068 88.9854 96.0846 92.419C94.6623 95.8526 94.2902 99.6308 95.0152 103.276C95.7403 106.921 97.53 110.269 100.158 112.897C102.786 115.525 106.134 117.315 109.779 118.04C113.424 118.765 117.203 118.393 120.636 116.971C124.07 115.548 127.005 113.14 129.069 110.05C131.134 106.96 132.236 103.326 132.236 99.61C132.236 94.6263 130.256 89.8467 126.732 86.3227C123.208 82.7987 118.429 80.819 113.445 80.819ZM112.271 97.2611H114.62C116.177 97.1054 117.733 97.5747 118.944 98.5658C120.155 99.5569 120.923 100.989 121.079 102.546C121.235 104.103 120.765 105.659 119.774 106.87C118.783 108.082 117.351 108.85 115.794 109.005V111.354C115.794 111.977 115.547 112.575 115.106 113.015C114.666 113.456 114.068 113.703 113.445 113.703C112.822 113.703 112.225 113.456 111.784 113.015C111.344 112.575 111.096 111.977 111.096 111.354V109.005H108.747C108.124 109.005 107.527 108.758 107.087 108.318C106.646 107.877 106.399 107.28 106.399 106.657C106.399 106.034 106.646 105.436 107.087 104.996C107.527 104.555 108.124 104.308 108.747 104.308H114.62C114.931 104.308 115.23 104.184 115.45 103.964C115.67 103.743 115.794 103.445 115.794 103.133C115.794 102.822 115.67 102.523 115.45 102.303C115.23 102.083 114.931 101.959 114.62 101.959H112.271C110.815 101.96 109.41 101.421 108.329 100.445C107.248 99.4685 106.569 98.1257 106.422 96.6768C106.276 95.2279 106.673 93.7764 107.537 92.6039C108.401 91.4314 109.669 90.6217 111.096 90.3319V87.8656C111.096 87.2426 111.344 86.6452 111.784 86.2047C112.225 85.7642 112.822 85.5167 113.445 85.5167C114.068 85.5167 114.666 85.7642 115.106 86.2047C115.547 86.6452 115.794 87.2426 115.794 87.8656V90.2145H118.143C118.766 90.2145 119.363 90.4619 119.804 90.9024C120.244 91.3429 120.492 91.9404 120.492 92.5633C120.492 93.1863 120.244 93.7837 119.804 94.2242C119.363 94.6647 118.766 94.9122 118.143 94.9122H112.271C111.959 94.9122 111.661 95.036 111.44 95.2562C111.22 95.4765 111.096 95.7752 111.096 96.0867C111.096 96.3981 111.22 96.6969 111.44 96.9171C111.661 97.1374 111.959 97.2611 112.271 97.2611Z" fill="url(#paint0_linear)"/>
<path fill-rule="evenodd" clip-rule="evenodd" d="M76.5833 132.494C73.0199 132.494 70.1312 129.605 70.1312 126.042C70.1312 122.479 73.0199 119.59 76.5833 119.59C80.1468 119.59 83.0355 122.479 83.0355 126.042C83.0355 129.605 80.1468 132.494 76.5833 132.494ZM62.9819 132.494C61.0814 132.494 59.5408 130.953 59.5408 129.053C59.5408 127.152 61.0814 125.612 62.9819 125.612C64.8824 125.612 66.423 127.152 66.423 129.053C66.423 130.953 64.8824 132.494 62.9819 132.494Z" fill="#8C8FF0"/>
<path fill-rule="evenodd" clip-rule="evenodd" d="M66.7076 122.61C65.612 121.975 64.3394 121.612 62.9819 121.612C58.8723 121.612 55.5408 124.943 55.5408 129.053C55.5408 133.163 58.8723 136.494 62.9819 136.494C65.5047 136.494 67.7343 135.239 69.0799 133.318C70.9796 135.277 73.6393 136.494 76.5833 136.494C82.3559 136.494 87.0355 131.815 87.0355 126.042C87.0355 120.269 82.3559 115.59 76.5833 115.59C72.0129 115.59 68.1276 118.523 66.7076 122.61ZM70.1312 126.042C70.1312 129.605 73.0199 132.494 76.5833 132.494C80.1468 132.494 83.0355 129.605 83.0355 126.042C83.0355 122.479 80.1468 119.59 76.5833 119.59C73.0199 119.59 70.1312 122.479 70.1312 126.042ZM59.5408 129.053C59.5408 130.953 61.0814 132.494 62.9819 132.494C64.8824 132.494 66.423 130.953 66.423 129.053C66.423 127.152 64.8824 125.612 62.9819 125.612C61.0814 125.612 59.5408 127.152 59.5408 129.053Z" fill="white"/>
<defs>
<linearGradient id="paint0_linear" x1="129.599" y1="78.3698" x2="80.5609" y2="132.494" gradientUnits="userSpaceOnUse">
<stop stop-color="#A7AAFF"/>
<stop offset="0.755208" stop-color="#A7AAFF" stop-opacity="0"/>
</linearGradient>
</defs>
</svg>
