<svg width="179" height="169" viewBox="0 0 179 169" fill="none" xmlns="http://www.w3.org/2000/svg">
<path fill-rule="evenodd" clip-rule="evenodd" d="M42.616 38.9721V138.972H142.616V38.9721H42.616ZM20.616 8.97211C16.1978 8.97211 12.616 12.5538 12.616 16.9721V160.972C12.616 165.39 16.1978 168.972 20.616 168.972H164.616C169.034 168.972 172.616 165.39 172.616 160.972V16.9721C172.616 12.5538 169.034 8.97211 164.616 8.97211H20.616Z" fill="#EBEFF0"/>
<path fill-rule="evenodd" clip-rule="evenodd" d="M42.616 38.9721V138.972H142.616V38.9721H42.616ZM20.616 8.97211C16.1978 8.97211 12.616 12.5538 12.616 16.9721V160.972C12.616 165.39 16.1978 168.972 20.616 168.972H164.616C169.034 168.972 172.616 165.39 172.616 160.972V16.9721C172.616 12.5538 169.034 8.97211 164.616 8.97211H20.616Z" fill="url(#paint0_linear)"/>
<path fill-rule="evenodd" clip-rule="evenodd" d="M138.253 109.896C138.253 116.027 143.238 121.012 149.369 121.012C155.502 121.012 160.485 115.961 160.485 109.896C160.485 103.765 155.5 98.78 149.369 98.78C143.238 98.78 138.253 103.765 138.253 109.896ZM144.271 109.896C144.271 107.084 146.557 104.799 149.369 104.799C152.11 104.799 154.405 107.078 154.467 109.901C154.464 112.711 152.179 114.994 149.369 114.994C146.557 114.994 144.271 112.708 144.271 109.896Z" fill="#ECD37A"/>
<path fill-rule="evenodd" clip-rule="evenodd" d="M138.253 109.896C138.253 116.027 143.238 121.012 149.369 121.012C155.502 121.012 160.485 115.961 160.485 109.896C160.485 103.765 155.5 98.78 149.369 98.78C143.238 98.78 138.253 103.765 138.253 109.896ZM144.271 109.896C144.271 107.084 146.557 104.799 149.369 104.799C152.11 104.799 154.405 107.078 154.467 109.901C154.464 112.711 152.179 114.994 149.369 114.994C146.557 114.994 144.271 112.708 144.271 109.896Z" fill="url(#paint1_linear)" fill-opacity="0.15"/>
<path fill-rule="evenodd" clip-rule="evenodd" d="M149.369 86.1692C133.136 86.1692 119.916 99.3898 119.916 115.622C119.916 131.855 133.136 145.075 149.369 145.075C165.602 145.075 178.822 131.855 178.822 115.622C178.822 99.3898 165.602 86.1692 149.369 86.1692ZM149.369 139.057C143.894 139.057 138.891 137.178 134.923 134.042C138.723 130.202 143.898 128.025 149.369 128.025C154.84 128.025 160.015 130.202 163.815 134.042C159.844 137.177 154.782 139.057 149.369 139.057ZM125.999 115.622C125.999 120.899 127.75 125.765 130.691 129.662C135.635 124.738 142.285 121.942 149.369 121.942C156.39 121.942 163.099 124.737 168.047 129.662C170.988 125.766 172.739 120.899 172.739 115.622C172.739 102.772 162.282 92.2521 149.369 92.2521C136.519 92.2521 125.999 102.71 125.999 115.622Z" fill="#ECD37A"/>
<path fill-rule="evenodd" clip-rule="evenodd" d="M149.369 86.1692C133.136 86.1692 119.916 99.3898 119.916 115.622C119.916 131.855 133.136 145.075 149.369 145.075C165.602 145.075 178.822 131.855 178.822 115.622C178.822 99.3898 165.602 86.1692 149.369 86.1692ZM149.369 139.057C143.894 139.057 138.891 137.178 134.923 134.042C138.723 130.202 143.898 128.025 149.369 128.025C154.84 128.025 160.015 130.202 163.815 134.042C159.844 137.177 154.782 139.057 149.369 139.057ZM125.999 115.622C125.999 120.899 127.75 125.765 130.691 129.662C135.635 124.738 142.285 121.942 149.369 121.942C156.39 121.942 163.099 124.737 168.047 129.662C170.988 125.766 172.739 120.899 172.739 115.622C172.739 102.772 162.282 92.2521 149.369 92.2521C136.519 92.2521 125.999 102.71 125.999 115.622Z" fill="url(#paint2_linear)" fill-opacity="0.15"/>
<path fill-rule="evenodd" clip-rule="evenodd" d="M90.3172 109.896C90.3172 116.027 95.3023 121.012 101.433 121.012C107.566 121.012 112.55 115.961 112.55 109.896C112.55 103.765 107.564 98.7798 101.433 98.7798C95.3023 98.7798 90.3172 103.765 90.3172 109.896ZM96.3358 109.896C96.3358 107.084 98.6212 104.798 101.433 104.798C104.174 104.798 106.469 107.077 106.531 109.901C106.528 112.711 104.244 114.994 101.433 114.994C98.6212 114.994 96.3358 112.708 96.3358 109.896Z" fill="#BAD0DB"/>
<path fill-rule="evenodd" clip-rule="evenodd" d="M101.433 86.1692C85.2007 86.1692 71.9801 99.3898 71.9801 115.622C71.9801 131.855 85.2007 145.075 101.433 145.075C117.666 145.075 130.886 131.855 130.886 115.622C130.886 99.3898 117.666 86.1692 101.433 86.1692ZM101.433 139.057C95.9585 139.057 90.955 137.178 86.9873 134.042C90.787 130.202 95.9623 128.025 101.433 128.025C106.904 128.025 112.079 130.202 115.879 134.042C111.908 137.177 106.847 139.057 101.433 139.057ZM78.063 115.622C78.063 120.899 79.8143 125.765 82.755 129.662C87.6995 124.738 94.3495 121.942 101.433 121.942C108.454 121.942 115.163 124.737 120.111 129.662C123.052 125.766 124.803 120.899 124.803 115.622C124.803 102.772 114.346 92.2521 101.433 92.2521C88.5831 92.2521 78.063 102.71 78.063 115.622Z" fill="#BAD0DB"/>
<path fill-rule="evenodd" clip-rule="evenodd" d="M42.5254 109.256C42.5254 115.387 47.5104 120.372 53.6415 120.372C59.7746 120.372 64.7577 115.321 64.7577 109.256C64.7577 103.125 59.7726 98.1401 53.6415 98.1401C47.5104 98.1401 42.5254 103.125 42.5254 109.256ZM48.5439 109.256C48.5439 106.444 50.8293 104.159 53.6415 104.159C56.3821 104.159 58.6776 106.438 58.7391 109.262C58.7363 112.071 56.452 114.354 53.6415 114.354C50.8293 114.354 48.5439 112.068 48.5439 109.256Z" fill="#6A8B9D"/>
<path fill-rule="evenodd" clip-rule="evenodd" d="M53.6415 85.5295C37.4089 85.5295 24.1884 98.7501 24.1884 114.983C24.1884 131.215 37.4089 144.436 53.6415 144.436C69.874 144.436 83.0946 131.215 83.0946 114.983C83.0946 98.7501 69.874 85.5295 53.6415 85.5295ZM53.6415 138.417C48.1667 138.417 43.1632 136.538 39.1955 133.403C42.9953 129.562 48.1706 127.386 53.6415 127.386C59.1123 127.386 64.2876 129.562 68.0873 133.402C64.116 136.538 59.0548 138.417 53.6415 138.417ZM30.2712 114.983C30.2712 120.259 32.0226 125.126 34.9633 129.022C39.9078 124.098 46.5577 121.303 53.6415 121.303C60.662 121.303 67.3714 124.098 72.3196 129.022C75.2603 125.126 77.0117 120.259 77.0117 114.983C77.0117 102.133 66.5542 91.6124 53.6415 91.6124C40.7913 91.6124 30.2712 102.07 30.2712 114.983Z" fill="#6A8B9D"/>
<path d="M39.7295 26.1897C37.9394 26.1897 36.4882 27.6409 36.4882 29.431V38.8605H27.059C25.2689 38.8605 23.8177 40.3116 23.8177 42.1017C23.8177 43.8918 25.2689 45.343 27.059 45.343H36.4882V54.7718C36.4882 56.5619 37.9394 58.0131 39.7295 58.0131C41.5196 58.0131 42.9708 56.5619 42.9708 54.7718V45.343H52.3999C54.19 45.343 55.6411 43.8918 55.6411 42.1017C55.6411 40.3116 54.19 38.8605 52.3999 38.8605H42.9708V29.431C42.9708 27.6409 41.5196 26.1897 39.7295 26.1897Z" fill="#D2B552"/>
<defs>
<linearGradient id="paint0_linear" x1="92.616" y1="8.97211" x2="92.616" y2="168.972" gradientUnits="userSpaceOnUse">
<stop stop-color="#EBEFF0"/>
<stop offset="1" stop-color="white"/>
</linearGradient>
<linearGradient id="paint1_linear" x1="160.561" y1="136.785" x2="144.748" y2="119.966" gradientUnits="userSpaceOnUse">
<stop offset="0.380208" stop-color="#EDD47B"/>
<stop offset="1" stop-color="#B4E7FF"/>
</linearGradient>
<linearGradient id="paint2_linear" x1="160.561" y1="136.785" x2="144.748" y2="119.966" gradientUnits="userSpaceOnUse">
<stop offset="0.380208" stop-color="#EDD47B"/>
<stop offset="1" stop-color="#B4E7FF"/>
</linearGradient>
</defs>
</svg>
