<svg width="169" height="161" fill="none" xmlns="http://www.w3.org/2000/svg">
<path d="M45.0579 135.285C48.6477 135.285 51.5579 132.375 51.5579 128.785C51.5579 125.195 48.6477 122.285 45.0579 122.285C41.468 122.285 38.5579 125.195 38.5579 128.785C38.5579 132.375 41.468 135.285 45.0579 135.285Z" fill="#E5D389"/>
<path d="M58.7603 135.285C60.6748 135.285 62.2269 133.733 62.2269 131.818C62.2269 129.904 60.6748 128.352 58.7603 128.352C56.8457 128.352 55.2936 129.904 55.2936 131.818C55.2936 133.733 56.8457 135.285 58.7603 135.285Z" fill="#E5D389"/>
<path d="M101.041 48.6616C69.1496 48.6616 43.2919 91.4098 43.2919 91.4098C43.2919 91.4098 69.1496 135.285 101.041 135.285C132.932 135.285 158.79 91.4098 158.79 91.4098C158.79 91.4098 132.932 48.6616 101.041 48.6616ZM101.041 120.848C85.0941 120.848 72.1664 107.92 72.1664 91.9734C72.1664 76.0266 85.0941 63.0988 101.041 63.0988C116.988 63.0988 129.916 76.0266 129.916 91.9734C129.916 107.92 116.988 120.848 101.041 120.848Z" fill="#ECD37A"/>
<path d="M101.041 48.6616C69.1496 48.6616 43.2919 91.4098 43.2919 91.4098C43.2919 91.4098 69.1496 135.285 101.041 135.285C132.932 135.285 158.79 91.4098 158.79 91.4098C158.79 91.4098 132.932 48.6616 101.041 48.6616ZM101.041 120.848C85.0941 120.848 72.1664 107.92 72.1664 91.9734C72.1664 76.0266 85.0941 63.0988 101.041 63.0988C116.988 63.0988 129.916 76.0266 129.916 91.9734C129.916 107.92 116.988 120.848 101.041 120.848Z" fill="url(#paint0_linear)" fill-opacity="0.15"/>
<path d="M115.479 92.0296C115.479 100.009 109.014 106.467 101.041 106.467C93.0684 106.467 86.604 100.009 86.604 92.0296C86.604 84.0499 93.0684 77.5923 101.041 77.5923C109.014 77.5923 115.479 84.0499 115.479 92.0296Z" fill="#ECD37A"/>
<path fill-rule="evenodd" clip-rule="evenodd" d="M37.9825 30.9385C21.6475 32.5187 8.62073 45.5455 7.0405 61.8805H3.35895C1.51319 61.8805 0.0168152 63.3769 0.0168152 65.2227C0.0168152 67.0684 1.51319 68.5648 3.35895 68.5648H7.0405C8.62073 84.8998 21.6475 97.9266 37.9825 99.5068V103.188C37.9825 105.034 39.4789 106.531 41.3247 106.531C43.1704 106.531 44.6668 105.034 44.6668 103.188V99.5068C61.0019 97.9266 74.0286 84.8998 75.6088 68.5648H79.2904C81.1362 68.5648 82.6325 67.0684 82.6325 65.2227C82.6325 63.3769 81.1362 61.8805 79.2904 61.8805H75.6088C74.0286 45.5455 61.0019 32.5187 44.6668 30.9385V27.2569C44.6668 25.4112 43.1704 23.9148 41.3247 23.9148C39.4789 23.9148 37.9825 25.4112 37.9825 27.2569V30.9385ZM44.6668 37.6594C57.3087 39.183 67.3644 49.2387 68.8879 61.8805H65.5781C63.7323 61.8805 62.236 63.3769 62.236 65.2227C62.236 67.0684 63.7323 68.5648 65.5781 68.5648H68.8879C67.3644 81.2066 57.3087 91.2624 44.6668 92.7859V89.4761C44.6668 87.6303 43.1704 86.1339 41.3247 86.1339C39.4789 86.1339 37.9825 87.6303 37.9825 89.4761V92.7859C25.3407 91.2624 15.285 81.2066 13.7614 68.5648H17.0713C18.917 68.5648 20.4134 67.0684 20.4134 65.2227C20.4134 63.3769 18.917 61.8805 17.0713 61.8805H13.7614C15.285 49.2387 25.3407 39.183 37.9825 37.6594V40.9692C37.9825 42.815 39.4789 44.3114 41.3247 44.3114C43.1704 44.3114 44.6668 42.815 44.6668 40.9692V37.6594Z" fill="#6A8B9D"/>
<defs>
<linearGradient id="paint0_linear" x1="122.984" y1="123.094" x2="101.041" y2="91.9734" gradientUnits="userSpaceOnUse">
<stop offset="0.380208" stop-color="#EDD47B"/>
<stop offset="1" stop-color="#B4E7FF"/>
</linearGradient>
</defs>
</svg>
