<svg width="216" height="180" viewBox="0 0 216 180" fill="none" xmlns="http://www.w3.org/2000/svg">
<mask id="path-1-inside-1" fill="white">
<rect x="22.4329" y="16.5483" width="160" height="160" rx="8"/>
</mask>
<rect x="22.4329" y="16.5483" width="160" height="160" rx="8" stroke="#BAD0DB" stroke-width="60" mask="url(#path-1-inside-1)"/>
<rect x="22.4329" y="16.5483" width="160" height="160" rx="8" stroke="url(#paint0_linear)" stroke-width="60" mask="url(#path-1-inside-1)"/>
<path d="M195.734 117.434C193.774 113.974 190.839 110.802 186.676 109.227C189.195 107.21 190.862 103.994 190.864 100.539C190.869 94.826 186.319 89.6701 180.8 89.6701C175.283 89.6701 170.732 94.8037 170.735 100.516C170.737 103.967 172.383 107.202 174.901 109.227C170.735 110.801 167.806 113.974 165.842 117.434C164.491 119.815 163.529 122.351 162.801 124.691C162.077 122.353 161.13 119.814 159.782 117.434C157.821 113.974 154.886 110.802 150.724 109.227C153.243 107.21 154.909 103.994 154.912 100.539C154.916 94.8269 150.388 89.6701 144.869 89.6701C139.352 89.6701 134.78 94.8028 134.783 100.516C134.784 103.968 136.451 107.203 138.971 109.227C134.805 110.801 131.874 113.974 129.911 117.434C128.56 119.815 127.603 122.348 126.875 124.687C126.152 122.348 125.199 119.815 123.851 117.434C121.89 113.974 118.955 110.802 114.793 109.227C117.311 107.21 118.978 103.994 118.98 100.539C118.984 94.8259 114.433 89.6701 108.915 89.6701C103.397 89.6701 98.8486 94.8038 98.8512 100.516C98.8527 103.967 100.499 107.202 103.017 109.227C98.8512 110.801 95.9219 113.974 93.9583 117.434C92.6073 119.815 91.6439 122.351 90.9154 124.692C90.1913 122.353 89.2445 119.814 87.8964 117.434C85.936 113.974 83.0005 110.802 78.8384 109.227C81.357 107.21 83.0237 103.994 83.0261 100.539C83.0301 94.827 78.5046 89.6701 72.9852 89.6701C67.4682 89.6701 62.8945 94.8027 62.8971 100.516C62.8986 103.968 64.5656 107.203 67.0855 109.227C62.9198 110.801 59.9904 113.974 58.0269 117.434C55.6408 121.639 54.4518 126.366 53.6388 129.598C53.5054 130.128 53.3821 130.618 53.2653 131.059L53.1813 131.377L53.4982 131.462L56.2985 132.22L56.6188 132.306L56.7037 131.986C56.8209 131.543 56.9423 131.068 57.0704 130.567C57.9073 127.291 59.0283 122.904 61.1265 119.207C62.3348 117.078 63.7958 115.222 65.6998 113.898C67.5991 112.578 69.9574 111.774 72.9852 111.774C76.0128 111.774 78.36 112.578 80.2478 113.898C82.1404 115.221 83.5899 117.077 84.7965 119.206C86.8743 122.874 87.9795 127.219 88.8107 130.487C88.9456 131.017 89.0733 131.519 89.1967 131.986L89.2618 132.231H89.5157H92.3388H92.5928L92.6578 131.986C92.7751 131.543 92.8965 131.068 93.0245 130.567C93.8614 127.291 94.9824 122.904 97.0807 119.207C98.2892 117.077 99.7443 115.222 101.642 113.898C103.535 112.578 105.887 111.774 108.915 111.774C111.943 111.774 114.296 112.578 116.19 113.898C118.089 115.222 119.544 117.077 120.751 119.206C122.827 122.871 123.931 127.213 124.762 130.48C124.897 131.013 125.025 131.517 125.149 131.986L125.214 132.231H125.468H128.27H128.524L128.589 131.986C128.707 131.541 128.829 131.064 128.958 130.56C129.794 127.285 130.914 122.901 133.01 119.207C134.219 117.078 135.68 115.222 137.584 113.898C139.483 112.578 141.841 111.774 144.869 111.774C147.897 111.774 150.244 112.578 152.133 113.898C154.026 115.221 155.475 117.077 156.682 119.206C158.758 122.871 159.862 127.213 160.693 130.48C160.828 131.013 160.957 131.517 161.081 131.986L161.146 132.231H161.4H164.224H164.478L164.543 131.986C164.661 131.541 164.783 131.064 164.912 130.56C165.748 127.285 166.868 122.901 168.965 119.207C170.173 117.077 171.629 115.222 173.527 113.898C175.42 112.578 177.773 111.774 180.8 111.774C183.828 111.774 186.182 112.578 188.076 113.898C189.974 115.222 191.43 117.077 192.636 119.206C194.713 122.871 195.816 127.213 196.647 130.48C196.783 131.013 196.911 131.517 197.035 131.986L197.12 132.306L197.44 132.22L200.24 131.462L200.557 131.377L200.473 131.059C200.352 130.602 200.224 130.092 200.086 129.539C199.278 126.309 198.102 121.613 195.734 117.434ZM72.9852 93.3157C74.5304 93.3157 76.1359 94.1616 77.3642 95.5075C78.5899 96.8506 79.4062 98.6562 79.4049 100.515C79.4036 102.373 78.5864 104.185 77.3606 105.535C76.1321 106.888 74.528 107.74 72.9852 107.74C71.442 107.74 69.8315 106.887 68.5967 105.534C67.3646 104.184 66.5419 102.372 66.541 100.515C66.5402 98.6574 67.3621 96.8519 68.5939 95.5085C69.8283 94.1621 71.4398 93.3157 72.9852 93.3157ZM108.915 93.3157C110.46 93.3157 112.066 94.1616 113.295 95.5076C114.521 96.8506 115.338 98.6562 115.336 100.515C115.335 102.373 114.517 104.185 113.291 105.535C112.062 106.888 110.458 107.74 108.915 107.74C107.372 107.74 105.762 106.887 104.527 105.534C103.296 104.184 102.473 102.372 102.472 100.515C102.472 98.6574 103.293 96.8519 104.524 95.5084C105.759 94.1621 107.37 93.3157 108.915 93.3157ZM144.869 93.3157C146.414 93.3157 148.02 94.1616 149.248 95.5075C150.474 96.8506 151.29 98.6562 151.289 100.515C151.288 102.373 150.47 104.185 149.245 105.535C148.016 106.888 146.412 107.74 144.869 107.74C143.326 107.74 141.716 106.887 140.481 105.534C139.25 104.184 138.427 102.372 138.427 100.515C138.426 98.6574 139.247 96.8519 140.479 95.5084C141.713 94.1621 143.324 93.3157 144.869 93.3157ZM180.8 93.3157C182.346 93.3157 183.951 94.1616 185.179 95.5075C186.405 96.8506 187.221 98.6562 187.22 100.515C187.219 102.373 186.402 104.185 185.176 105.535C183.947 106.888 182.343 107.74 180.8 107.74C179.257 107.74 177.647 106.887 176.413 105.534C175.181 104.184 174.359 102.372 174.358 100.515C174.357 98.6574 175.179 96.8519 176.41 95.5084C177.644 94.1621 179.255 93.3157 180.8 93.3157Z" fill="#89A8B7" stroke="#89A7B7" stroke-width="0.66"/>
<path d="M195.942 144.917C193.982 141.457 191.046 138.285 186.884 136.71C189.401 134.692 191.046 131.475 191.048 128.021C191.051 122.31 186.526 117.153 181.007 117.153C175.488 117.153 170.939 122.31 170.941 128.021C170.943 131.473 172.589 134.688 175.107 136.71C170.941 138.284 168.012 141.457 166.048 144.917C164.698 147.296 163.752 149.837 163.029 152.176C162.3 149.835 161.337 147.298 159.988 144.917C158.028 141.457 155.092 138.285 150.93 136.71C153.449 134.693 155.115 131.476 155.118 128.022C155.122 122.309 150.571 117.153 145.053 117.153C139.534 117.153 134.986 122.31 134.989 128.021C134.99 131.474 136.658 134.689 139.177 136.71C135.01 138.284 132.058 141.456 130.094 144.917C128.747 147.291 127.797 149.816 127.075 152.15C126.353 149.816 125.402 147.291 124.057 144.917C122.096 141.457 119.161 138.285 114.999 136.71C117.516 134.692 119.161 131.475 119.164 128.021C119.168 122.31 114.642 117.153 109.123 117.153C103.604 117.153 99.0549 122.31 99.0575 128.021C99.059 131.473 100.705 134.688 103.223 136.71C99.0575 138.284 96.1281 141.457 94.1646 144.917C92.8142 147.297 91.8684 149.837 91.1451 152.176C90.4158 149.835 89.4515 147.298 88.1027 144.917C86.1423 141.457 83.2068 138.285 79.0447 136.71C81.5633 134.693 83.23 131.476 83.2324 128.021C83.2364 122.309 78.6872 117.153 73.1687 117.153C67.6499 117.153 63.1008 122.31 63.1034 128.021C63.1049 131.474 64.7723 134.689 67.2916 136.71C63.1247 138.284 60.1744 141.456 58.2104 144.917C55.8415 149.091 54.6688 153.781 53.8614 157.011C53.722 157.568 53.5935 158.082 53.4716 158.542L53.3876 158.86L53.7045 158.945L56.5065 159.703L56.8267 159.789L56.9116 159.469C57.0294 159.024 57.1513 158.547 57.2799 158.043C58.1163 154.768 59.236 150.384 61.3328 146.689C62.5413 144.56 63.9968 142.705 65.8951 141.381C67.7885 140.061 70.141 139.257 73.1687 139.257C76.1964 139.257 78.5495 140.061 80.4431 141.381C82.3414 142.705 83.7965 144.56 85.0028 146.689C87.0806 150.357 88.1858 154.702 89.017 157.97C89.1519 158.5 89.2796 159.002 89.403 159.469L89.4681 159.714H89.722H92.5451H92.7991L92.8641 159.469C92.9885 158.999 93.1172 158.492 93.2532 157.957C94.0831 154.691 95.1856 150.352 97.2642 146.689C98.4725 144.56 99.9335 142.705 101.837 141.381C103.737 140.061 106.095 139.257 109.123 139.257C112.151 139.257 114.504 140.061 116.397 141.381C118.296 142.705 119.751 144.56 120.957 146.689C123.035 150.357 124.14 154.702 124.971 157.97C125.106 158.5 125.234 159.002 125.357 159.469L125.422 159.714H125.676H128.477H128.73L128.796 159.469C128.913 159.026 129.034 158.551 129.162 158.05C129.999 154.774 131.12 150.387 133.218 146.689C134.427 144.56 135.882 142.705 137.78 141.381C139.673 140.061 142.025 139.257 145.053 139.257C148.08 139.257 150.434 140.061 152.328 141.381C154.227 142.705 155.682 144.56 156.888 146.689C158.965 150.354 160.069 154.696 160.899 157.963C161.035 158.496 161.163 159 161.287 159.469L161.352 159.714H161.606H164.431H164.685L164.75 159.469C164.875 158.997 165.004 158.488 165.14 157.951C165.97 154.686 167.071 150.35 169.148 146.689C170.356 144.56 171.817 142.705 173.721 141.381C175.621 140.061 177.979 139.257 181.007 139.257C184.034 139.257 186.388 140.061 188.282 141.381C190.181 142.705 191.636 144.56 192.842 146.689C194.919 150.354 196.023 154.696 196.853 157.963C196.989 158.496 197.117 159 197.241 159.469L197.326 159.789L197.646 159.703L200.447 158.945L200.763 158.859L200.679 158.542C200.558 158.084 200.43 157.572 200.291 157.017C199.483 153.788 198.309 149.094 195.942 144.917ZM73.1687 120.799C74.7132 120.799 76.3186 121.65 77.5473 123.001C78.7733 124.35 79.5897 126.162 79.5884 128.021C79.5871 129.879 78.77 131.685 77.5445 133.029C76.3164 134.376 74.7123 135.223 73.1687 135.223C71.6251 135.223 70.0207 134.376 68.7925 133.029C67.5668 131.685 66.7498 129.878 66.749 128.021C66.7481 126.162 67.5647 124.351 68.7906 123.002C70.0192 121.65 71.6244 120.799 73.1687 120.799ZM109.123 120.799C110.667 120.799 112.273 121.65 113.501 123.001C114.727 124.35 115.544 126.162 115.543 128.021C115.541 129.879 114.724 131.685 113.499 133.029C112.271 134.376 110.666 135.223 109.123 135.223C107.579 135.223 105.968 134.375 104.734 133.028C103.502 131.684 102.68 129.878 102.679 128.021C102.678 126.163 103.5 124.352 104.732 123.002C105.967 121.65 107.578 120.799 109.123 120.799ZM145.053 120.799C146.597 120.799 148.202 121.65 149.431 123.001C150.657 124.35 151.474 126.162 151.472 128.021C151.471 129.879 150.654 131.685 149.429 133.029C148.2 134.376 146.596 135.223 145.053 135.223C143.509 135.223 141.905 134.376 140.676 133.029C139.451 131.685 138.634 129.878 138.633 128.021C138.632 126.162 139.449 124.351 140.675 123.002C141.903 121.65 143.508 120.799 145.053 120.799ZM181.007 120.799C182.551 120.799 184.157 121.65 185.385 123.001C186.611 124.35 187.428 126.162 187.426 128.021C187.425 129.879 186.608 131.685 185.383 133.029C184.155 134.376 182.55 135.223 181.007 135.223C179.463 135.223 177.853 134.375 176.619 133.028C175.387 131.684 174.565 129.878 174.564 128.021C174.563 126.163 175.385 124.351 176.617 123.002C177.851 121.65 179.462 120.799 181.007 120.799Z" fill="#89A8B7" stroke="#89A7B7" stroke-width="0.66"/>
<rect x="47.4047" y="34.0023" width="6.48254" height="31.8234" rx="3.24127" fill="#D9B537"/>
<rect x="34.7341" y="53.1555" width="6.48254" height="31.8234" rx="3.24127" transform="rotate(-90 34.7341 53.1555)" fill="#D9B537"/>
<defs>
<linearGradient id="paint0_linear" x1="102.433" y1="16.5483" x2="102.433" y2="176.548" gradientUnits="userSpaceOnUse">
<stop stop-color="#D4DEE3" stop-opacity="0"/>
<stop offset="1" stop-color="#D4DEE3"/>
</linearGradient>
</defs>
</svg>
