<svg width="170" height="160" viewBox="0 0 170 160" fill="none" xmlns="http://www.w3.org/2000/svg">
<mask id="path-1-inside-1" fill="white">
<rect x="9.32361" width="160" height="160" rx="8"/>
</mask>
<rect x="9.32361" width="160" height="160" rx="8" stroke="#EBEFF0" stroke-width="60" mask="url(#path-1-inside-1)"/>
<rect x="9.32361" width="160" height="160" rx="8" stroke="url(#paint0_linear)" stroke-width="60" mask="url(#path-1-inside-1)"/>
<path d="M47.3077 119.226H72.2653L81.0079 126.625L47.3077 127.032V119.226Z" fill="white"/>
<circle cx="45.5377" cy="128.174" r="6.5" fill="#E5D389"/>
<circle cx="59.2401" cy="131.208" r="3.46667" fill="#E5D389"/>
<path d="M101.521 48.0508C69.6295 48.0508 43.7717 90.799 43.7717 90.799C43.7717 90.799 69.6295 134.674 101.521 134.674C133.412 134.674 159.27 90.799 159.27 90.799C159.27 90.799 133.412 48.0508 101.521 48.0508ZM101.521 120.237C85.574 120.237 72.6463 107.309 72.6463 91.3626C72.6463 75.4158 85.574 62.4881 101.521 62.4881C117.468 62.4881 130.395 75.4158 130.395 91.3626C130.395 107.309 117.468 120.237 101.521 120.237Z" fill="#ECD37A"/>
<path d="M101.521 48.0508C69.6295 48.0508 43.7717 90.799 43.7717 90.799C43.7717 90.799 69.6295 134.674 101.521 134.674C133.412 134.674 159.27 90.799 159.27 90.799C159.27 90.799 133.412 48.0508 101.521 48.0508ZM101.521 120.237C85.574 120.237 72.6463 107.309 72.6463 91.3626C72.6463 75.4158 85.574 62.4881 101.521 62.4881C117.468 62.4881 130.395 75.4158 130.395 91.3626C130.395 107.309 117.468 120.237 101.521 120.237Z" fill="url(#paint1_linear)" fill-opacity="0.15"/>
<path d="M115.958 91.4188C115.958 99.3986 109.494 105.856 101.521 105.856C93.5483 105.856 87.0839 99.3986 87.0839 91.4188C87.0839 83.4391 93.5483 76.9816 101.521 76.9816C109.494 76.9816 115.958 83.4391 115.958 91.4188Z" fill="#ECD37A"/>
<path d="M39.4624 31.248C22.8798 32.4011 9.59376 45.6872 8.44064 62.2698H3.83884C2.54537 62.2698 1.4967 63.3185 1.4967 64.6119C1.4967 65.9054 2.54537 66.9541 3.83884 66.9541H8.44064C9.59376 83.5367 22.8798 96.8227 39.4624 97.9759V102.578C39.4624 103.871 40.5111 104.92 41.8046 104.92C43.098 104.92 44.1467 103.871 44.1467 102.578V97.9759C60.7293 96.8227 74.0154 83.5367 75.1685 66.9541H79.7703C81.0638 66.9541 82.1124 65.9054 82.1124 64.6119C82.1124 63.3185 81.0638 62.2698 79.7703 62.2698H75.1685C74.0154 45.6872 60.7293 32.4011 44.1467 31.248V26.6462C44.1467 25.3527 43.098 24.3041 41.8046 24.3041C40.5111 24.3041 39.4624 25.3527 39.4624 26.6462V31.248ZM44.1467 35.9431C58.1431 37.0763 69.3402 48.2734 70.4734 62.2698H66.058C64.7645 62.2698 63.7159 63.3185 63.7159 64.6119C63.7159 65.9054 64.7645 66.9541 66.058 66.9541H70.4734C69.3402 80.9504 58.1431 92.1475 44.1467 93.2807V88.8654C44.1467 87.5719 43.098 86.5232 41.8046 86.5232C40.5111 86.5232 39.4624 87.5719 39.4624 88.8654V93.2807C25.4661 92.1475 14.269 80.9504 13.1358 66.9541H17.5511C18.8446 66.9541 19.8933 65.9054 19.8933 64.6119C19.8933 63.3185 18.8446 62.2698 17.5511 62.2698H13.1358C14.269 48.2734 25.4661 37.0763 39.4624 35.9431V40.3585C39.4624 41.652 40.5111 42.7006 41.8046 42.7006C43.098 42.7006 44.1467 41.652 44.1467 40.3585V35.9431Z" fill="#6A8B9D" stroke="#6A8B9D" stroke-width="2"/>
<defs>
<linearGradient id="paint0_linear" x1="89.3236" y1="0" x2="89.3236" y2="160" gradientUnits="userSpaceOnUse">
<stop stop-color="#EBEFF0"/>
<stop offset="1" stop-color="white"/>
</linearGradient>
<linearGradient id="paint1_linear" x1="123.464" y1="122.483" x2="101.521" y2="91.3626" gradientUnits="userSpaceOnUse">
<stop offset="0.380208" stop-color="#EDD47B"/>
<stop offset="1" stop-color="#B4E7FF"/>
</linearGradient>
</defs>
</svg>
