<svg width="161" height="160" viewBox="0 0 161 160" fill="none" xmlns="http://www.w3.org/2000/svg">
<mask id="path-1-inside-1" fill="white">
<rect x="0.166992" width="160" height="160" rx="8"/>
</mask>
<rect x="0.166992" width="160" height="160" rx="8" stroke="url(#paint0_linear)" stroke-opacity="0.5" stroke-width="60" mask="url(#path-1-inside-1)"/>
<circle cx="92.8951" cy="83.728" r="63.7718" stroke="#D7BF6A" stroke-width="7"/>
<path fill-rule="evenodd" clip-rule="evenodd" d="M60.245 140.757C64.7545 136.757 69.4663 129.103 69.5296 128.996C70.5814 127.22 70.4974 124.49 70.2785 121.104C70.263 120.863 70.2451 120.59 70.2286 120.337L70.228 120.328L70.2277 120.323C70.2009 119.912 70.1779 119.56 70.1748 119.502C70.7328 117.047 65.6912 108.573 64.1703 106.443C64.2227 105.589 64.9696 103.502 65.4344 102.203L65.4427 102.18C65.9776 100.687 66.5307 99.1417 66.8483 97.736C67.8013 93.5865 63.4955 90.4098 59.6966 87.6083L59.6812 87.597C58.3784 86.635 57.1493 85.7275 56.482 85.0225C53.5407 81.9182 50.3113 84.6868 48.9336 85.8719C48.4546 86.285 47.6777 86.9516 47.2794 87.108C45.9857 86.127 46.2375 83.7831 46.7691 80.3282C46.9173 79.3752 47.0621 78.4271 47.1527 77.5103C47.7057 71.8959 36.9756 68.4509 30.53 66.8988C30.228 66.8274 29.9283 66.819 29.6385 66.8582C29.2456 68.3423 28.9032 69.8468 28.6132 71.3699C28.841 71.5178 29.0972 71.6314 29.3762 71.6984C35.4136 73.1567 41.4461 75.7376 42.2263 77.1762C42.1429 77.9525 42.019 78.7548 41.8948 79.559L41.8948 79.559L41.8921 79.576L41.8915 79.58C41.2925 83.472 40.547 88.3154 44.4072 91.1258C47.652 93.4809 50.5748 90.9735 52.1509 89.6214L52.1548 89.6181L52.1744 89.6012L52.1745 89.6012C52.4868 89.333 52.9022 88.9762 53.2213 88.7474C54.1613 89.6612 55.418 90.5897 56.738 91.565L56.7651 91.585C58.1247 92.5874 62.2643 95.6423 62.0339 96.6431C61.7813 97.7599 61.282 99.1529 60.7981 100.503L60.7981 100.503L60.7928 100.518C59.4711 104.203 58.3304 107.386 60.2513 109.413C61.2487 110.504 64.7678 117.195 65.2797 118.931C65.232 119.507 65.2748 120.241 65.3505 121.425C65.4344 122.71 65.6287 125.721 65.2863 126.471C62.9792 130.327 58.108 136.609 55.8917 137.99C57.3038 138.967 58.7559 139.89 60.245 140.757ZM81.6761 18.9068C79.526 21.1331 77.4561 24.4698 76.8262 30.1607C76.6258 31.9791 76.3689 33.6072 76.1418 35.0465L76.1418 35.0468L76.1349 35.0904C75.2049 40.9632 74.4708 45.6048 81.1452 48.5775C85.2839 50.4222 88.08 50.7171 90.5453 50.9771L90.547 50.9773C92.0267 51.1337 93.304 51.2686 94.7952 51.7213C95.1261 51.8233 95.8585 52.7401 95.4668 59.0458L95.4654 59.0688C95.3574 60.847 95.2728 62.24 95.717 63.2299C96.2931 66.5893 99.5932 81.436 114.009 89.73C112.35 91.2673 108.119 93.7725 104.534 94.4589C103.402 94.6762 102.281 94.8177 101.191 94.9527C97.0058 95.4761 92.2588 96.0719 90.2293 101.663C89.4195 103.884 89.9067 105.436 90.4581 106.348C91.8983 108.728 95.0092 109.144 97.5111 109.478C98.2156 109.572 99.2624 109.714 99.6327 109.854C102.388 111.984 107.01 114.494 111.383 114.494C113.538 114.494 115.63 113.885 117.408 112.321C118.894 111.015 122.875 111.056 126.113 111.089L126.232 111.09C130.384 111.142 133.982 111.187 136.03 109.116C136.93 108.203 137.393 106.996 137.362 105.624C137.246 101.077 141.51 98.475 148.543 94.7305C152.179 92.7931 156.07 90.7177 159.1 87.9172C159.185 86.545 159.229 85.1615 159.229 83.7679C159.229 82.2761 159.179 80.7957 159.081 79.3286C157.479 84.3626 152.004 87.2907 146.227 90.3687C139.376 94.0161 132.297 97.787 132.422 105.707C131.532 106.218 128.281 106.18 126.297 106.15L126.204 106.149C121.906 106.107 117.059 106.058 114.152 108.611C111.039 111.343 104.6 107.464 102.586 105.89C101.479 105.028 99.9532 104.823 98.1845 104.585L98.1711 104.583C97.2296 104.458 95.3351 104.205 94.7475 103.818C94.7607 103.726 94.7919 103.576 94.8759 103.352C95.8371 100.7 97.5884 100.379 101.81 99.8527C102.977 99.7062 104.179 99.5548 105.469 99.3095C109.935 98.452 118.884 94.0918 119.528 89.8222C119.766 88.2388 119.012 86.8166 117.505 86.0167C102.791 78.2428 100.54 62.1106 100.522 61.9526L100.349 60.5618L100.332 60.5552C100.352 60.1651 100.377 59.724 100.4 59.3503C100.653 55.2815 101.071 48.4738 96.2404 46.9973C94.2982 46.4048 92.6571 46.232 91.0704 46.0657C88.7644 45.8238 86.5868 45.5933 83.1615 44.0659C80.1247 42.7129 80.0671 41.8685 81.0168 35.8607C81.2555 34.3579 81.5254 32.6544 81.7394 30.7022C82.4603 24.1743 85.3359 22.0148 87.8739 20.1104C88.534 19.6133 89.1496 19.1459 89.6862 18.6636C89.915 18.4565 90.0795 18.2123 90.2035 17.9512C87.3082 18.0868 84.4618 18.4093 81.6761 18.9068Z" fill="#D7BF6A"/>
<path d="M109.183 67.1686C106.039 64.2388 101.115 64.4126 98.1855 67.5567L101.812 70.9356L98.1855 67.5567C95.2557 70.7009 95.4295 75.6248 98.5736 78.5545L107.776 87.1295C110.92 90.0593 115.844 89.8855 118.774 86.7414C121.704 83.5972 121.53 78.6733 118.386 75.7435L109.183 67.1686ZM86.7096 70.6115L83.3309 74.2972L86.7096 70.6115C83.5416 67.7075 78.6193 67.9215 75.7153 71.0895C72.8113 74.2574 73.0253 79.1797 76.1933 82.0837L93.8108 98.2332C96.9787 101.137 101.901 100.923 104.805 97.7552C107.709 94.5873 107.495 89.6649 104.327 86.761L86.7096 70.6115ZM85.8707 93.1959C82.7266 90.2661 77.8027 90.4399 74.8729 93.584C71.9432 96.7282 72.1169 101.652 75.2611 104.582L84.4634 113.157C87.6076 116.087 92.5315 115.913 95.4613 112.769C98.391 109.625 98.2173 104.701 95.0731 101.771L85.8707 93.1959Z" fill="#9AC8DE" stroke="#B69E49" stroke-width="10"/>
<circle cx="128.059" cy="118.892" r="28.6083" stroke="white" stroke-width="7"/>
<defs>
<linearGradient id="paint0_linear" x1="80.167" y1="0" x2="80.167" y2="160" gradientUnits="userSpaceOnUse">
<stop stop-color="#D7BF6A"/>
<stop offset="1" stop-color="#D7BF6A" stop-opacity="0"/>
</linearGradient>
</defs>
</svg>
