<svg width="169" height="161" viewBox="0 0 169 161" fill="none" xmlns="http://www.w3.org/2000/svg">
<rect x="92.8236" y="41.7798" width="50.4783" height="35.9798" fill="#75ADB5"/>
<path d="M112.329 101.295C104.816 100.549 98.0519 97.93 92.1236 93.4705C83.1396 86.7126 77.5597 76.6805 76.4725 65.3318C76.2179 62.6739 76.3287 58.7533 76.7373 55.9648C78.7032 42.5482 87.5384 30.9633 99.9918 25.4731C103.123 24.0925 106.818 23.0255 110.167 22.5348C113.809 22.0013 118.164 22.0013 121.805 22.5348C135.222 24.5008 146.807 33.336 152.297 45.7894C153.678 48.9209 154.745 52.616 155.235 55.9648C155.769 59.6061 155.769 63.9616 155.235 67.6029C153.724 77.9179 148.082 87.3488 139.68 93.6041C133.779 97.9977 127.014 100.581 119.534 101.298C117.891 101.455 113.927 101.454 112.329 101.295ZM106.183 68.4482V66.8698C106.183 64.1084 103.945 61.8698 101.183 61.8698H100.68H100.176C97.4149 61.8698 95.1763 64.1084 95.1763 66.8698V68.4482V70.0266C95.1763 72.788 97.4149 75.0266 100.176 75.0266H100.68H101.183C103.945 75.0266 106.183 72.788 106.183 70.0266V68.4482ZM121.49 61.8268V57.309C121.49 54.5475 119.251 52.309 116.49 52.309H115.986H115.483C112.721 52.309 110.483 54.5475 110.483 57.309V61.8268V70.0266C110.483 72.788 112.721 75.0266 115.483 75.0266H115.986H116.49C119.251 75.0266 121.49 72.788 121.49 70.0266V61.8268ZM137.312 68.4482V53.9834C137.312 51.222 135.074 48.9834 132.312 48.9834H131.809H131.305C128.544 48.9834 126.305 51.222 126.305 53.9834V68.4482V70.0266C126.305 72.788 128.544 75.0266 131.305 75.0266H131.809H132.312C135.074 75.0266 137.312 72.788 137.312 70.0266V68.4482Z" fill="#53808A"/>
<path d="M90.8698 84.3221C85.5314 84.3221 80.9896 87.6901 79.2235 92.4124H66.915C65.4638 84.9668 58.9119 79.3434 51.0407 79.3434C49.2484 79.3434 47.5282 79.6471 45.9164 80.1848L41.3958 72.9621C43.5117 70.7304 44.8174 67.7233 44.8174 64.4075C44.8174 57.5345 39.245 51.9609 32.3708 51.9609C25.4978 51.9609 19.9242 57.5345 19.9242 64.4075C19.9242 71.2793 25.4978 76.8541 32.3708 76.8541C33.6814 76.8541 34.941 76.65 36.1284 76.2741L40.5021 83.2616C37.0532 86.2301 34.8601 90.6176 34.8601 95.524C34.8601 100.564 37.1665 105.064 40.7785 108.032L36.3375 114.851C35.0904 114.43 33.7586 114.194 32.3708 114.194C25.4978 114.194 19.9242 119.767 19.9242 126.64C19.9242 133.512 25.4978 139.087 32.3708 139.087C39.245 139.087 44.8174 133.512 44.8174 126.64C44.8174 123.404 43.5715 120.466 41.5477 118.253L46.2786 110.99C47.7846 111.453 49.3828 111.705 51.0407 111.705C58.9119 111.705 65.4638 106.081 66.915 98.6356H78.5787C79.4811 104.621 84.6315 109.215 90.8698 109.215C97.744 109.215 103.316 103.64 103.316 96.7687C103.316 89.8957 97.744 84.3221 90.8698 84.3221ZM51.0407 105.481C45.5505 105.481 41.0834 101.014 41.0834 95.524C41.0834 90.0338 45.5505 85.5667 51.0407 85.5667C56.5309 85.5667 60.9979 90.0338 60.9979 95.524C60.9979 101.014 56.5309 105.481 51.0407 105.481Z" fill="#D2B552"/>
<path d="M12.4562 109.215C19.3303 109.215 24.9028 103.643 24.9028 96.7686C24.9028 89.8945 19.3303 84.322 12.4562 84.322C5.58217 84.322 0.00964355 89.8945 0.00964355 96.7686C0.00964355 103.643 5.58217 109.215 12.4562 109.215Z" fill="#53808A"/>
<path d="M69.7104 76.8541C76.5844 76.8541 82.157 71.2816 82.157 64.4075C82.157 57.5335 76.5844 51.9609 69.7104 51.9609C62.8363 51.9609 57.2638 57.5335 57.2638 64.4075C57.2638 71.2816 62.8363 76.8541 69.7104 76.8541Z" fill="#75ADB5"/>
<path d="M69.7104 139.087C76.5844 139.087 82.157 133.514 82.157 126.64C82.157 119.766 76.5844 114.194 69.7104 114.194C62.8363 114.194 57.2638 119.766 57.2638 126.64C57.2638 133.514 62.8363 139.087 69.7104 139.087Z" fill="#75ADB5"/>
</svg>
