<svg xmlns="http://www.w3.org/2000/svg" fill="none" viewBox="0 0 160 161"><defs/><path fill="url(#paint0_linear)" fill-opacity=".5" fill-rule="evenodd" d="M30 30.61v100.001h100v-100H30zM8 .61a8 8 0 00-8 8v144.001a8 8 0 008 8h144a8 8 0 008-8v-144a8 8 0 00-8-8H8z" clip-rule="evenodd"/><path fill="#D7BF6A" fill-rule="evenodd" d="M92.728 144.611c30.29 0 55.361-22.344 59.631-51.448-1.326.762-2.671 1.48-3.983 2.178-7.034 3.745-11.297 6.347-11.181 10.893.031 1.373-.432 2.579-1.332 3.493-2.048 2.071-5.646 2.026-9.798 1.973l-.119-.001c-3.238-.033-7.219-.073-8.705 1.233-1.778 1.563-3.87 2.172-6.025 2.172-3.317 0-6.778-1.444-9.458-3.071.593-1.827.763-3.758.514-5.641.05.035.098.071.147.109 2.014 1.573 8.453 5.453 11.566 2.721 2.907-2.553 7.754-2.505 12.052-2.462l.093.001c1.984.03 5.235.067 6.125-.443-.125-7.92 6.954-11.691 13.805-15.339 2.437-1.298 4.821-2.57 6.882-3.985.039-.88.058-1.765.058-2.655 0-33.287-26.985-60.272-60.272-60.272-3.086 0-6.118.232-9.08.68-.98 1.546-1.749 3.608-2.076 6.566-.214 1.952-.484 3.656-.722 5.158-.95 6.008-.892 6.853 2.145 8.206 3.425 1.527 5.602 1.758 7.908 2 1.587.166 3.228.339 5.17.931 4.831 1.477 4.413 8.284 4.16 12.353-.023.374-.048.815-.068 1.205l.017.007.001.012a12.7 12.7 0 00-4.697 2.502c-.372-.978-.29-2.32-.188-4.008l.002-.022c.392-6.306-.341-7.223-.672-7.325-1.491-.453-2.768-.588-4.248-.744h-.002c-2.465-.26-5.261-.555-9.4-2.4-6.674-2.972-5.94-7.614-5.01-13.487l.007-.044c.227-1.44.484-3.067.684-4.886.203-1.833.555-3.422 1.012-4.808C56.697 31.357 40.14 47.757 34.52 68.64c6.054 1.853 12.91 4.965 12.465 9.481-.09.917-.236 1.865-.384 2.818-.532 3.455-.783 5.799.51 6.78.399-.157 1.176-.823 1.654-1.236 1.378-1.186 4.608-3.954 7.549-.85.667.705 1.896 1.613 3.2 2.575l.014.011c3.8 2.802 8.105 5.978 7.152 10.128-.317 1.405-.87 2.951-1.405 4.444l-.009.023c-.464 1.299-1.211 3.386-1.264 4.24 1.521 2.13 6.563 10.603 6.005 13.059l.052.813.002.022.05.767c.218 3.385.302 6.116-.75 7.892-.045.076-2.451 3.986-5.463 7.675 8.564 4.673 18.386 7.329 28.83 7.329zM32.456 84.339c0-3.7.333-7.32.971-10.835 4.382 1.422 8.037 3.185 8.632 4.283-.083.776-.207 1.579-.331 2.383l-.004.02c-.599 3.893-1.344 8.736 2.516 11.547 3.245 2.355 6.168-.153 7.744-1.505l.023-.02c.313-.268.728-.625 1.047-.854.94.914 2.197 1.842 3.517 2.818l.027.02c1.36 1.002 5.5 4.057 5.269 5.058-.253 1.117-.752 2.51-1.236 3.86l-.005.014c-1.322 3.686-2.463 6.869-.542 8.895.998 1.092 4.517 7.782 5.029 9.519-.048.576-.005 1.31.07 2.494.084 1.285.279 4.295-.064 5.046-1.32 2.206-3.479 5.206-5.5 7.628-16.363-10.777-27.163-29.313-27.163-50.371zm60.272 67.272c37.153 0 67.272-30.119 67.272-67.272 0-37.153-30.119-67.272-67.272-67.272-37.153 0-67.272 30.119-67.272 67.272 0 37.153 30.119 67.272 67.272 67.272z" clip-rule="evenodd"/><path fill="#fff" fill-rule="evenodd" d="M127.892 144.611c13.867 0 25.108-11.241 25.108-25.108s-11.241-25.109-25.108-25.109-25.109 11.242-25.109 25.109 11.242 25.108 25.109 25.108zm0 7c17.733 0 32.108-14.375 32.108-32.108 0-17.733-14.375-32.109-32.108-32.109-17.733 0-32.109 14.376-32.109 32.109 0 17.733 14.376 32.108 32.109 32.108z" clip-rule="evenodd"/><path fill="#9AC8DE" fill-rule="evenodd" d="M101.676 71.576a2.783 2.783 0 013.932-.139l9.202 8.575a2.782 2.782 0 01-3.792 4.07l-9.203-8.575a2.782 2.782 0 01-.139-3.93zM79.234 75.08a2.781 2.781 0 013.93-.171l17.617 16.15a2.781 2.781 0 11-3.759 4.1l-17.617-16.15a2.782 2.782 0 01-.171-3.93zm-.87 22.524a2.782 2.782 0 013.931-.138l9.202 8.575a2.781 2.781 0 11-3.792 4.069l-9.202-8.574a2.782 2.782 0 01-.14-3.932z" clip-rule="evenodd"/><defs><linearGradient id="paint0_linear" x1="80" x2="80" y1=".611" y2="160.611" gradientUnits="userSpaceOnUse"><stop stop-color="#D7BF6A"/><stop offset="1" stop-color="#D7BF6A" stop-opacity="0"/></linearGradient></defs></svg>