<svg width="161" height="161" viewBox="0 0 161 161" fill="none" xmlns="http://www.w3.org/2000/svg">
<path fill-rule="evenodd" clip-rule="evenodd" d="M30.2077 30.6108V130.611H130.208V30.6108H30.2077ZM8.2077 0.61084C3.78942 0.61084 0.207703 4.19256 0.207703 8.61084V152.611C0.207703 157.029 3.78943 160.611 8.2077 160.611H152.208C156.626 160.611 160.208 157.029 160.208 152.611V8.61084C160.208 4.19256 156.626 0.61084 152.208 0.61084H8.2077Z" fill="#477079" fill-opacity="0.7"/>
<path fill-rule="evenodd" clip-rule="evenodd" d="M30.2077 30.6108V130.611H130.208V30.6108H30.2077ZM8.2077 0.61084C3.78942 0.61084 0.207703 4.19256 0.207703 8.61084V152.611C0.207703 157.029 3.78943 160.611 8.2077 160.611H152.208C156.626 160.611 160.208 157.029 160.208 152.611V8.61084C160.208 4.19256 156.626 0.61084 152.208 0.61084H8.2077Z" fill="url(#paint0_linear)"/>
<rect x="37.5927" y="31.8549" width="120.44" height="75.1996" fill="#137C69"/>
<path d="M101.951 43.197H142.686C143.239 43.197 143.686 43.6447 143.686 44.197V46.0974C143.686 46.6497 143.239 47.0974 142.686 47.0974H101.951C101.399 47.0974 100.951 46.6497 100.951 46.0974V44.197C100.951 43.6447 101.399 43.197 101.951 43.197Z" fill="#1F3239"/>
<path d="M142.686 59.4014H101.951C101.399 59.4014 100.951 59.8491 100.951 60.4014V62.3018C100.951 62.8541 101.399 63.3018 101.951 63.3018H142.686C143.239 63.3018 143.686 62.8541 143.686 62.3018V60.4014C143.686 59.8491 143.239 59.4014 142.686 59.4014Z" fill="#1F3239"/>
<path d="M142.686 67.5044H101.951C101.399 67.5044 100.951 67.9521 100.951 68.5044V70.4048C100.951 70.9571 101.399 71.4048 101.951 71.4048H142.686C143.239 71.4048 143.686 70.9571 143.686 70.4048V68.5044C143.686 67.9521 143.239 67.5044 142.686 67.5044Z" fill="#1F3239"/>
<path d="M142.686 51.2979H101.951C101.399 51.2979 100.951 51.7456 100.951 52.2979V54.1983C100.951 54.7506 101.399 55.1983 101.951 55.1983H142.686C143.239 55.1983 143.686 54.7506 143.686 54.1983V52.2979C143.686 51.7456 143.239 51.2979 142.686 51.2979Z" fill="#1F3239"/>
<path d="M101.951 75.6055H142.686C143.239 75.6055 143.686 76.0532 143.686 76.6055V78.5059C143.686 79.0582 143.239 79.5059 142.686 79.5059H101.951C101.399 79.5059 100.951 79.0582 100.951 78.5059V76.6055C100.951 76.0532 101.399 75.6055 101.951 75.6055Z" fill="#1F3239"/>
<path d="M142.686 83.7085H101.951C101.399 83.7085 100.951 84.1562 100.951 84.7085V86.6089C100.951 87.1612 101.399 87.6089 101.951 87.6089H142.686C143.239 87.6089 143.686 87.1612 143.686 86.6089V84.7085C143.686 84.1562 143.239 83.7085 142.686 83.7085Z" fill="#1F3239"/>
<path d="M101.951 91.8096H142.686C143.239 91.8096 143.686 92.2573 143.686 92.8096V94.71C143.686 95.2623 143.239 95.71 142.686 95.71H101.951C101.399 95.71 100.951 95.2623 100.951 94.71V92.8096C100.951 92.2573 101.399 91.8096 101.951 91.8096Z" fill="#1F3239"/>
<path fill-rule="evenodd" clip-rule="evenodd" d="M39.8222 29.76H155.801C158.237 29.76 160.218 31.6927 160.22 34.07L160.22 117.738C160.22 119.947 158.43 121.738 156.22 121.738H116.189C115.651 121.813 115.26 122.314 115.34 122.87L117.015 134.581C117.086 135.074 117.508 135.44 118.005 135.44H125.212C125.765 135.44 126.212 135.888 126.212 136.44V140.856C126.212 141.408 125.765 141.856 125.212 141.856H70.4127C69.8604 141.856 69.4127 141.408 69.4127 140.856V136.44C69.4127 135.888 69.8604 135.44 70.4127 135.44H77.6199C78.1175 135.44 78.5393 135.074 78.6098 134.581L80.2856 122.87C80.365 122.314 79.9743 121.813 79.4363 121.738H39.405C37.1958 121.738 35.405 119.947 35.405 117.738V34.07C35.405 31.6927 37.3864 29.76 39.8222 29.76ZM156.087 104.886H39.5366C39.3922 104.713 39.3054 104.49 39.3054 104.247V34.07C39.3054 33.8749 39.518 33.6604 39.8222 33.6604H155.801C156.105 33.6604 156.318 33.8749 156.318 34.07V104.247C156.318 104.49 156.231 104.713 156.087 104.886ZM85.1302 121.738C84.6886 121.793 84.33 122.138 84.2655 122.588L82.5898 134.3C82.5036 134.903 82.971 135.442 83.5797 135.442H112.042C112.65 135.442 113.118 134.903 113.031 134.3L111.356 122.588C111.291 122.138 110.933 121.793 110.491 121.738H85.1302Z" fill="#1F3239"/>
<path d="M50.1789 96.5275V26.8508C50.1789 26.2985 50.6266 25.8508 51.1789 25.8508H87.7663C88.3186 25.8508 88.7663 26.2985 88.7663 26.8508V96.5208C88.7663 97.3642 87.7865 97.8288 87.1335 97.2951L70.1527 83.4174C69.7852 83.1171 69.2572 83.1164 68.889 83.4158L51.8098 97.3034C51.1563 97.8347 50.1789 97.3697 50.1789 96.5275Z" fill="#30C6AB"/>
<path d="M68.6209 43.394C68.9201 42.4725 70.2238 42.4725 70.5231 43.394L72.1803 48.497C72.3142 48.909 72.6981 49.1881 73.1314 49.1881H78.4955C79.4641 49.1881 79.8669 50.4274 79.0834 50.997L74.743 54.152C74.3927 54.4066 74.2461 54.8578 74.3799 55.2697L76.0376 60.374C76.3368 61.2954 75.2821 62.0614 74.4985 61.4918L70.1599 58.3381C69.8094 58.0833 69.3346 58.0833 68.984 58.3381L64.6454 61.4918C63.8618 62.0614 62.8071 61.2954 63.1063 60.374L64.764 55.2697C64.8978 54.8578 64.7512 54.4066 64.4009 54.152L60.0605 50.997C59.277 50.4274 59.6799 49.1881 60.6485 49.1881H66.0125C66.4458 49.1881 66.8298 48.909 66.9636 48.497L68.6209 43.394Z" fill="#137C69"/>
<path d="M68.6209 43.394C68.9201 42.4725 70.2238 42.4725 70.5231 43.394L72.1803 48.497C72.3142 48.909 72.6981 49.1881 73.1314 49.1881H78.4955C79.4641 49.1881 79.8669 50.4274 79.0834 50.997L74.743 54.152C74.3927 54.4066 74.2461 54.8578 74.3799 55.2697L76.0376 60.374C76.3368 61.2954 75.2821 62.0614 74.4985 61.4918L70.1599 58.3381C69.8094 58.0833 69.3346 58.0833 68.984 58.3381L64.6454 61.4918C63.8618 62.0614 62.8071 61.2954 63.1063 60.374L64.764 55.2697C64.8978 54.8578 64.7512 54.4066 64.4009 54.152L60.0605 50.997C59.277 50.4274 59.6799 49.1881 60.6485 49.1881H66.0125C66.4458 49.1881 66.8298 48.909 66.9636 48.497L68.6209 43.394Z" fill="url(#paint1_linear)" fill-opacity="0.33"/>
<defs>
<linearGradient id="paint0_linear" x1="80.2077" y1="0.61084" x2="80.2077" y2="160.611" gradientUnits="userSpaceOnUse">
<stop stop-color="#3C5A63" stop-opacity="0"/>
<stop offset="0.760417" stop-color="#37535B"/>
</linearGradient>
<linearGradient id="paint1_linear" x1="69.572" y1="42.7029" x2="69.572" y2="61.6874" gradientUnits="userSpaceOnUse">
<stop stop-color="#1F3239"/>
<stop offset="1" stop-color="#1F3239" stop-opacity="0"/>
</linearGradient>
</defs>
</svg>
