<svg width="161" height="161" viewBox="0 0 161 161" fill="none" xmlns="http://www.w3.org/2000/svg">
<path d="M24.5336 32.8549H75.0119V68.8347H24.5336V32.8549Z" fill="#30C6AB"/>
<path d="M44.0387 92.3701C36.5256 91.6243 29.7619 89.0051 23.8336 84.5456C14.8496 77.7877 9.26964 67.7556 8.18244 56.4069C7.92782 53.749 8.03867 49.8284 8.44727 47.0399C10.4132 33.6233 19.2484 22.0384 31.7018 16.5482C34.8333 15.1676 38.5284 14.1006 41.8772 13.6099C45.5185 13.0763 49.874 13.0763 53.5153 13.6099C66.9319 15.5758 78.5168 24.4111 84.007 36.8645C85.3876 39.996 86.4546 43.6911 86.9453 47.0399C87.4788 50.6812 87.4788 55.0366 86.9453 58.6779C85.4338 68.993 79.7918 78.4239 71.3902 84.6792C65.4891 89.0727 58.7243 91.6562 51.2442 92.3727C49.6006 92.5302 45.6371 92.5287 44.0387 92.3701ZM37.8932 59.5233V57.9449C37.8932 55.1835 35.6546 52.9449 32.8932 52.9449H32.3897H31.8863C29.1249 52.9449 26.8863 55.1835 26.8863 57.9449V59.5233V61.1016C26.8863 63.8631 29.1249 66.1016 31.8863 66.1016H32.3897H32.8932C35.6546 66.1016 37.8932 63.8631 37.8932 61.1016V59.5233ZM53.1997 52.9019V48.384C53.1997 45.6226 50.9612 43.384 48.1997 43.384H47.6963H47.1928C44.4314 43.384 42.1928 45.6226 42.1928 48.384V52.9019V61.1017C42.1928 63.8631 44.4314 66.1016 47.1928 66.1016H47.6963H48.1997C50.9612 66.1016 53.1997 63.8631 53.1997 61.1016V52.9019ZM69.0222 59.5233V45.0585C69.0222 42.2971 66.7836 40.0585 64.0222 40.0585H63.5187H63.0153C60.2538 40.0585 58.0153 42.2971 58.0153 45.0585V59.5233V61.1016C58.0153 63.8631 60.2538 66.1016 63.0153 66.1016H63.5187H64.0222C66.7836 66.1016 69.0222 63.8631 69.0222 61.1016V59.5233Z" fill="#2D464F"/>
<path d="M103.439 136.255L127.409 122.558C128.795 123.749 130.573 124.497 132.538 124.497C136.894 124.497 140.44 120.951 140.44 116.594C140.44 113.165 138.23 110.267 135.172 109.177V87.1327C138.23 86.0422 140.44 83.1448 140.44 79.7152C140.44 75.3585 136.894 71.8131 132.538 71.8131C130.573 71.8131 128.795 72.5612 127.412 73.7518L103.423 60.0442C103.503 59.5912 103.563 59.1249 103.563 58.6455C103.563 54.2888 100.018 50.7434 95.661 50.7434C91.3043 50.7434 87.7589 54.2888 87.7589 58.6455C87.7589 59.1249 87.8194 59.5912 87.9011 60.0468L63.9129 73.7544C62.5274 72.5638 60.7494 71.8157 58.7844 71.8157C54.4277 71.8157 50.8823 75.3612 50.8823 79.7179C50.8823 83.1474 53.0922 86.0448 56.1503 87.1353V109.18C53.0922 110.27 50.8823 113.168 50.8823 116.597C50.8823 120.954 54.4277 124.499 58.7844 124.499C60.7494 124.499 62.5274 123.751 63.9102 122.561L87.8827 136.258C88.4753 140.03 91.7231 142.935 95.661 142.935C99.5989 142.935 102.847 140.03 103.439 136.255ZM98.295 127.615V108.205C101.353 107.115 103.563 104.217 103.563 100.788C103.563 100.308 103.503 99.8419 103.421 99.3863L127.409 85.6787C128.139 86.3082 128.976 86.8008 129.901 87.1327V109.177C126.843 110.267 124.633 113.165 124.633 116.594C124.633 117.074 124.693 117.54 124.775 117.996L102.322 130.826C101.387 129.343 99.9729 128.213 98.295 127.615ZM88.9968 130.826L66.5443 117.996C66.6259 117.54 66.6865 117.074 66.6865 116.594C66.6865 113.165 64.4766 110.267 61.4184 109.177V87.1327C62.343 86.8034 63.1806 86.3082 63.9102 85.6787L87.8985 99.3863C87.8194 99.8446 87.7589 100.311 87.7589 100.79C87.7589 104.22 89.9688 107.117 93.0269 108.208V127.618C91.349 128.213 89.9346 129.343 88.9968 130.826ZM124.778 81.1192L100.789 94.8267C99.4039 93.6361 97.626 92.8881 95.661 92.8881C93.696 92.8881 91.918 93.6361 90.5351 94.8267L66.5469 81.1192C66.6259 80.6635 66.6865 80.1973 66.6865 79.7179C66.6865 79.2385 66.6259 78.7722 66.5443 78.3166L90.5325 64.609C91.918 65.7996 93.696 66.5477 95.661 66.5477C97.626 66.5477 99.4039 65.7996 100.787 64.609L124.775 78.3166C124.696 78.7722 124.635 79.2385 124.635 79.7179C124.635 80.1973 124.696 80.6635 124.778 81.1192ZM95.661 103.424C94.2096 103.424 93.0269 102.242 93.0269 100.79C93.0269 99.3388 94.2096 98.1562 95.661 98.1562C97.1123 98.1562 98.295 99.3388 98.295 100.79C98.295 102.242 97.1123 103.424 95.661 103.424ZM132.538 119.228C131.086 119.228 129.904 118.046 129.904 116.594C129.904 115.143 131.086 113.96 132.538 113.96C133.989 113.96 135.172 115.143 135.172 116.594C135.172 118.046 133.989 119.228 132.538 119.228ZM132.538 77.0838C133.989 77.0838 135.172 78.2665 135.172 79.7179C135.172 81.1692 133.989 82.3519 132.538 82.3519C131.086 82.3519 129.904 81.1692 129.904 79.7179C129.904 78.2665 131.086 77.0838 132.538 77.0838ZM95.661 56.0115C97.1123 56.0115 98.295 57.1942 98.295 58.6455C98.295 60.0969 97.1123 61.2796 95.661 61.2796C94.2096 61.2796 93.0269 60.0969 93.0269 58.6455C93.0269 57.1942 94.2096 56.0115 95.661 56.0115ZM58.7844 77.0838C60.2357 77.0838 61.4184 78.2665 61.4184 79.7179C61.4184 81.1692 60.2357 82.3519 58.7844 82.3519C57.333 82.3519 56.1503 81.1692 56.1503 79.7179C56.1503 78.2665 57.333 77.0838 58.7844 77.0838ZM58.7844 119.228C57.333 119.228 56.1503 118.046 56.1503 116.594C56.1503 115.143 57.333 113.96 58.7844 113.96C60.2357 113.96 61.4184 115.143 61.4184 116.594C61.4184 118.046 60.2357 119.228 58.7844 119.228ZM95.661 137.667C94.2096 137.667 93.0269 136.484 93.0269 135.033C93.0269 133.581 94.2096 132.399 95.661 132.399C97.1123 132.399 98.295 133.581 98.295 135.033C98.295 136.484 97.1123 137.667 95.661 137.667Z" fill="#53808A"/>
<path d="M104.104 59.1865C104.104 63.8495 100.324 67.6296 95.6608 67.6296C90.9978 67.6296 87.2177 63.8495 87.2177 59.1865C87.2177 54.5235 90.9978 50.7434 95.6608 50.7434C100.324 50.7434 104.104 54.5235 104.104 59.1865Z" fill="#30C6AB"/>
<path d="M66.6193 79.6227C66.6193 84.2857 62.8392 88.0658 58.1762 88.0658C53.5132 88.0658 49.7331 84.2857 49.7331 79.6227C49.7331 74.9597 53.5132 71.1796 58.1762 71.1796C62.8392 71.1796 66.6193 74.9597 66.6193 79.6227Z" fill="#466671"/>
<path d="M67.1657 117.107C67.1657 121.77 63.3856 125.55 58.7226 125.55C54.0596 125.55 50.2795 121.77 50.2795 117.107C50.2795 112.444 54.0596 108.664 58.7226 108.664C63.3856 108.664 67.1657 112.444 67.1657 117.107Z" fill="#378E7F"/>
<path d="M104.104 135.358C104.104 140.021 100.324 143.801 95.6606 143.801C90.9976 143.801 87.2175 140.021 87.2175 135.358C87.2175 130.695 90.9976 126.915 95.6606 126.915C100.324 126.915 104.104 130.695 104.104 135.358Z" fill="#466671"/>
<path d="M140.44 116.452C140.44 121.115 136.659 124.895 131.997 124.895C127.334 124.895 123.553 121.115 123.553 116.452C123.553 111.789 127.334 108.008 131.997 108.008C136.659 108.008 140.44 111.789 140.44 116.452Z" fill="#30C6AB"/>
<path d="M141.314 79.6227C141.314 84.2857 137.534 88.0658 132.871 88.0658C128.208 88.0658 124.428 84.2857 124.428 79.6227C124.428 74.9597 128.208 71.1796 132.871 71.1796C137.534 71.1796 141.314 74.9597 141.314 79.6227Z" fill="#378E7F"/>
<path d="M104.104 100.933C104.104 105.596 100.324 109.376 95.6606 109.376C90.9976 109.376 87.2175 105.596 87.2175 100.933C87.2175 96.2701 90.9976 92.49 95.6606 92.49C100.324 92.49 104.104 96.2701 104.104 100.933Z" fill="#30C6AB"/>
</svg>
