<svg width="161" height="161" viewBox="0 0 161 161" fill="none" xmlns="http://www.w3.org/2000/svg">
<path fill-rule="evenodd" clip-rule="evenodd" d="M30.4404 30.6108V130.611H130.44V30.6108H30.4404ZM8.44043 0.61084C4.02215 0.61084 0.44043 4.19256 0.44043 8.61084V152.611C0.44043 157.029 4.02215 160.611 8.44043 160.611H152.44C156.859 160.611 160.44 157.029 160.44 152.611V8.61084C160.44 4.19256 156.859 0.61084 152.44 0.61084H8.44043Z" fill="#BAD0DB"/>
<path fill-rule="evenodd" clip-rule="evenodd" d="M30.4404 30.6108V130.611H130.44V30.6108H30.4404ZM8.44043 0.61084C4.02215 0.61084 0.44043 4.19256 0.44043 8.61084V152.611C0.44043 157.029 4.02215 160.611 8.44043 160.611H152.44C156.859 160.611 160.44 157.029 160.44 152.611V8.61084C160.44 4.19256 156.859 0.61084 152.44 0.61084H8.44043Z" fill="url(#paint0_linear)"/>
<path fill-rule="evenodd" clip-rule="evenodd" d="M63.6091 54.1989C63.6091 53.0943 64.5045 52.1989 65.6091 52.1989H103.407C104.511 52.1989 105.407 53.0943 105.407 54.1989V91.8913C105.407 92.9958 104.511 93.8913 103.407 93.8913H65.6091C64.5045 93.8913 63.6091 92.9958 63.6091 91.8913V54.1989ZM113.766 54.1989C113.766 53.0943 114.662 52.1989 115.766 52.1989H128.486C129.59 52.1989 130.486 53.0943 130.486 54.1989V91.8913C130.486 92.9958 129.59 93.8913 128.486 93.8913H115.766C114.662 93.8913 113.766 92.9958 113.766 91.8913V54.1989ZM38.5306 54.1984C38.5306 53.0938 39.4261 52.1984 40.5306 52.1984H53.2499C54.3545 52.1984 55.2499 53.0938 55.2499 54.1984V91.8908C55.2499 92.9954 54.3545 93.8908 53.2499 93.8908H40.5306C39.4261 93.8908 38.5306 92.9954 38.5306 91.8908V54.1984ZM88.688 104.229C88.688 103.125 89.5834 102.229 90.688 102.229H128.486C129.59 102.229 130.486 103.125 130.486 104.229V116.907C130.486 118.011 129.59 118.907 128.486 118.907H90.688C89.5834 118.907 88.688 118.011 88.688 116.907V104.229ZM38.5306 104.229C38.5306 103.125 39.4261 102.229 40.5306 102.229H78.3283C79.4329 102.229 80.3283 103.125 80.3283 104.229V116.907C80.3283 118.011 79.4329 118.907 78.3283 118.907H40.5306C39.4261 118.907 38.5306 118.011 38.5306 116.907V104.229ZM38.5306 29.1831C38.5306 28.0786 39.4261 27.1831 40.5306 27.1831H128.486C129.59 27.1831 130.486 28.0786 130.486 29.1831V41.8603C130.486 42.9649 129.59 43.8603 128.486 43.8603H40.5306C39.4261 43.8603 38.5306 42.9649 38.5306 41.8603V29.1831Z" fill="#E6EFF4"/>
<path d="M50.643 40.9693C39.7352 40.9693 30.8635 49.8365 30.8635 60.7389C30.8635 71.6412 39.7352 80.5084 50.643 80.5084C51.1702 80.5084 51.6792 80.4902 52.1883 80.4539L49.6613 72.7132C43.4802 72.2045 38.6262 67.0259 38.6262 60.7389C38.6262 54.1066 44.0256 48.7281 50.643 48.7281C56.9514 48.7281 62.1326 53.5978 62.6234 59.7577L70.368 62.2834C70.4044 61.7746 70.4225 61.2658 70.4225 60.7389C70.4225 49.8365 61.5508 40.9693 50.643 40.9693Z" fill="#8F92F2"/>
<path d="M50.6429 22.6898C29.6635 22.6898 12.5928 39.7519 12.5928 60.7207C12.5928 81.6895 29.6635 98.7699 50.6429 98.7699C53.1336 98.7699 55.5878 98.5336 57.9512 98.0612L55.5151 90.6295C53.9335 90.8838 52.2973 91.0292 50.6429 91.0292C33.9358 91.0292 20.3373 77.4376 20.3373 60.7389C20.3373 44.0402 33.9358 30.4486 50.6429 30.4486C67.3501 30.4486 80.9485 44.0402 80.9485 60.7389C80.9485 62.3924 80.8213 64.0278 80.5486 65.6086L88.0023 68.0253C88.4568 65.6631 88.7113 63.2283 88.7113 60.7207C88.6931 39.7701 71.6224 22.6898 50.6429 22.6898Z" fill="#9CB9C7"/>
<path d="M97.9465 77.8011L73.8765 83.9609L67.7136 108.019L61.8779 90.1934L60.0781 84.6877L57.642 77.2014L55.8422 71.6958L53.0425 63.1375L61.6052 65.9357L67.1137 67.7346L74.6037 70.1694L80.1122 71.9683L97.9465 77.8011Z" fill="#6164A9"/>
<defs>
<linearGradient id="paint0_linear" x1="80.4404" y1="0.61084" x2="80.4404" y2="160.611" gradientUnits="userSpaceOnUse">
<stop stop-color="#D4DEE3" stop-opacity="0"/>
<stop offset="1" stop-color="#D4DEE3"/>
</linearGradient>
</defs>
</svg>
