<svg width="161" height="161" viewBox="0 0 161 161" fill="none" xmlns="http://www.w3.org/2000/svg">
<path d="M117.704 36.8751H42.6195C40.96 36.8751 39.3685 37.5343 38.1951 38.7077C37.0217 39.8812 36.3625 41.4727 36.3625 43.1321V118.216C36.3625 119.876 37.0217 121.467 38.1951 122.641C39.3685 123.814 40.96 124.473 42.6195 124.473H117.704C119.363 124.473 120.955 123.814 122.128 122.641C123.301 121.467 123.961 119.876 123.961 118.216V43.1321C123.961 41.4727 123.301 39.8812 122.128 38.7077C120.955 37.5343 119.363 36.8751 117.704 36.8751ZM111.447 111.959H48.8765V49.3891H111.447V111.959ZM105.19 30.6181H30.1055V105.702C30.1055 107.362 29.4462 108.953 28.2728 110.127C27.0994 111.3 25.5079 111.959 23.8484 111.959C22.189 111.959 20.5975 111.3 19.4241 110.127C18.2506 108.953 17.5914 107.362 17.5914 105.702V24.3611C17.5914 22.7016 18.2506 21.1101 19.4241 19.9367C20.5975 18.7633 22.189 18.1041 23.8484 18.1041H105.19C106.849 18.1041 108.441 18.7633 109.614 19.9367C110.787 21.1101 111.447 22.7016 111.447 24.3611C111.447 26.0205 110.787 27.612 109.614 28.7855C108.441 29.9589 106.849 30.6181 105.19 30.6181Z" fill="#4C6D76"/>
<path d="M58.7272 80.0477C56.5416 81.3341 54.0401 82.0579 51.4234 82.0579C43.3594 82.0579 36.3893 75.1832 36.3893 66.158C36.3893 57.1328 43.3594 50.2581 51.4234 50.2581C58.2193 50.2581 64.2384 55.1408 65.9633 62.0785C67.6833 60.6787 69.6404 59.5591 71.7651 58.7893C68.8357 50.0381 60.8346 43.7581 51.4234 43.7581C39.5304 43.7581 29.8893 53.7869 29.8893 66.158C29.8893 78.5291 39.5304 88.5579 51.4234 88.5579C54.7144 88.5579 57.8331 87.79 60.6227 86.4169C59.6568 84.4536 59.0033 82.3089 58.7272 80.0477Z" fill="#6A8B9D"/>
<path d="M102.957 78.6615C102.705 81.5253 101.519 84.0175 99.9053 86.3295C97.0716 90.3718 93.6899 93.8661 89.5087 96.5346C88.0787 97.4467 86.5699 98.1936 84.8509 98.4113C83.5185 98.5764 82.2949 98.1898 81.0976 97.6606C79.0314 96.6959 77.1191 95.4311 75.4227 93.9073C72.4819 91.3975 69.9339 88.4611 67.8636 85.196C66.3415 82.8897 65.5166 80.1935 65.4877 77.4304C65.4877 74.0863 66.4336 71.1062 68.907 68.7641C71.8195 66.0055 75.9594 65.4838 79.6451 67.3078C81.2934 68.133 82.7391 69.3121 83.8788 70.7609C83.9726 70.881 84.0702 70.9936 84.1678 71.1099C84.1956 71.1272 84.226 71.1399 84.2579 71.1475C84.682 70.6708 85.0874 70.1716 85.5378 69.7175C87.123 68.0311 89.1969 66.8838 91.4679 66.4371C93.3158 66.0531 95.2372 66.2495 96.9692 66.9993C98.7012 67.749 100.159 69.0156 101.144 70.6257C102.724 73.0804 103.208 75.7865 102.957 78.6615Z" fill="#D2B552"/>
<path d="M79.2377 106.413L61.8806 101.454V85.7991C61.8806 80.5056 57.5862 76.2112 52.2926 76.2112C47.002 76.2112 42.7076 80.5056 42.7076 85.7991V113.405L39.8925 110.592C36.1532 106.847 30.0802 106.853 26.3342 110.592C22.5949 114.337 22.5949 120.408 26.3342 124.15L42.3135 140.131H78.9894L84.1266 114.438C84.8179 110.992 82.6174 107.381 79.2377 106.413ZM73.7505 133.738H44.9674L30.854 119.631C29.6123 118.39 29.6123 116.36 30.854 115.112C32.1033 113.863 34.1311 113.867 35.3804 115.112L47.3927 127.125C48.0227 127.755 49.0999 127.309 49.0999 126.418V85.7991C49.0999 84.033 50.5256 82.6035 52.2926 82.6035C54.0559 82.6035 55.4883 84.033 55.4883 85.7991V106.28L77.9577 112.697L73.7505 133.738Z" fill="#BBD0DB"/>
</svg>
