<svg width="161" height="161" viewBox="0 0 161 161" fill="none" xmlns="http://www.w3.org/2000/svg">
<path fill-rule="evenodd" clip-rule="evenodd" d="M30.4404 30.6108V130.611H130.44V30.6108H30.4404ZM8.44043 0.61084C4.02215 0.61084 0.44043 4.19256 0.44043 8.61084V152.611C0.44043 157.029 4.02215 160.611 8.44043 160.611H152.44C156.859 160.611 160.44 157.029 160.44 152.611V8.61084C160.44 4.19256 156.859 0.61084 152.44 0.61084H8.44043Z" fill="#EBEFF0"/>
<path fill-rule="evenodd" clip-rule="evenodd" d="M30.4404 30.6108V130.611H130.44V30.6108H30.4404ZM8.44043 0.61084C4.02215 0.61084 0.44043 4.19256 0.44043 8.61084V152.611C0.44043 157.029 4.02215 160.611 8.44043 160.611H152.44C156.859 160.611 160.44 157.029 160.44 152.611V8.61084C160.44 4.19256 156.859 0.61084 152.44 0.61084H8.44043Z" fill="url(#paint0_linear)"/>
<path d="M122.591 26.9917H39.7942C31.478 26.9917 24.7109 33.7571 24.7109 42.0733V119.148C24.7109 127.464 31.4764 134.23 39.7942 134.23H122.591C130.907 134.23 137.674 127.464 137.674 119.148V42.0733C137.672 33.7571 130.907 26.9917 122.591 26.9917ZM66.616 45.6442C66.616 43.9874 67.9591 42.6442 69.616 42.6442H69.9574C71.6142 42.6442 72.9574 43.9874 72.9574 45.6442V46.4012C72.9574 48.058 71.6142 49.4012 69.9574 49.4012H69.616C67.9591 49.4012 66.616 48.058 66.616 46.4012V45.6442ZM55.1089 45.6442C55.1089 43.9874 56.452 42.6442 58.1089 42.6442H58.4503C60.1071 42.6442 61.4503 43.9874 61.4503 45.6442V46.4012C61.4503 48.058 60.1071 49.4012 58.4503 49.4012H58.1089C56.452 49.4012 55.1089 48.058 55.1089 46.4012V45.6442ZM43.6 45.6442C43.6 43.9874 44.9432 42.6442 46.6 42.6442H46.9415C48.5983 42.6442 49.9415 43.9874 49.9415 45.6442V46.4012C49.9415 48.058 48.5983 49.4012 46.9415 49.4012H46.6C44.9432 49.4012 43.6 48.058 43.6 46.4012V45.6442ZM127.537 119.148C127.537 121.875 125.319 124.094 122.589 124.094H39.7942C37.0661 124.094 34.8464 121.876 34.8464 119.148V63.4878H127.537V119.148Z" fill="#BFD3DC"/>
<path d="M15.7097 80.6732C15.7097 78.3538 17.5899 76.4736 19.9093 76.4736H39.7203C42.0396 76.4736 43.9198 78.3538 43.9198 80.6732C43.9198 82.9925 42.0396 84.8727 39.7203 84.8727H19.9093C17.5899 84.8727 15.7097 82.9925 15.7097 80.6732Z" fill="#A7AAFF"/>
<path d="M15.7098 94.9793C15.7098 92.66 17.59 90.7798 19.9094 90.7798H39.7204C42.0398 90.7798 43.92 92.66 43.92 94.9793C43.92 97.2987 42.0398 99.1789 39.7204 99.1789H19.9094C17.59 99.1789 15.7098 97.2987 15.7098 94.9793Z" fill="#A7AAFF"/>
<path d="M19.9094 105.086C17.59 105.086 15.7098 106.966 15.7098 109.285C15.7098 111.605 17.59 113.485 19.9094 113.485H39.7204C42.0398 113.485 43.92 111.605 43.92 109.285C43.92 106.966 42.0398 105.086 39.7204 105.086H19.9094Z" fill="#A7AAFF"/>
<path d="M145.362 93.6969L122.924 55.3354C122.797 55.1155 122.615 54.9329 122.395 54.8059C122.175 54.6788 121.926 54.6118 121.672 54.6116H76.7964C76.5425 54.6118 76.2932 54.6788 76.0734 54.8059C75.8536 54.9329 75.6711 55.1155 75.5442 55.3354L53.1063 93.6969C52.9792 93.917 52.9124 94.1666 52.9124 94.4207C52.9124 94.6748 52.9792 94.9244 53.1063 95.1445L75.5442 133.506C75.6711 133.726 75.8536 133.908 76.0734 134.036C76.2932 134.163 76.5425 134.23 76.7964 134.23H121.672C121.926 134.23 122.175 134.163 122.395 134.036C122.615 133.908 122.797 133.726 122.924 133.506L145.362 95.1445C145.489 94.9244 145.556 94.6748 145.556 94.4207C145.556 94.1666 145.489 93.917 145.362 93.6969ZM99.2342 123.735C93.4365 123.735 87.7689 122.015 82.9482 118.794C78.1276 115.573 74.3703 110.995 72.1516 105.639C69.9329 100.282 69.3524 94.3882 70.4835 88.7018C71.6146 83.0155 74.4065 77.7922 78.5061 73.6926C82.6057 69.5929 87.829 66.8011 93.5154 65.67C99.2017 64.5389 105.096 65.1194 110.452 67.3381C115.809 69.5568 120.387 73.3141 123.608 78.1347C126.829 82.9554 128.548 88.6229 128.548 94.4207C128.539 102.192 125.447 109.643 119.952 115.138C114.456 120.634 107.006 123.725 99.2342 123.735Z" fill="#6164A9"/>
<path d="M121.859 77.0922C122.836 76.0921 124.164 75.5118 125.562 75.4748C126.64 75.4511 127.7 75.7516 128.604 76.3377C129.509 76.9237 130.217 77.7681 130.635 78.7613C131.054 79.7544 131.165 80.8503 130.953 81.9072C130.741 82.964 130.217 83.9329 129.448 84.688L104.363 109.8C103.356 110.804 101.991 111.368 100.569 111.368C99.1465 111.368 97.7821 110.804 96.7743 109.8L82.4293 95.4557C81.9172 94.9596 81.5089 94.3667 81.228 93.7114C80.9471 93.0561 80.7993 92.3513 80.7932 91.6384C80.787 90.9254 80.9227 90.2184 81.1922 89.5583C81.4617 88.8983 81.8598 88.2986 82.3633 87.7938C82.8667 87.2889 83.4655 86.8889 84.1248 86.6175C84.7841 86.3462 85.4908 86.2086 86.2037 86.2128C86.9167 86.2169 87.6217 86.3628 88.2777 86.6419C88.9338 86.921 89.5279 87.3277 90.0254 87.8384L100.583 98.3961L121.859 77.0922Z" fill="#8F92F2"/>
<defs>
<linearGradient id="paint0_linear" x1="80.4404" y1="0.61084" x2="80.4404" y2="160.611" gradientUnits="userSpaceOnUse">
<stop stop-color="#EBEFF0"/>
<stop offset="1" stop-color="white"/>
</linearGradient>
</defs>
</svg>
