<svg width="2770" height="751" fill="none" xmlns="http://www.w3.org/2000/svg"><rect x=".935" y=".967" width="1093.75" height="750" rx="75" fill="#1C2829"/><rect x=".935" y=".967" width="1093.75" height="750" rx="75" fill="url(#paint0_linear)"/><mask id="a" mask-type="alpha" maskUnits="userSpaceOnUse" x="0" y="0" width="1095" height="751"><rect x=".935" y=".967" width="1093.75" height="750" rx="75" fill="#1C2829"/></mask><g mask="url(#a)"><ellipse cx="942.912" cy="363.22" rx="416.893" ry="394.342" fill="#4B777D"/><ellipse cx="942.912" cy="363.22" rx="416.893" ry="394.342" fill="url(#paint1_linear)" style="mix-blend-mode:overlay"/><ellipse cx="126.522" cy="378.994" rx="416.893" ry="394.342" fill="#CB933F"/><ellipse cx="126.522" cy="378.994" rx="416.893" ry="394.342" fill="url(#paint2_linear)" style="mix-blend-mode:overlay"/><ellipse cx="1123.26" cy="558.402" rx="257.812" ry="243.867" fill="#2F4F59" fill-opacity=".75"/><ellipse cx="1123.26" cy="558.402" rx="257.812" ry="243.867" fill="url(#paint3_linear)" style="mix-blend-mode:overlay"/><ellipse cx="-17.75" cy="226.92" rx="257.812" ry="243.867" fill="#9B801F" fill-opacity=".6"/><ellipse cx="-17.75" cy="226.92" rx="257.812" ry="243.867" fill="url(#paint4_linear)" fill-opacity=".7" style="mix-blend-mode:overlay"/><mask id="b" mask-type="alpha" maskUnits="userSpaceOnUse" x="552" y="204" width="352" height="351"><path fill-rule="evenodd" clip-rule="evenodd" d="M691.805 328.433c.63-.63.184-1.707-.707-1.707H557.387a5 5 0 01-5-5V209.012a5 5 0 015-5h284.254c24.817 0 47.19 14.949 56.687 37.877 9.497 22.927 4.247 49.318-13.301 66.866L763.58 430.202c-.63.63-.184 1.708.707 1.708h133.711a5 5 0 015 5v112.714a5 5 0 01-5 5H613.744c-24.817 0-47.19-14.95-56.687-37.877-9.497-22.928-4.247-49.318 13.301-66.866l121.447-121.448z" fill="#fff"/></mask><g mask="url(#b)"><path fill="#fff" d="M547.449 190.974h364.097v372.428H547.449z"/><path d="M633.74 560.046l134.909-134.909h141.033v134.909H633.74z" fill="url(#paint5_linear)" fill-opacity=".5"/></g><mask id="c" mask-type="alpha" maskUnits="userSpaceOnUse" x="193" y="197" width="351" height="351"><path fill-rule="evenodd" clip-rule="evenodd" d="M415.898 424.898a5 5 0 005-5.001v-47.591c0-29.046-23.547-52.592-52.592-52.592-29.046 0-52.592 23.546-52.592 52.592 0 29.045 23.546 52.592 52.592 52.592h47.592zM368.306 197C271.487 197 193 275.487 193 372.306c0 96.818 78.487 175.306 175.306 175.306h170.306a5 5 0 005-5V372.306c0-96.819-78.488-175.306-175.306-175.306z" fill="#fff"/></mask><g mask="url(#c)"><path fill="#fff" d="M186.317 185.715h364.097v372.428H186.317z"/><path d="M420.87 552.936V415.274h-63.026l-34.919-26.387-102.941 90.573 50.561 47.287 66.202 26.189h84.123z" fill="url(#paint6_linear)" fill-opacity=".7"/></g></g><circle cx="1094.68" cy="392.66" r="78.125" fill="#fff"/><path d="M1301.09 278.635c19.08 0 36.11 4.77 51.1 14.31 15.26 9.267 27.26 22.214 35.98 38.84 8.72 16.627 13.08 35.842 13.08 57.648 0 21.532-4.36 40.748-13.08 57.647-8.72 16.626-20.58 29.709-35.57 39.249-14.99 9.54-31.75 14.309-50.29 14.309-15.26 0-29.16-3.27-41.7-9.812-10.46-5.578-19.03-11.849-25.73-18.814-1.16-1.21-3.3-.411-3.3 1.266v111.83c0 .992-.8 1.797-1.79 1.797h-38.93c-.99 0-1.8-.77-1.8-1.763V429.09c.01-16.678 1.49-70.11 13.02-92.217 11.53-22.106 22.66-32.561 38.34-42.848 25.3-15.39 45.67-15.39 60.67-15.39zm-5.73 38.841c-12.81 0-24.26 3.134-34.34 9.403-9.81 6.269-17.58 14.855-23.31 25.757-5.45 10.63-8.17 22.896-8.17 36.797 0 13.628 2.72 25.893 8.17 36.796 5.73 10.902 13.5 19.624 23.31 26.166 10.08 6.269 21.53 9.403 34.34 9.403 12.81 0 24.12-3.134 33.94-9.403 9.81-6.542 17.44-15.264 22.89-26.166 5.73-10.903 8.59-23.168 8.59-36.796 0-13.901-2.86-26.167-8.59-36.797-5.45-10.902-13.08-19.488-22.89-25.757-9.82-6.269-21.13-9.403-33.94-9.403zM1636.13 282.315c.99 0 1.8.805 1.8 1.797v211.05c0 .992-.81 1.797-1.8 1.797h-38.93c-.99 0-1.79-.805-1.79-1.797v-25.794c0-1.74-2.3-2.516-3.43-1.195-6.33 7.389-14.87 14.395-25.6 21.018-12.81 7.904-27.67 11.856-44.57 11.856-17.98 0-34.47-4.77-49.47-14.309-14.71-9.54-26.43-22.759-35.16-39.658-8.72-16.899-13.08-36.251-13.08-58.056s4.5-41.021 13.49-57.648c9-16.898 21.4-29.981 37.21-39.249 15.81-9.539 33.8-14.309 53.97-14.309 14.99 0 28.07 3.271 39.24 9.812 9.67 5.522 17.68 11.822 24.04 18.898 1.15 1.271 3.36.488 3.36-1.221v-21.195c0-.992.8-1.797 1.79-1.797h38.93zm-104.5 179.892c13.08 0 24.53-3.135 34.34-9.403 9.81-6.542 17.44-15.264 22.9-26.167 5.45-11.175 8.17-23.713 8.17-37.613 0-13.629-2.72-25.894-8.17-36.796-5.46-10.903-13.09-19.489-22.9-25.758-9.81-6.541-21.26-9.812-34.34-9.812-12.54 0-23.72 3.135-33.53 9.404-9.81 6.268-17.44 14.854-22.89 25.757-5.45 10.902-8.18 23.304-8.18 37.205 0 13.9 2.73 26.438 8.18 37.613 5.45 10.903 13.08 19.625 22.89 26.167 9.81 6.268 20.99 9.403 33.53 9.403zM1808.47 325.5c-.27 1.124-1.52 1.704-2.59 1.271-2.32-.94-5.04-1.722-8.16-2.345-3.82-1.09-7.91-1.635-12.27-1.635-8.72 0-17.3 2.317-25.75 6.95-8.45 4.361-15.54 10.766-21.26 19.216-5.45 8.177-8.18 17.989-8.18 29.437v116.768c0 .992-.81 1.797-1.8 1.797h-38.92c-1 0-1.8-.805-1.8-1.797v-211.05c0-.992.8-1.797 1.8-1.797h38.92c.99 0 1.8.805 1.8 1.797v30.446c0 1.929 2.82 2.596 3.8.932 5.77-9.843 13.5-18.176 23.18-24.998 12.27-8.45 25.08-12.674 38.43-12.674 9.32 0 16.65 1.162 22.01 3.486.77.332 1.16 1.178.96 1.991l-10.17 42.205zM1920.32 495.162c0 .992-.8 1.797-1.79 1.797h-38.52c-.99 0-1.8-.805-1.8-1.797V324.996c0-.992-.8-1.796-1.8-1.796h-40.97c-.99 0-1.79-.805-1.79-1.797v-37.291c0-.992.8-1.797 1.79-1.797h40.97c1 0 1.8-.804 1.8-1.797v-51.191a1.8 1.8 0 011.8-1.797h38.52c.99 0 1.79.804 1.79 1.797v51.191a1.8 1.8 0 001.8 1.797h46.28c1 0 1.8.805 1.8 1.797v37.291c0 .992-.8 1.797-1.8 1.797h-46.28a1.8 1.8 0 00-1.8 1.796v170.166zM2111.99 277.818c19.36 0 34.35 3.952 44.98 11.856 10.63 7.905 17.99 18.535 22.07 31.89 4.37 13.356 6.55 28.211 6.55 44.564v129.034c0 .992-.81 1.797-1.8 1.797h-38.52c-.99 0-1.79-.805-1.79-1.797V368.99c0-10.357-1.37-19.624-4.09-27.801-2.73-8.177-7.36-14.582-13.9-19.216-6.55-4.634-15.68-6.541-27.4-5.724-10.9 0-20.57 2.317-29.02 6.951-8.45 4.633-15.13 10.766-20.04 18.398-4.9 7.631-7.36 16.081-7.36 25.348v128.216c0 .992-.8 1.797-1.79 1.797h-38.52c-.99 0-1.8-.805-1.8-1.797v-211.05c0-.992.81-1.797 1.8-1.797h38.52c.99 0 1.79.805 1.79 1.797v26.065c0 1.79 2.43 2.541 3.53 1.129 6.28-8.062 14.65-15.273 25.09-21.632 12.54-7.904 26.44-11.856 41.7-11.856zM2417.93 468.47c.08.118-.01.279-.15.279-.04 0-.09.017-.12.049-8.72 8.43-20.7 15.908-35.93 22.437-15.26 6.541-31.21 9.812-47.83 9.812-22.35 0-42.11-4.633-59.29-13.9-16.9-9.54-30.11-22.487-39.65-38.841-9.54-16.626-14.31-35.433-14.31-56.42 0-23.986 5.04-44.428 15.12-61.327 10.09-17.172 23.44-30.255 40.07-39.249 16.63-9.268 34.75-13.901 54.38-13.901 17.99 0 34.34 4.497 49.06 13.492 14.72 8.722 26.44 20.851 35.16 36.387 8.72 15.536 13.08 33.662 13.08 54.376l-.37 16.234a1.794 1.794 0 01-1.79 1.756H2264.8c-1.09 0-1.92.95-1.76 2.021 2.73 18.406 10.54 33.132 23.43 44.178 13.63 11.175 30.8 16.763 51.51 16.763 15 0 27.12-2.726 36.39-8.177 8.49-5.246 15.61-10.262 21.36-15.05.83-.688 2.07-.524 2.67.364l19.53 28.717zm-87.71-152.221c-16.08 0-30.12 3.816-42.11 11.448-11.52 7.065-19.26 19.155-23.24 36.27-.26 1.11.59 2.161 1.73 2.161h116.2c.99 0 1.79-.804 1.79-1.797v-1.065c-.81-9.267-3.95-17.444-9.4-24.53-5.18-7.087-11.72-12.538-19.63-16.354-7.9-4.089-16.35-6.133-25.34-6.133zM2585.03 325.5c-.27 1.124-1.52 1.704-2.59 1.271-2.32-.94-5.04-1.722-8.16-2.345-3.81-1.09-7.9-1.635-12.26-1.635-8.73 0-17.31 2.317-25.76 6.95-8.45 4.361-15.54 10.766-21.26 19.216-5.45 8.177-8.18 17.989-8.18 29.437v116.768c0 .992-.8 1.797-1.79 1.797h-38.93c-.99 0-1.8-.805-1.8-1.797v-211.05c0-.992.81-1.797 1.8-1.797h38.93c.99 0 1.79.805 1.79 1.797v30.446c0 1.929 2.82 2.596 3.8.932 5.77-9.843 13.5-18.176 23.19-24.998 12.26-8.45 25.07-12.674 38.43-12.674 9.31 0 16.65 1.162 22.01 3.486.76.332 1.15 1.178.96 1.991l-10.18 42.205zM2745.36 337.339a1.82 1.82 0 01-2.61.076c-7.31-7.037-15.58-12.866-24.82-17.486-9.54-4.906-18.4-7.359-26.58-7.359-5.72 0-11.44.681-17.17 2.044-5.45 1.363-10.08 3.952-13.9 7.768-3.82 3.543-5.72 8.858-5.72 15.945.27 9.812 4.63 16.762 13.08 20.851 8.72 4.088 19.49 7.768 32.3 11.039a232.854 232.854 0 0132.71 11.447c10.63 4.361 19.35 10.903 26.16 19.625 7.09 8.45 10.63 20.442 10.63 35.978 0 13.356-3.81 24.804-11.45 34.343-7.35 9.54-17.03 16.899-29.02 22.078-11.72 4.906-24.13 7.359-37.21 7.359-15.53 0-30.93-2.725-46.2-8.177-14.49-5.533-26.95-14.761-37.36-27.683-.61-.748-.5-1.836.23-2.461l25.97-22.254a1.814 1.814 0 012.53.174c7.07 7.821 14.99 14.054 23.76 18.699 9.54 4.634 21.12 6.95 34.75 6.95 5.18 0 10.36-.817 15.54-2.453 5.18-1.908 9.54-4.769 13.08-8.585 3.82-4.089 5.72-9.54 5.72-16.354 0-6.542-2.04-11.584-6.13-15.127-3.81-3.816-8.99-6.815-15.53-8.995-6.55-2.453-13.77-4.634-21.67-6.542a326.722 326.722 0 01-34.76-11.856c-11.17-4.906-20.57-11.72-28.21-20.442-7.35-8.995-11.03-21.124-11.03-36.388 0-12.81 3.54-23.713 10.63-32.707 7.35-9.267 16.89-16.354 28.61-21.26 11.72-5.179 24.26-7.768 37.62-7.768 12.81 0 26.71 2.725 41.7 8.177 14.49 5.269 26.56 13.594 36.21 24.976.58.678.55 1.678-.05 2.337l-21.81 24.031z" fill="#fff"/><defs><linearGradient id="paint0_linear" x1="547.81" y1=".967" x2="547.81" y2="750.967" gradientUnits="userSpaceOnUse"><stop stop-color="#4C6D7E"/><stop offset="1" stop-color="#292828" stop-opacity="0"/></linearGradient><linearGradient id="paint1_linear" x1="1265.44" y1="-31.122" x2="975.761" y2="450.782" gradientUnits="userSpaceOnUse"><stop stop-color="#fff"/><stop offset="1" stop-color="#894848" stop-opacity="0"/></linearGradient><linearGradient id="paint2_linear" x1="449.054" y1="-15.348" x2="159.37" y2="466.556" gradientUnits="userSpaceOnUse"><stop stop-color="#fff"/><stop offset="1" stop-color="#894848" stop-opacity="0"/></linearGradient><linearGradient id="paint3_linear" x1="1322.72" y1="314.536" x2="1143.58" y2="612.552" gradientUnits="userSpaceOnUse"><stop stop-color="#fff"/><stop offset="1" stop-color="#894848" stop-opacity="0"/></linearGradient><linearGradient id="paint4_linear" x1="160.307" y1="-83.923" x2="-202.194" y2="336.904" gradientUnits="userSpaceOnUse"><stop offset=".044" stop-color="#C55454" stop-opacity="0"/><stop offset="1" stop-color="#FFDCDC"/></linearGradient><linearGradient id="paint5_linear" x1="909.682" y1="556.158" x2="838.464" y2="424.032" gradientUnits="userSpaceOnUse"><stop stop-color="#7B9191" stop-opacity="0"/><stop offset="1" stop-color="#7B9191"/></linearGradient><linearGradient id="paint6_linear" x1="420.87" y1="548.208" x2="317.767" y2="433.692" gradientUnits="userSpaceOnUse"><stop stop-color="#7B9191"/><stop offset="1" stop-color="#7B9191" stop-opacity="0"/></linearGradient></defs></svg>